<svg xmlns="http://www.w3.org/2000/svg" xmlns:xlink="http://www.w3.org/1999/xlink" width="100" zoomAndPan="magnify" viewBox="0 0 75 74.999997" height="100" preserveAspectRatio="xMidYMid meet" version="1.0"><path fill="#ffed95" d="M 71.589844 27.273438 L 71.589844 20.453125 L 68.183594 20.453125 L 68.183594 13.636719 L 64.773438 13.636719 L 64.773438 10.226562 L 61.363281 10.226562 L 61.363281 6.816406 L 54.546875 6.816406 L 54.546875 3.410156 L 47.726562 3.410156 L 47.726562 0 L 27.273438 0 L 27.273438 3.410156 L 20.453125 3.410156 L 20.453125 6.816406 L 13.636719 6.816406 L 13.636719 10.226562 L 10.226562 10.226562 L 10.226562 13.636719 L 6.816406 13.636719 L 6.816406 20.453125 L 3.410156 20.453125 L 3.410156 27.273438 L 0 27.273438 L 0 47.726562 L 3.410156 47.726562 L 3.410156 54.546875 L 6.816406 54.546875 L 6.816406 61.363281 L 10.226562 61.363281 L 10.226562 64.773438 L 13.636719 64.773438 L 13.636719 68.183594 L 20.453125 68.183594 L 20.453125 71.589844 L 27.273438 71.589844 L 27.273438 75 L 47.726562 75 L 47.726562 71.589844 L 54.546875 71.589844 L 54.546875 68.183594 L 61.363281 68.183594 L 61.363281 64.773438 L 64.773438 64.773438 L 64.773438 61.363281 L 68.183594 61.363281 L 68.183594 54.546875 L 71.589844 54.546875 L 71.589844 47.726562 L 75 47.726562 L 75 27.273438 Z M 71.589844 27.273438 " fill-opacity="1" fill-rule="nonzero"/><path fill="#f7e05a" d="M 71.589844 27.273438 L 71.589844 34.089844 L 68.183594 34.089844 L 68.183594 40.910156 L 71.589844 40.910156 L 71.589844 47.726562 L 75 47.726562 L 75 27.273438 Z M 71.589844 27.273438 " fill-opacity="1" fill-rule="nonzero"/><path fill="#f7e05a" d="M 64.773438 57.953125 L 61.363281 57.953125 L 61.363281 61.363281 L 54.546875 61.363281 L 54.546875 57.953125 L 44.316406 57.953125 L 44.316406 54.546875 L 40.910156 54.546875 L 40.910156 51.136719 L 37.5 51.136719 L 37.5 47.726562 L 40.910156 47.726562 L 40.910156 44.316406 L 37.5 44.316406 L 37.5 40.910156 L 44.316406 40.910156 L 44.316406 44.316406 L 47.726562 44.316406 L 47.726562 51.136719 L 54.546875 51.136719 L 54.546875 40.910156 L 51.136719 40.910156 L 51.136719 37.5 L 47.726562 37.5 L 47.726562 34.089844 L 37.5 34.089844 L 37.5 37.5 L 30.683594 37.5 L 30.683594 44.316406 L 34.089844 44.316406 L 34.089844 54.546875 L 30.683594 54.546875 L 30.683594 64.773438 L 34.089844 64.773438 L 34.089844 61.363281 L 40.910156 61.363281 L 40.910156 64.773438 L 47.726562 64.773438 L 47.726562 68.183594 L 40.910156 68.183594 L 40.910156 64.773438 L 34.089844 64.773438 L 34.089844 68.183594 L 30.683594 68.183594 L 30.683594 64.773438 L 23.863281 64.773438 L 23.863281 61.363281 L 20.453125 61.363281 L 20.453125 54.546875 L 23.863281 54.546875 L 23.863281 47.726562 L 20.453125 47.726562 L 20.453125 44.316406 L 17.046875 44.316406 L 17.046875 54.546875 L 10.226562 54.546875 L 10.226562 40.910156 L 6.816406 40.910156 L 6.816406 34.089844 L 10.226562 34.089844 L 10.226562 23.863281 L 13.636719 23.863281 L 13.636719 17.046875 L 17.046875 17.046875 L 17.046875 13.636719 L 20.453125 13.636719 L 20.453125 10.226562 L 27.273438 10.226562 L 27.273438 6.816406 L 34.089844 6.816406 L 34.089844 3.410156 L 47.726562 3.410156 L 47.726562 0 L 27.273438 0 L 27.273438 3.410156 L 20.453125 3.410156 L 20.453125 6.816406 L 13.636719 6.816406 L 13.636719 10.226562 L 10.226562 10.226562 L 10.226562 13.636719 L 6.816406 13.636719 L 6.816406 20.453125 L 3.410156 20.453125 L 3.410156 27.273438 L 0 27.273438 L 0 47.726562 L 3.410156 47.726562 L 3.410156 54.546875 L 6.816406 54.546875 L 6.816406 61.363281 L 10.226562 61.363281 L 10.226562 64.773438 L 13.636719 64.773438 L 13.636719 68.183594 L 20.453125 68.183594 L 20.453125 71.589844 L 27.273438 71.589844 L 27.273438 75 L 47.726562 75 L 47.726562 71.589844 L 54.546875 71.589844 L 54.546875 68.183594 L 61.363281 68.183594 L 61.363281 64.773438 L 64.773438 64.773438 L 64.773438 61.363281 L 68.183594 61.363281 L 68.183594 54.546875 L 64.773438 54.546875 Z M 64.773438 57.953125 " fill-opacity="1" fill-rule="nonzero"/><path fill="#f7e05a" d="M 68.183594 27.273438 L 71.589844 27.273438 L 71.589844 20.453125 L 64.773438 20.453125 L 64.773438 23.863281 L 68.183594 23.863281 Z M 68.183594 27.273438 " fill-opacity="1" fill-rule="nonzero"/><path fill="#f7e05a" d="M 20.453125 40.910156 L 23.863281 40.910156 L 23.863281 44.316406 L 20.453125 44.316406 Z M 20.453125 40.910156 " fill-opacity="1" fill-rule="nonzero"/><path fill="#f7e05a" d="M 23.863281 34.089844 L 27.273438 34.089844 L 27.273438 37.5 L 23.863281 37.5 Z M 23.863281 34.089844 " fill-opacity="1" fill-rule="nonzero"/><path fill="#f7e05a" d="M 27.273438 47.726562 L 30.683594 47.726562 L 30.683594 51.136719 L 27.273438 51.136719 Z M 27.273438 47.726562 " fill-opacity="1" fill-rule="nonzero"/><path fill="#f7e05a" d="M 40.910156 47.726562 L 44.316406 47.726562 L 44.316406 51.136719 L 40.910156 51.136719 Z M 40.910156 47.726562 " fill-opacity="1" fill-rule="nonzero"/><path fill="#f7e05a" d="M 61.363281 37.5 L 64.773438 37.5 L 64.773438 23.863281 L 57.953125 23.863281 L 57.953125 27.273438 L 61.363281 27.273438 L 61.363281 30.683594 L 57.953125 30.683594 L 57.953125 34.089844 L 54.546875 34.089844 L 54.546875 40.910156 L 61.363281 40.910156 Z M 61.363281 37.5 " fill-opacity="1" fill-rule="nonzero"/><path fill="#f7e05a" d="M 44.316406 27.273438 L 47.726562 27.273438 L 47.726562 30.683594 L 44.316406 30.683594 Z M 44.316406 27.273438 " fill-opacity="1" fill-rule="nonzero"/><path fill="#f7e05a" d="M 68.183594 44.316406 L 68.183594 40.910156 L 61.363281 40.910156 L 61.363281 44.316406 L 57.953125 44.316406 L 57.953125 51.136719 L 54.546875 51.136719 L 54.546875 57.953125 L 61.363281 57.953125 L 61.363281 51.136719 L 68.183594 51.136719 L 68.183594 54.546875 L 71.589844 54.546875 L 71.589844 47.726562 L 68.183594 47.726562 Z M 68.183594 44.316406 " fill-opacity="1" fill-rule="nonzero"/><path fill="#f7e05a" d="M 30.683594 13.636719 L 34.089844 13.636719 L 34.089844 17.046875 L 30.683594 17.046875 Z M 30.683594 13.636719 " fill-opacity="1" fill-rule="nonzero"/><path fill="#f7e05a" d="M 20.453125 20.453125 L 27.273438 20.453125 L 27.273438 27.273438 L 20.453125 27.273438 Z M 20.453125 20.453125 " fill-opacity="1" fill-rule="nonzero"/><path fill="#f7e05a" d="M 40.910156 10.226562 L 47.726562 10.226562 L 47.726562 17.046875 L 40.910156 17.046875 Z M 40.910156 10.226562 " fill-opacity="1" fill-rule="nonzero"/><path fill="#f7e05a" d="M 57.953125 13.636719 L 64.773438 13.636719 L 64.773438 20.453125 L 57.953125 20.453125 Z M 57.953125 13.636719 " fill-opacity="1" fill-rule="nonzero"/><path fill="#f0cc4c" d="M 54.546875 6.816406 L 57.953125 6.816406 L 57.953125 10.226562 L 54.546875 10.226562 Z M 54.546875 6.816406 " fill-opacity="1" fill-rule="nonzero"/><path fill="#f0cc4c" d="M 3.410156 20.453125 L 6.816406 20.453125 L 6.816406 27.273438 L 3.410156 27.273438 Z M 3.410156 20.453125 " fill-opacity="1" fill-rule="nonzero"/><path fill="#f0cc4c" d="M 6.816406 13.636719 L 10.226562 13.636719 L 10.226562 20.453125 L 6.816406 20.453125 Z M 6.816406 13.636719 " fill-opacity="1" fill-rule="nonzero"/><path fill="#f0cc4c" d="M 10.226562 10.226562 L 13.636719 10.226562 L 13.636719 13.636719 L 10.226562 13.636719 Z M 10.226562 10.226562 " fill-opacity="1" fill-rule="nonzero"/><path fill="#f0cc4c" d="M 13.636719 6.816406 L 20.453125 6.816406 L 20.453125 10.226562 L 13.636719 10.226562 Z M 13.636719 6.816406 " fill-opacity="1" fill-rule="nonzero"/><path fill="#f0cc4c" d="M 20.453125 3.410156 L 27.273438 3.410156 L 27.273438 6.816406 L 20.453125 6.816406 Z M 20.453125 3.410156 " fill-opacity="1" fill-rule="nonzero"/><path fill="#f0cc4c" d="M 27.273438 0 L 34.089844 0 L 34.089844 3.410156 L 27.273438 3.410156 Z M 27.273438 0 " fill-opacity="1" fill-rule="nonzero"/><path fill="#f0cc4c" d="M 3.410156 44.316406 L 3.410156 27.273438 L 0 27.273438 L 0 47.726562 L 3.410156 47.726562 L 3.410156 54.546875 L 6.816406 54.546875 L 6.816406 44.316406 Z M 3.410156 44.316406 " fill-opacity="1" fill-rule="nonzero"/><path fill="#f0cc4c" d="M 6.816406 54.546875 L 10.226562 54.546875 L 10.226562 61.363281 L 6.816406 61.363281 Z M 6.816406 54.546875 " fill-opacity="1" fill-rule="nonzero"/><path fill="#f0cc4c" d="M 6.816406 40.910156 L 10.226562 40.910156 L 10.226562 44.316406 L 6.816406 44.316406 Z M 6.816406 40.910156 " fill-opacity="1" fill-rule="nonzero"/><path fill="#f0cc4c" d="M 6.816406 27.273438 L 10.226562 27.273438 L 10.226562 34.089844 L 6.816406 34.089844 Z M 6.816406 27.273438 " fill-opacity="1" fill-rule="nonzero"/><path fill="#f0cc4c" d="M 17.046875 64.773438 L 17.046875 61.363281 L 10.226562 61.363281 L 10.226562 64.773438 L 13.636719 64.773438 L 13.636719 68.183594 L 20.453125 68.183594 L 20.453125 64.773438 Z M 17.046875 64.773438 " fill-opacity="1" fill-rule="nonzero"/><path fill="#f0cc4c" d="M 20.453125 68.183594 L 27.273438 68.183594 L 27.273438 71.589844 L 20.453125 71.589844 Z M 20.453125 68.183594 " fill-opacity="1" fill-rule="nonzero"/><path fill="#f0cc4c" d="M 27.273438 71.589844 L 47.726562 71.589844 L 47.726562 75 L 27.273438 75 Z M 27.273438 71.589844 " fill-opacity="1" fill-rule="nonzero"/><path fill="#f0cc4c" d="M 47.726562 68.183594 L 54.546875 68.183594 L 54.546875 71.589844 L 47.726562 71.589844 Z M 47.726562 68.183594 " fill-opacity="1" fill-rule="nonzero"/><path fill="#f0cc4c" d="M 54.546875 64.773438 L 61.363281 64.773438 L 61.363281 68.183594 L 54.546875 68.183594 Z M 54.546875 64.773438 " fill-opacity="1" fill-rule="nonzero"/><path fill="#f0cc4c" d="M 61.363281 61.363281 L 64.773438 61.363281 L 64.773438 64.773438 L 61.363281 64.773438 Z M 61.363281 61.363281 " fill-opacity="1" fill-rule="nonzero"/><path fill="#f0cc4c" d="M 64.773438 57.953125 L 68.183594 57.953125 L 68.183594 61.363281 L 64.773438 61.363281 Z M 64.773438 57.953125 " fill-opacity="1" fill-rule="nonzero"/></svg>