<svg xmlns="http://www.w3.org/2000/svg" xmlns:xlink="http://www.w3.org/1999/xlink" width="100" zoomAndPan="magnify" viewBox="0 0 75 74.999997" height="100" preserveAspectRatio="xMidYMid meet" version="1.0"><defs><clipPath id="da46543123"><path d="M 10.773438 0 L 64.023438 0 L 64.023438 75 L 10.773438 75 Z M 10.773438 0 " clip-rule="nonzero"/></clipPath></defs><g clip-path="url(#da46543123)"><path fill="#887be9" d="M 64.03125 32.140625 L 64.03125 37.488281 L 58.707031 37.488281 L 58.707031 40.15625 L 56.042969 40.15625 L 56.042969 42.832031 L 48.054688 42.832031 L 48.054688 45.507812 L 45.390625 45.507812 L 45.390625 50.851562 L 42.730469 50.851562 L 42.730469 58.871094 L 40.066406 58.871094 L 40.066406 66.890625 L 37.402344 66.890625 L 37.402344 58.871094 L 34.738281 58.871094 L 34.738281 53.523438 L 32.074219 53.523438 L 32.074219 48.175781 L 29.410156 48.175781 L 29.410156 45.507812 L 26.75 45.507812 L 26.75 42.832031 L 24.085938 42.832031 L 24.085938 40.15625 L 18.761719 40.15625 L 18.761719 37.488281 L 10.773438 37.488281 L 10.773438 32.140625 L 18.761719 32.140625 L 18.761719 29.46875 L 24.085938 29.46875 L 24.085938 26.792969 L 26.75 26.792969 L 26.75 24.121094 L 29.410156 24.121094 L 29.410156 18.773438 L 32.074219 18.773438 L 32.074219 10.753906 L 34.738281 10.753906 L 34.738281 2.738281 L 37.402344 2.738281 L 37.402344 8.082031 L 40.066406 8.082031 L 40.066406 24.121094 L 42.730469 24.121094 L 42.730469 26.792969 L 48.054688 26.792969 L 48.054688 29.46875 L 56.042969 29.46875 L 56.042969 32.140625 Z M 58.707031 24.121094 L 58.707031 18.773438 L 53.378906 18.773438 L 53.378906 24.121094 Z M 45.390625 58.867188 L 48.054688 58.867188 L 48.054688 56.199219 L 45.390625 56.199219 Z M 38.734375 74.921875 L 41.398438 74.921875 L 41.398438 72.25 L 38.734375 72.25 Z M 24.085938 6.746094 L 21.425781 6.746094 L 21.425781 9.417969 L 24.085938 9.417969 Z M 32.074219 5.410156 L 32.074219 0.0625 L 26.75 0.0625 L 26.75 5.410156 Z M 16.097656 53.523438 L 16.097656 58.871094 L 21.421875 58.871094 L 21.421875 53.523438 Z M 16.097656 53.523438 " fill-opacity="1" fill-rule="nonzero"/></g></svg>