<svg xmlns="http://www.w3.org/2000/svg" xmlns:xlink="http://www.w3.org/1999/xlink" width="100" zoomAndPan="magnify" viewBox="0 0 75 74.999997" height="100" preserveAspectRatio="xMidYMid meet" version="1.0"><defs><clipPath id="3b80a35397"><path d="M 10.773438 0 L 64.023438 0 L 64.023438 75 L 10.773438 75 Z M 10.773438 0 " clip-rule="nonzero"/></clipPath></defs><g clip-path="url(#3b80a35397)"><path fill="#ff63d8" d="M 64.230469 32.140625 L 64.230469 37.488281 L 58.886719 37.488281 L 58.886719 40.15625 L 56.210938 40.15625 L 56.210938 42.832031 L 48.195312 42.832031 L 48.195312 45.507812 L 45.519531 45.507812 L 45.519531 50.851562 L 42.847656 50.851562 L 42.847656 58.871094 L 40.175781 58.871094 L 40.175781 66.890625 L 37.5 66.890625 L 37.5 58.871094 L 34.828125 58.871094 L 34.828125 53.523438 L 32.15625 53.523438 L 32.15625 48.175781 L 29.480469 48.175781 L 29.480469 45.507812 L 26.8125 45.507812 L 26.8125 42.832031 L 24.136719 42.832031 L 24.136719 40.15625 L 18.792969 40.15625 L 18.792969 37.488281 L 10.773438 37.488281 L 10.773438 32.140625 L 18.792969 32.140625 L 18.792969 29.46875 L 24.136719 29.46875 L 24.136719 26.792969 L 26.8125 26.792969 L 26.8125 24.121094 L 29.480469 24.121094 L 29.480469 18.773438 L 32.15625 18.773438 L 32.15625 10.753906 L 34.828125 10.753906 L 34.828125 2.738281 L 37.5 2.738281 L 37.5 8.082031 L 40.175781 8.082031 L 40.175781 24.121094 L 42.847656 24.121094 L 42.847656 26.792969 L 48.195312 26.792969 L 48.195312 29.46875 L 56.210938 29.46875 L 56.210938 32.140625 Z M 58.886719 24.121094 L 58.886719 18.773438 L 53.539062 18.773438 L 53.539062 24.121094 Z M 45.519531 58.867188 L 48.195312 58.867188 L 48.195312 56.199219 L 45.519531 56.199219 Z M 38.835938 74.921875 L 41.511719 74.921875 L 41.511719 72.25 L 38.835938 72.25 Z M 24.136719 6.746094 L 21.464844 6.746094 L 21.464844 9.417969 L 24.136719 9.417969 Z M 32.15625 5.410156 L 32.15625 0.0625 L 26.8125 0.0625 L 26.8125 5.410156 Z M 16.117188 53.523438 L 16.117188 58.871094 L 21.460938 58.871094 L 21.460938 53.523438 Z M 16.117188 53.523438 " fill-opacity="1" fill-rule="nonzero"/></g></svg>