<svg xmlns="http://www.w3.org/2000/svg" xmlns:xlink="http://www.w3.org/1999/xlink" width="400" zoomAndPan="magnify" viewBox="0 0 300 449.999984" height="600" preserveAspectRatio="xMidYMid meet" version="1.0"><defs><clipPath id="94495eb45c"><path d="M 34.226562 0 L 265.976562 0 L 265.976562 450 L 34.226562 450 Z M 34.226562 0 " clip-rule="nonzero"/></clipPath><clipPath id="18eac833de"><path d="M 34.226562 154 L 265.976562 154 L 265.976562 322 L 34.226562 322 Z M 34.226562 154 " clip-rule="nonzero"/></clipPath><clipPath id="b747d4870e"><path d="M 34.226562 231 L 48 231 L 48 322 L 34.226562 322 Z M 34.226562 231 " clip-rule="nonzero"/></clipPath><clipPath id="9534d5fca9"><path d="M 253 231 L 265.976562 231 L 265.976562 322 L 253 322 Z M 253 231 " clip-rule="nonzero"/></clipPath></defs><g clip-path="url(#94495eb45c)"><path fill="#160059" d="M 253.054688 231.429688 L 253.054688 192.855469 L 240.183594 192.855469 L 240.183594 180 L 227.316406 180 L 227.316406 167.144531 L 214.445312 167.144531 L 214.445312 141.429688 L 227.316406 141.429688 L 227.316406 102.855469 L 240.183594 102.855469 L 240.183594 90 L 227.316406 90 L 227.316406 77.144531 L 214.445312 77.144531 L 214.445312 25.714844 L 201.578125 25.714844 L 201.578125 12.855469 L 175.839844 12.855469 L 175.839844 0 L 124.363281 0 L 124.363281 12.855469 L 98.625 12.855469 L 98.625 25.714844 L 85.757812 25.714844 L 85.757812 77.144531 L 72.890625 77.144531 L 72.890625 90 L 60.019531 90 L 60.019531 102.855469 L 72.890625 102.855469 L 72.890625 141.429688 L 85.757812 141.429688 L 85.757812 167.144531 L 72.890625 167.144531 L 72.890625 180 L 60.019531 180 L 60.019531 192.855469 L 47.152344 192.855469 L 47.152344 231.429688 L 34.28125 231.429688 L 34.28125 321.429688 L 47.152344 321.429688 L 47.152344 347.144531 L 60.019531 347.144531 L 60.019531 360 L 85.757812 360 L 85.757812 411.429688 L 72.890625 411.429688 L 72.890625 437.144531 L 85.757812 437.144531 L 85.757812 450 L 124.363281 450 L 124.363281 437.144531 L 175.839844 437.144531 L 175.839844 450 L 214.445312 450 L 214.445312 437.144531 L 227.316406 437.144531 L 227.316406 411.429688 L 214.445312 411.429688 L 214.445312 360 L 240.183594 360 L 240.183594 347.144531 L 253.054688 347.144531 L 253.054688 321.429688 L 265.921875 321.429688 L 265.921875 231.429688 Z M 253.054688 231.429688 " fill-opacity="1" fill-rule="nonzero"/></g><path fill="#473760" d="M 85.757812 295.714844 L 214.445312 295.714844 L 214.445312 424.285156 L 85.757812 424.285156 Z M 85.757812 295.714844 " fill-opacity="1" fill-rule="nonzero"/><path fill="#b7501d" d="M 214.445312 90 L 85.757812 90 L 85.757812 154.285156 L 98.625 154.285156 L 98.625 167.144531 L 111.496094 167.144531 L 111.496094 180 L 188.707031 180 L 188.707031 167.144531 L 201.578125 167.144531 L 201.578125 154.285156 L 214.445312 154.285156 Z M 214.445312 90 " fill-opacity="1" fill-rule="nonzero"/><path fill="#473760" d="M 60.019531 90 L 240.183594 90 L 240.183594 102.855469 L 60.019531 102.855469 Z M 60.019531 90 " fill-opacity="1" fill-rule="nonzero"/><path fill="#473760" d="M 85.757812 25.714844 L 214.445312 25.714844 L 214.445312 90 L 85.757812 90 Z M 85.757812 25.714844 " fill-opacity="1" fill-rule="nonzero"/><path fill="#473760" d="M 98.625 12.855469 L 201.578125 12.855469 L 201.578125 25.714844 L 98.625 25.714844 Z M 98.625 12.855469 " fill-opacity="1" fill-rule="nonzero"/><path fill="#473760" d="M 124.363281 0 L 175.839844 0 L 175.839844 12.855469 L 124.363281 12.855469 Z M 124.363281 0 " fill-opacity="1" fill-rule="nonzero"/><path fill="#473760" d="M 72.890625 77.144531 L 227.316406 77.144531 L 227.316406 90 L 72.890625 90 Z M 72.890625 77.144531 " fill-opacity="1" fill-rule="nonzero"/><path fill="#b7501d" d="M 47.152344 321.429688 L 47.152344 347.144531 L 60.019531 347.144531 L 60.019531 360 L 85.757812 360 L 85.757812 347.144531 L 98.625 347.144531 L 98.625 321.429688 Z M 47.152344 321.429688 " fill-opacity="1" fill-rule="nonzero"/><path fill="#b7501d" d="M 201.578125 321.429688 L 201.578125 347.144531 L 214.445312 347.144531 L 214.445312 360 L 240.183594 360 L 240.183594 347.144531 L 253.054688 347.144531 L 253.054688 321.429688 Z M 201.578125 321.429688 " fill-opacity="1" fill-rule="nonzero"/><g clip-path="url(#18eac833de)"><path fill="#473760" d="M 253.054688 231.429688 L 253.054688 192.855469 L 240.183594 192.855469 L 240.183594 180 L 227.316406 180 L 227.316406 167.144531 L 214.445312 167.144531 L 214.445312 154.285156 L 201.578125 154.285156 L 201.578125 167.144531 L 188.707031 167.144531 L 188.707031 180 L 111.496094 180 L 111.496094 167.144531 L 98.625 167.144531 L 98.625 154.285156 L 85.757812 154.285156 L 85.757812 167.144531 L 72.890625 167.144531 L 72.890625 180 L 60.019531 180 L 60.019531 192.855469 L 47.152344 192.855469 L 47.152344 231.429688 L 34.28125 231.429688 L 34.28125 321.429688 L 265.921875 321.429688 L 265.921875 231.429688 Z M 253.054688 231.429688 " fill-opacity="1" fill-rule="nonzero"/></g><path fill="#473760" d="M 72.890625 411.429688 L 227.316406 411.429688 L 227.316406 437.144531 L 72.890625 437.144531 Z M 72.890625 411.429688 " fill-opacity="1" fill-rule="nonzero"/><path fill="#473760" d="M 85.757812 437.144531 L 124.363281 437.144531 L 124.363281 450 L 85.757812 450 Z M 85.757812 437.144531 " fill-opacity="1" fill-rule="nonzero"/><path fill="#473760" d="M 175.839844 437.144531 L 214.445312 437.144531 L 214.445312 450 L 175.839844 450 Z M 175.839844 437.144531 " fill-opacity="1" fill-rule="nonzero"/><path fill="#160059" d="M 85.757812 25.714844 L 98.625 25.714844 L 98.625 77.144531 L 85.757812 77.144531 Z M 85.757812 25.714844 " fill-opacity="1" fill-rule="nonzero"/><path fill="#160059" d="M 98.625 12.855469 L 124.363281 12.855469 L 124.363281 25.714844 L 98.625 25.714844 Z M 98.625 12.855469 " fill-opacity="1" fill-rule="nonzero"/><path fill="#160059" d="M 124.363281 0 L 150.101562 0 L 150.101562 12.855469 L 124.363281 12.855469 Z M 124.363281 0 " fill-opacity="1" fill-rule="nonzero"/><path fill="#160059" d="M 150.101562 0 L 175.839844 0 L 175.839844 12.855469 L 150.101562 12.855469 Z M 150.101562 0 " fill-opacity="0.5" fill-rule="nonzero"/><path fill="#160059" d="M 124.363281 12.855469 L 150.101562 12.855469 L 150.101562 25.714844 L 124.363281 25.714844 Z M 124.363281 12.855469 " fill-opacity="0.5" fill-rule="nonzero"/><path fill="#160059" d="M 175.839844 12.855469 L 201.578125 12.855469 L 201.578125 25.714844 L 175.839844 25.714844 Z M 175.839844 12.855469 " fill-opacity="1" fill-rule="nonzero"/><path fill="#160059" d="M 201.578125 25.714844 L 214.445312 25.714844 L 214.445312 77.144531 L 201.578125 77.144531 Z M 201.578125 25.714844 " fill-opacity="1" fill-rule="nonzero"/><path fill="#160059" d="M 214.445312 77.144531 L 227.316406 77.144531 L 227.316406 90 L 214.445312 90 Z M 214.445312 77.144531 " fill-opacity="1" fill-rule="nonzero"/><path fill="#160059" d="M 72.890625 77.144531 L 85.757812 77.144531 L 85.757812 90 L 72.890625 90 Z M 72.890625 77.144531 " fill-opacity="1" fill-rule="nonzero"/><path fill="#160059" d="M 60.019531 90 L 240.183594 90 L 240.183594 102.855469 L 60.019531 102.855469 Z M 60.019531 90 " fill-opacity="1" fill-rule="nonzero"/><path fill="#160059" d="M 85.757812 77.144531 L 214.445312 77.144531 L 214.445312 90 L 85.757812 90 Z M 85.757812 77.144531 " fill-opacity="0.5" fill-rule="nonzero"/><path fill="#160059" d="M 111.496094 64.285156 L 188.707031 64.285156 L 188.707031 90 L 111.496094 90 Z M 111.496094 64.285156 " fill-opacity="0.2" fill-rule="nonzero"/><path fill="#160059" d="M 98.625 25.714844 L 111.496094 25.714844 L 111.496094 64.285156 L 98.625 64.285156 Z M 98.625 25.714844 " fill-opacity="0.2" fill-rule="nonzero"/><path fill="#160059" d="M 188.707031 25.714844 L 201.578125 25.714844 L 201.578125 64.285156 L 188.707031 64.285156 Z M 188.707031 25.714844 " fill-opacity="0.2" fill-rule="nonzero"/><path fill="#160059" d="M 72.890625 102.855469 L 85.757812 102.855469 L 85.757812 141.429688 L 72.890625 141.429688 Z M 72.890625 102.855469 " fill-opacity="1" fill-rule="nonzero"/><path fill="#160059" d="M 85.757812 141.429688 L 98.625 141.429688 L 98.625 154.285156 L 85.757812 154.285156 Z M 85.757812 141.429688 " fill-opacity="1" fill-rule="nonzero"/><path fill="#160059" d="M 98.625 154.285156 L 111.496094 154.285156 L 111.496094 167.144531 L 98.625 167.144531 Z M 98.625 154.285156 " fill-opacity="1" fill-rule="nonzero"/><path fill="#160059" d="M 111.496094 167.144531 L 188.707031 167.144531 L 188.707031 180 L 111.496094 180 Z M 111.496094 167.144531 " fill-opacity="1" fill-rule="nonzero"/><path fill="#160059" d="M 188.707031 154.285156 L 201.578125 154.285156 L 201.578125 167.144531 L 188.707031 167.144531 Z M 188.707031 154.285156 " fill-opacity="1" fill-rule="nonzero"/><path fill="#160059" d="M 201.578125 141.429688 L 214.445312 141.429688 L 214.445312 154.285156 L 201.578125 154.285156 Z M 201.578125 141.429688 " fill-opacity="1" fill-rule="nonzero"/><path fill="#160059" d="M 214.445312 102.855469 L 227.316406 102.855469 L 227.316406 141.429688 L 214.445312 141.429688 Z M 214.445312 102.855469 " fill-opacity="1" fill-rule="nonzero"/><path fill="#160059" d="M 85.757812 102.855469 L 214.445312 102.855469 L 214.445312 115.714844 L 85.757812 115.714844 Z M 85.757812 102.855469 " fill-opacity="0.5" fill-rule="nonzero"/><path fill="#160059" d="M 111.496094 154.285156 L 124.363281 154.285156 L 124.363281 167.144531 L 111.496094 167.144531 Z M 111.496094 154.285156 " fill-opacity="0.5" fill-rule="nonzero"/><path fill="#160059" d="M 175.839844 154.285156 L 188.707031 154.285156 L 188.707031 167.144531 L 175.839844 167.144531 Z M 175.839844 154.285156 " fill-opacity="0.5" fill-rule="nonzero"/><path fill="#160059" d="M 124.363281 154.285156 L 175.839844 154.285156 L 175.839844 167.144531 L 124.363281 167.144531 Z M 124.363281 154.285156 " fill-opacity="0.2" fill-rule="nonzero"/><path fill="#160059" d="M 98.625 141.429688 L 111.496094 141.429688 L 111.496094 154.285156 L 98.625 154.285156 Z M 98.625 141.429688 " fill-opacity="0.5" fill-rule="nonzero"/><path fill="#160059" d="M 85.757812 115.714844 L 98.625 115.714844 L 98.625 141.429688 L 85.757812 141.429688 Z M 85.757812 115.714844 " fill-opacity="0.2" fill-rule="nonzero"/><path fill="#160059" d="M 201.578125 115.714844 L 214.445312 115.714844 L 214.445312 141.429688 L 201.578125 141.429688 Z M 201.578125 115.714844 " fill-opacity="0.2" fill-rule="nonzero"/><path fill="#160059" d="M 188.707031 141.429688 L 201.578125 141.429688 L 201.578125 154.285156 L 188.707031 154.285156 Z M 188.707031 141.429688 " fill-opacity="0.5" fill-rule="nonzero"/><path fill="#473760" d="M 111.496094 115.714844 L 137.234375 115.714844 L 137.234375 128.570312 L 111.496094 128.570312 Z M 111.496094 115.714844 " fill-opacity="1" fill-rule="nonzero"/><path fill="#473760" d="M 162.972656 115.714844 L 188.707031 115.714844 L 188.707031 128.570312 L 162.972656 128.570312 Z M 162.972656 115.714844 " fill-opacity="1" fill-rule="nonzero"/><path fill="#160059" d="M 124.363281 115.714844 L 137.234375 115.714844 L 137.234375 128.570312 L 124.363281 128.570312 Z M 124.363281 115.714844 " fill-opacity="1" fill-rule="nonzero"/><path fill="#160059" d="M 175.839844 115.714844 L 188.707031 115.714844 L 188.707031 128.570312 L 175.839844 128.570312 Z M 175.839844 115.714844 " fill-opacity="1" fill-rule="nonzero"/><path fill="#160059" d="M 85.757812 154.285156 L 98.625 154.285156 L 98.625 167.144531 L 85.757812 167.144531 Z M 85.757812 154.285156 " fill-opacity="1" fill-rule="nonzero"/><path fill="#160059" d="M 72.890625 167.144531 L 85.757812 167.144531 L 85.757812 180 L 72.890625 180 Z M 72.890625 167.144531 " fill-opacity="1" fill-rule="nonzero"/><path fill="#160059" d="M 60.019531 180 L 72.890625 180 L 72.890625 192.855469 L 60.019531 192.855469 Z M 60.019531 180 " fill-opacity="1" fill-rule="nonzero"/><path fill="#160059" d="M 47.152344 192.855469 L 60.019531 192.855469 L 60.019531 231.429688 L 47.152344 231.429688 Z M 47.152344 192.855469 " fill-opacity="1" fill-rule="nonzero"/><g clip-path="url(#b747d4870e)"><path fill="#160059" d="M 34.28125 231.429688 L 47.152344 231.429688 L 47.152344 321.429688 L 34.28125 321.429688 Z M 34.28125 231.429688 " fill-opacity="1" fill-rule="nonzero"/></g><path fill="#160059" d="M 201.578125 154.285156 L 214.445312 154.285156 L 214.445312 167.144531 L 201.578125 167.144531 Z M 201.578125 154.285156 " fill-opacity="0.5" fill-rule="nonzero"/><path fill="#160059" d="M 214.445312 167.144531 L 227.316406 167.144531 L 227.316406 180 L 214.445312 180 Z M 214.445312 167.144531 " fill-opacity="0.5" fill-rule="nonzero"/><path fill="#160059" d="M 227.316406 180 L 240.183594 180 L 240.183594 192.855469 L 227.316406 192.855469 Z M 227.316406 180 " fill-opacity="0.5" fill-rule="nonzero"/><path fill="#160059" d="M 240.183594 192.855469 L 253.054688 192.855469 L 253.054688 231.429688 L 240.183594 231.429688 Z M 240.183594 192.855469 " fill-opacity="0.5" fill-rule="nonzero"/><g clip-path="url(#9534d5fca9)"><path fill="#160059" d="M 253.054688 231.429688 L 265.921875 231.429688 L 265.921875 321.429688 L 253.054688 321.429688 Z M 253.054688 231.429688 " fill-opacity="0.5" fill-rule="nonzero"/></g><path fill="#160059" d="M 85.757812 218.570312 L 98.625 218.570312 L 98.625 321.429688 L 85.757812 321.429688 Z M 85.757812 218.570312 " fill-opacity="1" fill-rule="nonzero"/><path fill="#160059" d="M 72.890625 218.570312 L 85.757812 218.570312 L 85.757812 321.429688 L 72.890625 321.429688 Z M 72.890625 218.570312 " fill-opacity="0.2" fill-rule="nonzero"/><path fill="#160059" d="M 214.445312 218.570312 L 227.316406 218.570312 L 227.316406 321.429688 L 214.445312 321.429688 Z M 214.445312 218.570312 " fill-opacity="0.2" fill-rule="nonzero"/><path fill="#160059" d="M 240.183594 231.429688 L 253.054688 231.429688 L 253.054688 321.429688 L 240.183594 321.429688 Z M 240.183594 231.429688 " fill-opacity="0.2" fill-rule="nonzero"/><path fill="#160059" d="M 47.152344 231.429688 L 60.019531 231.429688 L 60.019531 321.429688 L 47.152344 321.429688 Z M 47.152344 231.429688 " fill-opacity="0.2" fill-rule="nonzero"/><path fill="#160059" d="M 201.578125 218.570312 L 214.445312 218.570312 L 214.445312 321.429688 L 201.578125 321.429688 Z M 201.578125 218.570312 " fill-opacity="1" fill-rule="nonzero"/><path fill="#160059" d="M 85.757812 205.714844 L 98.625 205.714844 L 98.625 218.570312 L 85.757812 218.570312 Z M 85.757812 205.714844 " fill-opacity="0.5" fill-rule="nonzero"/><path fill="#160059" d="M 85.757812 167.144531 L 111.496094 167.144531 L 111.496094 180 L 85.757812 180 Z M 85.757812 167.144531 " fill-opacity="0.5" fill-rule="nonzero"/><path fill="#160059" d="M 111.496094 180 L 137.234375 180 L 137.234375 192.855469 L 111.496094 192.855469 Z M 111.496094 180 " fill-opacity="0.5" fill-rule="nonzero"/><path fill="#160059" d="M 150.101562 180 L 188.707031 180 L 188.707031 192.855469 L 150.101562 192.855469 Z M 150.101562 180 " fill-opacity="0.5" fill-rule="nonzero"/><path fill="#160059" d="M 188.707031 167.144531 L 201.578125 167.144531 L 201.578125 180 L 188.707031 180 Z M 188.707031 167.144531 " fill-opacity="0.5" fill-rule="nonzero"/><path fill="#160059" d="M 201.578125 205.714844 L 214.445312 205.714844 L 214.445312 218.570312 L 201.578125 218.570312 Z M 201.578125 205.714844 " fill-opacity="0.5" fill-rule="nonzero"/><path fill="#160059" d="M 47.152344 321.429688 L 60.019531 321.429688 L 60.019531 347.144531 L 47.152344 347.144531 Z M 47.152344 321.429688 " fill-opacity="1" fill-rule="nonzero"/><path fill="#160059" d="M 85.757812 321.429688 L 98.625 321.429688 L 98.625 347.144531 L 85.757812 347.144531 Z M 85.757812 321.429688 " fill-opacity="1" fill-rule="nonzero"/><path fill="#160059" d="M 60.019531 347.144531 L 85.757812 347.144531 L 85.757812 360 L 60.019531 360 Z M 60.019531 347.144531 " fill-opacity="1" fill-rule="nonzero"/><path fill="#160059" d="M 201.578125 321.429688 L 214.445312 321.429688 L 214.445312 347.144531 L 201.578125 347.144531 Z M 201.578125 321.429688 " fill-opacity="0.5" fill-rule="nonzero"/><path fill="#160059" d="M 240.183594 321.429688 L 253.054688 321.429688 L 253.054688 347.144531 L 240.183594 347.144531 Z M 240.183594 321.429688 " fill-opacity="0.5" fill-rule="nonzero"/><path fill="#160059" d="M 214.445312 347.144531 L 240.183594 347.144531 L 240.183594 360 L 214.445312 360 Z M 214.445312 347.144531 " fill-opacity="0.5" fill-rule="nonzero"/><path fill="#160059" d="M 214.445312 321.429688 L 227.316406 321.429688 L 227.316406 347.144531 L 214.445312 347.144531 Z M 214.445312 321.429688 " fill-opacity="0.2" fill-rule="nonzero"/><path fill="#160059" d="M 214.445312 334.285156 L 240.183594 334.285156 L 240.183594 347.144531 L 214.445312 347.144531 Z M 214.445312 334.285156 " fill-opacity="0.2" fill-rule="nonzero"/><path fill="#160059" d="M 85.757812 347.144531 L 72.890625 347.144531 L 72.890625 321.429688 L 85.757812 321.429688 Z M 85.757812 347.144531 " fill-opacity="0.2" fill-rule="nonzero"/><path fill="#160059" d="M 85.757812 347.144531 L 60.019531 347.144531 L 60.019531 334.285156 L 85.757812 334.285156 Z M 85.757812 347.144531 " fill-opacity="0.2" fill-rule="nonzero"/><path fill="#160059" d="M 137.234375 180 L 150.101562 180 L 150.101562 321.429688 L 137.234375 321.429688 Z M 137.234375 180 " fill-opacity="1" fill-rule="nonzero"/><path fill="#160059" d="M 85.757812 308.570312 L 214.445312 308.570312 L 214.445312 321.429688 L 85.757812 321.429688 Z M 85.757812 308.570312 " fill-opacity="1" fill-rule="nonzero"/><path fill="#b5b5b5" d="M 150.101562 231.429688 L 162.972656 231.429688 L 162.972656 244.285156 L 150.101562 244.285156 Z M 150.101562 231.429688 " fill-opacity="1" fill-rule="nonzero"/><path fill="#b5b5b5" d="M 150.101562 257.144531 L 162.972656 257.144531 L 162.972656 270 L 150.101562 270 Z M 150.101562 257.144531 " fill-opacity="1" fill-rule="nonzero"/><path fill="#b5b5b5" d="M 150.101562 282.855469 L 162.972656 282.855469 L 162.972656 295.714844 L 150.101562 295.714844 Z M 150.101562 282.855469 " fill-opacity="1" fill-rule="nonzero"/><path fill="#160059" d="M 85.757812 334.285156 L 98.625 334.285156 L 98.625 411.429688 L 85.757812 411.429688 Z M 85.757812 334.285156 " fill-opacity="1" fill-rule="nonzero"/><path fill="#160059" d="M 201.578125 347.144531 L 214.445312 347.144531 L 214.445312 411.429688 L 201.578125 411.429688 Z M 201.578125 347.144531 " fill-opacity="1" fill-rule="nonzero"/><path fill="#160059" d="M 72.890625 411.429688 L 85.757812 411.429688 L 85.757812 437.144531 L 72.890625 437.144531 Z M 72.890625 411.429688 " fill-opacity="1" fill-rule="nonzero"/><path fill="#160059" d="M 85.757812 437.144531 L 124.363281 437.144531 L 124.363281 450 L 85.757812 450 Z M 85.757812 437.144531 " fill-opacity="1" fill-rule="nonzero"/><path fill="#160059" d="M 124.363281 424.285156 L 175.839844 424.285156 L 175.839844 437.144531 L 124.363281 437.144531 Z M 124.363281 424.285156 " fill-opacity="1" fill-rule="nonzero"/><path fill="#160059" d="M 175.839844 437.144531 L 214.445312 437.144531 L 214.445312 450 L 175.839844 450 Z M 175.839844 437.144531 " fill-opacity="1" fill-rule="nonzero"/><path fill="#160059" d="M 214.445312 411.429688 L 227.316406 411.429688 L 227.316406 437.144531 L 214.445312 437.144531 Z M 214.445312 411.429688 " fill-opacity="1" fill-rule="nonzero"/><path fill="#160059" d="M 137.234375 334.285156 L 162.972656 334.285156 L 162.972656 437.144531 L 137.234375 437.144531 Z M 137.234375 334.285156 " fill-opacity="1" fill-rule="nonzero"/><path fill="#160059" d="M 111.496094 411.429688 L 85.757812 411.429688 L 85.757812 424.285156 L 111.496094 424.285156 L 111.496094 437.144531 L 124.363281 437.144531 L 124.363281 411.429688 Z M 111.496094 411.429688 " fill-opacity="0.5" fill-rule="nonzero"/><path fill="#160059" d="M 188.707031 411.429688 L 214.445312 411.429688 L 214.445312 424.285156 L 188.707031 424.285156 L 188.707031 437.144531 L 175.839844 437.144531 L 175.839844 411.429688 Z M 188.707031 411.429688 " fill-opacity="0.5" fill-rule="nonzero"/><path fill="#160059" d="M 124.363281 411.429688 L 137.234375 411.429688 L 137.234375 424.285156 L 124.363281 424.285156 Z M 124.363281 411.429688 " fill-opacity="1" fill-rule="nonzero"/><path fill="#160059" d="M 162.972656 411.429688 L 175.839844 411.429688 L 175.839844 424.285156 L 162.972656 424.285156 Z M 162.972656 411.429688 " fill-opacity="1" fill-rule="nonzero"/><path fill="#160059" d="M 111.496094 321.429688 L 124.363281 321.429688 L 124.363281 347.144531 L 111.496094 347.144531 Z M 111.496094 321.429688 " fill-opacity="0.5" fill-rule="nonzero"/><path fill="#160059" d="M 175.839844 321.429688 L 188.707031 321.429688 L 188.707031 347.144531 L 175.839844 347.144531 Z M 175.839844 321.429688 " fill-opacity="0.5" fill-rule="nonzero"/><path fill="#160059" d="M 98.625 347.144531 L 111.496094 347.144531 L 111.496094 360 L 98.625 360 Z M 98.625 347.144531 " fill-opacity="0.5" fill-rule="nonzero"/><path fill="#160059" d="M 188.707031 347.144531 L 201.578125 347.144531 L 201.578125 360 L 188.707031 360 Z M 188.707031 347.144531 " fill-opacity="0.5" fill-rule="nonzero"/><path fill="#160059" d="M 98.625 231.429688 L 98.625 244.285156 L 111.496094 244.285156 L 111.496094 257.144531 L 124.363281 257.144531 L 124.363281 244.285156 L 137.234375 244.285156 L 137.234375 231.429688 Z M 98.625 231.429688 " fill-opacity="0.5" fill-rule="nonzero"/></svg>