<svg xmlns="http://www.w3.org/2000/svg" xmlns:xlink="http://www.w3.org/1999/xlink" width="400" zoomAndPan="magnify" viewBox="0 0 300 449.999984" height="600" preserveAspectRatio="xMidYMid meet" version="1.0"><defs><clipPath id="9ed26cfe07"><path d="M 37.5 0 L 262.5 0 L 262.5 450 L 37.5 450 Z M 37.5 0 " clip-rule="nonzero"/></clipPath><clipPath id="df990a3c42"><path d="M 37.5 0 L 262.5 0 L 262.5 169 L 37.5 169 Z M 37.5 0 " clip-rule="nonzero"/></clipPath><clipPath id="03fd34342c"><path d="M 37.5 0 L 249 0 L 249 169 L 37.5 169 Z M 37.5 0 " clip-rule="nonzero"/></clipPath><clipPath id="faf95624fa"><path d="M 220 56 L 262.5 56 L 262.5 155 L 220 155 Z M 220 56 " clip-rule="nonzero"/></clipPath></defs><g clip-path="url(#9ed26cfe07)"><path fill="#160059" d="M 248.4375 56.25 L 248.4375 42.1875 L 234.375 42.1875 L 234.375 28.125 L 248.4375 28.125 L 248.4375 14.0625 L 192.1875 14.0625 L 192.1875 28.125 L 164.0625 28.125 L 164.0625 14.0625 L 150 14.0625 L 150 0 L 79.6875 0 L 79.6875 14.0625 L 93.75 14.0625 L 93.75 28.125 L 107.8125 28.125 L 107.8125 42.1875 L 79.6875 42.1875 L 79.6875 56.25 L 65.625 56.25 L 65.625 70.3125 L 51.5625 70.3125 L 51.5625 84.375 L 37.5 84.375 L 37.5 98.4375 L 65.625 98.4375 L 65.625 112.5 L 37.5 112.5 L 37.5 140.625 L 51.5625 140.625 L 51.5625 154.6875 L 79.6875 154.6875 L 79.6875 168.75 L 93.75 168.75 L 93.75 182.8125 L 107.8125 182.8125 L 107.8125 196.875 L 93.75 196.875 L 93.75 210.9375 L 79.6875 210.9375 L 79.6875 267.1875 L 65.625 267.1875 L 65.625 309.375 L 51.5625 309.375 L 51.5625 337.5 L 65.625 337.5 L 65.625 351.5625 L 93.75 351.5625 L 93.75 407.8125 L 79.6875 407.8125 L 79.6875 435.9375 L 93.75 435.9375 L 93.75 450 L 135.9375 450 L 135.9375 435.9375 L 164.0625 435.9375 L 164.0625 450 L 206.25 450 L 206.25 435.9375 L 220.3125 435.9375 L 220.3125 407.8125 L 206.25 407.8125 L 206.25 351.5625 L 234.375 351.5625 L 234.375 337.5 L 248.4375 337.5 L 248.4375 309.375 L 234.375 309.375 L 234.375 267.1875 L 220.3125 267.1875 L 220.3125 210.9375 L 206.25 210.9375 L 206.25 196.875 L 192.1875 196.875 L 192.1875 182.8125 L 206.25 182.8125 L 206.25 168.75 L 248.4375 168.75 L 248.4375 154.6875 L 262.5 154.6875 L 262.5 126.5625 L 248.4375 126.5625 L 248.4375 84.375 L 262.5 84.375 L 262.5 56.25 Z M 248.4375 56.25 " fill-opacity="1" fill-rule="nonzero"/></g><path fill="#0017bf" d="M 220.3125 267.1875 L 220.3125 210.9375 L 206.25 210.9375 L 206.25 196.875 L 93.75 196.875 L 93.75 210.9375 L 79.6875 210.9375 L 79.6875 267.1875 L 65.625 267.1875 L 65.625 309.375 L 93.75 309.375 L 93.75 407.8125 L 79.6875 407.8125 L 79.6875 435.9375 L 93.75 435.9375 L 93.75 450 L 135.9375 450 L 135.9375 435.9375 L 164.0625 435.9375 L 164.0625 450 L 206.25 450 L 206.25 435.9375 L 220.3125 435.9375 L 220.3125 407.8125 L 206.25 407.8125 L 206.25 309.375 L 234.375 309.375 L 234.375 267.1875 Z M 220.3125 267.1875 " fill-opacity="1" fill-rule="nonzero"/><path fill="#ffab82" d="M 220.3125 98.4375 L 79.6875 98.4375 L 79.6875 168.75 L 93.75 168.75 L 93.75 182.8125 L 107.8125 182.8125 L 107.8125 196.875 L 192.1875 196.875 L 192.1875 182.8125 L 206.25 182.8125 L 206.25 168.75 L 220.3125 168.75 Z M 220.3125 98.4375 " fill-opacity="1" fill-rule="nonzero"/><g clip-path="url(#df990a3c42)"><path fill="#a500b2" d="M 248.4375 84.375 L 262.5 84.375 L 262.5 56.25 L 248.4375 56.25 L 248.4375 42.1875 L 234.375 42.1875 L 234.375 28.125 L 248.4375 28.125 L 248.4375 14.0625 L 192.1875 14.0625 L 192.1875 28.125 L 164.0625 28.125 L 164.0625 14.0625 L 150 14.0625 L 150 0 L 79.6875 0 L 79.6875 14.0625 L 93.75 14.0625 L 93.75 28.125 L 107.8125 28.125 L 107.8125 42.1875 L 79.6875 42.1875 L 79.6875 56.25 L 65.625 56.25 L 65.625 70.3125 L 51.5625 70.3125 L 51.5625 84.375 L 37.5 84.375 L 37.5 98.4375 L 65.625 98.4375 L 65.625 112.5 L 37.5 112.5 L 37.5 140.625 L 51.5625 140.625 L 51.5625 154.6875 L 79.6875 154.6875 L 79.6875 168.75 L 135.9375 168.75 L 135.9375 140.625 L 150 140.625 L 150 126.5625 L 178.125 126.5625 L 178.125 112.5 L 192.1875 112.5 L 192.1875 126.5625 L 206.25 126.5625 L 206.25 168.75 L 248.4375 168.75 L 248.4375 154.6875 L 262.5 154.6875 L 262.5 126.5625 L 248.4375 126.5625 Z M 248.4375 84.375 " fill-opacity="1" fill-rule="nonzero"/></g><path fill="#ffab82" d="M 135.9375 182.8125 L 164.0625 182.8125 L 164.0625 225 L 135.9375 225 Z M 135.9375 182.8125 " fill-opacity="1" fill-rule="nonzero"/><path fill="#ffab82" d="M 79.6875 309.375 L 51.5625 309.375 L 51.5625 337.5 L 65.625 337.5 L 65.625 351.5625 L 93.75 351.5625 L 93.75 309.375 Z M 79.6875 309.375 " fill-opacity="1" fill-rule="nonzero"/><path fill="#ffab82" d="M 220.3125 309.375 L 248.4375 309.375 L 248.4375 337.5 L 234.375 337.5 L 234.375 351.5625 L 206.25 351.5625 L 206.25 309.375 Z M 220.3125 309.375 " fill-opacity="1" fill-rule="nonzero"/><g clip-path="url(#03fd34342c)"><path fill="#160059" d="M 51.5625 126.5625 L 51.5625 140.625 L 37.5 140.625 L 37.5 112.5 L 65.625 112.5 L 65.625 126.5625 Z M 79.6875 98.4375 L 107.8125 98.4375 L 107.8125 112.5 L 121.875 112.5 L 121.875 84.375 L 65.625 84.375 L 65.625 70.3125 L 51.5625 70.3125 L 51.5625 84.375 L 37.5 84.375 L 37.5 98.4375 L 65.625 98.4375 L 65.625 112.5 L 79.6875 112.5 Z M 51.5625 154.6875 L 79.6875 154.6875 L 79.6875 140.625 L 51.5625 140.625 Z M 121.875 154.6875 L 107.8125 154.6875 L 107.8125 112.5 L 93.75 112.5 L 93.75 126.5625 L 79.6875 126.5625 L 79.6875 140.625 L 93.75 140.625 L 93.75 168.75 L 135.9375 168.75 L 135.9375 140.625 L 121.875 140.625 Z M 135.9375 140.625 L 150 140.625 L 150 126.5625 L 135.9375 126.5625 Z M 150 126.5625 L 164.0625 126.5625 L 164.0625 112.5 L 150 112.5 Z M 164.0625 112.5 L 178.125 112.5 L 178.125 98.4375 L 164.0625 98.4375 Z M 178.125 84.375 L 178.125 98.4375 L 192.1875 98.4375 L 192.1875 84.375 Z M 192.1875 98.4375 L 192.1875 112.5 L 206.25 112.5 L 206.25 98.4375 Z M 220.3125 112.5 L 206.25 112.5 L 206.25 168.75 L 248.4375 168.75 L 248.4375 154.6875 L 220.3125 154.6875 Z M 164.0625 28.125 L 164.0625 14.0625 L 150 14.0625 L 150 28.125 Z M 150 14.0625 L 150 0 L 79.6875 0 L 79.6875 14.0625 L 93.75 14.0625 L 93.75 28.125 L 107.8125 28.125 L 107.8125 14.0625 Z M 135.9375 42.1875 L 121.875 42.1875 L 121.875 28.125 L 107.8125 28.125 L 107.8125 42.1875 L 79.6875 42.1875 L 79.6875 56.25 L 135.9375 56.25 Z M 79.6875 56.25 L 65.625 56.25 L 65.625 70.3125 L 79.6875 70.3125 Z M 135.9375 70.3125 L 121.875 70.3125 L 121.875 84.375 L 135.9375 84.375 Z M 135.9375 70.3125 " fill-opacity="1" fill-rule="nonzero"/></g><path fill="#160059" d="M 79.6875 56.25 L 93.75 56.25 L 93.75 70.3125 L 79.6875 70.3125 Z M 79.6875 56.25 " fill-opacity="0.5" fill-rule="nonzero"/><path fill="#160059" d="M 65.625 70.3125 L 79.6875 70.3125 L 79.6875 84.375 L 65.625 84.375 Z M 65.625 70.3125 " fill-opacity="0.5" fill-rule="nonzero"/><path fill="#160059" d="M 121.875 56.25 L 135.9375 56.25 L 135.9375 70.3125 L 121.875 70.3125 Z M 121.875 56.25 " fill-opacity="0.5" fill-rule="nonzero"/><path fill="#160059" d="M 107.8125 70.3125 L 121.875 70.3125 L 121.875 84.375 L 107.8125 84.375 Z M 107.8125 70.3125 " fill-opacity="0.5" fill-rule="nonzero"/><path fill="#160059" d="M 79.6875 98.4375 L 79.6875 112.5 L 65.625 112.5 L 65.625 126.5625 L 93.75 126.5625 L 93.75 112.5 L 107.8125 112.5 L 107.8125 98.4375 Z M 79.6875 98.4375 " fill-opacity="0.5" fill-rule="nonzero"/><path fill="#160059" d="M 79.6875 140.625 L 93.75 140.625 L 93.75 168.75 L 79.6875 168.75 Z M 79.6875 140.625 " fill-opacity="0.5" fill-rule="nonzero"/><path fill="#160059" d="M 107.8125 112.5 L 121.875 112.5 L 121.875 140.625 L 107.8125 140.625 Z M 107.8125 112.5 " fill-opacity="0.5" fill-rule="nonzero"/><path fill="#160059" d="M 150 98.4375 L 150 84.375 L 164.0625 84.375 L 164.0625 70.3125 L 135.9375 70.3125 L 135.9375 84.375 L 121.875 84.375 L 121.875 112.5 L 135.9375 112.5 L 135.9375 98.4375 Z M 150 98.4375 " fill-opacity="0.5" fill-rule="nonzero"/><path fill="#160059" d="M 164.0625 84.375 L 178.125 84.375 L 178.125 98.4375 L 164.0625 98.4375 Z M 164.0625 84.375 " fill-opacity="0.5" fill-rule="nonzero"/><path fill="#160059" d="M 150 98.4375 L 164.0625 98.4375 L 164.0625 112.5 L 150 112.5 Z M 150 98.4375 " fill-opacity="0.5" fill-rule="nonzero"/><path fill="#160059" d="M 135.9375 112.5 L 150 112.5 L 150 126.5625 L 135.9375 126.5625 Z M 135.9375 112.5 " fill-opacity="0.5" fill-rule="nonzero"/><path fill="#160059" d="M 178.125 98.4375 L 192.1875 98.4375 L 192.1875 112.5 L 178.125 112.5 Z M 178.125 98.4375 " fill-opacity="0.5" fill-rule="nonzero"/><path fill="#160059" d="M 192.1875 112.5 L 206.25 112.5 L 206.25 126.5625 L 192.1875 126.5625 Z M 192.1875 112.5 " fill-opacity="0.5" fill-rule="nonzero"/><path fill="#160059" d="M 164.0625 112.5 L 178.125 112.5 L 178.125 126.5625 L 164.0625 126.5625 Z M 164.0625 112.5 " fill-opacity="0.5" fill-rule="nonzero"/><path fill="#160059" d="M 206.25 84.375 L 206.25 70.3125 L 192.1875 70.3125 L 192.1875 56.25 L 164.0625 56.25 L 164.0625 70.3125 L 178.125 70.3125 L 178.125 84.375 L 192.1875 84.375 L 192.1875 98.4375 L 206.25 98.4375 L 206.25 112.5 L 220.3125 112.5 L 220.3125 84.375 Z M 206.25 84.375 " fill-opacity="0.2" fill-rule="nonzero"/><path fill="#160059" d="M 220.3125 112.5 L 234.375 112.5 L 234.375 140.625 L 220.3125 140.625 Z M 220.3125 112.5 " fill-opacity="0.2" fill-rule="nonzero"/><path fill="#160059" d="M 234.375 140.625 L 248.4375 140.625 L 248.4375 154.6875 L 234.375 154.6875 Z M 234.375 140.625 " fill-opacity="0.2" fill-rule="nonzero"/><path fill="#160059" d="M 234.375 56.25 L 248.4375 56.25 L 248.4375 70.3125 L 234.375 70.3125 Z M 234.375 56.25 " fill-opacity="0.2" fill-rule="nonzero"/><path fill="#160059" d="M 192.1875 28.125 L 206.25 28.125 L 206.25 42.1875 L 192.1875 42.1875 Z M 192.1875 28.125 " fill-opacity="0.2" fill-rule="nonzero"/><path fill="#160059" d="M 121.875 28.125 L 135.9375 28.125 L 135.9375 42.1875 L 121.875 42.1875 Z M 121.875 28.125 " fill-opacity="0.5" fill-rule="nonzero"/><path fill="#160059" d="M 107.8125 14.0625 L 121.875 14.0625 L 121.875 28.125 L 107.8125 28.125 Z M 107.8125 14.0625 " fill-opacity="0.5" fill-rule="nonzero"/><path fill="#160059" d="M 135.9375 14.0625 L 150 14.0625 L 150 28.125 L 135.9375 28.125 Z M 135.9375 14.0625 " fill-opacity="0.5" fill-rule="nonzero"/><path fill="#160059" d="M 150 28.125 L 164.0625 28.125 L 164.0625 42.1875 L 150 42.1875 Z M 150 28.125 " fill-opacity="0.5" fill-rule="nonzero"/><path fill="#160059" d="M 93.75 168.75 L 107.8125 168.75 L 107.8125 182.8125 L 93.75 182.8125 Z M 93.75 168.75 " fill-opacity="1" fill-rule="nonzero"/><path fill="#160059" d="M 107.8125 182.8125 L 135.9375 182.8125 L 135.9375 196.875 L 107.8125 196.875 Z M 107.8125 182.8125 " fill-opacity="1" fill-rule="nonzero"/><path fill="#160059" d="M 135.9375 196.875 L 164.0625 196.875 L 164.0625 210.9375 L 135.9375 210.9375 Z M 135.9375 196.875 " fill-opacity="0.5" fill-rule="nonzero"/><path fill="#160059" d="M 135.9375 210.9375 L 164.0625 210.9375 L 164.0625 225 L 135.9375 225 Z M 135.9375 210.9375 " fill-opacity="0.2" fill-rule="nonzero"/><path fill="#160059" d="M 164.0625 182.8125 L 192.1875 182.8125 L 192.1875 196.875 L 164.0625 196.875 Z M 164.0625 182.8125 " fill-opacity="1" fill-rule="nonzero"/><path fill="#160059" d="M 192.1875 168.75 L 206.25 168.75 L 206.25 182.8125 L 192.1875 182.8125 Z M 192.1875 168.75 " fill-opacity="1" fill-rule="nonzero"/><path fill="#160059" d="M 164.0625 140.625 L 192.1875 140.625 L 192.1875 154.6875 L 164.0625 154.6875 Z M 164.0625 140.625 " fill-opacity="1" fill-rule="nonzero"/><path fill="#0017bf" d="M 164.0625 154.6875 L 178.125 154.6875 L 178.125 168.75 L 164.0625 168.75 Z M 164.0625 154.6875 " fill-opacity="1" fill-rule="nonzero"/><path fill="#160059" d="M 178.125 112.5 L 192.1875 112.5 L 192.1875 126.5625 L 178.125 126.5625 Z M 178.125 112.5 " fill-opacity="0.5" fill-rule="nonzero"/><path fill="#160059" d="M 150 126.5625 L 206.25 126.5625 L 206.25 140.625 L 150 140.625 Z M 150 126.5625 " fill-opacity="0.2" fill-rule="nonzero"/><path fill="#160059" d="M 93.75 196.875 L 107.8125 196.875 L 107.8125 210.9375 L 93.75 210.9375 Z M 93.75 196.875 " fill-opacity="1" fill-rule="nonzero"/><path fill="#160059" d="M 79.6875 210.9375 L 93.75 210.9375 L 93.75 267.1875 L 79.6875 267.1875 Z M 79.6875 210.9375 " fill-opacity="1" fill-rule="nonzero"/><path fill="#160059" d="M 65.625 267.1875 L 79.6875 267.1875 L 79.6875 309.375 L 65.625 309.375 Z M 65.625 267.1875 " fill-opacity="1" fill-rule="nonzero"/><path fill="#160059" d="M 164.0625 196.875 L 206.25 196.875 L 206.25 210.9375 L 164.0625 210.9375 Z M 164.0625 196.875 " fill-opacity="0.5" fill-rule="nonzero"/><path fill="#160059" d="M 206.25 210.9375 L 220.3125 210.9375 L 220.3125 267.1875 L 206.25 267.1875 Z M 206.25 210.9375 " fill-opacity="0.5" fill-rule="nonzero"/><g clip-path="url(#faf95624fa)"><path fill="#160059" d="M 248.4375 56.25 L 248.4375 70.3125 L 220.3125 70.3125 L 220.3125 84.375 L 234.375 84.375 L 234.375 140.625 L 248.4375 140.625 L 248.4375 154.6875 L 262.5 154.6875 L 262.5 126.5625 L 248.4375 126.5625 L 248.4375 84.375 L 262.5 84.375 L 262.5 56.25 Z M 248.4375 56.25 " fill-opacity="0.5" fill-rule="nonzero"/></g><path fill="#160059" d="M 220.3125 42.1875 L 206.25 42.1875 L 206.25 56.25 L 192.1875 56.25 L 192.1875 70.3125 L 220.3125 70.3125 L 220.3125 56.25 L 248.4375 56.25 L 248.4375 42.1875 L 234.375 42.1875 L 234.375 28.125 L 248.4375 28.125 L 248.4375 14.0625 L 192.1875 14.0625 L 192.1875 28.125 L 220.3125 28.125 Z M 220.3125 42.1875 " fill-opacity="0.5" fill-rule="nonzero"/><path fill="#160059" d="M 164.0625 56.25 L 178.125 56.25 L 178.125 42.1875 L 192.1875 42.1875 L 192.1875 28.125 L 164.0625 28.125 Z M 164.0625 56.25 " fill-opacity="0.5" fill-rule="nonzero"/><path fill="#160059" d="M 51.5625 309.375 L 65.625 309.375 L 65.625 337.5 L 51.5625 337.5 Z M 51.5625 309.375 " fill-opacity="1" fill-rule="nonzero"/><path fill="#160059" d="M 234.375 309.375 L 248.4375 309.375 L 248.4375 337.5 L 234.375 337.5 Z M 234.375 309.375 " fill-opacity="0.5" fill-rule="nonzero"/><path fill="#160059" d="M 93.75 337.5 L 93.75 351.5625 L 65.625 351.5625 L 65.625 337.5 Z M 93.75 337.5 " fill-opacity="1" fill-rule="nonzero"/><path fill="#160059" d="M 234.375 337.5 L 234.375 351.5625 L 206.25 351.5625 L 206.25 337.5 Z M 234.375 337.5 " fill-opacity="0.5" fill-rule="nonzero"/><path fill="#160059" d="M 93.75 309.375 L 93.75 323.4375 L 79.6875 323.4375 L 79.6875 309.375 Z M 93.75 309.375 " fill-opacity="0.5" fill-rule="nonzero"/><path fill="#160059" d="M 220.3125 309.375 L 220.3125 323.4375 L 206.25 323.4375 L 206.25 309.375 Z M 220.3125 309.375 " fill-opacity="0.5" fill-rule="nonzero"/><path fill="#e80039" d="M 93.75 407.8125 L 135.9375 407.8125 L 135.9375 435.9375 L 93.75 435.9375 Z M 93.75 407.8125 " fill-opacity="1" fill-rule="nonzero"/><path fill="#e80039" d="M 164.0625 407.8125 L 206.25 407.8125 L 206.25 435.9375 L 164.0625 435.9375 Z M 164.0625 407.8125 " fill-opacity="1" fill-rule="nonzero"/><path fill="#160059" d="M 65.625 295.3125 L 107.8125 295.3125 L 107.8125 309.375 L 65.625 309.375 Z M 65.625 295.3125 " fill-opacity="1" fill-rule="nonzero"/><path fill="#160059" d="M 93.75 295.3125 L 107.8125 295.3125 L 107.8125 407.8125 L 93.75 407.8125 Z M 93.75 295.3125 " fill-opacity="1" fill-rule="nonzero"/><path fill="#160059" d="M 192.1875 295.3125 L 206.25 295.3125 L 206.25 407.8125 L 192.1875 407.8125 Z M 192.1875 295.3125 " fill-opacity="1" fill-rule="nonzero"/><path fill="#160059" d="M 220.3125 267.1875 L 220.3125 295.3125 L 192.1875 295.3125 L 192.1875 309.375 L 234.375 309.375 L 234.375 267.1875 Z M 220.3125 267.1875 " fill-opacity="0.5" fill-rule="nonzero"/><path fill="#160059" d="M 79.6875 407.8125 L 93.75 407.8125 L 93.75 435.9375 L 79.6875 435.9375 Z M 79.6875 407.8125 " fill-opacity="1" fill-rule="nonzero"/><path fill="#160059" d="M 206.25 407.8125 L 220.3125 407.8125 L 220.3125 435.9375 L 206.25 435.9375 Z M 206.25 407.8125 " fill-opacity="1" fill-rule="nonzero"/><path fill="#160059" d="M 93.75 435.9375 L 135.9375 435.9375 L 135.9375 450 L 93.75 450 Z M 93.75 435.9375 " fill-opacity="1" fill-rule="nonzero"/><path fill="#160059" d="M 121.875 407.8125 L 93.75 407.8125 L 93.75 421.875 L 121.875 421.875 L 121.875 435.9375 L 135.9375 435.9375 L 135.9375 407.8125 Z M 121.875 407.8125 " fill-opacity="0.5" fill-rule="nonzero"/><path fill="#160059" d="M 164.0625 435.9375 L 206.25 435.9375 L 206.25 450 L 164.0625 450 Z M 164.0625 435.9375 " fill-opacity="1" fill-rule="nonzero"/><path fill="#160059" d="M 135.9375 407.8125 L 164.0625 407.8125 L 164.0625 435.9375 L 135.9375 435.9375 Z M 135.9375 407.8125 " fill-opacity="1" fill-rule="nonzero"/><path fill="#160059" d="M 93.75 393.75 L 135.9375 393.75 L 135.9375 407.8125 L 93.75 407.8125 Z M 93.75 393.75 " fill-opacity="1" fill-rule="nonzero"/><path fill="#160059" d="M 135.9375 393.75 L 164.0625 393.75 L 164.0625 407.8125 L 135.9375 407.8125 Z M 135.9375 393.75 " fill-opacity="0.5" fill-rule="nonzero"/><path fill="#160059" d="M 164.0625 393.75 L 192.1875 393.75 L 192.1875 407.8125 L 164.0625 407.8125 Z M 164.0625 393.75 " fill-opacity="1" fill-rule="nonzero"/><path fill="#160059" d="M 178.125 407.8125 L 206.25 407.8125 L 206.25 421.875 L 178.125 421.875 L 178.125 435.9375 L 164.0625 435.9375 L 164.0625 407.8125 Z M 178.125 407.8125 " fill-opacity="0.5" fill-rule="nonzero"/><path fill="#160059" d="M 107.8125 196.875 L 135.9375 196.875 L 135.9375 210.9375 L 107.8125 210.9375 Z M 107.8125 196.875 " fill-opacity="0.5" fill-rule="nonzero"/><path fill="#160059" d="M 121.875 210.9375 L 135.9375 210.9375 L 135.9375 225 L 121.875 225 Z M 121.875 210.9375 " fill-opacity="1" fill-rule="nonzero"/><path fill="#160059" d="M 164.0625 210.9375 L 178.125 210.9375 L 178.125 225 L 164.0625 225 Z M 164.0625 210.9375 " fill-opacity="1" fill-rule="nonzero"/><path fill="#160059" d="M 135.9375 225 L 164.0625 225 L 164.0625 239.0625 L 135.9375 239.0625 Z M 135.9375 225 " fill-opacity="1" fill-rule="nonzero"/><path fill="#160059" d="M 107.8125 267.1875 L 121.875 267.1875 L 121.875 295.3125 L 107.8125 295.3125 Z M 107.8125 267.1875 " fill-opacity="1" fill-rule="nonzero"/><path fill="#160059" d="M 178.125 267.1875 L 192.1875 267.1875 L 192.1875 295.3125 L 178.125 295.3125 Z M 178.125 267.1875 " fill-opacity="1" fill-rule="nonzero"/><path fill="#160059" d="M 107.8125 267.1875 L 121.875 267.1875 L 121.875 393.75 L 107.8125 393.75 Z M 107.8125 267.1875 " fill-opacity="0.5" fill-rule="nonzero"/><path fill="#160059" d="M 178.125 267.1875 L 192.1875 267.1875 L 192.1875 393.75 L 178.125 393.75 Z M 178.125 267.1875 " fill-opacity="0.5" fill-rule="nonzero"/><path fill="#160059" d="M 79.6875 267.1875 L 93.75 267.1875 L 93.75 295.3125 L 79.6875 295.3125 Z M 79.6875 267.1875 " fill-opacity="0.2" fill-rule="nonzero"/><path fill="#160059" d="M 206.25 267.1875 L 220.3125 267.1875 L 220.3125 295.3125 L 206.25 295.3125 Z M 206.25 267.1875 " fill-opacity="0.2" fill-rule="nonzero"/><path fill="#160059" d="M 192.1875 210.9375 L 206.25 210.9375 L 206.25 225 L 192.1875 225 Z M 192.1875 210.9375 " fill-opacity="0.2" fill-rule="nonzero"/><path fill="#160059" d="M 93.75 210.9375 L 107.8125 210.9375 L 107.8125 225 L 93.75 225 Z M 93.75 210.9375 " fill-opacity="0.2" fill-rule="nonzero"/></svg>