<svg xmlns="http://www.w3.org/2000/svg" xmlns:xlink="http://www.w3.org/1999/xlink" width="400" zoomAndPan="magnify" viewBox="0 0 300 449.999984" height="600" preserveAspectRatio="xMidYMid meet" version="1.0"><path fill="#160059" d="M 228.75 90 L 228.75 56.25 L 217.5 56.25 L 217.5 33.75 L 206.25 33.75 L 206.25 22.5 L 217.5 22.5 L 217.5 0 L 183.75 0 L 183.75 11.25 L 172.5 11.25 L 172.5 0 L 150 0 L 150 22.5 L 138.75 22.5 L 138.75 11.25 L 116.25 11.25 L 116.25 0 L 93.75 0 L 93.75 11.25 L 71.25 11.25 L 71.25 33.75 L 82.5 33.75 L 82.5 56.25 L 71.25 56.25 L 71.25 78.75 L 60 78.75 L 60 101.25 L 71.25 101.25 L 71.25 112.5 L 82.5 112.5 L 82.5 123.75 L 71.25 123.75 L 71.25 157.5 L 82.5 157.5 L 82.5 168.75 L 93.75 168.75 L 93.75 180 L 82.5 180 L 82.5 191.25 L 71.25 191.25 L 71.25 213.75 L 60 213.75 L 60 281.25 L 71.25 281.25 L 71.25 348.75 L 82.5 348.75 L 82.5 382.5 L 93.75 382.5 L 93.75 405 L 105 405 L 105 427.5 L 93.75 427.5 L 93.75 450 L 206.25 450 L 206.25 427.5 L 195 427.5 L 195 405 L 206.25 405 L 206.25 382.5 L 217.5 382.5 L 217.5 348.75 L 228.75 348.75 L 228.75 281.25 L 240 281.25 L 240 213.75 L 228.75 213.75 L 228.75 191.25 L 217.5 191.25 L 217.5 180 L 206.25 180 L 206.25 168.75 L 228.75 168.75 L 228.75 123.75 L 240 123.75 L 240 90 Z M 228.75 90 " fill-opacity="1" fill-rule="nonzero"/><path fill="#ffab82" d="M 82.5 56.25 L 217.5 56.25 L 217.5 146.25 L 82.5 146.25 Z M 82.5 56.25 " fill-opacity="1" fill-rule="nonzero"/><path fill="#fcfcfc" d="M 228.75 90 L 228.75 56.25 L 217.5 56.25 L 217.5 33.75 L 206.25 33.75 L 206.25 22.5 L 217.5 22.5 L 217.5 0 L 183.75 0 L 183.75 11.25 L 172.5 11.25 L 172.5 0 L 150 0 L 150 22.5 L 138.75 22.5 L 138.75 11.25 L 116.25 11.25 L 116.25 0 L 93.75 0 L 93.75 11.25 L 71.25 11.25 L 71.25 33.75 L 82.5 33.75 L 82.5 56.25 L 71.25 56.25 L 71.25 78.75 L 60 78.75 L 60 101.25 L 71.25 101.25 L 71.25 112.5 L 82.5 112.5 L 82.5 123.75 L 71.25 123.75 L 71.25 157.5 L 82.5 157.5 L 82.5 168.75 L 93.75 168.75 L 93.75 157.5 L 105 157.5 L 105 146.25 L 116.25 146.25 L 116.25 135 L 105 135 L 105 123.75 L 116.25 123.75 L 116.25 101.25 L 138.75 101.25 L 138.75 78.75 L 150 78.75 L 150 90 L 161.25 90 L 161.25 101.25 L 183.75 101.25 L 183.75 123.75 L 195 123.75 L 195 135 L 183.75 135 L 183.75 146.25 L 195 146.25 L 195 168.75 L 228.75 168.75 L 228.75 123.75 L 240 123.75 L 240 90 Z M 228.75 90 " fill-opacity="1" fill-rule="nonzero"/><path fill="#b51c23" d="M 228.75 213.75 L 228.75 191.25 L 217.5 191.25 L 217.5 180 L 206.25 180 L 206.25 168.75 L 93.75 168.75 L 93.75 180 L 82.5 180 L 82.5 191.25 L 71.25 191.25 L 71.25 213.75 L 60 213.75 L 60 281.25 L 71.25 281.25 L 71.25 348.75 L 82.5 348.75 L 82.5 382.5 L 93.75 382.5 L 93.75 405 L 105 405 L 105 416.25 L 195 416.25 L 195 405 L 206.25 405 L 206.25 382.5 L 217.5 382.5 L 217.5 348.75 L 228.75 348.75 L 228.75 281.25 L 240 281.25 L 240 213.75 Z M 228.75 213.75 " fill-opacity="1" fill-rule="nonzero"/><path fill="#fcfcfc" d="M 93.75 146.25 L 93.75 168.75 L 116.25 168.75 L 116.25 180 L 127.5 180 L 127.5 191.25 L 138.75 191.25 L 138.75 202.5 L 161.25 202.5 L 161.25 191.25 L 172.5 191.25 L 172.5 180 L 183.75 180 L 183.75 168.75 L 206.25 168.75 L 206.25 146.25 Z M 93.75 146.25 " fill-opacity="1" fill-rule="nonzero"/><path fill="#160059" d="M 161.25 33.75 L 150 33.75 L 150 22.5 L 138.75 22.5 L 138.75 33.75 L 127.5 33.75 L 127.5 45 L 138.75 45 L 138.75 78.75 L 150 78.75 L 150 45 L 161.25 45 Z M 161.25 33.75 " fill-opacity="0.5" fill-rule="nonzero"/><path fill="#160059" d="M 127.5 67.5 L 161.25 67.5 L 161.25 78.75 L 127.5 78.75 Z M 127.5 67.5 " fill-opacity="1" fill-rule="nonzero"/><path fill="#160059" d="M 127.5 67.5 L 138.75 67.5 L 138.75 101.25 L 127.5 101.25 Z M 127.5 67.5 " fill-opacity="1" fill-rule="nonzero"/><path fill="#160059" d="M 150 67.5 L 161.25 67.5 L 161.25 90 L 150 90 Z M 150 67.5 " fill-opacity="1" fill-rule="nonzero"/><path fill="#160059" d="M 161.25 90 L 183.75 90 L 183.75 101.25 L 161.25 101.25 Z M 161.25 90 " fill-opacity="1" fill-rule="nonzero"/><path fill="#160059" d="M 116.25 90 L 138.75 90 L 138.75 101.25 L 116.25 101.25 Z M 116.25 90 " fill-opacity="1" fill-rule="nonzero"/><path fill="#160059" d="M 105 101.25 L 116.25 101.25 L 116.25 123.75 L 105 123.75 Z M 105 101.25 " fill-opacity="1" fill-rule="nonzero"/><path fill="#160059" d="M 183.75 101.25 L 195 101.25 L 195 123.75 L 183.75 123.75 Z M 183.75 101.25 " fill-opacity="1" fill-rule="nonzero"/><path fill="#160059" d="M 93.75 0 L 116.25 0 L 116.25 11.25 L 93.75 11.25 Z M 93.75 0 " fill-opacity="1" fill-rule="nonzero"/><path fill="#160059" d="M 116.25 11.25 L 138.75 11.25 L 138.75 22.5 L 116.25 22.5 Z M 116.25 11.25 " fill-opacity="1" fill-rule="nonzero"/><path fill="#160059" d="M 71.25 11.25 L 93.75 11.25 L 93.75 22.5 L 71.25 22.5 Z M 71.25 11.25 " fill-opacity="1" fill-rule="nonzero"/><path fill="#160059" d="M 71.25 11.25 L 82.5 11.25 L 82.5 33.75 L 71.25 33.75 Z M 71.25 11.25 " fill-opacity="1" fill-rule="nonzero"/><path fill="#160059" d="M 82.5 33.75 L 93.75 33.75 L 93.75 56.25 L 82.5 56.25 Z M 82.5 33.75 " fill-opacity="1" fill-rule="nonzero"/><path fill="#160059" d="M 71.25 56.25 L 82.5 56.25 L 82.5 78.75 L 71.25 78.75 Z M 71.25 56.25 " fill-opacity="1" fill-rule="nonzero"/><path fill="#160059" d="M 60 78.75 L 71.25 78.75 L 71.25 101.25 L 60 101.25 Z M 60 78.75 " fill-opacity="1" fill-rule="nonzero"/><path fill="#160059" d="M 71.25 101.25 L 82.5 101.25 L 82.5 112.5 L 71.25 112.5 Z M 71.25 101.25 " fill-opacity="1" fill-rule="nonzero"/><path fill="#160059" d="M 82.5 112.5 L 93.75 112.5 L 93.75 123.75 L 82.5 123.75 Z M 82.5 112.5 " fill-opacity="1" fill-rule="nonzero"/><path fill="#160059" d="M 71.25 123.75 L 82.5 123.75 L 82.5 157.5 L 71.25 157.5 Z M 71.25 123.75 " fill-opacity="1" fill-rule="nonzero"/><path fill="#160059" d="M 82.5 157.5 L 93.75 157.5 L 93.75 168.75 L 82.5 168.75 Z M 82.5 157.5 " fill-opacity="1" fill-rule="nonzero"/><path fill="#160059" d="M 93.75 123.75 L 105 123.75 L 105 135 L 93.75 135 Z M 93.75 123.75 " fill-opacity="1" fill-rule="nonzero"/><path fill="#160059" d="M 105 135 L 116.25 135 L 116.25 146.25 L 105 146.25 Z M 105 135 " fill-opacity="1" fill-rule="nonzero"/><path fill="#160059" d="M 116.25 168.75 L 127.5 168.75 L 127.5 180 L 116.25 180 Z M 116.25 168.75 " fill-opacity="1" fill-rule="nonzero"/><path fill="#160059" d="M 127.5 180 L 138.75 180 L 138.75 191.25 L 127.5 191.25 Z M 127.5 180 " fill-opacity="1" fill-rule="nonzero"/><path fill="#160059" d="M 138.75 191.25 L 161.25 191.25 L 161.25 202.5 L 138.75 202.5 Z M 138.75 191.25 " fill-opacity="1" fill-rule="nonzero"/><path fill="#160059" d="M 161.25 180 L 172.5 180 L 172.5 191.25 L 161.25 191.25 Z M 161.25 180 " fill-opacity="1" fill-rule="nonzero"/><path fill="#160059" d="M 172.5 168.75 L 183.75 168.75 L 183.75 180 L 172.5 180 Z M 172.5 168.75 " fill-opacity="1" fill-rule="nonzero"/><path fill="#160059" d="M 206.25 157.5 L 228.75 157.5 L 228.75 168.75 L 206.25 168.75 Z M 206.25 157.5 " fill-opacity="1" fill-rule="nonzero"/><path fill="#160059" d="M 217.5 123.75 L 228.75 123.75 L 228.75 168.75 L 217.5 168.75 Z M 217.5 123.75 " fill-opacity="1" fill-rule="nonzero"/><path fill="#160059" d="M 195 123.75 L 228.75 123.75 L 228.75 135 L 195 135 Z M 195 123.75 " fill-opacity="1" fill-rule="nonzero"/><path fill="#160059" d="M 228.75 90 L 240 90 L 240 123.75 L 228.75 123.75 Z M 228.75 90 " fill-opacity="0.5" fill-rule="nonzero"/><path fill="#160059" d="M 217.5 56.25 L 228.75 56.25 L 228.75 90 L 217.5 90 Z M 217.5 56.25 " fill-opacity="0.5" fill-rule="nonzero"/><path fill="#160059" d="M 206.25 33.75 L 217.5 33.75 L 217.5 56.25 L 206.25 56.25 Z M 206.25 33.75 " fill-opacity="0.5" fill-rule="nonzero"/><path fill="#160059" d="M 195 22.5 L 206.25 22.5 L 206.25 33.75 L 195 33.75 Z M 195 22.5 " fill-opacity="0.5" fill-rule="nonzero"/><path fill="#160059" d="M 206.25 0 L 183.75 0 L 183.75 11.25 L 206.25 11.25 L 206.25 22.5 L 217.5 22.5 L 217.5 0 Z M 206.25 0 " fill-opacity="0.5" fill-rule="nonzero"/><path fill="#160059" d="M 172.5 0 L 150 0 L 150 22.5 L 161.25 22.5 L 161.25 11.25 L 172.5 11.25 Z M 172.5 0 " fill-opacity="0.5" fill-rule="nonzero"/><path fill="#160059" d="M 93.75 168.75 L 105 168.75 L 105 180 L 93.75 180 Z M 93.75 168.75 " fill-opacity="1" fill-rule="nonzero"/><path fill="#160059" d="M 105 157.5 L 116.25 157.5 L 116.25 168.75 L 105 168.75 Z M 105 157.5 " fill-opacity="1" fill-rule="nonzero"/><path fill="#160059" d="M 183.75 157.5 L 195 157.5 L 195 168.75 L 183.75 168.75 Z M 183.75 157.5 " fill-opacity="1" fill-rule="nonzero"/><path fill="#160059" d="M 138.75 56.25 L 150 56.25 L 150 78.75 L 138.75 78.75 Z M 138.75 56.25 " fill-opacity="1" fill-rule="nonzero"/><path fill="#160059" d="M 127.5 22.5 L 138.75 22.5 L 138.75 67.5 L 127.5 67.5 Z M 127.5 22.5 " fill-opacity="0.2" fill-rule="nonzero"/><path fill="#160059" d="M 150 22.5 L 161.25 22.5 L 161.25 67.5 L 150 67.5 Z M 150 22.5 " fill-opacity="0.2" fill-rule="nonzero"/><path fill="#160059" d="M 116.25 67.5 L 127.5 67.5 L 127.5 90 L 116.25 90 Z M 116.25 67.5 " fill-opacity="0.2" fill-rule="nonzero"/><path fill="#160059" d="M 105 146.25 L 116.25 146.25 L 116.25 157.5 L 105 157.5 Z M 105 146.25 " fill-opacity="0.5" fill-rule="nonzero"/><path fill="#160059" d="M 116.25 157.5 L 127.5 157.5 L 127.5 168.75 L 116.25 168.75 Z M 116.25 157.5 " fill-opacity="0.5" fill-rule="nonzero"/><path fill="#160059" d="M 127.5 168.75 L 138.75 168.75 L 138.75 180 L 127.5 180 Z M 127.5 168.75 " fill-opacity="0.5" fill-rule="nonzero"/><path fill="#160059" d="M 161.25 168.75 L 172.5 168.75 L 172.5 180 L 161.25 180 Z M 161.25 168.75 " fill-opacity="0.5" fill-rule="nonzero"/><path fill="#160059" d="M 172.5 157.5 L 183.75 157.5 L 183.75 168.75 L 172.5 168.75 Z M 172.5 157.5 " fill-opacity="0.5" fill-rule="nonzero"/><path fill="#160059" d="M 138.75 180 L 161.25 180 L 161.25 191.25 L 138.75 191.25 Z M 138.75 180 " fill-opacity="0.5" fill-rule="nonzero"/><path fill="#160059" d="M 183.75 90 L 195 90 L 195 101.25 L 183.75 101.25 Z M 183.75 90 " fill-opacity="0.5" fill-rule="nonzero"/><path fill="#160059" d="M 82.5 101.25 L 93.75 101.25 L 93.75 112.5 L 82.5 112.5 Z M 82.5 101.25 " fill-opacity="0.2" fill-rule="nonzero"/><path fill="#160059" d="M 71.25 78.75 L 82.5 78.75 L 82.5 101.25 L 71.25 101.25 Z M 71.25 78.75 " fill-opacity="0.2" fill-rule="nonzero"/><path fill="#160059" d="M 82.5 56.25 L 93.75 56.25 L 93.75 78.75 L 82.5 78.75 Z M 82.5 56.25 " fill-opacity="0.2" fill-rule="nonzero"/><path fill="#160059" d="M 116.25 33.75 L 127.5 33.75 L 127.5 45 L 116.25 45 Z M 116.25 33.75 " fill-opacity="0.2" fill-rule="nonzero"/><path fill="#160059" d="M 93.75 45 L 105 45 L 105 56.25 L 93.75 56.25 Z M 93.75 45 " fill-opacity="0.2" fill-rule="nonzero"/><path fill="#160059" d="M 206.25 67.5 L 217.5 67.5 L 217.5 78.75 L 206.25 78.75 Z M 206.25 67.5 " fill-opacity="0.2" fill-rule="nonzero"/><path fill="#160059" d="M 183.75 33.75 L 195 33.75 L 195 45 L 183.75 45 Z M 183.75 33.75 " fill-opacity="0.2" fill-rule="nonzero"/><path fill="#160059" d="M 161.25 11.25 L 172.5 11.25 L 172.5 22.5 L 161.25 22.5 Z M 161.25 11.25 " fill-opacity="0.2" fill-rule="nonzero"/><path fill="#160059" d="M 172.5 11.25 L 183.75 11.25 L 183.75 22.5 L 172.5 22.5 Z M 172.5 11.25 " fill-opacity="0.5" fill-rule="nonzero"/><path fill="#160059" d="M 105 11.25 L 116.25 11.25 L 116.25 22.5 L 105 22.5 Z M 105 11.25 " fill-opacity="0.2" fill-rule="nonzero"/><path fill="#160059" d="M 116.25 22.5 L 116.25 33.75 L 93.75 33.75 L 93.75 22.5 Z M 116.25 22.5 " fill-opacity="0.5" fill-rule="nonzero"/><path fill="#160059" d="M 127.5 135 L 127.5 146.25 L 116.25 146.25 L 116.25 135 Z M 127.5 135 " fill-opacity="0.3" fill-rule="nonzero"/><path fill="#160059" d="M 161.25 135 L 161.25 146.25 L 138.75 146.25 L 138.75 135 Z M 161.25 135 " fill-opacity="0.3" fill-rule="nonzero"/><path fill="#160059" d="M 161.25 112.5 L 161.25 123.75 L 138.75 123.75 L 138.75 112.5 Z M 161.25 112.5 " fill-opacity="0.3" fill-rule="nonzero"/><path fill="#160059" d="M 183.75 135 L 183.75 146.25 L 172.5 146.25 L 172.5 135 Z M 183.75 135 " fill-opacity="0.3" fill-rule="nonzero"/><path fill="#160059" d="M 93.75 101.25 L 105 101.25 L 105 123.75 L 93.75 123.75 Z M 93.75 101.25 " fill-opacity="0.5" fill-rule="nonzero"/><path fill="#160059" d="M 195 101.25 L 228.75 101.25 L 228.75 123.75 L 195 123.75 Z M 195 101.25 " fill-opacity="0.2" fill-rule="nonzero"/><path fill="#160059" d="M 195 45 L 195 56.25 L 172.5 56.25 L 172.5 67.5 L 206.25 67.5 L 206.25 45 Z M 195 45 " fill-opacity="0.2" fill-rule="nonzero"/><path fill="#160059" d="M 172.5 78.75 L 172.5 67.5 L 161.25 67.5 L 161.25 90 L 195 90 L 195 78.75 Z M 172.5 78.75 " fill-opacity="0.2" fill-rule="nonzero"/><path fill="#160059" d="M 116.25 146.25 L 183.75 146.25 L 183.75 157.5 L 116.25 157.5 Z M 116.25 146.25 " fill-opacity="1" fill-rule="nonzero"/><path fill="#160059" d="M 183.75 135 L 195 135 L 195 146.25 L 183.75 146.25 Z M 183.75 135 " fill-opacity="1" fill-rule="nonzero"/><path fill="#160059" d="M 93.75 135 L 93.75 123.75 L 82.5 123.75 L 82.5 157.5 L 93.75 157.5 L 93.75 146.25 L 105 146.25 L 105 135 Z M 93.75 135 " fill-opacity="0.5" fill-rule="nonzero"/><path fill="#160059" d="M 206.25 146.25 L 206.25 135 L 195 135 L 195 168.75 L 206.25 168.75 L 206.25 157.5 L 217.5 157.5 L 217.5 146.25 Z M 206.25 146.25 " fill-opacity="0.5" fill-rule="nonzero"/><path fill="#160059" d="M 183.75 123.75 L 195 123.75 L 195 135 L 183.75 135 Z M 183.75 123.75 " fill-opacity="0.5" fill-rule="nonzero"/><path fill="#160059" d="M 138.75 78.75 L 161.25 78.75 L 161.25 101.25 L 138.75 101.25 Z M 138.75 78.75 " fill-opacity="0.3" fill-rule="nonzero"/><path fill="#160059" d="M 105 112.5 L 138.75 112.5 L 138.75 123.75 L 105 123.75 Z M 105 112.5 " fill-opacity="1" fill-rule="nonzero"/><path fill="#160059" d="M 161.25 112.5 L 195 112.5 L 195 123.75 L 161.25 123.75 Z M 161.25 112.5 " fill-opacity="1" fill-rule="nonzero"/><path fill="#b51c23" d="M 127.5 123.75 L 138.75 123.75 L 138.75 135 L 127.5 135 Z M 127.5 123.75 " fill-opacity="1" fill-rule="nonzero"/><path fill="#b51c23" d="M 161.25 123.75 L 172.5 123.75 L 172.5 135 L 161.25 135 Z M 161.25 123.75 " fill-opacity="1" fill-rule="nonzero"/><path fill="#160059" d="M 82.5 180 L 93.75 180 L 93.75 191.25 L 82.5 191.25 Z M 82.5 180 " fill-opacity="1" fill-rule="nonzero"/><path fill="#160059" d="M 71.25 191.25 L 82.5 191.25 L 82.5 213.75 L 71.25 213.75 Z M 71.25 191.25 " fill-opacity="1" fill-rule="nonzero"/><path fill="#160059" d="M 60 213.75 L 71.25 213.75 L 71.25 281.25 L 60 281.25 Z M 60 213.75 " fill-opacity="1" fill-rule="nonzero"/><path fill="#160059" d="M 217.5 191.25 L 228.75 191.25 L 228.75 213.75 L 217.5 213.75 Z M 217.5 191.25 " fill-opacity="0.5" fill-rule="nonzero"/><path fill="#160059" d="M 228.75 213.75 L 240 213.75 L 240 281.25 L 228.75 281.25 Z M 228.75 213.75 " fill-opacity="0.5" fill-rule="nonzero"/><path fill="#160059" d="M 71.25 281.25 L 82.5 281.25 L 82.5 348.75 L 71.25 348.75 Z M 71.25 281.25 " fill-opacity="1" fill-rule="nonzero"/><path fill="#160059" d="M 217.5 281.25 L 228.75 281.25 L 228.75 348.75 L 217.5 348.75 Z M 217.5 281.25 " fill-opacity="0.5" fill-rule="nonzero"/><path fill="#160059" d="M 206.25 348.75 L 217.5 348.75 L 217.5 382.5 L 206.25 382.5 Z M 206.25 348.75 " fill-opacity="1" fill-rule="nonzero"/><path fill="#160059" d="M 82.5 348.75 L 93.75 348.75 L 93.75 382.5 L 82.5 382.5 Z M 82.5 348.75 " fill-opacity="1" fill-rule="nonzero"/><path fill="#160059" d="M 93.75 382.5 L 105 382.5 L 105 405 L 93.75 405 Z M 93.75 382.5 " fill-opacity="1" fill-rule="nonzero"/><path fill="#160059" d="M 195 382.5 L 206.25 382.5 L 206.25 405 L 195 405 Z M 195 382.5 " fill-opacity="1" fill-rule="nonzero"/><path fill="#160059" d="M 127.5 202.5 L 138.75 202.5 L 138.75 382.5 L 127.5 382.5 Z M 127.5 202.5 " fill-opacity="1" fill-rule="nonzero"/><path fill="#160059" d="M 161.25 202.5 L 172.5 202.5 L 172.5 382.5 L 161.25 382.5 Z M 161.25 202.5 " fill-opacity="1" fill-rule="nonzero"/><path fill="#160059" d="M 116.25 382.5 L 127.5 382.5 L 127.5 405 L 116.25 405 Z M 116.25 382.5 " fill-opacity="1" fill-rule="nonzero"/><path fill="#160059" d="M 172.5 382.5 L 183.75 382.5 L 183.75 405 L 172.5 405 Z M 172.5 382.5 " fill-opacity="1" fill-rule="nonzero"/><path fill="#87004a" d="M 195 427.5 L 195 416.25 L 183.75 416.25 L 183.75 405 L 172.5 405 L 172.5 382.5 L 161.25 382.5 L 161.25 202.5 L 138.75 202.5 L 138.75 382.5 L 127.5 382.5 L 127.5 405 L 116.25 405 L 116.25 416.25 L 105 416.25 L 105 427.5 L 93.75 427.5 L 93.75 450 L 206.25 450 L 206.25 427.5 Z M 195 427.5 " fill-opacity="1" fill-rule="nonzero"/><path fill="#160059" d="M 127.5 281.25 L 172.5 281.25 L 172.5 292.5 L 127.5 292.5 Z M 127.5 281.25 " fill-opacity="1" fill-rule="nonzero"/><path fill="#160059" d="M 93.75 427.5 L 105 427.5 L 105 450 L 93.75 450 Z M 93.75 427.5 " fill-opacity="1" fill-rule="nonzero"/><path fill="#160059" d="M 93.75 438.75 L 206.25 438.75 L 206.25 450 L 93.75 450 Z M 93.75 438.75 " fill-opacity="1" fill-rule="nonzero"/><path fill="#160059" d="M 195 427.5 L 206.25 427.5 L 206.25 450 L 195 450 Z M 195 427.5 " fill-opacity="1" fill-rule="nonzero"/><path fill="#160059" d="M 105 405 L 116.25 405 L 116.25 427.5 L 105 427.5 Z M 105 405 " fill-opacity="1" fill-rule="nonzero"/><path fill="#160059" d="M 183.75 405 L 195 405 L 195 427.5 L 183.75 427.5 Z M 183.75 405 " fill-opacity="1" fill-rule="nonzero"/><path fill="#160059" d="M 195 405 L 105 405 L 105 416.25 L 138.75 416.25 L 138.75 450 L 161.25 450 L 161.25 416.25 L 195 416.25 Z M 195 405 " fill-opacity="1" fill-rule="nonzero"/><path fill="#160059" d="M 127.5 416.25 L 127.5 427.5 L 116.25 427.5 L 116.25 438.75 L 138.75 438.75 L 138.75 416.25 Z M 127.5 416.25 " fill-opacity="0.5" fill-rule="nonzero"/><path fill="#160059" d="M 172.5 416.25 L 172.5 427.5 L 183.75 427.5 L 183.75 438.75 L 161.25 438.75 L 161.25 416.25 Z M 172.5 416.25 " fill-opacity="0.5" fill-rule="nonzero"/><path fill="#160059" d="M 127.5 393.75 L 172.5 393.75 L 172.5 405 L 127.5 405 Z M 127.5 393.75 " fill-opacity="0.5" fill-rule="nonzero"/><path fill="#160059" d="M 138.75 292.5 L 161.25 292.5 L 161.25 303.75 L 138.75 303.75 Z M 138.75 292.5 " fill-opacity="0.5" fill-rule="nonzero"/><path fill="#160059" d="M 138.75 303.75 L 161.25 303.75 L 161.25 348.75 L 138.75 348.75 Z M 138.75 303.75 " fill-opacity="0.2" fill-rule="nonzero"/><path fill="#160059" d="M 138.75 213.75 L 161.25 213.75 L 161.25 225 L 138.75 225 Z M 138.75 213.75 " fill-opacity="0.2" fill-rule="nonzero"/><path fill="#160059" d="M 127.5 202.5 L 172.5 202.5 L 172.5 213.75 L 127.5 213.75 Z M 127.5 202.5 " fill-opacity="0.5" fill-rule="nonzero"/><path fill="#160059" d="M 105 168.75 L 116.25 168.75 L 116.25 180 L 105 180 Z M 105 168.75 " fill-opacity="0.5" fill-rule="nonzero"/><path fill="#160059" d="M 93.75 180 L 105 180 L 105 191.25 L 93.75 191.25 Z M 93.75 180 " fill-opacity="0.5" fill-rule="nonzero"/><path fill="#160059" d="M 105 191.25 L 116.25 191.25 L 116.25 202.5 L 105 202.5 Z M 105 191.25 " fill-opacity="0.5" fill-rule="nonzero"/><path fill="#160059" d="M 116.25 202.5 L 127.5 202.5 L 127.5 213.75 L 116.25 213.75 Z M 116.25 202.5 " fill-opacity="0.5" fill-rule="nonzero"/><path fill="#160059" d="M 116.25 180 L 127.5 180 L 127.5 191.25 L 116.25 191.25 Z M 116.25 180 " fill-opacity="0.5" fill-rule="nonzero"/><path fill="#160059" d="M 172.5 180 L 183.75 180 L 183.75 191.25 L 172.5 191.25 Z M 172.5 180 " fill-opacity="0.5" fill-rule="nonzero"/><path fill="#160059" d="M 172.5 202.5 L 183.75 202.5 L 183.75 213.75 L 172.5 213.75 Z M 172.5 202.5 " fill-opacity="0.5" fill-rule="nonzero"/><path fill="#160059" d="M 183.75 191.25 L 195 191.25 L 195 202.5 L 183.75 202.5 Z M 183.75 191.25 " fill-opacity="0.5" fill-rule="nonzero"/><path fill="#160059" d="M 206.25 180 L 206.25 168.75 L 183.75 168.75 L 183.75 180 L 195 180 L 195 191.25 L 217.5 191.25 L 217.5 180 Z M 206.25 180 " fill-opacity="0.5" fill-rule="nonzero"/><path fill="#160059" d="M 127.5 191.25 L 138.75 191.25 L 138.75 202.5 L 127.5 202.5 Z M 127.5 191.25 " fill-opacity="0.5" fill-rule="nonzero"/><path fill="#160059" d="M 161.25 191.25 L 172.5 191.25 L 172.5 202.5 L 161.25 202.5 Z M 161.25 191.25 " fill-opacity="0.5" fill-rule="nonzero"/><path fill="#160059" d="M 71.25 225 L 82.5 225 L 82.5 281.25 L 71.25 281.25 Z M 71.25 225 " fill-opacity="0.2" fill-rule="nonzero"/><path fill="#160059" d="M 217.5 225 L 228.75 225 L 228.75 281.25 L 217.5 281.25 Z M 217.5 225 " fill-opacity="0.2" fill-rule="nonzero"/><path fill="#160059" d="M 82.5 292.5 L 93.75 292.5 L 93.75 348.75 L 82.5 348.75 Z M 82.5 292.5 " fill-opacity="0.2" fill-rule="nonzero"/><path fill="#160059" d="M 206.25 292.5 L 217.5 292.5 L 217.5 348.75 L 206.25 348.75 Z M 206.25 292.5 " fill-opacity="0.2" fill-rule="nonzero"/><path fill="#160059" d="M 93.75 360 L 105 360 L 105 382.5 L 93.75 382.5 Z M 93.75 360 " fill-opacity="0.2" fill-rule="nonzero"/><path fill="#160059" d="M 195 360 L 206.25 360 L 206.25 382.5 L 195 382.5 Z M 195 360 " fill-opacity="0.2" fill-rule="nonzero"/><path fill="#160059" d="M 183.75 382.5 L 195 382.5 L 195 405 L 183.75 405 Z M 183.75 382.5 " fill-opacity="0.2" fill-rule="nonzero"/><path fill="#160059" d="M 105 382.5 L 116.25 382.5 L 116.25 405 L 105 405 Z M 105 382.5 " fill-opacity="0.2" fill-rule="nonzero"/><path fill="#160059" d="M 105 225 L 116.25 225 L 116.25 281.25 L 105 281.25 Z M 105 225 " fill-opacity="0.5" fill-rule="nonzero"/><path fill="#160059" d="M 116.25 281.25 L 127.5 281.25 L 127.5 326.25 L 116.25 326.25 Z M 116.25 281.25 " fill-opacity="0.5" fill-rule="nonzero"/><path fill="#160059" d="M 116.25 337.5 L 127.5 337.5 L 127.5 348.75 L 116.25 348.75 Z M 116.25 337.5 " fill-opacity="0.2" fill-rule="nonzero"/><path fill="#160059" d="M 172.5 337.5 L 183.75 337.5 L 183.75 348.75 L 172.5 348.75 Z M 172.5 337.5 " fill-opacity="0.2" fill-rule="nonzero"/><path fill="#160059" d="M 195 281.25 L 183.75 281.25 L 183.75 225 L 195 225 Z M 195 281.25 " fill-opacity="0.5" fill-rule="nonzero"/><path fill="#160059" d="M 183.75 326.25 L 172.5 326.25 L 172.5 281.25 L 183.75 281.25 Z M 183.75 326.25 " fill-opacity="0.5" fill-rule="nonzero"/></svg>