<svg xmlns="http://www.w3.org/2000/svg" xmlns:xlink="http://www.w3.org/1999/xlink" width="400" zoomAndPan="magnify" viewBox="0 0 300 449.999984" height="600" preserveAspectRatio="xMidYMid meet" version="1.0"><defs><filter x="0%" y="0%" width="100%" height="100%" id="8b4c28756d"><feColorMatrix values="0 0 0 0 1 0 0 0 0 1 0 0 0 0 1 0 0 0 1 0" color-interpolation-filters="sRGB"/></filter><clipPath id="ab147dad27"><path d="M 23.183594 0 L 276.683594 0 L 276.683594 450 L 23.183594 450 Z M 23.183594 0 " clip-rule="nonzero"/></clipPath><clipPath id="cbc4434074"><path d="M 23.183594 322 L 81 322 L 81 358 L 23.183594 358 Z M 23.183594 322 " clip-rule="nonzero"/></clipPath><clipPath id="61b36c4566"><path d="M 219 322 L 276.683594 322 L 276.683594 358 L 219 358 Z M 219 322 " clip-rule="nonzero"/></clipPath><clipPath id="a3b3829b38"><path d="M 23.183594 322 L 35 322 L 35 347 L 23.183594 347 Z M 23.183594 322 " clip-rule="nonzero"/></clipPath><clipPath id="7b38ba599b"><path d="M 230 322 L 276.683594 322 L 276.683594 358 L 230 358 Z M 230 322 " clip-rule="nonzero"/></clipPath><mask id="848761e57c"><g filter="url(#8b4c28756d)"><rect x="-30" width="360" fill="#000000" y="-44.999998" height="539.99998" fill-opacity="0.5"/></g></mask><clipPath id="773300940f"><path d="M 0.160156 0.199219 L 12 0.199219 L 12 12 L 0.160156 12 Z M 0.160156 0.199219 " clip-rule="nonzero"/></clipPath><clipPath id="56cbb7f3f4"><path d="M 11 0.199219 L 34.960938 0.199219 L 34.960938 23.480469 L 11 23.480469 Z M 11 0.199219 " clip-rule="nonzero"/></clipPath><clipPath id="3880b5aad1"><rect x="0" width="35" y="0" height="24"/></clipPath><mask id="6d2e07a0f1"><g filter="url(#8b4c28756d)"><rect x="-30" width="360" fill="#000000" y="-44.999998" height="539.99998" fill-opacity="0.5"/></g></mask><clipPath id="271bd4904f"><path d="M 24 0.199219 L 35.601562 0.199219 L 35.601562 12 L 24 12 Z M 24 0.199219 " clip-rule="nonzero"/></clipPath><clipPath id="994d2c3089"><path d="M 0.800781 0.199219 L 25 0.199219 L 25 23.480469 L 0.800781 23.480469 Z M 0.800781 0.199219 " clip-rule="nonzero"/></clipPath><clipPath id="eadd4c0352"><rect x="0" width="36" y="0" height="24"/></clipPath></defs><g clip-path="url(#ab147dad27)"><path fill="#160059" d="M 265.160156 322.992188 L 265.160156 265.351562 L 253.636719 265.351562 L 253.636719 230.765625 L 242.113281 230.765625 L 242.113281 207.707031 L 230.589844 207.707031 L 230.589844 196.179688 L 219.066406 196.179688 L 219.066406 184.648438 L 207.546875 184.648438 L 207.546875 173.121094 L 219.066406 173.121094 L 219.066406 161.59375 L 230.589844 161.59375 L 230.589844 127.007812 L 219.066406 127.007812 L 219.066406 115.476562 L 230.589844 115.476562 L 230.589844 92.421875 L 242.113281 92.421875 L 242.113281 80.894531 L 253.636719 80.894531 L 253.636719 57.835938 L 242.113281 57.835938 L 242.113281 46.308594 L 219.066406 46.308594 L 219.066406 57.835938 L 207.546875 57.835938 L 207.546875 11.722656 L 196.023438 11.722656 L 196.023438 0.191406 L 172.976562 0.191406 L 172.976562 11.722656 L 126.886719 11.722656 L 126.886719 0.191406 L 103.839844 0.191406 L 103.839844 11.722656 L 92.316406 11.722656 L 92.316406 57.835938 L 80.796875 57.835938 L 80.796875 46.308594 L 57.75 46.308594 L 57.75 57.835938 L 46.226562 57.835938 L 46.226562 80.894531 L 57.75 80.894531 L 57.75 92.421875 L 69.273438 92.421875 L 69.273438 115.476562 L 80.796875 115.476562 L 80.796875 127.007812 L 69.273438 127.007812 L 69.273438 161.59375 L 80.796875 161.59375 L 80.796875 173.121094 L 92.316406 173.121094 L 92.316406 184.648438 L 80.796875 184.648438 L 80.796875 196.179688 L 69.273438 196.179688 L 69.273438 207.707031 L 57.75 207.707031 L 57.75 230.765625 L 46.226562 230.765625 L 46.226562 265.351562 L 34.703125 265.351562 L 34.703125 322.992188 L 23.183594 322.992188 L 23.183594 346.050781 L 34.703125 346.050781 L 34.703125 357.578125 L 69.273438 357.578125 L 69.273438 403.691406 L 57.75 403.691406 L 57.75 415.222656 L 80.796875 415.222656 L 80.796875 438.277344 L 92.316406 438.277344 L 92.316406 449.808594 L 126.886719 449.808594 L 126.886719 438.277344 L 138.410156 438.277344 L 138.410156 415.222656 L 161.453125 415.222656 L 161.453125 438.277344 L 172.976562 438.277344 L 172.976562 449.808594 L 207.546875 449.808594 L 207.546875 438.277344 L 219.066406 438.277344 L 219.066406 415.222656 L 242.113281 415.222656 L 242.113281 403.691406 L 230.589844 403.691406 L 230.589844 357.578125 L 265.160156 357.578125 L 265.160156 346.050781 L 276.683594 346.050781 L 276.683594 322.992188 Z M 265.160156 322.992188 " fill-opacity="1" fill-rule="nonzero"/></g><path fill="#ffc1ae" d="M 207.546875 92.421875 L 92.316406 92.421875 L 92.316406 150.0625 L 103.839844 150.0625 L 103.839844 161.59375 L 115.363281 161.59375 L 115.363281 173.121094 L 184.5 173.121094 L 184.5 161.59375 L 196.023438 161.59375 L 196.023438 150.0625 L 207.546875 150.0625 Z M 207.546875 92.421875 " fill-opacity="1" fill-rule="nonzero"/><path fill="#ffb600" d="M 230.589844 115.476562 L 230.589844 92.421875 L 219.066406 92.421875 L 219.066406 80.894531 L 207.546875 80.894531 L 207.546875 57.835938 L 196.023438 57.835938 L 196.023438 46.308594 L 184.5 46.308594 L 184.5 34.777344 L 161.453125 34.777344 L 161.453125 46.308594 L 138.410156 46.308594 L 138.410156 34.777344 L 115.363281 34.777344 L 115.363281 46.308594 L 103.839844 46.308594 L 103.839844 57.835938 L 92.316406 57.835938 L 92.316406 80.894531 L 80.796875 80.894531 L 80.796875 92.421875 L 69.273438 92.421875 L 69.273438 115.476562 L 80.796875 115.476562 L 80.796875 127.007812 L 69.273438 127.007812 L 69.273438 161.59375 L 80.796875 161.59375 L 80.796875 173.121094 L 92.316406 173.121094 L 92.316406 184.648438 L 115.363281 184.648438 L 115.363281 173.121094 L 126.886719 173.121094 L 126.886719 161.59375 L 115.363281 161.59375 L 115.363281 150.0625 L 103.839844 150.0625 L 103.839844 127.007812 L 115.363281 127.007812 L 115.363281 103.949219 L 126.886719 103.949219 L 126.886719 92.421875 L 138.410156 92.421875 L 138.410156 103.949219 L 161.453125 103.949219 L 161.453125 92.421875 L 172.976562 92.421875 L 172.976562 103.949219 L 184.5 103.949219 L 184.5 127.007812 L 196.023438 127.007812 L 196.023438 150.0625 L 184.5 150.0625 L 184.5 161.59375 L 172.976562 161.59375 L 172.976562 173.121094 L 184.5 173.121094 L 184.5 184.648438 L 207.546875 184.648438 L 207.546875 173.121094 L 219.066406 173.121094 L 219.066406 161.59375 L 230.589844 161.59375 L 230.589844 127.007812 L 219.066406 127.007812 L 219.066406 115.476562 Z M 230.589844 115.476562 " fill-opacity="1" fill-rule="nonzero"/><path fill="#762d00" d="M 242.113281 57.835938 L 242.113281 46.308594 L 219.066406 46.308594 L 219.066406 57.835938 L 207.546875 57.835938 L 207.546875 11.722656 L 196.023438 11.722656 L 196.023438 0.191406 L 172.976562 0.191406 L 172.976562 11.722656 L 126.886719 11.722656 L 126.886719 0.191406 L 103.839844 0.191406 L 103.839844 11.722656 L 92.316406 11.722656 L 92.316406 57.835938 L 80.796875 57.835938 L 80.796875 46.308594 L 57.75 46.308594 L 57.75 57.835938 L 46.226562 57.835938 L 46.226562 80.894531 L 57.75 80.894531 L 57.75 92.421875 L 69.273438 92.421875 L 69.273438 103.949219 L 92.316406 103.949219 L 92.316406 115.476562 L 207.546875 115.476562 L 207.546875 103.949219 L 230.589844 103.949219 L 230.589844 92.421875 L 242.113281 92.421875 L 242.113281 80.894531 L 253.636719 80.894531 L 253.636719 57.835938 Z M 242.113281 57.835938 " fill-opacity="1" fill-rule="nonzero"/><path fill="#ee4582" d="M 115.363281 173.121094 L 184.5 173.121094 L 184.5 299.9375 L 115.363281 299.9375 Z M 115.363281 173.121094 " fill-opacity="1" fill-rule="nonzero"/><path fill="#ee4582" d="M 80.796875 184.648438 L 219.066406 184.648438 L 219.066406 299.9375 L 80.796875 299.9375 Z M 80.796875 184.648438 " fill-opacity="1" fill-rule="nonzero"/><path fill="#ee4582" d="M 69.273438 196.179688 L 230.589844 196.179688 L 230.589844 311.464844 L 69.273438 311.464844 Z M 69.273438 196.179688 " fill-opacity="1" fill-rule="nonzero"/><path fill="#ee4582" d="M 57.75 207.707031 L 242.113281 207.707031 L 242.113281 311.464844 L 57.75 311.464844 Z M 57.75 207.707031 " fill-opacity="1" fill-rule="nonzero"/><path fill="#ee4582" d="M 34.703125 265.351562 L 265.160156 265.351562 L 265.160156 334.523438 L 34.703125 334.523438 Z M 34.703125 265.351562 " fill-opacity="1" fill-rule="nonzero"/><path fill="#ee4582" d="M 46.226562 230.765625 L 253.636719 230.765625 L 253.636719 311.464844 L 46.226562 311.464844 Z M 46.226562 230.765625 " fill-opacity="1" fill-rule="nonzero"/><path fill="#ee4582" d="M 69.273438 334.523438 L 230.589844 334.523438 L 230.589844 415.222656 L 69.273438 415.222656 Z M 69.273438 334.523438 " fill-opacity="1" fill-rule="nonzero"/><g clip-path="url(#cbc4434074)"><path fill="#ffc1ae" d="M 80.796875 322.992188 L 23.183594 322.992188 L 23.183594 346.050781 L 34.703125 346.050781 L 34.703125 357.578125 L 69.273438 357.578125 L 69.273438 346.050781 L 80.796875 346.050781 Z M 80.796875 322.992188 " fill-opacity="1" fill-rule="nonzero"/></g><g clip-path="url(#61b36c4566)"><path fill="#ffc1ae" d="M 276.683594 322.992188 L 219.066406 322.992188 L 219.066406 346.050781 L 230.589844 346.050781 L 230.589844 357.578125 L 265.160156 357.578125 L 265.160156 346.050781 L 276.683594 346.050781 Z M 276.683594 322.992188 " fill-opacity="1" fill-rule="nonzero"/></g><path fill="#762d00" d="M 80.796875 415.222656 L 80.796875 438.277344 L 92.316406 438.277344 L 92.316406 449.808594 L 126.886719 449.808594 L 126.886719 438.277344 L 138.410156 438.277344 L 138.410156 415.222656 Z M 80.796875 415.222656 " fill-opacity="1" fill-rule="nonzero"/><path fill="#762d00" d="M 161.453125 415.222656 L 161.453125 438.277344 L 172.976562 438.277344 L 172.976562 449.808594 L 207.546875 449.808594 L 207.546875 438.277344 L 219.066406 438.277344 L 219.066406 415.222656 Z M 161.453125 415.222656 " fill-opacity="1" fill-rule="nonzero"/><path fill="#160059" d="M 103.839844 0.191406 L 126.886719 0.191406 L 126.886719 11.722656 L 103.839844 11.722656 Z M 103.839844 0.191406 " fill-opacity="1" fill-rule="nonzero"/><path fill="#160059" d="M 172.976562 0.191406 L 196.023438 0.191406 L 196.023438 11.722656 L 172.976562 11.722656 Z M 172.976562 0.191406 " fill-opacity="0.5" fill-rule="nonzero"/><path fill="#160059" d="M 115.363281 11.722656 L 184.5 11.722656 L 184.5 23.25 L 115.363281 23.25 Z M 115.363281 11.722656 " fill-opacity="0.5" fill-rule="nonzero"/><path fill="#160059" d="M 126.886719 11.722656 L 172.976562 11.722656 L 172.976562 34.777344 L 126.886719 34.777344 Z M 126.886719 11.722656 " fill-opacity="0.5" fill-rule="nonzero"/><path fill="#160059" d="M 92.316406 11.722656 L 103.839844 11.722656 L 103.839844 57.835938 L 92.316406 57.835938 Z M 92.316406 11.722656 " fill-opacity="1" fill-rule="nonzero"/><path fill="#160059" d="M 80.796875 57.835938 L 103.839844 57.835938 L 103.839844 69.363281 L 80.796875 69.363281 Z M 80.796875 57.835938 " fill-opacity="1" fill-rule="nonzero"/><path fill="#160059" d="M 57.75 46.308594 L 80.796875 46.308594 L 80.796875 57.835938 L 57.75 57.835938 Z M 57.75 46.308594 " fill-opacity="1" fill-rule="nonzero"/><path fill="#160059" d="M 46.226562 57.835938 L 57.75 57.835938 L 57.75 80.894531 L 46.226562 80.894531 Z M 46.226562 57.835938 " fill-opacity="1" fill-rule="nonzero"/><path fill="#160059" d="M 57.75 80.894531 L 69.273438 80.894531 L 69.273438 92.421875 L 57.75 92.421875 Z M 57.75 80.894531 " fill-opacity="1" fill-rule="nonzero"/><path fill="#160059" d="M 69.273438 92.421875 L 92.316406 92.421875 L 92.316406 103.949219 L 69.273438 103.949219 Z M 69.273438 92.421875 " fill-opacity="1" fill-rule="nonzero"/><path fill="#160059" d="M 92.316406 103.949219 L 207.546875 103.949219 L 207.546875 115.476562 L 92.316406 115.476562 Z M 92.316406 103.949219 " fill-opacity="1" fill-rule="nonzero"/><path fill="#160059" d="M 80.796875 103.949219 L 219.066406 103.949219 L 219.066406 115.476562 L 80.796875 115.476562 Z M 80.796875 103.949219 " fill-opacity="0.5" fill-rule="nonzero"/><path fill="#160059" d="M 207.546875 92.421875 L 230.589844 92.421875 L 230.589844 103.949219 L 207.546875 103.949219 Z M 207.546875 92.421875 " fill-opacity="1" fill-rule="nonzero"/><path fill="#160059" d="M 230.589844 80.894531 L 242.113281 80.894531 L 242.113281 92.421875 L 230.589844 92.421875 Z M 230.589844 80.894531 " fill-opacity="1" fill-rule="nonzero"/><path fill="#160059" d="M 242.113281 57.835938 L 242.113281 46.308594 L 219.066406 46.308594 L 219.066406 57.835938 L 207.546875 57.835938 L 207.546875 11.722656 L 196.023438 11.722656 L 196.023438 69.363281 L 230.589844 69.363281 L 230.589844 57.835938 Z M 242.113281 57.835938 " fill-opacity="0.5" fill-rule="nonzero"/><path fill="#160059" d="M 242.113281 57.835938 L 242.113281 69.363281 L 230.589844 69.363281 L 230.589844 80.894531 L 253.636719 80.894531 L 253.636719 57.835938 Z M 242.113281 57.835938 " fill-opacity="0.5" fill-rule="nonzero"/><path fill="#160059" d="M 69.273438 57.835938 L 80.796875 57.835938 L 80.796875 69.363281 L 69.273438 69.363281 Z M 69.273438 57.835938 " fill-opacity="0.5" fill-rule="nonzero"/><path fill="#160059" d="M 92.316406 69.363281 L 103.839844 69.363281 L 103.839844 80.894531 L 92.316406 80.894531 Z M 92.316406 69.363281 " fill-opacity="0.5" fill-rule="nonzero"/><path fill="#160059" d="M 103.839844 80.894531 L 196.023438 80.894531 L 196.023438 92.421875 L 103.839844 92.421875 Z M 103.839844 80.894531 " fill-opacity="0.5" fill-rule="nonzero"/><path fill="#160059" d="M 115.363281 69.363281 L 184.5 69.363281 L 184.5 80.894531 L 115.363281 80.894531 Z M 115.363281 69.363281 " fill-opacity="0.2" fill-rule="nonzero"/><path fill="#160059" d="M 196.023438 69.363281 L 207.546875 69.363281 L 207.546875 80.894531 L 196.023438 80.894531 Z M 196.023438 69.363281 " fill-opacity="0.5" fill-rule="nonzero"/><path fill="#160059" d="M 57.75 69.363281 L 69.273438 69.363281 L 69.273438 80.894531 L 57.75 80.894531 Z M 57.75 69.363281 " fill-opacity="0.5" fill-rule="nonzero"/><path fill="#160059" d="M 184.5 57.835938 L 196.023438 57.835938 L 196.023438 69.363281 L 184.5 69.363281 Z M 184.5 57.835938 " fill-opacity="0.5" fill-rule="nonzero"/><path fill="#160059" d="M 103.839844 57.835938 L 115.363281 57.835938 L 115.363281 69.363281 L 103.839844 69.363281 Z M 103.839844 57.835938 " fill-opacity="0.5" fill-rule="nonzero"/><path fill="#160059" d="M 92.316406 92.421875 L 115.363281 92.421875 L 115.363281 103.949219 L 92.316406 103.949219 Z M 92.316406 92.421875 " fill-opacity="0.2" fill-rule="nonzero"/><path fill="#160059" d="M 184.5 92.421875 L 207.546875 92.421875 L 207.546875 103.949219 L 184.5 103.949219 Z M 184.5 92.421875 " fill-opacity="0.2" fill-rule="nonzero"/><path fill="#160059" d="M 69.273438 80.894531 L 92.316406 80.894531 L 92.316406 92.421875 L 69.273438 92.421875 Z M 69.273438 80.894531 " fill-opacity="0.2" fill-rule="nonzero"/><path fill="#160059" d="M 207.546875 80.894531 L 230.589844 80.894531 L 230.589844 92.421875 L 207.546875 92.421875 Z M 207.546875 80.894531 " fill-opacity="0.2" fill-rule="nonzero"/><path fill="#160059" d="M 69.273438 92.421875 L 80.796875 92.421875 L 80.796875 115.476562 L 69.273438 115.476562 Z M 69.273438 92.421875 " fill-opacity="1" fill-rule="nonzero"/><path fill="#160059" d="M 80.796875 115.476562 L 92.316406 115.476562 L 92.316406 127.007812 L 80.796875 127.007812 Z M 80.796875 115.476562 " fill-opacity="1" fill-rule="nonzero"/><path fill="#160059" d="M 69.273438 127.007812 L 80.796875 127.007812 L 80.796875 161.59375 L 69.273438 161.59375 Z M 69.273438 127.007812 " fill-opacity="1" fill-rule="nonzero"/><path fill="#160059" d="M 80.796875 161.59375 L 92.316406 161.59375 L 92.316406 173.121094 L 80.796875 173.121094 Z M 80.796875 161.59375 " fill-opacity="1" fill-rule="nonzero"/><path fill="#160059" d="M 92.316406 173.121094 L 115.363281 173.121094 L 115.363281 184.648438 L 92.316406 184.648438 Z M 92.316406 173.121094 " fill-opacity="1" fill-rule="nonzero"/><path fill="#160059" d="M 219.066406 103.949219 L 230.589844 103.949219 L 230.589844 115.476562 L 219.066406 115.476562 Z M 219.066406 103.949219 " fill-opacity="1" fill-rule="nonzero"/><path fill="#160059" d="M 207.546875 115.476562 L 219.066406 115.476562 L 219.066406 127.007812 L 207.546875 127.007812 Z M 207.546875 115.476562 " fill-opacity="1" fill-rule="nonzero"/><path fill="#160059" d="M 219.066406 127.007812 L 230.589844 127.007812 L 230.589844 161.59375 L 219.066406 161.59375 Z M 219.066406 127.007812 " fill-opacity="1" fill-rule="nonzero"/><path fill="#160059" d="M 207.546875 161.59375 L 219.066406 161.59375 L 219.066406 173.121094 L 207.546875 173.121094 Z M 207.546875 161.59375 " fill-opacity="1" fill-rule="nonzero"/><path fill="#160059" d="M 184.5 173.121094 L 207.546875 173.121094 L 207.546875 184.648438 L 184.5 184.648438 Z M 184.5 173.121094 " fill-opacity="1" fill-rule="nonzero"/><path fill="#160059" d="M 115.363281 127.007812 L 138.410156 127.007812 L 138.410156 138.535156 L 115.363281 138.535156 Z M 115.363281 127.007812 " fill-opacity="1" fill-rule="nonzero"/><path fill="#160059" d="M 161.453125 127.007812 L 184.5 127.007812 L 184.5 138.535156 L 161.453125 138.535156 Z M 161.453125 127.007812 " fill-opacity="1" fill-rule="nonzero"/><path fill="#762d00" d="M 126.886719 138.535156 L 138.410156 138.535156 L 138.410156 150.0625 L 126.886719 150.0625 Z M 126.886719 138.535156 " fill-opacity="1" fill-rule="nonzero"/><path fill="#762d00" d="M 161.453125 138.535156 L 172.976562 138.535156 L 172.976562 150.0625 L 161.453125 150.0625 Z M 161.453125 138.535156 " fill-opacity="1" fill-rule="nonzero"/><path fill="#160059" d="M 92.316406 127.007812 L 103.839844 127.007812 L 103.839844 150.0625 L 92.316406 150.0625 Z M 92.316406 127.007812 " fill-opacity="1" fill-rule="nonzero"/><path fill="#160059" d="M 103.839844 103.949219 L 115.363281 103.949219 L 115.363281 127.007812 L 103.839844 127.007812 Z M 103.839844 103.949219 " fill-opacity="1" fill-rule="nonzero"/><path fill="#160059" d="M 184.5 103.949219 L 196.023438 103.949219 L 196.023438 127.007812 L 184.5 127.007812 Z M 184.5 103.949219 " fill-opacity="1" fill-rule="nonzero"/><path fill="#160059" d="M 196.023438 127.007812 L 207.546875 127.007812 L 207.546875 150.0625 L 196.023438 150.0625 Z M 196.023438 127.007812 " fill-opacity="1" fill-rule="nonzero"/><path fill="#160059" d="M 184.5 150.0625 L 196.023438 150.0625 L 196.023438 161.59375 L 184.5 161.59375 Z M 184.5 150.0625 " fill-opacity="1" fill-rule="nonzero"/><path fill="#160059" d="M 172.976562 161.59375 L 184.5 161.59375 L 184.5 173.121094 L 172.976562 173.121094 Z M 172.976562 161.59375 " fill-opacity="1" fill-rule="nonzero"/><path fill="#160059" d="M 103.839844 150.0625 L 115.363281 150.0625 L 115.363281 161.59375 L 103.839844 161.59375 Z M 103.839844 150.0625 " fill-opacity="1" fill-rule="nonzero"/><path fill="#160059" d="M 115.363281 161.59375 L 126.886719 161.59375 L 126.886719 173.121094 L 115.363281 173.121094 Z M 115.363281 161.59375 " fill-opacity="1" fill-rule="nonzero"/><path fill="#762d00" d="M 115.363281 173.121094 L 184.5 173.121094 L 184.5 184.648438 L 115.363281 184.648438 Z M 115.363281 173.121094 " fill-opacity="1" fill-rule="nonzero"/><path fill="#762d00" d="M 126.886719 173.121094 L 172.976562 173.121094 L 172.976562 196.179688 L 126.886719 196.179688 Z M 126.886719 173.121094 " fill-opacity="1" fill-rule="nonzero"/><path fill="#762d00" d="M 138.410156 173.121094 L 161.453125 173.121094 L 161.453125 207.707031 L 138.410156 207.707031 Z M 138.410156 173.121094 " fill-opacity="1" fill-rule="nonzero"/><path fill="#160059" d="M 115.363281 161.59375 L 184.5 161.59375 L 184.5 173.121094 L 115.363281 173.121094 Z M 115.363281 161.59375 " fill-opacity="0.3" fill-rule="nonzero"/><path fill="#160059" d="M 92.316406 115.476562 L 207.546875 115.476562 L 207.546875 127.007812 L 92.316406 127.007812 Z M 92.316406 115.476562 " fill-opacity="0.5" fill-rule="nonzero"/><path fill="#160059" d="M 103.839844 127.007812 L 115.363281 127.007812 L 115.363281 150.0625 L 103.839844 150.0625 Z M 103.839844 127.007812 " fill-opacity="0.2" fill-rule="nonzero"/><path fill="#160059" d="M 184.5 127.007812 L 196.023438 127.007812 L 196.023438 150.0625 L 184.5 150.0625 Z M 184.5 127.007812 " fill-opacity="0.2" fill-rule="nonzero"/><path fill="#160059" d="M 115.363281 184.648438 L 126.886719 184.648438 L 126.886719 196.179688 L 115.363281 196.179688 Z M 115.363281 184.648438 " fill-opacity="1" fill-rule="nonzero"/><path fill="#160059" d="M 126.886719 196.179688 L 138.410156 196.179688 L 138.410156 207.707031 L 126.886719 207.707031 Z M 126.886719 196.179688 " fill-opacity="1" fill-rule="nonzero"/><path fill="#160059" d="M 138.410156 207.707031 L 161.453125 207.707031 L 161.453125 219.234375 L 138.410156 219.234375 Z M 138.410156 207.707031 " fill-opacity="1" fill-rule="nonzero"/><path fill="#160059" d="M 161.453125 196.179688 L 172.976562 196.179688 L 172.976562 207.707031 L 161.453125 207.707031 Z M 161.453125 196.179688 " fill-opacity="1" fill-rule="nonzero"/><path fill="#160059" d="M 172.976562 184.648438 L 184.5 184.648438 L 184.5 196.179688 L 172.976562 196.179688 Z M 172.976562 184.648438 " fill-opacity="1" fill-rule="nonzero"/><path fill="#160059" d="M 126.886719 184.648438 L 172.976562 184.648438 L 172.976562 196.179688 L 126.886719 196.179688 Z M 126.886719 184.648438 " fill-opacity="0.5" fill-rule="nonzero"/><path fill="#160059" d="M 80.796875 184.648438 L 92.316406 184.648438 L 92.316406 196.179688 L 80.796875 196.179688 Z M 80.796875 184.648438 " fill-opacity="1" fill-rule="nonzero"/><path fill="#160059" d="M 69.273438 196.179688 L 80.796875 196.179688 L 80.796875 207.707031 L 69.273438 207.707031 Z M 69.273438 196.179688 " fill-opacity="1" fill-rule="nonzero"/><path fill="#160059" d="M 57.75 207.707031 L 69.273438 207.707031 L 69.273438 230.765625 L 57.75 230.765625 Z M 57.75 207.707031 " fill-opacity="1" fill-rule="nonzero"/><path fill="#160059" d="M 46.226562 230.765625 L 57.75 230.765625 L 57.75 265.351562 L 46.226562 265.351562 Z M 46.226562 230.765625 " fill-opacity="1" fill-rule="nonzero"/><path fill="#160059" d="M 34.703125 265.351562 L 46.226562 265.351562 L 46.226562 322.992188 L 34.703125 322.992188 Z M 34.703125 265.351562 " fill-opacity="1" fill-rule="nonzero"/><path fill="#160059" d="M 207.546875 184.648438 L 219.066406 184.648438 L 219.066406 196.179688 L 207.546875 196.179688 Z M 207.546875 184.648438 " fill-opacity="0.5" fill-rule="nonzero"/><path fill="#160059" d="M 219.066406 196.179688 L 230.589844 196.179688 L 230.589844 207.707031 L 219.066406 207.707031 Z M 219.066406 196.179688 " fill-opacity="0.5" fill-rule="nonzero"/><path fill="#160059" d="M 230.589844 207.707031 L 242.113281 207.707031 L 242.113281 230.765625 L 230.589844 230.765625 Z M 230.589844 207.707031 " fill-opacity="0.5" fill-rule="nonzero"/><path fill="#160059" d="M 242.113281 230.765625 L 253.636719 230.765625 L 253.636719 265.351562 L 242.113281 265.351562 Z M 242.113281 230.765625 " fill-opacity="0.5" fill-rule="nonzero"/><g clip-path="url(#a3b3829b38)"><path fill="#160059" d="M 23.183594 322.992188 L 34.703125 322.992188 L 34.703125 346.050781 L 23.183594 346.050781 Z M 23.183594 322.992188 " fill-opacity="1" fill-rule="nonzero"/></g><path fill="#160059" d="M 69.273438 322.992188 L 80.796875 322.992188 L 80.796875 415.222656 L 69.273438 415.222656 Z M 69.273438 322.992188 " fill-opacity="1" fill-rule="nonzero"/><path fill="#160059" d="M 219.066406 322.992188 L 230.589844 322.992188 L 230.589844 415.222656 L 219.066406 415.222656 Z M 219.066406 322.992188 " fill-opacity="1" fill-rule="nonzero"/><path fill="#160059" d="M 34.703125 346.050781 L 69.273438 346.050781 L 69.273438 357.578125 L 34.703125 357.578125 Z M 34.703125 346.050781 " fill-opacity="1" fill-rule="nonzero"/><path fill="#160059" d="M 57.75 322.992188 L 69.273438 322.992188 L 69.273438 334.523438 L 57.75 334.523438 Z M 57.75 322.992188 " fill-opacity="0.5" fill-rule="nonzero"/><path fill="#160059" d="M 34.703125 334.523438 L 46.226562 334.523438 L 46.226562 346.050781 L 34.703125 346.050781 Z M 34.703125 334.523438 " fill-opacity="0.5" fill-rule="nonzero"/><g clip-path="url(#7b38ba599b)"><path fill="#160059" d="M 265.160156 322.992188 L 265.160156 334.523438 L 253.636719 334.523438 L 253.636719 346.050781 L 230.589844 346.050781 L 230.589844 357.578125 L 265.160156 357.578125 L 265.160156 346.050781 L 276.683594 346.050781 L 276.683594 322.992188 Z M 265.160156 322.992188 " fill-opacity="0.5" fill-rule="nonzero"/></g><path fill="#160059" d="M 230.589844 322.992188 L 242.113281 322.992188 L 242.113281 334.523438 L 230.589844 334.523438 Z M 230.589844 322.992188 " fill-opacity="0.5" fill-rule="nonzero"/><path fill="#160059" d="M 46.226562 311.464844 L 80.796875 311.464844 L 80.796875 322.992188 L 46.226562 322.992188 Z M 46.226562 311.464844 " fill-opacity="0.5" fill-rule="nonzero"/><path fill="#160059" d="M 253.636719 265.351562 L 253.636719 311.464844 L 219.066406 311.464844 L 219.066406 322.992188 L 265.160156 322.992188 L 265.160156 265.351562 Z M 253.636719 265.351562 " fill-opacity="0.5" fill-rule="nonzero"/><path fill="#160059" d="M 80.796875 265.351562 L 92.316406 265.351562 L 92.316406 322.992188 L 80.796875 322.992188 Z M 80.796875 265.351562 " fill-opacity="1" fill-rule="nonzero"/><path fill="#160059" d="M 207.546875 265.351562 L 219.066406 265.351562 L 219.066406 322.992188 L 207.546875 322.992188 Z M 207.546875 265.351562 " fill-opacity="1" fill-rule="nonzero"/><path fill="#160059" d="M 92.316406 230.765625 L 103.839844 230.765625 L 103.839844 265.351562 L 92.316406 265.351562 Z M 92.316406 230.765625 " fill-opacity="1" fill-rule="nonzero"/><path fill="#160059" d="M 196.023438 230.765625 L 207.546875 230.765625 L 207.546875 265.351562 L 196.023438 265.351562 Z M 196.023438 230.765625 " fill-opacity="1" fill-rule="nonzero"/><path fill="#160059" d="M 92.316406 265.351562 L 103.839844 265.351562 L 103.839844 299.9375 L 92.316406 299.9375 Z M 92.316406 265.351562 " fill-opacity="0.5" fill-rule="nonzero"/><path fill="#160059" d="M 196.023438 265.351562 L 207.546875 265.351562 L 207.546875 299.9375 L 196.023438 299.9375 Z M 196.023438 265.351562 " fill-opacity="0.5" fill-rule="nonzero"/><path fill="#160059" d="M 57.75 403.691406 L 80.796875 403.691406 L 80.796875 415.222656 L 57.75 415.222656 Z M 57.75 403.691406 " fill-opacity="1" fill-rule="nonzero"/><path fill="#160059" d="M 219.066406 403.691406 L 242.113281 403.691406 L 242.113281 415.222656 L 219.066406 415.222656 Z M 219.066406 403.691406 " fill-opacity="1" fill-rule="nonzero"/><path fill="#160059" d="M 80.796875 415.222656 L 92.316406 415.222656 L 92.316406 438.277344 L 80.796875 438.277344 Z M 80.796875 415.222656 " fill-opacity="1" fill-rule="nonzero"/><path fill="#160059" d="M 126.886719 415.222656 L 138.410156 415.222656 L 138.410156 438.277344 L 126.886719 438.277344 Z M 126.886719 415.222656 " fill-opacity="1" fill-rule="nonzero"/><path fill="#160059" d="M 92.316406 438.277344 L 126.886719 438.277344 L 126.886719 449.808594 L 92.316406 449.808594 Z M 92.316406 438.277344 " fill-opacity="1" fill-rule="nonzero"/><path fill="#160059" d="M 161.453125 415.222656 L 172.976562 415.222656 L 172.976562 438.277344 L 161.453125 438.277344 Z M 161.453125 415.222656 " fill-opacity="1" fill-rule="nonzero"/><path fill="#160059" d="M 207.546875 415.222656 L 219.066406 415.222656 L 219.066406 438.277344 L 207.546875 438.277344 Z M 207.546875 415.222656 " fill-opacity="1" fill-rule="nonzero"/><path fill="#160059" d="M 172.976562 438.277344 L 207.546875 438.277344 L 207.546875 449.808594 L 172.976562 449.808594 Z M 172.976562 438.277344 " fill-opacity="1" fill-rule="nonzero"/><path fill="#160059" d="M 138.410156 322.992188 L 161.453125 322.992188 L 161.453125 415.222656 L 138.410156 415.222656 Z M 138.410156 322.992188 " fill-opacity="1" fill-rule="nonzero"/><path fill="#160059" d="M 69.273438 392.164062 L 230.589844 392.164062 L 230.589844 403.691406 L 69.273438 403.691406 Z M 69.273438 392.164062 " fill-opacity="0.5" fill-rule="nonzero"/><path fill="#160059" d="M 80.796875 150.0625 L 92.316406 150.0625 L 92.316406 161.59375 L 80.796875 161.59375 Z M 80.796875 150.0625 " fill-opacity="0.3" fill-rule="nonzero"/><path fill="#160059" d="M 92.316406 161.59375 L 115.363281 161.59375 L 115.363281 173.121094 L 92.316406 173.121094 Z M 92.316406 161.59375 " fill-opacity="0.3" fill-rule="nonzero"/><path fill="#160059" d="M 184.5 161.59375 L 207.546875 161.59375 L 207.546875 173.121094 L 184.5 173.121094 Z M 184.5 161.59375 " fill-opacity="0.3" fill-rule="nonzero"/><path fill="#160059" d="M 207.546875 150.0625 L 219.066406 150.0625 L 219.066406 161.59375 L 207.546875 161.59375 Z M 207.546875 150.0625 " fill-opacity="0.3" fill-rule="nonzero"/><path fill="#160059" d="M 207.546875 322.992188 L 207.546875 311.464844 L 92.316406 311.464844 L 92.316406 322.992188 L 103.839844 322.992188 L 103.839844 346.050781 L 115.363281 346.050781 L 115.363281 322.992188 L 184.5 322.992188 L 184.5 346.050781 L 196.023438 346.050781 L 196.023438 322.992188 Z M 207.546875 322.992188 " fill-opacity="0.5" fill-rule="nonzero"/><path fill="#160059" d="M 80.796875 346.050781 L 103.839844 346.050781 L 103.839844 357.578125 L 80.796875 357.578125 Z M 80.796875 346.050781 " fill-opacity="0.5" fill-rule="nonzero"/><path fill="#160059" d="M 196.023438 346.050781 L 219.066406 346.050781 L 219.066406 357.578125 L 196.023438 357.578125 Z M 196.023438 346.050781 " fill-opacity="0.5" fill-rule="nonzero"/><g mask="url(#848761e57c)"><g transform="matrix(1, 0, 0, 1, 92, 415)"><g clip-path="url(#3880b5aad1)"><g clip-path="url(#773300940f)"><path fill="#160059" d="M 0.316406 0.222656 L 11.839844 0.222656 L 11.839844 11.75 L 0.316406 11.75 Z M 0.316406 0.222656 " fill-opacity="1" fill-rule="nonzero"/></g><g clip-path="url(#56cbb7f3f4)"><path fill="#160059" d="M 23.363281 0.222656 L 23.363281 11.75 L 11.839844 11.75 L 11.839844 23.277344 L 34.886719 23.277344 L 34.886719 0.222656 Z M 23.363281 0.222656 " fill-opacity="1" fill-rule="nonzero"/></g></g></g></g><g mask="url(#6d2e07a0f1)"><g transform="matrix(1, 0, 0, 1, 172, 415)"><g clip-path="url(#eadd4c0352)"><g clip-path="url(#271bd4904f)"><path fill="#160059" d="M 24.023438 0.222656 L 35.546875 0.222656 L 35.546875 11.75 L 24.023438 11.75 Z M 24.023438 0.222656 " fill-opacity="1" fill-rule="nonzero"/></g><g clip-path="url(#994d2c3089)"><path fill="#160059" d="M 12.5 0.222656 L 12.5 11.75 L 24.023438 11.75 L 24.023438 23.277344 L 0.976562 23.277344 L 0.976562 0.222656 Z M 12.5 0.222656 " fill-opacity="1" fill-rule="nonzero"/></g></g></g></g><path fill="#160059" d="M 103.839844 230.765625 L 115.363281 230.765625 L 115.363281 242.292969 L 103.839844 242.292969 Z M 103.839844 230.765625 " fill-opacity="0.5" fill-rule="nonzero"/><path fill="#160059" d="M 184.5 230.765625 L 196.023438 230.765625 L 196.023438 242.292969 L 184.5 242.292969 Z M 184.5 230.765625 " fill-opacity="0.5" fill-rule="nonzero"/><path fill="#160059" d="M 184.5 184.648438 L 196.023438 184.648438 L 196.023438 196.179688 L 184.5 196.179688 Z M 184.5 184.648438 " fill-opacity="0.2" fill-rule="nonzero"/><path fill="#160059" d="M 172.976562 196.179688 L 184.5 196.179688 L 184.5 207.707031 L 172.976562 207.707031 Z M 172.976562 196.179688 " fill-opacity="0.2" fill-rule="nonzero"/><path fill="#160059" d="M 161.453125 207.707031 L 172.976562 207.707031 L 172.976562 219.234375 L 161.453125 219.234375 Z M 161.453125 207.707031 " fill-opacity="0.2" fill-rule="nonzero"/><path fill="#160059" d="M 126.886719 207.707031 L 138.410156 207.707031 L 138.410156 219.234375 L 126.886719 219.234375 Z M 126.886719 207.707031 " fill-opacity="0.2" fill-rule="nonzero"/><path fill="#160059" d="M 115.363281 196.179688 L 126.886719 196.179688 L 126.886719 207.707031 L 115.363281 207.707031 Z M 115.363281 196.179688 " fill-opacity="0.2" fill-rule="nonzero"/><path fill="#160059" d="M 103.839844 184.648438 L 115.363281 184.648438 L 115.363281 196.179688 L 103.839844 196.179688 Z M 103.839844 184.648438 " fill-opacity="0.2" fill-rule="nonzero"/><path fill="#160059" d="M 138.410156 219.234375 L 161.453125 219.234375 L 161.453125 230.765625 L 138.410156 230.765625 Z M 138.410156 219.234375 " fill-opacity="0.2" fill-rule="nonzero"/><path fill="#160059" d="M 92.316406 299.9375 L 207.546875 299.9375 L 207.546875 311.464844 L 92.316406 311.464844 Z M 92.316406 299.9375 " fill-opacity="0.2" fill-rule="nonzero"/><path fill="#160059" d="M 80.796875 403.691406 L 138.410156 403.691406 L 138.410156 415.222656 L 80.796875 415.222656 Z M 80.796875 403.691406 " fill-opacity="0.2" fill-rule="nonzero"/><path fill="#160059" d="M 161.453125 403.691406 L 219.066406 403.691406 L 219.066406 415.222656 L 161.453125 415.222656 Z M 161.453125 403.691406 " fill-opacity="0.2" fill-rule="nonzero"/><path fill="#160059" d="M 69.273438 299.9375 L 80.796875 299.9375 L 80.796875 311.464844 L 69.273438 311.464844 Z M 69.273438 299.9375 " fill-opacity="0.2" fill-rule="nonzero"/><path fill="#160059" d="M 219.066406 299.9375 L 230.589844 299.9375 L 230.589844 311.464844 L 219.066406 311.464844 Z M 219.066406 299.9375 " fill-opacity="0.2" fill-rule="nonzero"/><path fill="#160059" d="M 138.410156 230.765625 L 161.453125 230.765625 L 161.453125 242.292969 L 138.410156 242.292969 Z M 138.410156 230.765625 " fill-opacity="1" fill-rule="nonzero"/><path fill="#160059" d="M 80.796875 322.992188 L 103.839844 322.992188 L 103.839844 346.050781 L 80.796875 346.050781 Z M 80.796875 322.992188 " fill-opacity="0.2" fill-rule="nonzero"/><path fill="#160059" d="M 196.023438 322.992188 L 219.066406 322.992188 L 219.066406 346.050781 L 196.023438 346.050781 Z M 196.023438 322.992188 " fill-opacity="0.2" fill-rule="nonzero"/><path fill="#160059" d="M 80.796875 322.992188 L 92.316406 322.992188 L 92.316406 415.222656 L 80.796875 415.222656 Z M 80.796875 322.992188 " fill-opacity="0.2" fill-rule="nonzero"/><path fill="#160059" d="M 207.546875 322.992188 L 219.066406 322.992188 L 219.066406 415.222656 L 207.546875 415.222656 Z M 207.546875 322.992188 " fill-opacity="0.2" fill-rule="nonzero"/></svg>