<svg xmlns="http://www.w3.org/2000/svg" xmlns:xlink="http://www.w3.org/1999/xlink" width="400" zoomAndPan="magnify" viewBox="0 0 300 449.999984" height="600" preserveAspectRatio="xMidYMid meet" version="1.0"><defs><clipPath id="f575101597"><path d="M 52.636719 0 L 247.636719 0 L 247.636719 450 L 52.636719 450 Z M 52.636719 0 " clip-rule="nonzero"/></clipPath><clipPath id="282bcde856"><path d="M 52.636719 291 L 65 291 L 65 317 L 52.636719 317 Z M 52.636719 291 " clip-rule="nonzero"/></clipPath><clipPath id="1a7703c7ae"><path d="M 211 291 L 247.636719 291 L 247.636719 341 L 211 341 Z M 211 291 " clip-rule="nonzero"/></clipPath><clipPath id="c1641a3c6f"><path d="M 235 291 L 247.636719 291 L 247.636719 317 L 235 317 Z M 235 291 " clip-rule="nonzero"/></clipPath></defs><g clip-path="url(#f575101597)"><path fill="#160059" d="M 235.394531 291.890625 L 235.394531 243.242188 L 223.214844 243.242188 L 223.214844 206.757812 L 211.035156 206.757812 L 211.035156 194.59375 L 198.855469 194.59375 L 198.855469 182.433594 L 186.675781 182.433594 L 186.675781 170.269531 L 198.855469 170.269531 L 198.855469 158.109375 L 211.035156 158.109375 L 211.035156 133.785156 L 235.394531 133.785156 L 235.394531 109.460938 L 223.214844 109.460938 L 223.214844 72.972656 L 211.035156 72.972656 L 211.035156 60.8125 L 198.855469 60.8125 L 198.855469 48.648438 L 186.675781 48.648438 L 186.675781 24.324219 L 174.496094 24.324219 L 174.496094 12.164062 L 162.316406 12.164062 L 162.316406 0 L 137.957031 0 L 137.957031 12.164062 L 125.777344 12.164062 L 125.777344 24.324219 L 113.597656 24.324219 L 113.597656 48.648438 L 101.417969 48.648438 L 101.417969 60.8125 L 89.238281 60.8125 L 89.238281 72.972656 L 77.058594 72.972656 L 77.058594 109.460938 L 64.878906 109.460938 L 64.878906 133.785156 L 89.238281 133.785156 L 89.238281 158.109375 L 101.417969 158.109375 L 101.417969 170.269531 L 113.597656 170.269531 L 113.597656 182.433594 L 101.417969 182.433594 L 101.417969 194.59375 L 89.238281 194.59375 L 89.238281 206.757812 L 77.058594 206.757812 L 77.058594 243.242188 L 64.878906 243.242188 L 64.878906 291.890625 L 52.699219 291.890625 L 52.699219 316.214844 L 64.878906 316.214844 L 64.878906 328.378906 L 77.058594 328.378906 L 77.058594 340.539062 L 89.238281 340.539062 L 89.238281 413.511719 L 101.417969 413.511719 L 101.417969 425.675781 L 89.238281 425.675781 L 89.238281 450 L 125.777344 450 L 125.777344 437.835938 L 137.957031 437.835938 L 137.957031 425.675781 L 162.316406 425.675781 L 162.316406 437.835938 L 174.496094 437.835938 L 174.496094 450 L 211.035156 450 L 211.035156 425.675781 L 198.855469 425.675781 L 198.855469 413.511719 L 211.035156 413.511719 L 211.035156 340.539062 L 223.214844 340.539062 L 223.214844 328.378906 L 235.394531 328.378906 L 235.394531 316.214844 L 247.574219 316.214844 L 247.574219 291.890625 Z M 235.394531 291.890625 " fill-opacity="1" fill-rule="nonzero"/></g><path fill="#f9e0ff" d="M 89.238281 389.1875 L 211.035156 389.1875 L 211.035156 413.511719 L 89.238281 413.511719 Z M 89.238281 389.1875 " fill-opacity="1" fill-rule="nonzero"/><path fill="#00b18b" d="M 162.316406 413.511719 L 198.855469 413.511719 L 198.855469 437.835938 L 162.316406 437.835938 Z M 162.316406 413.511719 " fill-opacity="1" fill-rule="nonzero"/><path fill="#00b18b" d="M 101.417969 413.511719 L 137.957031 413.511719 L 137.957031 437.835938 L 101.417969 437.835938 Z M 101.417969 413.511719 " fill-opacity="1" fill-rule="nonzero"/><path fill="#f9e0ff" d="M 89.238281 389.1875 L 211.035156 389.1875 L 211.035156 291.890625 L 235.394531 291.890625 L 235.394531 243.242188 L 223.214844 243.242188 L 223.214844 206.757812 L 211.035156 206.757812 L 211.035156 194.59375 L 198.855469 194.59375 L 198.855469 182.433594 L 101.417969 182.433594 L 101.417969 194.59375 L 89.238281 194.59375 L 89.238281 206.757812 L 77.058594 206.757812 L 77.058594 243.242188 L 64.878906 243.242188 L 64.878906 291.890625 L 89.238281 291.890625 Z M 89.238281 389.1875 " fill-opacity="1" fill-rule="nonzero"/><path fill="#ff9064" d="M 89.238281 328.378906 L 89.238281 291.890625 L 64.878906 291.890625 L 64.878906 316.214844 L 77.058594 316.214844 L 77.058594 328.378906 Z M 89.238281 328.378906 " fill-opacity="1" fill-rule="nonzero"/><path fill="#160059" d="M 89.238281 194.59375 L 101.417969 194.59375 L 101.417969 206.757812 L 89.238281 206.757812 Z M 89.238281 194.59375 " fill-opacity="1" fill-rule="nonzero"/><path fill="#160059" d="M 101.417969 182.433594 L 137.957031 182.433594 L 137.957031 194.59375 L 101.417969 194.59375 Z M 101.417969 182.433594 " fill-opacity="1" fill-rule="nonzero"/><path fill="#160059" d="M 162.316406 182.433594 L 198.855469 182.433594 L 198.855469 194.59375 L 162.316406 194.59375 Z M 162.316406 182.433594 " fill-opacity="1" fill-rule="nonzero"/><path fill="#160059" d="M 77.058594 206.757812 L 89.238281 206.757812 L 89.238281 243.242188 L 77.058594 243.242188 Z M 77.058594 206.757812 " fill-opacity="1" fill-rule="nonzero"/><path fill="#160059" d="M 64.878906 243.242188 L 77.058594 243.242188 L 77.058594 291.890625 L 64.878906 291.890625 Z M 64.878906 243.242188 " fill-opacity="1" fill-rule="nonzero"/><g clip-path="url(#282bcde856)"><path fill="#160059" d="M 52.699219 291.890625 L 64.878906 291.890625 L 64.878906 316.214844 L 52.699219 316.214844 Z M 52.699219 291.890625 " fill-opacity="1" fill-rule="nonzero"/></g><path fill="#160059" d="M 64.878906 316.214844 L 77.058594 316.214844 L 77.058594 328.378906 L 64.878906 328.378906 Z M 64.878906 316.214844 " fill-opacity="1" fill-rule="nonzero"/><path fill="#160059" d="M 89.238281 291.890625 L 101.417969 291.890625 L 101.417969 389.1875 L 89.238281 389.1875 Z M 89.238281 291.890625 " fill-opacity="1" fill-rule="nonzero"/><path fill="#160059" d="M 101.417969 243.242188 L 113.597656 243.242188 L 113.597656 291.890625 L 101.417969 291.890625 Z M 101.417969 243.242188 " fill-opacity="1" fill-rule="nonzero"/><path fill="#160059" d="M 186.675781 243.242188 L 198.855469 243.242188 L 198.855469 291.890625 L 186.675781 291.890625 Z M 186.675781 243.242188 " fill-opacity="1" fill-rule="nonzero"/><path fill="#160059" d="M 198.855469 291.890625 L 211.035156 291.890625 L 211.035156 389.1875 L 198.855469 389.1875 Z M 198.855469 291.890625 " fill-opacity="1" fill-rule="nonzero"/><path fill="#160059" d="M 198.855469 194.59375 L 211.035156 194.59375 L 211.035156 206.757812 L 198.855469 206.757812 Z M 198.855469 194.59375 " fill-opacity="0.5" fill-rule="nonzero"/><path fill="#160059" d="M 211.035156 206.757812 L 223.214844 206.757812 L 223.214844 243.242188 L 211.035156 243.242188 Z M 211.035156 206.757812 " fill-opacity="0.5" fill-rule="nonzero"/><path fill="#160059" d="M 223.214844 243.242188 L 235.394531 243.242188 L 235.394531 291.890625 L 223.214844 291.890625 Z M 223.214844 243.242188 " fill-opacity="0.5" fill-rule="nonzero"/><g clip-path="url(#1a7703c7ae)"><path fill="#ff9064" d="M 211.035156 340.539062 L 211.035156 291.890625 L 247.574219 291.890625 L 247.574219 316.214844 L 235.394531 316.214844 L 235.394531 328.378906 L 223.214844 328.378906 L 223.214844 340.539062 Z M 211.035156 340.539062 " fill-opacity="1" fill-rule="nonzero"/></g><g clip-path="url(#c1641a3c6f)"><path fill="#160059" d="M 235.394531 291.890625 L 247.574219 291.890625 L 247.574219 316.214844 L 235.394531 316.214844 Z M 235.394531 291.890625 " fill-opacity="0.5" fill-rule="nonzero"/></g><path fill="#160059" d="M 89.238281 206.757812 L 101.417969 206.757812 L 101.417969 291.890625 L 89.238281 291.890625 Z M 89.238281 206.757812 " fill-opacity="0.2" fill-rule="nonzero"/><path fill="#160059" d="M 198.855469 243.242188 L 211.035156 243.242188 L 211.035156 291.890625 L 198.855469 291.890625 Z M 198.855469 243.242188 " fill-opacity="0.2" fill-rule="nonzero"/><path fill="#160059" d="M 211.035156 291.890625 L 223.214844 291.890625 L 223.214844 328.378906 L 211.035156 328.378906 Z M 211.035156 291.890625 " fill-opacity="0.2" fill-rule="nonzero"/><path fill="#160059" d="M 77.058594 291.890625 L 89.238281 291.890625 L 89.238281 328.378906 L 77.058594 328.378906 Z M 77.058594 291.890625 " fill-opacity="0.2" fill-rule="nonzero"/><path fill="#160059" d="M 77.058594 328.378906 L 89.238281 328.378906 L 89.238281 340.539062 L 77.058594 340.539062 Z M 77.058594 328.378906 " fill-opacity="1" fill-rule="nonzero"/><path fill="#160059" d="M 211.035156 328.378906 L 223.214844 328.378906 L 223.214844 340.539062 L 211.035156 340.539062 Z M 211.035156 328.378906 " fill-opacity="0.5" fill-rule="nonzero"/><path fill="#160059" d="M 89.238281 377.027344 L 125.777344 377.027344 L 125.777344 389.1875 L 89.238281 389.1875 Z M 89.238281 377.027344 " fill-opacity="1" fill-rule="nonzero"/><path fill="#160059" d="M 174.496094 377.027344 L 211.035156 377.027344 L 211.035156 389.1875 L 174.496094 389.1875 Z M 174.496094 377.027344 " fill-opacity="1" fill-rule="nonzero"/><path fill="#160059" d="M 125.777344 377.027344 L 174.496094 377.027344 L 174.496094 389.1875 L 125.777344 389.1875 Z M 125.777344 377.027344 " fill-opacity="0.5" fill-rule="nonzero"/><path fill="#160059" d="M 125.777344 425.675781 L 137.957031 425.675781 L 137.957031 437.835938 L 125.777344 437.835938 Z M 125.777344 425.675781 " fill-opacity="1" fill-rule="nonzero"/><path fill="#160059" d="M 162.316406 425.675781 L 174.496094 425.675781 L 174.496094 437.835938 L 162.316406 437.835938 Z M 162.316406 425.675781 " fill-opacity="1" fill-rule="nonzero"/><path fill="#160059" d="M 211.035156 389.1875 L 211.035156 413.511719 L 198.855469 413.511719 L 198.855469 389.1875 Z M 211.035156 389.1875 " fill-opacity="1" fill-rule="nonzero"/><path fill="#160059" d="M 89.238281 425.675781 L 101.417969 425.675781 L 101.417969 450 L 89.238281 450 Z M 89.238281 425.675781 " fill-opacity="1" fill-rule="nonzero"/><path fill="#160059" d="M 89.238281 437.835938 L 125.777344 437.835938 L 125.777344 450 L 89.238281 450 Z M 89.238281 437.835938 " fill-opacity="1" fill-rule="nonzero"/><path fill="#160059" d="M 174.496094 437.835938 L 211.035156 437.835938 L 211.035156 450 L 174.496094 450 Z M 174.496094 437.835938 " fill-opacity="1" fill-rule="nonzero"/><path fill="#160059" d="M 198.855469 425.675781 L 211.035156 425.675781 L 211.035156 450 L 198.855469 450 Z M 198.855469 425.675781 " fill-opacity="1" fill-rule="nonzero"/><path fill="#160059" d="M 137.957031 389.1875 L 162.316406 389.1875 L 162.316406 425.675781 L 137.957031 425.675781 Z M 137.957031 389.1875 " fill-opacity="1" fill-rule="nonzero"/><path fill="#160059" d="M 223.214844 316.214844 L 235.394531 316.214844 L 235.394531 328.378906 L 223.214844 328.378906 Z M 223.214844 316.214844 " fill-opacity="0.5" fill-rule="nonzero"/><path fill="#160059" d="M 137.957031 401.351562 L 162.316406 401.351562 L 162.316406 413.511719 L 137.957031 413.511719 Z M 137.957031 401.351562 " fill-opacity="0.2" fill-rule="nonzero"/><path fill="#160059" d="M 113.597656 413.511719 L 186.675781 413.511719 L 186.675781 425.675781 L 113.597656 425.675781 Z M 113.597656 413.511719 " fill-opacity="0.5" fill-rule="nonzero"/><path fill="#160059" d="M 89.238281 377.027344 L 101.417969 377.027344 L 101.417969 413.511719 L 89.238281 413.511719 Z M 89.238281 377.027344 " fill-opacity="1" fill-rule="nonzero"/><path fill="#ff9064" d="M 89.238281 97.296875 L 89.238281 158.109375 L 101.417969 158.109375 L 101.417969 170.269531 L 113.597656 170.269531 L 113.597656 182.433594 L 137.957031 182.433594 L 137.957031 206.757812 L 162.316406 206.757812 L 162.316406 182.433594 L 186.675781 182.433594 L 186.675781 170.269531 L 198.855469 170.269531 L 198.855469 158.109375 L 211.035156 158.109375 L 211.035156 97.296875 Z M 89.238281 97.296875 " fill-opacity="1" fill-rule="nonzero"/><path fill="#ff8e00" d="M 223.214844 109.460938 L 223.214844 72.972656 L 211.035156 72.972656 L 211.035156 60.8125 L 198.855469 60.8125 L 198.855469 48.648438 L 186.675781 48.648438 L 186.675781 24.324219 L 174.496094 24.324219 L 174.496094 12.164062 L 162.316406 12.164062 L 162.316406 0 L 137.957031 0 L 137.957031 12.164062 L 125.777344 12.164062 L 125.777344 24.324219 L 113.597656 24.324219 L 113.597656 36.488281 L 125.777344 36.488281 L 125.777344 48.648438 L 101.417969 48.648438 L 101.417969 60.8125 L 89.238281 60.8125 L 89.238281 72.972656 L 77.058594 72.972656 L 77.058594 109.460938 L 64.878906 109.460938 L 64.878906 133.785156 L 101.417969 133.785156 L 101.417969 121.621094 L 113.597656 121.621094 L 113.597656 109.460938 L 137.957031 109.460938 L 137.957031 97.296875 L 162.316406 97.296875 L 162.316406 109.460938 L 186.675781 109.460938 L 186.675781 121.621094 L 198.855469 121.621094 L 198.855469 133.785156 L 235.394531 133.785156 L 235.394531 109.460938 Z M 223.214844 109.460938 " fill-opacity="1" fill-rule="nonzero"/><path fill="#160059" d="M 137.957031 182.433594 L 162.316406 182.433594 L 162.316406 194.59375 L 137.957031 194.59375 Z M 137.957031 182.433594 " fill-opacity="0.5" fill-rule="nonzero"/><path fill="#160059" d="M 137.957031 109.460938 L 162.316406 109.460938 L 162.316406 121.621094 L 137.957031 121.621094 Z M 137.957031 109.460938 " fill-opacity="0.5" fill-rule="nonzero"/><path fill="#160059" d="M 113.597656 121.621094 L 137.957031 121.621094 L 137.957031 133.785156 L 113.597656 133.785156 Z M 113.597656 121.621094 " fill-opacity="0.2" fill-rule="nonzero"/><path fill="#160059" d="M 162.316406 121.621094 L 186.675781 121.621094 L 186.675781 133.785156 L 162.316406 133.785156 Z M 162.316406 121.621094 " fill-opacity="0.2" fill-rule="nonzero"/><path fill="#00b18b" d="M 186.675781 291.890625 L 186.675781 194.59375 L 162.316406 194.59375 L 162.316406 206.757812 L 137.957031 206.757812 L 137.957031 194.59375 L 113.597656 194.59375 L 113.597656 291.890625 L 101.417969 291.890625 L 101.417969 389.1875 L 198.855469 389.1875 L 198.855469 291.890625 Z M 186.675781 291.890625 " fill-opacity="1" fill-rule="nonzero"/><path fill="#160059" d="M 89.238281 133.785156 L 101.417969 133.785156 L 101.417969 158.109375 L 89.238281 158.109375 Z M 89.238281 133.785156 " fill-opacity="1" fill-rule="nonzero"/><path fill="#160059" d="M 101.417969 158.109375 L 113.597656 158.109375 L 113.597656 170.269531 L 101.417969 170.269531 Z M 101.417969 158.109375 " fill-opacity="1" fill-rule="nonzero"/><path fill="#160059" d="M 113.597656 170.269531 L 125.777344 170.269531 L 125.777344 194.59375 L 113.597656 194.59375 Z M 113.597656 170.269531 " fill-opacity="1" fill-rule="nonzero"/><path fill="#160059" d="M 198.855469 133.785156 L 211.035156 133.785156 L 211.035156 158.109375 L 198.855469 158.109375 Z M 198.855469 133.785156 " fill-opacity="1" fill-rule="nonzero"/><path fill="#160059" d="M 186.675781 158.109375 L 198.855469 158.109375 L 198.855469 170.269531 L 186.675781 170.269531 Z M 186.675781 158.109375 " fill-opacity="1" fill-rule="nonzero"/><path fill="#160059" d="M 174.496094 170.269531 L 186.675781 170.269531 L 186.675781 194.59375 L 174.496094 194.59375 Z M 174.496094 170.269531 " fill-opacity="1" fill-rule="nonzero"/><path fill="#160059" d="M 137.957031 97.296875 L 162.316406 97.296875 L 162.316406 109.460938 L 137.957031 109.460938 Z M 137.957031 97.296875 " fill-opacity="1" fill-rule="nonzero"/><path fill="#160059" d="M 113.597656 109.460938 L 137.957031 109.460938 L 137.957031 121.621094 L 113.597656 121.621094 Z M 113.597656 109.460938 " fill-opacity="1" fill-rule="nonzero"/><path fill="#160059" d="M 101.417969 121.621094 L 113.597656 121.621094 L 113.597656 133.785156 L 101.417969 133.785156 Z M 101.417969 121.621094 " fill-opacity="1" fill-rule="nonzero"/><path fill="#160059" d="M 162.316406 109.460938 L 186.675781 109.460938 L 186.675781 121.621094 L 162.316406 121.621094 Z M 162.316406 109.460938 " fill-opacity="1" fill-rule="nonzero"/><path fill="#160059" d="M 186.675781 121.621094 L 198.855469 121.621094 L 198.855469 133.785156 L 186.675781 133.785156 Z M 186.675781 121.621094 " fill-opacity="1" fill-rule="nonzero"/><path fill="#160059" d="M 125.777344 12.164062 L 137.957031 12.164062 L 137.957031 24.324219 L 125.777344 24.324219 Z M 125.777344 12.164062 " fill-opacity="1" fill-rule="nonzero"/><path fill="#160059" d="M 101.417969 48.648438 L 113.597656 48.648438 L 113.597656 60.8125 L 101.417969 60.8125 Z M 101.417969 48.648438 " fill-opacity="1" fill-rule="nonzero"/><path fill="#160059" d="M 198.855469 60.8125 L 211.035156 60.8125 L 211.035156 72.972656 L 198.855469 72.972656 Z M 198.855469 60.8125 " fill-opacity="0.5" fill-rule="nonzero"/><path fill="#160059" d="M 186.675781 48.648438 L 198.855469 48.648438 L 198.855469 60.8125 L 186.675781 60.8125 Z M 186.675781 48.648438 " fill-opacity="0.5" fill-rule="nonzero"/><path fill="#160059" d="M 162.316406 72.972656 L 162.316406 48.648438 L 137.957031 48.648438 L 137.957031 72.972656 L 113.597656 72.972656 L 113.597656 85.136719 L 137.957031 85.136719 L 137.957031 97.296875 L 162.316406 97.296875 L 162.316406 85.136719 L 186.675781 85.136719 L 186.675781 72.972656 Z M 162.316406 72.972656 " fill-opacity="0.2" fill-rule="nonzero"/><path fill="#160059" d="M 186.675781 85.136719 L 198.855469 85.136719 L 198.855469 97.296875 L 186.675781 97.296875 Z M 186.675781 85.136719 " fill-opacity="0.2" fill-rule="nonzero"/><path fill="#160059" d="M 101.417969 85.136719 L 113.597656 85.136719 L 113.597656 97.296875 L 101.417969 97.296875 Z M 101.417969 85.136719 " fill-opacity="0.2" fill-rule="nonzero"/><path fill="#160059" d="M 198.855469 97.296875 L 211.035156 97.296875 L 211.035156 121.621094 L 198.855469 121.621094 Z M 198.855469 97.296875 " fill-opacity="0.2" fill-rule="nonzero"/><path fill="#160059" d="M 89.238281 97.296875 L 101.417969 97.296875 L 101.417969 121.621094 L 89.238281 121.621094 Z M 89.238281 97.296875 " fill-opacity="0.2" fill-rule="nonzero"/><path fill="#160059" d="M 89.238281 60.8125 L 101.417969 60.8125 L 101.417969 72.972656 L 89.238281 72.972656 Z M 89.238281 60.8125 " fill-opacity="1" fill-rule="nonzero"/><path fill="#160059" d="M 77.058594 72.972656 L 89.238281 72.972656 L 89.238281 109.460938 L 77.058594 109.460938 Z M 77.058594 72.972656 " fill-opacity="1" fill-rule="nonzero"/><path fill="#160059" d="M 64.878906 109.460938 L 77.058594 109.460938 L 77.058594 133.785156 L 64.878906 133.785156 Z M 64.878906 109.460938 " fill-opacity="1" fill-rule="nonzero"/><path fill="#160059" d="M 211.035156 72.972656 L 223.214844 72.972656 L 223.214844 109.460938 L 211.035156 109.460938 Z M 211.035156 72.972656 " fill-opacity="0.5" fill-rule="nonzero"/><path fill="#160059" d="M 89.238281 121.621094 L 89.238281 133.785156 L 64.878906 133.785156 L 64.878906 121.621094 Z M 89.238281 121.621094 " fill-opacity="1" fill-rule="nonzero"/><path fill="#160059" d="M 223.214844 109.460938 L 223.214844 121.621094 L 211.035156 121.621094 L 211.035156 133.785156 L 235.394531 133.785156 L 235.394531 109.460938 Z M 223.214844 109.460938 " fill-opacity="0.5" fill-rule="nonzero"/><path fill="#160059" d="M 137.957031 0 L 150.136719 0 L 150.136719 12.164062 L 137.957031 12.164062 Z M 137.957031 0 " fill-opacity="1" fill-rule="nonzero"/><path fill="#160059" d="M 162.316406 12.164062 L 174.496094 12.164062 L 174.496094 24.324219 L 162.316406 24.324219 Z M 162.316406 12.164062 " fill-opacity="0.5" fill-rule="nonzero"/><path fill="#160059" d="M 113.597656 24.324219 L 125.777344 24.324219 L 125.777344 48.648438 L 113.597656 48.648438 Z M 113.597656 24.324219 " fill-opacity="1" fill-rule="nonzero"/><path fill="#160059" d="M 125.777344 36.488281 L 137.957031 36.488281 L 137.957031 48.648438 L 125.777344 48.648438 Z M 125.777344 36.488281 " fill-opacity="0.5" fill-rule="nonzero"/><path fill="#160059" d="M 150.136719 0 L 162.316406 0 L 162.316406 12.164062 L 150.136719 12.164062 Z M 150.136719 0 " fill-opacity="0.5" fill-rule="nonzero"/><path fill="#160059" d="M 174.496094 24.324219 L 174.496094 36.488281 L 162.316406 36.488281 L 162.316406 48.648438 L 186.675781 48.648438 L 186.675781 24.324219 Z M 174.496094 24.324219 " fill-opacity="0.5" fill-rule="nonzero"/><path fill="#160059" d="M 113.597656 133.785156 L 113.597656 158.109375 L 101.417969 158.109375 L 101.417969 133.785156 Z M 113.597656 133.785156 " fill-opacity="0.2" fill-rule="nonzero"/><path fill="#160059" d="M 198.855469 133.785156 L 198.855469 158.109375 L 186.675781 158.109375 L 186.675781 133.785156 Z M 198.855469 133.785156 " fill-opacity="0.2" fill-rule="nonzero"/><path fill="#160059" d="M 137.957031 170.269531 L 137.957031 182.433594 L 125.777344 182.433594 L 125.777344 170.269531 Z M 137.957031 170.269531 " fill-opacity="0.2" fill-rule="nonzero"/><path fill="#160059" d="M 174.496094 170.269531 L 174.496094 182.433594 L 162.316406 182.433594 L 162.316406 170.269531 Z M 174.496094 170.269531 " fill-opacity="0.2" fill-rule="nonzero"/><path fill="#160059" d="M 186.675781 158.109375 L 186.675781 170.269531 L 174.496094 170.269531 L 174.496094 158.109375 Z M 186.675781 158.109375 " fill-opacity="0.2" fill-rule="nonzero"/><path fill="#160059" d="M 125.777344 158.109375 L 125.777344 170.269531 L 113.597656 170.269531 L 113.597656 158.109375 Z M 125.777344 158.109375 " fill-opacity="0.2" fill-rule="nonzero"/><path fill="#160059" d="M 113.597656 133.785156 L 137.957031 133.785156 L 137.957031 145.945312 L 113.597656 145.945312 Z M 113.597656 133.785156 " fill-opacity="1" fill-rule="nonzero"/><path fill="#160059" d="M 162.316406 133.785156 L 186.675781 133.785156 L 186.675781 145.945312 L 162.316406 145.945312 Z M 162.316406 133.785156 " fill-opacity="1" fill-rule="nonzero"/><path fill="#00b18b" d="M 125.777344 145.945312 L 137.957031 145.945312 L 137.957031 158.109375 L 125.777344 158.109375 Z M 125.777344 145.945312 " fill-opacity="1" fill-rule="nonzero"/><path fill="#00b18b" d="M 162.316406 145.945312 L 174.496094 145.945312 L 174.496094 158.109375 L 162.316406 158.109375 Z M 162.316406 145.945312 " fill-opacity="1" fill-rule="nonzero"/><path fill="#160059" d="M 101.417969 413.511719 L 113.597656 413.511719 L 113.597656 425.675781 L 101.417969 425.675781 Z M 101.417969 413.511719 " fill-opacity="1" fill-rule="nonzero"/><path fill="#160059" d="M 186.675781 413.511719 L 198.855469 413.511719 L 198.855469 425.675781 L 186.675781 425.675781 Z M 186.675781 413.511719 " fill-opacity="1" fill-rule="nonzero"/><path fill="#160059" d="M 101.417969 389.1875 L 137.957031 389.1875 L 137.957031 401.351562 L 101.417969 401.351562 Z M 101.417969 389.1875 " fill-opacity="0.5" fill-rule="nonzero"/><path fill="#160059" d="M 162.316406 389.1875 L 198.855469 389.1875 L 198.855469 401.351562 L 162.316406 401.351562 Z M 162.316406 389.1875 " fill-opacity="0.5" fill-rule="nonzero"/><path fill="#160059" d="M 89.238281 377.027344 L 211.035156 377.027344 L 211.035156 389.1875 L 89.238281 389.1875 Z M 89.238281 377.027344 " fill-opacity="1" fill-rule="nonzero"/><path fill="#160059" d="M 113.597656 194.59375 L 137.957031 194.59375 L 137.957031 206.757812 L 113.597656 206.757812 Z M 113.597656 194.59375 " fill-opacity="0.5" fill-rule="nonzero"/><path fill="#160059" d="M 113.597656 279.730469 L 186.675781 279.730469 L 186.675781 291.890625 L 113.597656 291.890625 Z M 113.597656 279.730469 " fill-opacity="0.5" fill-rule="nonzero"/><path fill="#160059" d="M 101.417969 364.863281 L 137.957031 364.863281 L 137.957031 377.027344 L 101.417969 377.027344 Z M 101.417969 364.863281 " fill-opacity="0.5" fill-rule="nonzero"/><path fill="#160059" d="M 162.316406 364.863281 L 198.855469 364.863281 L 198.855469 377.027344 L 162.316406 377.027344 Z M 162.316406 364.863281 " fill-opacity="0.5" fill-rule="nonzero"/><path fill="#160059" d="M 113.597656 304.054688 L 186.675781 304.054688 L 186.675781 316.214844 L 113.597656 316.214844 Z M 113.597656 304.054688 " fill-opacity="0.2" fill-rule="nonzero"/><path fill="#160059" d="M 162.316406 194.59375 L 186.675781 194.59375 L 186.675781 206.757812 L 162.316406 206.757812 Z M 162.316406 194.59375 " fill-opacity="0.5" fill-rule="nonzero"/><path fill="#160059" d="M 137.957031 231.082031 L 162.316406 231.082031 L 162.316406 255.40625 L 137.957031 255.40625 Z M 137.957031 231.082031 " fill-opacity="0.2" fill-rule="nonzero"/><path fill="#160059" d="M 137.957031 194.59375 L 162.316406 194.59375 L 162.316406 206.757812 L 137.957031 206.757812 Z M 137.957031 194.59375 " fill-opacity="0.2" fill-rule="nonzero"/><path fill="#160059" d="M 137.957031 48.648438 L 162.316406 48.648438 L 162.316406 60.8125 L 137.957031 60.8125 Z M 137.957031 48.648438 " fill-opacity="0.5" fill-rule="nonzero"/><path fill="#160059" d="M 101.417969 60.8125 L 113.597656 60.8125 L 113.597656 72.972656 L 101.417969 72.972656 Z M 101.417969 60.8125 " fill-opacity="0.2" fill-rule="nonzero"/><path fill="#160059" d="M 186.675781 60.8125 L 198.855469 60.8125 L 198.855469 72.972656 L 186.675781 72.972656 Z M 186.675781 60.8125 " fill-opacity="0.2" fill-rule="nonzero"/><path fill="#160059" d="M 162.316406 97.296875 L 186.675781 97.296875 L 186.675781 109.460938 L 162.316406 109.460938 Z M 162.316406 97.296875 " fill-opacity="0.2" fill-rule="nonzero"/><path fill="#160059" d="M 113.597656 97.296875 L 137.957031 97.296875 L 137.957031 109.460938 L 113.597656 109.460938 Z M 113.597656 97.296875 " fill-opacity="0.2" fill-rule="nonzero"/></svg>