<svg xmlns="http://www.w3.org/2000/svg" xmlns:xlink="http://www.w3.org/1999/xlink" width="400" zoomAndPan="magnify" viewBox="0 0 300 449.999984" height="600" preserveAspectRatio="xMidYMid meet" version="1.0"><defs><filter x="0%" y="0%" width="100%" height="100%" id="34cfe03c8a"><feColorMatrix values="0 0 0 0 1 0 0 0 0 1 0 0 0 0 1 0 0 0 1 0" color-interpolation-filters="sRGB"/></filter><clipPath id="f35d134d8f"><path d="M 47.726562 0 L 252.476562 0 L 252.476562 450 L 47.726562 450 Z M 47.726562 0 " clip-rule="nonzero"/></clipPath><clipPath id="50189b9b08"><path d="M 47.726562 0 L 252.476562 0 L 252.476562 164 L 47.726562 164 Z M 47.726562 0 " clip-rule="nonzero"/></clipPath><mask id="babf278f17"><g filter="url(#34cfe03c8a)"><rect x="-30" width="360" fill="#000000" y="-44.999998" height="539.99998" fill-opacity="0.5"/></g></mask><clipPath id="90268102cb"><path d="M 82 1 L 137.359375 1 L 137.359375 28.558594 L 82 28.558594 Z M 82 1 " clip-rule="nonzero"/></clipPath><clipPath id="6700e80972"><path d="M 0.558594 1 L 42 1 L 42 28.558594 L 0.558594 28.558594 Z M 0.558594 1 " clip-rule="nonzero"/></clipPath><clipPath id="c1d1832973"><rect x="0" width="138" y="0" height="29"/></clipPath><clipPath id="6769c7c1e6"><path d="M 47.726562 150 L 252.476562 150 L 252.476562 410 L 47.726562 410 Z M 47.726562 150 " clip-rule="nonzero"/></clipPath><clipPath id="f8dadfda9c"><path d="M 47.726562 245 L 89 245 L 89 300 L 47.726562 300 Z M 47.726562 245 " clip-rule="nonzero"/></clipPath><clipPath id="07f6b10547"><path d="M 211 245 L 252.476562 245 L 252.476562 300 L 211 300 Z M 211 245 " clip-rule="nonzero"/></clipPath><clipPath id="27128dc746"><path d="M 47.726562 204 L 62 204 L 62 287 L 47.726562 287 Z M 47.726562 204 " clip-rule="nonzero"/></clipPath><clipPath id="a6029aed3f"><path d="M 47.726562 245 L 103 245 L 103 260 L 47.726562 260 Z M 47.726562 245 " clip-rule="nonzero"/></clipPath><clipPath id="137e887d5a"><path d="M 197 204 L 252.476562 204 L 252.476562 287 L 197 287 Z M 197 204 " clip-rule="nonzero"/></clipPath><clipPath id="23d33ada75"><path d="M 47.726562 27 L 62 27 L 62 69 L 47.726562 69 Z M 47.726562 27 " clip-rule="nonzero"/></clipPath><clipPath id="344148f245"><path d="M 238 27 L 252.476562 27 L 252.476562 69 L 238 69 Z M 238 27 " clip-rule="nonzero"/></clipPath></defs><g clip-path="url(#f35d134d8f)"><path fill="#160059" d="M 238.828125 27.277344 L 238.828125 13.644531 L 225.175781 13.644531 L 225.175781 0.0078125 L 197.878906 0.0078125 L 197.878906 13.644531 L 184.226562 13.644531 L 184.226562 27.277344 L 115.976562 27.277344 L 115.976562 13.644531 L 102.328125 13.644531 L 102.328125 0.0078125 L 75.027344 0.0078125 L 75.027344 13.644531 L 61.378906 13.644531 L 61.378906 27.277344 L 47.726562 27.277344 L 47.726562 68.1875 L 61.378906 68.1875 L 61.378906 81.824219 L 75.027344 81.824219 L 75.027344 122.730469 L 88.675781 122.730469 L 88.675781 136.367188 L 102.328125 136.367188 L 102.328125 150.003906 L 88.675781 150.003906 L 88.675781 163.636719 L 75.027344 163.636719 L 75.027344 177.273438 L 61.378906 177.273438 L 61.378906 204.546875 L 47.726562 204.546875 L 47.726562 286.363281 L 61.378906 286.363281 L 61.378906 299.996094 L 75.027344 299.996094 L 75.027344 381.8125 L 61.378906 381.8125 L 61.378906 409.085938 L 75.027344 409.085938 L 75.027344 436.355469 L 88.675781 436.355469 L 88.675781 449.992188 L 129.628906 449.992188 L 129.628906 436.355469 L 143.277344 436.355469 L 143.277344 409.085938 L 156.925781 409.085938 L 156.925781 436.355469 L 170.578125 436.355469 L 170.578125 449.992188 L 211.527344 449.992188 L 211.527344 436.355469 L 225.175781 436.355469 L 225.175781 409.085938 L 238.828125 409.085938 L 238.828125 381.8125 L 225.175781 381.8125 L 225.175781 299.996094 L 238.828125 299.996094 L 238.828125 286.363281 L 252.476562 286.363281 L 252.476562 204.546875 L 238.828125 204.546875 L 238.828125 177.273438 L 225.175781 177.273438 L 225.175781 163.636719 L 211.527344 163.636719 L 211.527344 150.003906 L 197.878906 150.003906 L 197.878906 136.367188 L 211.527344 136.367188 L 211.527344 122.730469 L 225.175781 122.730469 L 225.175781 81.824219 L 238.828125 81.824219 L 238.828125 68.1875 L 252.476562 68.1875 L 252.476562 27.277344 Z M 238.828125 27.277344 " fill-opacity="1" fill-rule="nonzero"/></g><g clip-path="url(#50189b9b08)"><path fill="#fda000" d="M 238.828125 27.277344 L 238.828125 13.644531 L 225.175781 13.644531 L 225.175781 0.0078125 L 197.878906 0.0078125 L 197.878906 13.644531 L 184.226562 13.644531 L 184.226562 27.277344 L 115.976562 27.277344 L 115.976562 13.644531 L 102.328125 13.644531 L 102.328125 0.0078125 L 75.027344 0.0078125 L 75.027344 13.644531 L 61.378906 13.644531 L 61.378906 27.277344 L 47.726562 27.277344 L 47.726562 68.1875 L 75.027344 68.1875 L 75.027344 54.550781 L 88.675781 54.550781 L 88.675781 122.730469 L 102.328125 122.730469 L 102.328125 150.003906 L 129.628906 150.003906 L 129.628906 163.636719 L 170.578125 163.636719 L 170.578125 150.003906 L 197.878906 150.003906 L 197.878906 122.730469 L 225.175781 122.730469 L 225.175781 81.824219 L 238.828125 81.824219 L 238.828125 68.1875 L 252.476562 68.1875 L 252.476562 27.277344 Z M 238.828125 27.277344 " fill-opacity="1" fill-rule="nonzero"/></g><path fill="#ff00ff" d="M 88.675781 395.449219 L 129.628906 395.449219 L 129.628906 449.992188 L 88.675781 449.992188 Z M 88.675781 395.449219 " fill-opacity="1" fill-rule="nonzero"/><path fill="#ff00ff" d="M 170.578125 395.449219 L 211.527344 395.449219 L 211.527344 449.992188 L 170.578125 449.992188 Z M 170.578125 395.449219 " fill-opacity="1" fill-rule="nonzero"/><path fill="#160059" d="M 75.027344 409.085938 L 88.675781 409.085938 L 88.675781 436.355469 L 75.027344 436.355469 Z M 75.027344 409.085938 " fill-opacity="1" fill-rule="nonzero"/><path fill="#160059" d="M 88.675781 436.355469 L 129.628906 436.355469 L 129.628906 449.992188 L 88.675781 449.992188 Z M 88.675781 436.355469 " fill-opacity="1" fill-rule="nonzero"/><path fill="#160059" d="M 129.628906 409.085938 L 143.277344 409.085938 L 143.277344 436.355469 L 129.628906 436.355469 Z M 129.628906 409.085938 " fill-opacity="1" fill-rule="nonzero"/><path fill="#160059" d="M 156.925781 409.085938 L 170.578125 409.085938 L 170.578125 436.355469 L 156.925781 436.355469 Z M 156.925781 409.085938 " fill-opacity="1" fill-rule="nonzero"/><path fill="#160059" d="M 61.378906 395.449219 L 115.976562 395.449219 L 115.976562 409.085938 L 61.378906 409.085938 Z M 61.378906 395.449219 " fill-opacity="1" fill-rule="nonzero"/><path fill="#160059" d="M 184.226562 395.449219 L 225.175781 395.449219 L 225.175781 409.085938 L 184.226562 409.085938 Z M 184.226562 395.449219 " fill-opacity="1" fill-rule="nonzero"/><path fill="#160059" d="M 170.578125 436.355469 L 211.527344 436.355469 L 211.527344 449.992188 L 170.578125 449.992188 Z M 170.578125 436.355469 " fill-opacity="1" fill-rule="nonzero"/><path fill="#160059" d="M 211.527344 409.085938 L 225.175781 409.085938 L 225.175781 436.355469 L 211.527344 436.355469 Z M 211.527344 409.085938 " fill-opacity="1" fill-rule="nonzero"/><g mask="url(#babf278f17)"><g transform="matrix(1, 0, 0, 1, 88, 408)"><g clip-path="url(#c1d1832973)"><g clip-path="url(#90268102cb)"><path fill="#160059" d="M 96.226562 14.722656 L 137.175781 14.722656 L 137.175781 1.085938 L 82.578125 1.085938 L 82.578125 28.355469 L 96.226562 28.355469 Z M 96.226562 14.722656 " fill-opacity="1" fill-rule="nonzero"/></g><g clip-path="url(#6700e80972)"><path fill="#160059" d="M 27.976562 14.722656 L 27.976562 28.355469 L 41.628906 28.355469 L 41.628906 1.085938 L 0.675781 1.085938 L 0.675781 14.722656 Z M 27.976562 14.722656 " fill-opacity="1" fill-rule="nonzero"/></g></g></g></g><g clip-path="url(#6769c7c1e6)"><path fill="#00efa5" d="M 238.828125 204.546875 L 238.828125 177.273438 L 225.175781 177.273438 L 225.175781 163.636719 L 211.527344 163.636719 L 211.527344 150.003906 L 170.578125 150.003906 L 170.578125 177.273438 L 129.628906 177.273438 L 129.628906 150.003906 L 88.675781 150.003906 L 88.675781 163.636719 L 75.027344 163.636719 L 75.027344 177.273438 L 61.378906 177.273438 L 61.378906 204.546875 L 47.726562 204.546875 L 47.726562 259.089844 L 88.675781 259.089844 L 88.675781 286.363281 L 75.027344 286.363281 L 75.027344 381.8125 L 61.378906 381.8125 L 61.378906 409.085938 L 238.828125 409.085938 L 238.828125 381.8125 L 225.175781 381.8125 L 225.175781 286.363281 L 211.527344 286.363281 L 211.527344 259.089844 L 252.476562 259.089844 L 252.476562 204.546875 Z M 238.828125 204.546875 " fill-opacity="1" fill-rule="nonzero"/></g><path fill="#160059" d="M 143.277344 381.8125 L 156.925781 381.8125 L 156.925781 409.085938 L 143.277344 409.085938 Z M 143.277344 381.8125 " fill-opacity="1" fill-rule="nonzero"/><g clip-path="url(#f8dadfda9c)"><path fill="#fda000" d="M 61.378906 245.453125 L 61.378906 259.089844 L 47.726562 259.089844 L 47.726562 286.363281 L 61.378906 286.363281 L 61.378906 299.996094 L 88.675781 299.996094 L 88.675781 245.453125 Z M 61.378906 245.453125 " fill-opacity="1" fill-rule="nonzero"/></g><g clip-path="url(#07f6b10547)"><path fill="#fda000" d="M 238.828125 299.996094 L 238.828125 286.363281 L 252.476562 286.363281 L 252.476562 259.089844 L 238.828125 259.089844 L 238.828125 245.453125 L 211.527344 245.453125 L 211.527344 299.996094 Z M 238.828125 299.996094 " fill-opacity="1" fill-rule="nonzero"/></g><path fill="#160059" d="M 75.027344 299.996094 L 88.675781 299.996094 L 88.675781 381.8125 L 75.027344 381.8125 Z M 75.027344 299.996094 " fill-opacity="1" fill-rule="nonzero"/><path fill="#160059" d="M 61.378906 381.8125 L 75.027344 381.8125 L 75.027344 409.085938 L 61.378906 409.085938 Z M 61.378906 381.8125 " fill-opacity="1" fill-rule="nonzero"/><path fill="#160059" d="M 211.527344 299.996094 L 225.175781 299.996094 L 225.175781 381.8125 L 211.527344 381.8125 Z M 211.527344 299.996094 " fill-opacity="1" fill-rule="nonzero"/><path fill="#160059" d="M 225.175781 381.8125 L 238.828125 381.8125 L 238.828125 409.085938 L 225.175781 409.085938 Z M 225.175781 381.8125 " fill-opacity="1" fill-rule="nonzero"/><path fill="#160059" d="M 88.675781 150.003906 L 129.628906 150.003906 L 129.628906 163.636719 L 88.675781 163.636719 Z M 88.675781 150.003906 " fill-opacity="1" fill-rule="nonzero"/><path fill="#160059" d="M 75.027344 163.636719 L 88.675781 163.636719 L 88.675781 177.273438 L 75.027344 177.273438 Z M 75.027344 163.636719 " fill-opacity="1" fill-rule="nonzero"/><path fill="#160059" d="M 61.378906 177.273438 L 75.027344 177.273438 L 75.027344 204.546875 L 61.378906 204.546875 Z M 61.378906 177.273438 " fill-opacity="1" fill-rule="nonzero"/><g clip-path="url(#27128dc746)"><path fill="#160059" d="M 47.726562 204.546875 L 61.378906 204.546875 L 61.378906 286.363281 L 47.726562 286.363281 Z M 47.726562 204.546875 " fill-opacity="1" fill-rule="nonzero"/></g><path fill="#160059" d="M 170.578125 150.003906 L 211.527344 150.003906 L 211.527344 163.636719 L 170.578125 163.636719 Z M 170.578125 150.003906 " fill-opacity="0.5" fill-rule="nonzero"/><path fill="#160059" d="M 211.527344 163.636719 L 225.175781 163.636719 L 225.175781 177.273438 L 211.527344 177.273438 Z M 211.527344 163.636719 " fill-opacity="0.5" fill-rule="nonzero"/><path fill="#160059" d="M 225.175781 177.273438 L 238.828125 177.273438 L 238.828125 204.546875 L 225.175781 204.546875 Z M 225.175781 177.273438 " fill-opacity="0.5" fill-rule="nonzero"/><path fill="#160059" d="M 61.378906 286.363281 L 88.675781 286.363281 L 88.675781 299.996094 L 61.378906 299.996094 Z M 61.378906 286.363281 " fill-opacity="1" fill-rule="nonzero"/><path fill="#160059" d="M 170.578125 150.003906 L 197.878906 150.003906 L 197.878906 163.636719 L 170.578125 163.636719 Z M 170.578125 150.003906 " fill-opacity="1" fill-rule="nonzero"/><path fill="#160059" d="M 88.675781 218.183594 L 102.328125 218.183594 L 102.328125 286.363281 L 88.675781 286.363281 Z M 88.675781 218.183594 " fill-opacity="1" fill-rule="nonzero"/><path fill="#160059" d="M 197.878906 218.183594 L 211.527344 218.183594 L 211.527344 286.363281 L 197.878906 286.363281 Z M 197.878906 218.183594 " fill-opacity="1" fill-rule="nonzero"/><path fill="#160059" d="M 184.226562 150.003906 L 184.226562 163.636719 L 115.976562 163.636719 L 115.976562 150.003906 Z M 184.226562 150.003906 " fill-opacity="0.2" fill-rule="nonzero"/><path fill="#160059" d="M 143.277344 190.910156 L 156.925781 190.910156 L 156.925781 272.726562 L 143.277344 272.726562 Z M 143.277344 190.910156 " fill-opacity="1" fill-rule="nonzero"/><path fill="#fff200" d="M 170.578125 218.183594 L 184.226562 218.183594 L 184.226562 231.816406 L 170.578125 231.816406 Z M 170.578125 218.183594 " fill-opacity="1" fill-rule="nonzero"/><path fill="#fff200" d="M 115.976562 313.632812 L 129.628906 313.632812 L 129.628906 327.269531 L 115.976562 327.269531 Z M 115.976562 313.632812 " fill-opacity="1" fill-rule="nonzero"/><path fill="#fff200" d="M 61.378906 204.546875 L 75.027344 204.546875 L 75.027344 218.183594 L 61.378906 218.183594 Z M 61.378906 204.546875 " fill-opacity="1" fill-rule="nonzero"/><path fill="#fff200" d="M 197.878906 177.273438 L 211.527344 177.273438 L 211.527344 190.910156 L 197.878906 190.910156 Z M 197.878906 177.273438 " fill-opacity="1" fill-rule="nonzero"/><path fill="#fff200" d="M 115.976562 259.089844 L 129.628906 259.089844 L 129.628906 272.726562 L 115.976562 272.726562 Z M 115.976562 259.089844 " fill-opacity="1" fill-rule="nonzero"/><path fill="#fff200" d="M 225.175781 231.816406 L 238.828125 231.816406 L 238.828125 245.453125 L 225.175781 245.453125 Z M 225.175781 231.816406 " fill-opacity="1" fill-rule="nonzero"/><path fill="#fff200" d="M 75.027344 177.273438 L 88.675781 177.273438 L 88.675781 190.910156 L 75.027344 190.910156 Z M 75.027344 177.273438 " fill-opacity="1" fill-rule="nonzero"/><path fill="#fff200" d="M 184.226562 313.632812 L 197.878906 313.632812 L 197.878906 327.269531 L 184.226562 327.269531 Z M 184.226562 313.632812 " fill-opacity="1" fill-rule="nonzero"/><path fill="#fff200" d="M 211.527344 381.8125 L 225.175781 381.8125 L 225.175781 395.449219 L 211.527344 395.449219 Z M 211.527344 381.8125 " fill-opacity="1" fill-rule="nonzero"/><path fill="#fff200" d="M 102.328125 340.90625 L 115.976562 340.90625 L 115.976562 354.542969 L 102.328125 354.542969 Z M 102.328125 340.90625 " fill-opacity="1" fill-rule="nonzero"/><path fill="#fff200" d="M 177.402344 368.175781 L 191.050781 368.175781 L 191.050781 381.8125 L 177.402344 381.8125 Z M 177.402344 368.175781 " fill-opacity="1" fill-rule="nonzero"/><path fill="#fff200" d="M 102.328125 286.363281 L 115.976562 286.363281 L 115.976562 299.996094 L 102.328125 299.996094 Z M 102.328125 286.363281 " fill-opacity="1" fill-rule="nonzero"/><path fill="#fff200" d="M 75.027344 381.8125 L 88.675781 381.8125 L 88.675781 395.449219 L 75.027344 395.449219 Z M 75.027344 381.8125 " fill-opacity="1" fill-rule="nonzero"/><g clip-path="url(#a6029aed3f)"><path fill="#160059" d="M 47.726562 245.453125 L 102.328125 245.453125 L 102.328125 259.089844 L 47.726562 259.089844 Z M 47.726562 245.453125 " fill-opacity="0.5" fill-rule="nonzero"/></g><g clip-path="url(#137e887d5a)"><path fill="#160059" d="M 238.828125 204.546875 L 238.828125 245.453125 L 197.878906 245.453125 L 197.878906 259.089844 L 238.828125 259.089844 L 238.828125 286.363281 L 252.476562 286.363281 L 252.476562 204.546875 Z M 238.828125 204.546875 " fill-opacity="0.5" fill-rule="nonzero"/></g><path fill="#160059" d="M 75.027344 272.726562 L 102.328125 272.726562 L 102.328125 286.363281 L 75.027344 286.363281 Z M 75.027344 272.726562 " fill-opacity="0.5" fill-rule="nonzero"/><path fill="#160059" d="M 225.175781 286.363281 L 225.175781 272.726562 L 197.878906 272.726562 L 197.878906 286.363281 L 211.527344 286.363281 L 211.527344 299.996094 L 238.828125 299.996094 L 238.828125 286.363281 Z M 225.175781 286.363281 " fill-opacity="0.5" fill-rule="nonzero"/><path fill="#160059" d="M 88.675781 286.363281 L 102.328125 286.363281 L 102.328125 354.542969 L 88.675781 354.542969 Z M 88.675781 286.363281 " fill-opacity="0.2" fill-rule="nonzero"/><path fill="#160059" d="M 61.378906 381.8125 L 75.027344 381.8125 L 75.027344 409.085938 L 61.378906 409.085938 Z M 61.378906 381.8125 " fill-opacity="0.2" fill-rule="nonzero"/><path fill="#160059" d="M 225.175781 381.8125 L 238.828125 381.8125 L 238.828125 409.085938 L 225.175781 409.085938 Z M 225.175781 381.8125 " fill-opacity="0.2" fill-rule="nonzero"/><path fill="#160059" d="M 102.328125 204.546875 L 115.976562 204.546875 L 115.976562 272.726562 L 102.328125 272.726562 Z M 102.328125 204.546875 " fill-opacity="0.2" fill-rule="nonzero"/><path fill="#160059" d="M 184.226562 204.546875 L 197.878906 204.546875 L 197.878906 272.726562 L 184.226562 272.726562 Z M 184.226562 204.546875 " fill-opacity="0.2" fill-rule="nonzero"/><path fill="#160059" d="M 143.277344 272.726562 L 156.925781 272.726562 L 156.925781 381.8125 L 143.277344 381.8125 Z M 143.277344 272.726562 " fill-opacity="0.2" fill-rule="nonzero"/><path fill="#160059" d="M 197.878906 286.363281 L 211.527344 286.363281 L 211.527344 354.542969 L 197.878906 354.542969 Z M 197.878906 286.363281 " fill-opacity="0.2" fill-rule="nonzero"/><path fill="#160059" d="M 115.976562 163.636719 L 115.976562 177.273438 L 88.675781 177.273438 L 88.675781 163.636719 Z M 115.976562 163.636719 " fill-opacity="0.2" fill-rule="nonzero"/><path fill="#160059" d="M 211.527344 163.636719 L 211.527344 177.273438 L 184.226562 177.273438 L 184.226562 163.636719 Z M 211.527344 163.636719 " fill-opacity="0.2" fill-rule="nonzero"/><path fill="#ff00ff" d="M 156.925781 163.636719 L 115.976562 163.636719 L 115.976562 190.910156 L 143.277344 190.910156 L 143.277344 177.273438 L 156.925781 177.273438 L 156.925781 190.910156 L 184.226562 190.910156 L 184.226562 163.636719 Z M 156.925781 163.636719 " fill-opacity="1" fill-rule="nonzero"/><path fill="#160059" d="M 115.976562 163.636719 L 129.628906 163.636719 L 129.628906 190.910156 L 115.976562 190.910156 Z M 115.976562 163.636719 " fill-opacity="0.5" fill-rule="nonzero"/><path fill="#160059" d="M 170.578125 163.636719 L 184.226562 163.636719 L 184.226562 190.910156 L 170.578125 190.910156 Z M 170.578125 163.636719 " fill-opacity="0.5" fill-rule="nonzero"/><path fill="#160059" d="M 115.976562 177.273438 L 143.277344 177.273438 L 143.277344 190.910156 L 115.976562 190.910156 Z M 115.976562 177.273438 " fill-opacity="0.5" fill-rule="nonzero"/><path fill="#160059" d="M 143.277344 163.636719 L 156.925781 163.636719 L 156.925781 177.273438 L 143.277344 177.273438 Z M 143.277344 163.636719 " fill-opacity="0.5" fill-rule="nonzero"/><path fill="#160059" d="M 156.925781 177.273438 L 184.226562 177.273438 L 184.226562 190.910156 L 156.925781 190.910156 Z M 156.925781 177.273438 " fill-opacity="0.5" fill-rule="nonzero"/><g clip-path="url(#23d33ada75)"><path fill="#160059" d="M 47.726562 27.277344 L 61.378906 27.277344 L 61.378906 68.1875 L 47.726562 68.1875 Z M 47.726562 27.277344 " fill-opacity="1" fill-rule="nonzero"/></g><path fill="#160059" d="M 61.378906 13.644531 L 75.027344 13.644531 L 75.027344 27.277344 L 61.378906 27.277344 Z M 61.378906 13.644531 " fill-opacity="1" fill-rule="nonzero"/><path fill="#160059" d="M 75.027344 0.0078125 L 102.328125 0.0078125 L 102.328125 13.644531 L 75.027344 13.644531 Z M 75.027344 0.0078125 " fill-opacity="1" fill-rule="nonzero"/><path fill="#160059" d="M 102.328125 13.644531 L 115.976562 13.644531 L 115.976562 27.277344 L 102.328125 27.277344 Z M 102.328125 13.644531 " fill-opacity="1" fill-rule="nonzero"/><path fill="#160059" d="M 61.378906 68.1875 L 75.027344 68.1875 L 75.027344 81.824219 L 61.378906 81.824219 Z M 61.378906 68.1875 " fill-opacity="1" fill-rule="nonzero"/><path fill="#160059" d="M 75.027344 54.550781 L 88.675781 54.550781 L 88.675781 122.730469 L 75.027344 122.730469 Z M 75.027344 54.550781 " fill-opacity="1" fill-rule="nonzero"/><path fill="#160059" d="M 88.675781 122.730469 L 102.328125 122.730469 L 102.328125 136.367188 L 88.675781 136.367188 Z M 88.675781 122.730469 " fill-opacity="1" fill-rule="nonzero"/><path fill="#160059" d="M 102.328125 136.367188 L 115.976562 136.367188 L 115.976562 163.636719 L 102.328125 163.636719 Z M 102.328125 136.367188 " fill-opacity="1" fill-rule="nonzero"/><path fill="#160059" d="M 184.226562 136.367188 L 197.878906 136.367188 L 197.878906 163.636719 L 184.226562 163.636719 Z M 184.226562 136.367188 " fill-opacity="1" fill-rule="nonzero"/><path fill="#160059" d="M 197.878906 122.730469 L 211.527344 122.730469 L 211.527344 136.367188 L 197.878906 136.367188 Z M 197.878906 122.730469 " fill-opacity="1" fill-rule="nonzero"/><g clip-path="url(#344148f245)"><path fill="#160059" d="M 238.828125 27.277344 L 252.476562 27.277344 L 252.476562 68.1875 L 238.828125 68.1875 Z M 238.828125 27.277344 " fill-opacity="0.5" fill-rule="nonzero"/></g><path fill="#160059" d="M 225.175781 13.644531 L 238.828125 13.644531 L 238.828125 27.277344 L 225.175781 27.277344 Z M 225.175781 13.644531 " fill-opacity="0.5" fill-rule="nonzero"/><path fill="#160059" d="M 88.675781 109.09375 L 102.328125 109.09375 L 102.328125 122.730469 L 88.675781 122.730469 Z M 88.675781 109.09375 " fill-opacity="0.5" fill-rule="nonzero"/><path fill="#160059" d="M 88.675781 95.457031 L 102.328125 95.457031 L 102.328125 109.09375 L 88.675781 109.09375 Z M 88.675781 95.457031 " fill-opacity="0.2" fill-rule="nonzero"/><path fill="#160059" d="M 197.878906 95.457031 L 211.527344 95.457031 L 211.527344 109.09375 L 197.878906 109.09375 Z M 197.878906 95.457031 " fill-opacity="0.2" fill-rule="nonzero"/><path fill="#160059" d="M 184.226562 81.824219 L 197.878906 81.824219 L 197.878906 109.09375 L 184.226562 109.09375 Z M 184.226562 81.824219 " fill-opacity="0.1" fill-rule="nonzero"/><path fill="#160059" d="M 102.328125 81.824219 L 115.976562 81.824219 L 115.976562 109.09375 L 102.328125 109.09375 Z M 102.328125 81.824219 " fill-opacity="0.1" fill-rule="nonzero"/><path fill="#160059" d="M 184.226562 122.730469 L 197.878906 122.730469 L 197.878906 136.367188 L 184.226562 136.367188 Z M 184.226562 122.730469 " fill-opacity="0.2" fill-rule="nonzero"/><path fill="#160059" d="M 102.328125 122.730469 L 115.976562 122.730469 L 115.976562 136.367188 L 102.328125 136.367188 Z M 102.328125 122.730469 " fill-opacity="0.2" fill-rule="nonzero"/><path fill="#160059" d="M 225.175781 68.1875 L 225.175781 54.550781 L 211.527344 54.550781 L 211.527344 109.09375 L 197.878906 109.09375 L 197.878906 122.730469 L 225.175781 122.730469 L 225.175781 81.824219 L 238.828125 81.824219 L 238.828125 68.1875 Z M 225.175781 68.1875 " fill-opacity="0.5" fill-rule="nonzero"/><path fill="#160059" d="M 197.878906 0.0078125 L 225.175781 0.0078125 L 225.175781 13.644531 L 197.878906 13.644531 Z M 197.878906 0.0078125 " fill-opacity="0.5" fill-rule="nonzero"/><path fill="#160059" d="M 184.226562 13.644531 L 197.878906 13.644531 L 197.878906 27.277344 L 184.226562 27.277344 Z M 184.226562 13.644531 " fill-opacity="0.5" fill-rule="nonzero"/><path fill="#160059" d="M 115.976562 27.277344 L 156.925781 27.277344 L 156.925781 40.914062 L 115.976562 40.914062 Z M 115.976562 27.277344 " fill-opacity="1" fill-rule="nonzero"/><path fill="#160059" d="M 156.925781 27.277344 L 184.226562 27.277344 L 184.226562 40.914062 L 156.925781 40.914062 Z M 156.925781 27.277344 " fill-opacity="0.5" fill-rule="nonzero"/><path fill="#160059" d="M 115.976562 81.824219 L 129.628906 81.824219 L 129.628906 95.457031 L 115.976562 95.457031 Z M 115.976562 81.824219 " fill-opacity="1" fill-rule="nonzero"/><path fill="#160059" d="M 170.578125 81.824219 L 184.226562 81.824219 L 184.226562 95.457031 L 170.578125 95.457031 Z M 170.578125 81.824219 " fill-opacity="1" fill-rule="nonzero"/><path fill="#160059" d="M 115.976562 68.1875 L 129.628906 68.1875 L 129.628906 81.824219 L 115.976562 81.824219 Z M 115.976562 68.1875 " fill-opacity="0.5" fill-rule="nonzero"/><path fill="#160059" d="M 170.578125 68.1875 L 184.226562 68.1875 L 184.226562 81.824219 L 170.578125 81.824219 Z M 170.578125 68.1875 " fill-opacity="0.5" fill-rule="nonzero"/><path fill="#160059" d="M 170.578125 109.09375 L 129.628906 109.09375 L 129.628906 122.730469 L 143.277344 122.730469 L 143.277344 136.367188 L 156.925781 136.367188 L 156.925781 122.730469 L 170.578125 122.730469 Z M 170.578125 109.09375 " fill-opacity="1" fill-rule="nonzero"/><path fill="#160059" d="M 129.628906 109.09375 L 170.578125 109.09375 L 170.578125 136.367188 L 129.628906 136.367188 Z M 129.628906 109.09375 " fill-opacity="0.5" fill-rule="nonzero"/><path fill="#ff00ff" d="M 143.277344 136.367188 L 156.925781 136.367188 L 156.925781 150.003906 L 143.277344 150.003906 Z M 143.277344 136.367188 " fill-opacity="1" fill-rule="nonzero"/><path fill="#160059" d="M 129.628906 81.824219 L 170.578125 81.824219 L 170.578125 95.457031 L 129.628906 95.457031 Z M 129.628906 81.824219 " fill-opacity="0.2" fill-rule="nonzero"/><path fill="#160059" d="M 88.675781 40.914062 L 75.027344 40.914062 L 75.027344 54.550781 L 88.675781 54.550781 L 88.675781 68.1875 L 102.328125 68.1875 L 102.328125 40.914062 Z M 88.675781 40.914062 " fill-opacity="0.5" fill-rule="nonzero"/><path fill="#160059" d="M 211.527344 40.914062 L 225.175781 40.914062 L 225.175781 54.550781 L 211.527344 54.550781 L 211.527344 68.1875 L 197.878906 68.1875 L 197.878906 40.914062 Z M 211.527344 40.914062 " fill-opacity="0.5" fill-rule="nonzero"/><path fill="#160059" d="M 211.527344 54.550781 L 225.175781 54.550781 L 225.175781 122.730469 L 211.527344 122.730469 Z M 211.527344 54.550781 " fill-opacity="1" fill-rule="nonzero"/><path fill="#160059" d="M 102.328125 27.277344 L 115.976562 27.277344 L 115.976562 40.914062 L 102.328125 40.914062 Z M 102.328125 27.277344 " fill-opacity="0.2" fill-rule="nonzero"/><path fill="#160059" d="M 143.277344 40.914062 L 156.925781 40.914062 L 156.925781 54.550781 L 143.277344 54.550781 Z M 143.277344 40.914062 " fill-opacity="0.2" fill-rule="nonzero"/><path fill="#160059" d="M 88.675781 13.644531 L 102.328125 13.644531 L 102.328125 27.277344 L 88.675781 27.277344 Z M 88.675781 13.644531 " fill-opacity="0.2" fill-rule="nonzero"/><path fill="#160059" d="M 184.226562 27.277344 L 197.878906 27.277344 L 197.878906 40.914062 L 184.226562 40.914062 Z M 184.226562 27.277344 " fill-opacity="0.2" fill-rule="nonzero"/><path fill="#160059" d="M 129.628906 40.914062 L 170.578125 40.914062 L 170.578125 54.550781 L 129.628906 54.550781 Z M 129.628906 40.914062 " fill-opacity="0.2" fill-rule="nonzero"/><path fill="#160059" d="M 197.878906 13.644531 L 211.527344 13.644531 L 211.527344 27.277344 L 197.878906 27.277344 Z M 197.878906 13.644531 " fill-opacity="0.2" fill-rule="nonzero"/><path fill="#160059" d="M 184.226562 395.449219 L 184.226562 381.8125 L 170.578125 381.8125 L 170.578125 395.449219 L 129.628906 395.449219 L 129.628906 381.8125 L 115.976562 381.8125 L 115.976562 395.449219 L 61.378906 395.449219 L 61.378906 409.085938 L 238.828125 409.085938 L 238.828125 395.449219 Z M 184.226562 395.449219 " fill-opacity="0.2" fill-rule="nonzero"/></svg>