<svg xmlns="http://www.w3.org/2000/svg" xmlns:xlink="http://www.w3.org/1999/xlink" width="400" zoomAndPan="magnify" viewBox="0 0 300 449.999984" height="600" preserveAspectRatio="xMidYMid meet" version="1.0"><defs><clipPath id="f589657407"><path d="M 37.5 0 L 262.5 0 L 262.5 450 L 37.5 450 Z M 37.5 0 " clip-rule="nonzero"/></clipPath><clipPath id="6b242c692d"><path d="M 37.5 145 L 262.5 145 L 262.5 318 L 37.5 318 Z M 37.5 145 " clip-rule="nonzero"/></clipPath><clipPath id="f66e3fe75b"><path d="M 37.5 225 L 51 225 L 51 318 L 37.5 318 Z M 37.5 225 " clip-rule="nonzero"/></clipPath><clipPath id="054f513100"><path d="M 249 225 L 262.5 225 L 262.5 318 L 249 318 Z M 249 225 " clip-rule="nonzero"/></clipPath><clipPath id="3741b85406"><path d="M 37.5 39 L 51 39 L 51 67 L 37.5 67 Z M 37.5 39 " clip-rule="nonzero"/></clipPath><clipPath id="4f4cc9dec5"><path d="M 249 39 L 262.5 39 L 262.5 67 L 249 67 Z M 249 39 " clip-rule="nonzero"/></clipPath></defs><g clip-path="url(#f589657407)"><path fill="#160059" d="M 209.558594 92.648438 L 222.792969 92.648438 L 222.792969 79.410156 L 249.265625 79.410156 L 249.265625 66.175781 L 262.5 66.175781 L 262.5 39.707031 L 249.265625 39.707031 L 249.265625 26.46875 L 236.03125 26.46875 L 236.03125 13.234375 L 209.558594 13.234375 L 209.558594 0 L 90.441406 0 L 90.441406 13.234375 L 63.96875 13.234375 L 63.96875 26.46875 L 50.734375 26.46875 L 50.734375 39.707031 L 37.5 39.707031 L 37.5 66.175781 L 50.734375 66.175781 L 50.734375 79.410156 L 77.207031 79.410156 L 77.207031 92.648438 L 90.441406 92.648438 L 90.441406 158.824219 L 77.207031 158.824219 L 77.207031 172.058594 L 63.96875 172.058594 L 63.96875 185.292969 L 50.734375 185.292969 L 50.734375 225 L 37.5 225 L 37.5 317.648438 L 50.734375 317.648438 L 50.734375 344.117188 L 63.96875 344.117188 L 63.96875 357.351562 L 90.441406 357.351562 L 90.441406 410.292969 L 77.207031 410.292969 L 77.207031 436.765625 L 90.441406 436.765625 L 90.441406 450 L 130.148438 450 L 130.148438 436.765625 L 169.851562 436.765625 L 169.851562 450 L 209.558594 450 L 209.558594 436.765625 L 222.792969 436.765625 L 222.792969 410.292969 L 209.558594 410.292969 L 209.558594 357.351562 L 236.03125 357.351562 L 236.03125 344.117188 L 249.265625 344.117188 L 249.265625 317.648438 L 262.5 317.648438 L 262.5 225 L 249.265625 225 L 249.265625 185.292969 L 236.03125 185.292969 L 236.03125 172.058594 L 222.792969 172.058594 L 222.792969 158.824219 L 209.558594 158.824219 Z M 209.558594 92.648438 " fill-opacity="1" fill-rule="nonzero"/></g><path fill="#ffe096" d="M 50.734375 26.46875 L 249.265625 26.46875 L 249.265625 66.175781 L 50.734375 66.175781 Z M 50.734375 26.46875 " fill-opacity="1" fill-rule="nonzero"/><path fill="#ffe096" d="M 236.03125 26.46875 L 236.03125 13.234375 L 209.558594 13.234375 L 209.558594 0 L 90.441406 0 L 90.441406 13.234375 L 63.96875 13.234375 L 63.96875 26.46875 L 50.734375 26.46875 L 50.734375 39.707031 L 63.96875 39.707031 L 63.96875 52.941406 L 77.207031 52.941406 L 77.207031 92.648438 L 90.441406 92.648438 L 90.441406 145.589844 L 103.675781 145.589844 L 103.675781 158.824219 L 116.910156 158.824219 L 116.910156 172.058594 L 183.089844 172.058594 L 183.089844 158.824219 L 196.324219 158.824219 L 196.324219 145.589844 L 209.558594 145.589844 L 209.558594 92.648438 L 222.792969 92.648438 L 222.792969 52.941406 L 236.03125 52.941406 L 236.03125 39.707031 L 249.265625 39.707031 L 249.265625 26.46875 Z M 236.03125 26.46875 " fill-opacity="1" fill-rule="nonzero"/><path fill="#160059" d="M 90.441406 0 L 103.675781 0 L 103.675781 26.46875 L 90.441406 26.46875 Z M 90.441406 0 " fill-opacity="1" fill-rule="nonzero"/><path fill="#160059" d="M 63.96875 13.234375 L 103.675781 13.234375 L 103.675781 26.46875 L 63.96875 26.46875 Z M 63.96875 13.234375 " fill-opacity="1" fill-rule="nonzero"/><path fill="#160059" d="M 90.441406 0 L 156.617188 0 L 156.617188 13.234375 L 90.441406 13.234375 Z M 90.441406 0 " fill-opacity="1" fill-rule="nonzero"/><path fill="#160059" d="M 236.03125 26.46875 L 249.265625 26.46875 L 249.265625 39.707031 L 236.03125 39.707031 Z M 236.03125 26.46875 " fill-opacity="1" fill-rule="nonzero"/><path fill="#160059" d="M 222.792969 39.707031 L 236.03125 39.707031 L 236.03125 52.941406 L 222.792969 52.941406 Z M 222.792969 39.707031 " fill-opacity="1" fill-rule="nonzero"/><path fill="#160059" d="M 209.558594 52.941406 L 222.792969 52.941406 L 222.792969 92.648438 L 209.558594 92.648438 Z M 209.558594 52.941406 " fill-opacity="1" fill-rule="nonzero"/><path fill="#160059" d="M 196.324219 92.648438 L 209.558594 92.648438 L 209.558594 145.589844 L 196.324219 145.589844 Z M 196.324219 92.648438 " fill-opacity="1" fill-rule="nonzero"/><path fill="#160059" d="M 50.734375 26.46875 L 63.96875 26.46875 L 63.96875 39.707031 L 50.734375 39.707031 Z M 50.734375 26.46875 " fill-opacity="1" fill-rule="nonzero"/><path fill="#160059" d="M 63.96875 39.707031 L 77.207031 39.707031 L 77.207031 52.941406 L 63.96875 52.941406 Z M 63.96875 39.707031 " fill-opacity="1" fill-rule="nonzero"/><path fill="#160059" d="M 77.207031 39.707031 L 90.441406 39.707031 L 90.441406 52.941406 L 77.207031 52.941406 Z M 77.207031 39.707031 " fill-opacity="0.5" fill-rule="nonzero"/><path fill="#160059" d="M 90.441406 79.410156 L 103.675781 79.410156 L 103.675781 92.648438 L 90.441406 92.648438 Z M 90.441406 79.410156 " fill-opacity="0.5" fill-rule="nonzero"/><path fill="#160059" d="M 196.324219 79.410156 L 209.558594 79.410156 L 209.558594 92.648438 L 196.324219 92.648438 Z M 196.324219 79.410156 " fill-opacity="0.5" fill-rule="nonzero"/><path fill="#160059" d="M 143.382812 79.410156 L 156.617188 79.410156 L 156.617188 92.648438 L 143.382812 92.648438 Z M 143.382812 79.410156 " fill-opacity="0.2" fill-rule="nonzero"/><path fill="#160059" d="M 209.558594 39.707031 L 222.792969 39.707031 L 222.792969 52.941406 L 209.558594 52.941406 Z M 209.558594 39.707031 " fill-opacity="0.5" fill-rule="nonzero"/><path fill="#160059" d="M 209.558594 13.234375 L 209.558594 0 L 143.382812 0 L 143.382812 13.234375 L 196.324219 13.234375 L 196.324219 26.46875 L 222.792969 26.46875 L 222.792969 39.707031 L 236.03125 39.707031 L 236.03125 13.234375 Z M 209.558594 13.234375 " fill-opacity="0.5" fill-rule="nonzero"/><path fill="#160059" d="M 63.96875 26.46875 L 77.207031 26.46875 L 77.207031 39.707031 L 63.96875 39.707031 Z M 63.96875 26.46875 " fill-opacity="0.5" fill-rule="nonzero"/><path fill="#160059" d="M 103.675781 13.234375 L 116.910156 13.234375 L 116.910156 26.46875 L 103.675781 26.46875 Z M 103.675781 13.234375 " fill-opacity="0.5" fill-rule="nonzero"/><path fill="#160059" d="M 77.207031 52.941406 L 90.441406 52.941406 L 90.441406 92.648438 L 77.207031 92.648438 Z M 77.207031 52.941406 " fill-opacity="1" fill-rule="nonzero"/><path fill="#160059" d="M 90.441406 92.648438 L 103.675781 92.648438 L 103.675781 145.589844 L 90.441406 145.589844 Z M 90.441406 92.648438 " fill-opacity="1" fill-rule="nonzero"/><path fill="#160059" d="M 103.675781 145.589844 L 116.910156 145.589844 L 116.910156 158.824219 L 103.675781 158.824219 Z M 103.675781 145.589844 " fill-opacity="1" fill-rule="nonzero"/><path fill="#160059" d="M 116.910156 158.824219 L 183.089844 158.824219 L 183.089844 172.058594 L 116.910156 172.058594 Z M 116.910156 158.824219 " fill-opacity="1" fill-rule="nonzero"/><path fill="#160059" d="M 183.089844 145.589844 L 196.324219 145.589844 L 196.324219 158.824219 L 183.089844 158.824219 Z M 183.089844 145.589844 " fill-opacity="1" fill-rule="nonzero"/><path fill="#160059" d="M 116.910156 79.410156 L 130.148438 79.410156 L 130.148438 105.882812 L 116.910156 105.882812 Z M 116.910156 79.410156 " fill-opacity="1" fill-rule="nonzero"/><path fill="#160059" d="M 169.851562 79.410156 L 183.089844 79.410156 L 183.089844 105.882812 L 169.851562 105.882812 Z M 169.851562 79.410156 " fill-opacity="1" fill-rule="nonzero"/><path fill="#160059" d="M 116.910156 66.175781 L 130.148438 66.175781 L 130.148438 79.410156 L 116.910156 79.410156 Z M 116.910156 66.175781 " fill-opacity="0.5" fill-rule="nonzero"/><path fill="#160059" d="M 169.851562 66.175781 L 183.089844 66.175781 L 183.089844 79.410156 L 169.851562 79.410156 Z M 169.851562 66.175781 " fill-opacity="0.5" fill-rule="nonzero"/><path fill="#ff794a" d="M 196.324219 132.351562 L 183.089844 132.351562 L 183.089844 119.117188 L 116.910156 119.117188 L 116.910156 132.351562 L 103.675781 132.351562 L 103.675781 145.589844 L 116.910156 145.589844 L 116.910156 158.824219 L 183.089844 158.824219 L 183.089844 145.589844 L 196.324219 145.589844 Z M 196.324219 132.351562 " fill-opacity="1" fill-rule="nonzero"/><path fill="#160059" d="M 116.910156 132.351562 L 130.148438 132.351562 L 130.148438 145.589844 L 116.910156 145.589844 Z M 116.910156 132.351562 " fill-opacity="1" fill-rule="nonzero"/><path fill="#160059" d="M 169.851562 132.351562 L 183.089844 132.351562 L 183.089844 145.589844 L 169.851562 145.589844 Z M 169.851562 132.351562 " fill-opacity="1" fill-rule="nonzero"/><path fill="#160059" d="M 90.441406 26.46875 L 130.148438 26.46875 L 130.148438 39.707031 L 90.441406 39.707031 Z M 90.441406 26.46875 " fill-opacity="0.2" fill-rule="nonzero"/><path fill="#160059" d="M 116.910156 105.882812 L 130.148438 105.882812 L 130.148438 119.117188 L 116.910156 119.117188 Z M 116.910156 105.882812 " fill-opacity="0.2" fill-rule="nonzero"/><path fill="#160059" d="M 183.089844 119.117188 L 196.324219 119.117188 L 196.324219 132.351562 L 183.089844 132.351562 Z M 183.089844 119.117188 " fill-opacity="0.2" fill-rule="nonzero"/><path fill="#160059" d="M 169.851562 105.882812 L 183.089844 105.882812 L 183.089844 119.117188 L 169.851562 119.117188 Z M 169.851562 105.882812 " fill-opacity="0.2" fill-rule="nonzero"/><path fill="#160059" d="M 103.675781 119.117188 L 116.910156 119.117188 L 116.910156 132.351562 L 103.675781 132.351562 Z M 103.675781 119.117188 " fill-opacity="0.2" fill-rule="nonzero"/><path fill="#160059" d="M 196.324219 26.46875 L 196.324219 13.234375 L 183.089844 13.234375 L 183.089844 26.46875 L 169.851562 26.46875 L 169.851562 39.707031 L 209.558594 39.707031 L 209.558594 26.46875 Z M 196.324219 26.46875 " fill-opacity="0.2" fill-rule="nonzero"/><path fill="#b994ff" d="M 90.441406 291.175781 L 209.558594 291.175781 L 209.558594 423.53125 L 90.441406 423.53125 Z M 90.441406 291.175781 " fill-opacity="1" fill-rule="nonzero"/><path fill="#ffe096" d="M 50.734375 317.648438 L 50.734375 344.117188 L 63.96875 344.117188 L 63.96875 357.351562 L 90.441406 357.351562 L 90.441406 344.117188 L 103.675781 344.117188 L 103.675781 317.648438 Z M 50.734375 317.648438 " fill-opacity="1" fill-rule="nonzero"/><path fill="#ffe096" d="M 196.324219 317.648438 L 196.324219 344.117188 L 209.558594 344.117188 L 209.558594 357.351562 L 236.03125 357.351562 L 236.03125 344.117188 L 249.265625 344.117188 L 249.265625 317.648438 Z M 196.324219 317.648438 " fill-opacity="1" fill-rule="nonzero"/><g clip-path="url(#6b242c692d)"><path fill="#b994ff" d="M 249.265625 225 L 249.265625 185.292969 L 236.03125 185.292969 L 236.03125 172.058594 L 222.792969 172.058594 L 222.792969 158.824219 L 209.558594 158.824219 L 209.558594 145.589844 L 196.324219 145.589844 L 196.324219 158.824219 L 183.089844 158.824219 L 183.089844 172.058594 L 116.910156 172.058594 L 116.910156 158.824219 L 103.675781 158.824219 L 103.675781 145.589844 L 90.441406 145.589844 L 90.441406 158.824219 L 77.207031 158.824219 L 77.207031 172.058594 L 63.96875 172.058594 L 63.96875 185.292969 L 50.734375 185.292969 L 50.734375 225 L 37.5 225 L 37.5 317.648438 L 262.5 317.648438 L 262.5 225 Z M 249.265625 225 " fill-opacity="1" fill-rule="nonzero"/></g><path fill="#b994ff" d="M 77.207031 410.292969 L 222.792969 410.292969 L 222.792969 436.765625 L 77.207031 436.765625 Z M 77.207031 410.292969 " fill-opacity="1" fill-rule="nonzero"/><path fill="#473760" d="M 90.441406 436.765625 L 130.148438 436.765625 L 130.148438 450 L 90.441406 450 Z M 90.441406 436.765625 " fill-opacity="1" fill-rule="nonzero"/><path fill="#473760" d="M 169.851562 436.765625 L 209.558594 436.765625 L 209.558594 450 L 169.851562 450 Z M 169.851562 436.765625 " fill-opacity="1" fill-rule="nonzero"/><path fill="#160059" d="M 103.675781 145.589844 L 116.910156 145.589844 L 116.910156 158.824219 L 103.675781 158.824219 Z M 103.675781 145.589844 " fill-opacity="1" fill-rule="nonzero"/><path fill="#160059" d="M 116.910156 158.824219 L 183.089844 158.824219 L 183.089844 172.058594 L 116.910156 172.058594 Z M 116.910156 158.824219 " fill-opacity="1" fill-rule="nonzero"/><path fill="#160059" d="M 183.089844 145.589844 L 196.324219 145.589844 L 196.324219 158.824219 L 183.089844 158.824219 Z M 183.089844 145.589844 " fill-opacity="1" fill-rule="nonzero"/><path fill="#160059" d="M 90.441406 132.351562 L 103.675781 132.351562 L 103.675781 158.824219 L 90.441406 158.824219 Z M 90.441406 132.351562 " fill-opacity="1" fill-rule="nonzero"/><path fill="#160059" d="M 77.207031 158.824219 L 90.441406 158.824219 L 90.441406 172.058594 L 77.207031 172.058594 Z M 77.207031 158.824219 " fill-opacity="1" fill-rule="nonzero"/><path fill="#160059" d="M 63.96875 172.058594 L 77.207031 172.058594 L 77.207031 185.292969 L 63.96875 185.292969 Z M 63.96875 172.058594 " fill-opacity="1" fill-rule="nonzero"/><path fill="#160059" d="M 50.734375 185.292969 L 63.96875 185.292969 L 63.96875 225 L 50.734375 225 Z M 50.734375 185.292969 " fill-opacity="1" fill-rule="nonzero"/><g clip-path="url(#f66e3fe75b)"><path fill="#160059" d="M 37.5 225 L 50.734375 225 L 50.734375 317.648438 L 37.5 317.648438 Z M 37.5 225 " fill-opacity="1" fill-rule="nonzero"/></g><path fill="#160059" d="M 196.324219 145.589844 L 209.558594 145.589844 L 209.558594 158.824219 L 196.324219 158.824219 Z M 196.324219 145.589844 " fill-opacity="0.5" fill-rule="nonzero"/><path fill="#160059" d="M 209.558594 158.824219 L 222.792969 158.824219 L 222.792969 172.058594 L 209.558594 172.058594 Z M 209.558594 158.824219 " fill-opacity="0.5" fill-rule="nonzero"/><path fill="#160059" d="M 222.792969 172.058594 L 236.03125 172.058594 L 236.03125 185.292969 L 222.792969 185.292969 Z M 222.792969 172.058594 " fill-opacity="0.5" fill-rule="nonzero"/><path fill="#160059" d="M 236.03125 185.292969 L 249.265625 185.292969 L 249.265625 225 L 236.03125 225 Z M 236.03125 185.292969 " fill-opacity="0.5" fill-rule="nonzero"/><g clip-path="url(#054f513100)"><path fill="#160059" d="M 249.265625 225 L 262.5 225 L 262.5 317.648438 L 249.265625 317.648438 Z M 249.265625 225 " fill-opacity="0.5" fill-rule="nonzero"/></g><path fill="#160059" d="M 90.441406 211.765625 L 103.675781 211.765625 L 103.675781 317.648438 L 90.441406 317.648438 Z M 90.441406 211.765625 " fill-opacity="1" fill-rule="nonzero"/><path fill="#160059" d="M 77.207031 211.765625 L 90.441406 211.765625 L 90.441406 317.648438 L 77.207031 317.648438 Z M 77.207031 211.765625 " fill-opacity="0.2" fill-rule="nonzero"/><path fill="#160059" d="M 209.558594 211.765625 L 222.792969 211.765625 L 222.792969 317.648438 L 209.558594 317.648438 Z M 209.558594 211.765625 " fill-opacity="0.2" fill-rule="nonzero"/><path fill="#160059" d="M 236.03125 225 L 249.265625 225 L 249.265625 317.648438 L 236.03125 317.648438 Z M 236.03125 225 " fill-opacity="0.2" fill-rule="nonzero"/><path fill="#160059" d="M 50.734375 225 L 63.96875 225 L 63.96875 317.648438 L 50.734375 317.648438 Z M 50.734375 225 " fill-opacity="0.2" fill-rule="nonzero"/><path fill="#160059" d="M 196.324219 211.765625 L 209.558594 211.765625 L 209.558594 317.648438 L 196.324219 317.648438 Z M 196.324219 211.765625 " fill-opacity="1" fill-rule="nonzero"/><path fill="#160059" d="M 90.441406 198.53125 L 103.675781 198.53125 L 103.675781 211.765625 L 90.441406 211.765625 Z M 90.441406 198.53125 " fill-opacity="0.5" fill-rule="nonzero"/><path fill="#160059" d="M 90.441406 158.824219 L 116.910156 158.824219 L 116.910156 172.058594 L 90.441406 172.058594 Z M 90.441406 158.824219 " fill-opacity="0.5" fill-rule="nonzero"/><path fill="#160059" d="M 116.910156 172.058594 L 143.382812 172.058594 L 143.382812 185.292969 L 116.910156 185.292969 Z M 116.910156 172.058594 " fill-opacity="0.5" fill-rule="nonzero"/><path fill="#160059" d="M 156.617188 172.058594 L 183.089844 172.058594 L 183.089844 185.292969 L 156.617188 185.292969 Z M 156.617188 172.058594 " fill-opacity="0.5" fill-rule="nonzero"/><path fill="#160059" d="M 183.089844 158.824219 L 196.324219 158.824219 L 196.324219 172.058594 L 183.089844 172.058594 Z M 183.089844 158.824219 " fill-opacity="0.5" fill-rule="nonzero"/><path fill="#160059" d="M 196.324219 198.53125 L 209.558594 198.53125 L 209.558594 211.765625 L 196.324219 211.765625 Z M 196.324219 198.53125 " fill-opacity="0.5" fill-rule="nonzero"/><path fill="#160059" d="M 50.734375 317.648438 L 63.96875 317.648438 L 63.96875 344.117188 L 50.734375 344.117188 Z M 50.734375 317.648438 " fill-opacity="1" fill-rule="nonzero"/><path fill="#160059" d="M 90.441406 317.648438 L 103.675781 317.648438 L 103.675781 344.117188 L 90.441406 344.117188 Z M 90.441406 317.648438 " fill-opacity="1" fill-rule="nonzero"/><path fill="#160059" d="M 63.96875 344.117188 L 90.441406 344.117188 L 90.441406 357.351562 L 63.96875 357.351562 Z M 63.96875 344.117188 " fill-opacity="1" fill-rule="nonzero"/><path fill="#160059" d="M 196.324219 317.648438 L 209.558594 317.648438 L 209.558594 344.117188 L 196.324219 344.117188 Z M 196.324219 317.648438 " fill-opacity="0.5" fill-rule="nonzero"/><path fill="#160059" d="M 236.03125 317.648438 L 249.265625 317.648438 L 249.265625 344.117188 L 236.03125 344.117188 Z M 236.03125 317.648438 " fill-opacity="0.5" fill-rule="nonzero"/><path fill="#160059" d="M 209.558594 344.117188 L 236.03125 344.117188 L 236.03125 357.351562 L 209.558594 357.351562 Z M 209.558594 344.117188 " fill-opacity="0.5" fill-rule="nonzero"/><path fill="#160059" d="M 209.558594 317.648438 L 222.792969 317.648438 L 222.792969 344.117188 L 209.558594 344.117188 Z M 209.558594 317.648438 " fill-opacity="0.2" fill-rule="nonzero"/><path fill="#160059" d="M 209.558594 330.882812 L 236.03125 330.882812 L 236.03125 344.117188 L 209.558594 344.117188 Z M 209.558594 330.882812 " fill-opacity="0.2" fill-rule="nonzero"/><path fill="#160059" d="M 90.441406 344.117188 L 77.207031 344.117188 L 77.207031 317.648438 L 90.441406 317.648438 Z M 90.441406 344.117188 " fill-opacity="0.2" fill-rule="nonzero"/><path fill="#160059" d="M 90.441406 344.117188 L 63.96875 344.117188 L 63.96875 330.882812 L 90.441406 330.882812 Z M 90.441406 344.117188 " fill-opacity="0.2" fill-rule="nonzero"/><path fill="#160059" d="M 143.382812 172.058594 L 156.617188 172.058594 L 156.617188 317.648438 L 143.382812 317.648438 Z M 143.382812 172.058594 " fill-opacity="1" fill-rule="nonzero"/><path fill="#160059" d="M 90.441406 304.410156 L 209.558594 304.410156 L 209.558594 317.648438 L 90.441406 317.648438 Z M 90.441406 304.410156 " fill-opacity="1" fill-rule="nonzero"/><path fill="#160059" d="M 90.441406 330.882812 L 103.675781 330.882812 L 103.675781 410.292969 L 90.441406 410.292969 Z M 90.441406 330.882812 " fill-opacity="1" fill-rule="nonzero"/><path fill="#160059" d="M 196.324219 344.117188 L 209.558594 344.117188 L 209.558594 410.292969 L 196.324219 410.292969 Z M 196.324219 344.117188 " fill-opacity="1" fill-rule="nonzero"/><path fill="#160059" d="M 77.207031 410.292969 L 90.441406 410.292969 L 90.441406 436.765625 L 77.207031 436.765625 Z M 77.207031 410.292969 " fill-opacity="1" fill-rule="nonzero"/><path fill="#160059" d="M 90.441406 436.765625 L 130.148438 436.765625 L 130.148438 450 L 90.441406 450 Z M 90.441406 436.765625 " fill-opacity="1" fill-rule="nonzero"/><path fill="#160059" d="M 169.851562 436.765625 L 209.558594 436.765625 L 209.558594 450 L 169.851562 450 Z M 169.851562 436.765625 " fill-opacity="1" fill-rule="nonzero"/><path fill="#160059" d="M 209.558594 410.292969 L 222.792969 410.292969 L 222.792969 436.765625 L 209.558594 436.765625 Z M 209.558594 410.292969 " fill-opacity="1" fill-rule="nonzero"/><path fill="#160059" d="M 116.910156 410.292969 L 90.441406 410.292969 L 90.441406 423.53125 L 116.910156 423.53125 L 116.910156 436.765625 L 130.148438 436.765625 L 130.148438 410.292969 Z M 116.910156 410.292969 " fill-opacity="0.5" fill-rule="nonzero"/><path fill="#160059" d="M 183.089844 410.292969 L 209.558594 410.292969 L 209.558594 423.53125 L 183.089844 423.53125 L 183.089844 436.765625 L 169.851562 436.765625 L 169.851562 410.292969 Z M 183.089844 410.292969 " fill-opacity="0.5" fill-rule="nonzero"/><path fill="#160059" d="M 156.617188 423.53125 L 156.617188 330.882812 L 143.382812 330.882812 L 143.382812 423.53125 L 130.148438 423.53125 L 130.148438 436.765625 L 169.851562 436.765625 L 169.851562 423.53125 Z M 156.617188 423.53125 " fill-opacity="1" fill-rule="nonzero"/><path fill="#160059" d="M 116.910156 317.648438 L 130.148438 317.648438 L 130.148438 344.117188 L 116.910156 344.117188 Z M 116.910156 317.648438 " fill-opacity="0.5" fill-rule="nonzero"/><path fill="#160059" d="M 169.851562 317.648438 L 183.089844 317.648438 L 183.089844 344.117188 L 169.851562 344.117188 Z M 169.851562 317.648438 " fill-opacity="0.5" fill-rule="nonzero"/><path fill="#160059" d="M 103.675781 344.117188 L 116.910156 344.117188 L 116.910156 357.351562 L 103.675781 357.351562 Z M 103.675781 344.117188 " fill-opacity="0.5" fill-rule="nonzero"/><path fill="#160059" d="M 183.089844 344.117188 L 196.324219 344.117188 L 196.324219 357.351562 L 183.089844 357.351562 Z M 183.089844 344.117188 " fill-opacity="0.5" fill-rule="nonzero"/><g clip-path="url(#3741b85406)"><path fill="#160059" d="M 37.5 39.707031 L 50.734375 39.707031 L 50.734375 66.175781 L 37.5 66.175781 Z M 37.5 39.707031 " fill-opacity="1" fill-rule="nonzero"/></g><g clip-path="url(#4f4cc9dec5)"><path fill="#160059" d="M 249.265625 39.707031 L 262.5 39.707031 L 262.5 66.175781 L 249.265625 66.175781 Z M 249.265625 39.707031 " fill-opacity="1" fill-rule="nonzero"/></g><path fill="#160059" d="M 50.734375 66.175781 L 90.441406 66.175781 L 90.441406 79.410156 L 50.734375 79.410156 Z M 50.734375 66.175781 " fill-opacity="1" fill-rule="nonzero"/><path fill="#160059" d="M 222.792969 66.175781 L 249.265625 66.175781 L 249.265625 79.410156 L 222.792969 79.410156 Z M 222.792969 66.175781 " fill-opacity="1" fill-rule="nonzero"/><path fill="#160059" d="M 236.03125 52.941406 L 249.265625 52.941406 L 249.265625 66.175781 L 236.03125 66.175781 Z M 236.03125 52.941406 " fill-opacity="0.5" fill-rule="nonzero"/><path fill="#160059" d="M 50.734375 52.941406 L 63.96875 52.941406 L 63.96875 66.175781 L 50.734375 66.175781 Z M 50.734375 52.941406 " fill-opacity="0.5" fill-rule="nonzero"/><path fill="#160059" d="M 116.910156 225 L 130.148438 225 L 130.148438 238.234375 L 116.910156 238.234375 Z M 116.910156 225 " fill-opacity="1" fill-rule="nonzero"/><path fill="#160059" d="M 169.851562 225 L 183.089844 225 L 183.089844 238.234375 L 169.851562 238.234375 Z M 169.851562 225 " fill-opacity="1" fill-rule="nonzero"/><path fill="#160059" d="M 116.910156 251.46875 L 130.148438 251.46875 L 130.148438 264.707031 L 116.910156 264.707031 Z M 116.910156 251.46875 " fill-opacity="1" fill-rule="nonzero"/><path fill="#160059" d="M 169.851562 251.46875 L 183.089844 251.46875 L 183.089844 264.707031 L 169.851562 264.707031 Z M 169.851562 251.46875 " fill-opacity="1" fill-rule="nonzero"/><path fill="#160059" d="M 116.910156 277.941406 L 130.148438 277.941406 L 130.148438 291.175781 L 116.910156 291.175781 Z M 116.910156 277.941406 " fill-opacity="1" fill-rule="nonzero"/><path fill="#160059" d="M 169.851562 277.941406 L 183.089844 277.941406 L 183.089844 291.175781 L 169.851562 291.175781 Z M 169.851562 277.941406 " fill-opacity="1" fill-rule="nonzero"/></svg>