<svg xmlns="http://www.w3.org/2000/svg" xmlns:xlink="http://www.w3.org/1999/xlink" width="400" zoomAndPan="magnify" viewBox="0 0 300 449.999984" height="600" preserveAspectRatio="xMidYMid meet" version="1.0"><defs><clipPath id="1196fab6cb"><path d="M 34.636719 0 L 265.636719 0 L 265.636719 450 L 34.636719 450 Z M 34.636719 0 " clip-rule="nonzero"/></clipPath><clipPath id="2f0eb27020"><path d="M 34.636719 184 L 139 184 L 139 404 L 34.636719 404 Z M 34.636719 184 " clip-rule="nonzero"/></clipPath><clipPath id="c4ae6f5684"><path d="M 161 184 L 265.636719 184 L 265.636719 404 L 161 404 Z M 161 184 " clip-rule="nonzero"/></clipPath><clipPath id="b4456e7eb3"><path d="M 254 92 L 265.636719 92 L 265.636719 104 L 254 104 Z M 254 92 " clip-rule="nonzero"/></clipPath><clipPath id="8489fa4d55"><path d="M 34.636719 92 L 47 92 L 47 104 L 34.636719 104 Z M 34.636719 92 " clip-rule="nonzero"/></clipPath><clipPath id="605701d96c"><path d="M 34.636719 230 L 47 230 L 47 347 L 34.636719 347 Z M 34.636719 230 " clip-rule="nonzero"/></clipPath><clipPath id="e0f3e7f573"><path d="M 254 230 L 265.636719 230 L 265.636719 347 L 254 347 Z M 254 230 " clip-rule="nonzero"/></clipPath><clipPath id="aba2e4a848"><path d="M 34.636719 288 L 58 288 L 58 300 L 34.636719 300 Z M 34.636719 288 " clip-rule="nonzero"/></clipPath><clipPath id="1fee5bf4b3"><path d="M 242 288 L 265.636719 288 L 265.636719 300 L 242 300 Z M 242 288 " clip-rule="nonzero"/></clipPath></defs><g clip-path="url(#1196fab6cb)"><path fill="#160059" d="M 242.535156 161.550781 L 242.535156 115.410156 L 254.085938 115.410156 L 254.085938 103.871094 L 265.636719 103.871094 L 265.636719 92.335938 L 254.085938 92.335938 L 254.085938 80.800781 L 219.4375 80.800781 L 219.4375 69.265625 L 196.335938 69.265625 L 196.335938 46.191406 L 184.785156 46.191406 L 184.785156 34.65625 L 173.238281 34.65625 L 173.238281 23.121094 L 161.6875 23.121094 L 161.6875 11.585938 L 150.136719 11.585938 L 150.136719 0.0507812 L 80.835938 0.0507812 L 80.835938 23.121094 L 92.386719 23.121094 L 92.386719 34.65625 L 103.9375 34.65625 L 103.9375 69.265625 L 80.835938 69.265625 L 80.835938 80.800781 L 46.1875 80.800781 L 46.1875 92.335938 L 34.636719 92.335938 L 34.636719 103.871094 L 46.1875 103.871094 L 46.1875 115.410156 L 57.738281 115.410156 L 57.738281 161.550781 L 69.285156 161.550781 L 69.285156 184.625 L 57.738281 184.625 L 57.738281 196.160156 L 46.1875 196.160156 L 46.1875 230.769531 L 34.636719 230.769531 L 34.636719 346.128906 L 46.1875 346.128906 L 46.1875 380.734375 L 57.738281 380.734375 L 57.738281 403.808594 L 69.285156 403.808594 L 69.285156 415.34375 L 80.835938 415.34375 L 80.835938 426.878906 L 92.386719 426.878906 L 92.386719 449.949219 L 207.886719 449.949219 L 207.886719 426.878906 L 219.4375 426.878906 L 219.4375 415.34375 L 230.988281 415.34375 L 230.988281 403.808594 L 242.535156 403.808594 L 242.535156 380.734375 L 254.085938 380.734375 L 254.085938 346.128906 L 265.636719 346.128906 L 265.636719 230.769531 L 254.085938 230.769531 L 254.085938 196.160156 L 242.535156 196.160156 L 242.535156 184.625 L 230.988281 184.625 L 230.988281 161.550781 Z M 242.535156 161.550781 " fill-opacity="1" fill-rule="nonzero"/></g><path fill="#00efc1" d="M 242.535156 346.128906 L 161.6875 346.128906 L 161.6875 230.769531 L 138.585938 230.769531 L 138.585938 346.128906 L 57.738281 346.128906 L 57.738281 403.808594 L 69.285156 403.808594 L 69.285156 415.34375 L 80.835938 415.34375 L 80.835938 426.878906 L 219.4375 426.878906 L 219.4375 415.34375 L 230.988281 415.34375 L 230.988281 403.808594 L 242.535156 403.808594 Z M 242.535156 346.128906 " fill-opacity="1" fill-rule="nonzero"/><path fill="#9500ff" d="M 103.9375 403.808594 L 196.335938 403.808594 L 196.335938 449.949219 L 103.9375 449.949219 Z M 103.9375 403.808594 " fill-opacity="1" fill-rule="nonzero"/><path fill="#160059" d="M 92.386719 426.878906 L 103.9375 426.878906 L 103.9375 449.949219 L 92.386719 449.949219 Z M 92.386719 426.878906 " fill-opacity="1" fill-rule="nonzero"/><path fill="#160059" d="M 92.386719 438.414062 L 207.886719 438.414062 L 207.886719 449.949219 L 92.386719 449.949219 Z M 92.386719 438.414062 " fill-opacity="1" fill-rule="nonzero"/><path fill="#160059" d="M 196.335938 426.878906 L 207.886719 426.878906 L 207.886719 449.949219 L 196.335938 449.949219 Z M 196.335938 426.878906 " fill-opacity="1" fill-rule="nonzero"/><path fill="#160059" d="M 103.9375 403.808594 L 115.488281 403.808594 L 115.488281 426.878906 L 103.9375 426.878906 Z M 103.9375 403.808594 " fill-opacity="1" fill-rule="nonzero"/><path fill="#160059" d="M 184.785156 403.808594 L 196.335938 403.808594 L 196.335938 426.878906 L 184.785156 426.878906 Z M 184.785156 403.808594 " fill-opacity="1" fill-rule="nonzero"/><path fill="#160059" d="M 196.335938 403.808594 L 103.9375 403.808594 L 103.9375 415.34375 L 138.585938 415.34375 L 138.585938 449.949219 L 161.6875 449.949219 L 161.6875 415.34375 L 196.335938 415.34375 Z M 196.335938 403.808594 " fill-opacity="1" fill-rule="nonzero"/><path fill="#160059" d="M 127.035156 415.34375 L 127.035156 426.878906 L 115.488281 426.878906 L 115.488281 438.414062 L 138.585938 438.414062 L 138.585938 415.34375 Z M 127.035156 415.34375 " fill-opacity="0.5" fill-rule="nonzero"/><path fill="#160059" d="M 173.238281 415.34375 L 173.238281 426.878906 L 184.785156 426.878906 L 184.785156 438.414062 L 161.6875 438.414062 L 161.6875 415.34375 Z M 173.238281 415.34375 " fill-opacity="0.5" fill-rule="nonzero"/><path fill="#e08753" d="M 230.988281 126.945312 L 230.988281 150.015625 L 219.4375 150.015625 L 219.4375 115.410156 L 196.335938 115.410156 L 196.335938 126.945312 L 103.9375 126.945312 L 103.9375 115.410156 L 80.835938 115.410156 L 80.835938 150.015625 L 69.285156 150.015625 L 69.285156 126.945312 L 57.738281 126.945312 L 57.738281 161.550781 L 69.285156 161.550781 L 69.285156 196.160156 L 80.835938 196.160156 L 80.835938 219.230469 L 103.9375 219.230469 L 103.9375 230.769531 L 196.335938 230.769531 L 196.335938 219.230469 L 219.4375 219.230469 L 219.4375 196.160156 L 230.988281 196.160156 L 230.988281 161.550781 L 242.535156 161.550781 L 242.535156 126.945312 Z M 230.988281 126.945312 " fill-opacity="1" fill-rule="nonzero"/><g clip-path="url(#2f0eb27020)"><path fill="#9500ff" d="M 103.9375 219.230469 L 103.9375 207.695312 L 80.835938 207.695312 L 80.835938 184.625 L 57.738281 184.625 L 57.738281 196.160156 L 46.1875 196.160156 L 46.1875 230.769531 L 34.636719 230.769531 L 34.636719 346.128906 L 46.1875 346.128906 L 46.1875 380.734375 L 57.738281 380.734375 L 57.738281 403.808594 L 80.835938 403.808594 L 80.835938 392.269531 L 92.386719 392.269531 L 92.386719 380.734375 L 115.488281 380.734375 L 115.488281 369.199219 L 138.585938 369.199219 L 138.585938 219.230469 Z M 103.9375 219.230469 " fill-opacity="1" fill-rule="nonzero"/></g><g clip-path="url(#c4ae6f5684)"><path fill="#9500ff" d="M 265.636719 230.769531 L 254.085938 230.769531 L 254.085938 196.160156 L 242.535156 196.160156 L 242.535156 184.625 L 219.4375 184.625 L 219.4375 207.695312 L 196.335938 207.695312 L 196.335938 219.230469 L 161.6875 219.230469 L 161.6875 369.199219 L 184.785156 369.199219 L 184.785156 380.734375 L 207.886719 380.734375 L 207.886719 392.269531 L 219.4375 392.269531 L 219.4375 403.808594 L 242.535156 403.808594 L 242.535156 380.734375 L 254.085938 380.734375 L 254.085938 346.128906 L 265.636719 346.128906 Z M 265.636719 230.769531 " fill-opacity="1" fill-rule="nonzero"/></g><path fill="#9500ff" d="M 254.085938 92.335938 L 230.988281 92.335938 L 230.988281 80.800781 L 219.4375 80.800781 L 219.4375 69.265625 L 196.335938 69.265625 L 196.335938 46.191406 L 184.785156 46.191406 L 184.785156 34.65625 L 173.238281 34.65625 L 173.238281 23.121094 L 161.6875 23.121094 L 161.6875 11.585938 L 150.136719 11.585938 L 150.136719 0.0507812 L 80.835938 0.0507812 L 80.835938 23.121094 L 92.386719 23.121094 L 92.386719 34.65625 L 103.9375 34.65625 L 103.9375 46.191406 L 115.488281 46.191406 L 115.488281 57.730469 L 103.9375 57.730469 L 103.9375 69.265625 L 92.386719 69.265625 L 92.386719 80.800781 L 69.285156 80.800781 L 69.285156 92.335938 L 46.1875 92.335938 L 46.1875 115.410156 L 69.285156 115.410156 L 69.285156 126.945312 L 230.988281 126.945312 L 230.988281 115.410156 L 254.085938 115.410156 Z M 254.085938 92.335938 " fill-opacity="1" fill-rule="nonzero"/><path fill="#fcfcfc" d="M 57.738281 115.410156 L 69.285156 115.410156 L 69.285156 126.945312 L 57.738281 126.945312 Z M 57.738281 115.410156 " fill-opacity="1" fill-rule="nonzero"/><path fill="#fcfcfc" d="M 69.285156 126.945312 L 80.835938 126.945312 L 80.835938 150.015625 L 69.285156 150.015625 Z M 69.285156 126.945312 " fill-opacity="1" fill-rule="nonzero"/><path fill="#fcfcfc" d="M 219.4375 126.945312 L 230.988281 126.945312 L 230.988281 150.015625 L 219.4375 150.015625 Z M 219.4375 126.945312 " fill-opacity="1" fill-rule="nonzero"/><path fill="#fcfcfc" d="M 230.988281 115.410156 L 242.535156 115.410156 L 242.535156 126.945312 L 230.988281 126.945312 Z M 230.988281 115.410156 " fill-opacity="1" fill-rule="nonzero"/><path fill="#fcfcfc" d="M 69.285156 126.945312 L 92.386719 126.945312 L 92.386719 138.480469 L 69.285156 138.480469 Z M 69.285156 126.945312 " fill-opacity="1" fill-rule="nonzero"/><path fill="#fcfcfc" d="M 207.886719 126.945312 L 230.988281 126.945312 L 230.988281 138.480469 L 207.886719 138.480469 Z M 207.886719 126.945312 " fill-opacity="1" fill-rule="nonzero"/><path fill="#fcfcfc" d="M 127.035156 173.089844 L 173.238281 173.089844 L 173.238281 184.625 L 127.035156 184.625 Z M 127.035156 173.089844 " fill-opacity="1" fill-rule="nonzero"/><path fill="#fcfcfc" d="M 115.488281 184.625 L 138.585938 184.625 L 138.585938 207.695312 L 115.488281 207.695312 Z M 115.488281 184.625 " fill-opacity="1" fill-rule="nonzero"/><path fill="#fcfcfc" d="M 161.6875 184.625 L 184.785156 184.625 L 184.785156 207.695312 L 161.6875 207.695312 Z M 161.6875 184.625 " fill-opacity="1" fill-rule="nonzero"/><path fill="#160059" d="M 80.835938 0.0507812 L 92.386719 0.0507812 L 92.386719 23.121094 L 80.835938 23.121094 Z M 80.835938 0.0507812 " fill-opacity="1" fill-rule="nonzero"/><path fill="#160059" d="M 80.835938 0.0507812 L 115.488281 0.0507812 L 115.488281 11.585938 L 80.835938 11.585938 Z M 80.835938 0.0507812 " fill-opacity="1" fill-rule="nonzero"/><path fill="#160059" d="M 150.136719 11.585938 L 161.6875 11.585938 L 161.6875 23.121094 L 150.136719 23.121094 Z M 150.136719 11.585938 " fill-opacity="0.5" fill-rule="nonzero"/><path fill="#160059" d="M 161.6875 23.121094 L 173.238281 23.121094 L 173.238281 34.65625 L 161.6875 34.65625 Z M 161.6875 23.121094 " fill-opacity="0.5" fill-rule="nonzero"/><path fill="#160059" d="M 92.386719 23.121094 L 103.9375 23.121094 L 103.9375 34.65625 L 92.386719 34.65625 Z M 92.386719 23.121094 " fill-opacity="1" fill-rule="nonzero"/><path fill="#160059" d="M 103.9375 34.65625 L 115.488281 34.65625 L 115.488281 57.730469 L 103.9375 57.730469 Z M 103.9375 34.65625 " fill-opacity="1" fill-rule="nonzero"/><path fill="#160059" d="M 103.9375 57.730469 L 115.488281 57.730469 L 115.488281 69.265625 L 103.9375 69.265625 Z M 103.9375 57.730469 " fill-opacity="1" fill-rule="nonzero"/><path fill="#160059" d="M 173.238281 34.65625 L 184.785156 34.65625 L 184.785156 46.191406 L 173.238281 46.191406 Z M 173.238281 34.65625 " fill-opacity="1" fill-rule="nonzero"/><path fill="#160059" d="M 184.785156 46.191406 L 196.335938 46.191406 L 196.335938 69.265625 L 184.785156 69.265625 Z M 184.785156 46.191406 " fill-opacity="1" fill-rule="nonzero"/><path fill="#160059" d="M 196.335938 69.265625 L 219.4375 69.265625 L 219.4375 80.800781 L 196.335938 80.800781 Z M 196.335938 69.265625 " fill-opacity="0.5" fill-rule="nonzero"/><path fill="#160059" d="M 219.4375 80.800781 L 254.085938 80.800781 L 254.085938 92.335938 L 219.4375 92.335938 Z M 219.4375 80.800781 " fill-opacity="1" fill-rule="nonzero"/><path fill="#160059" d="M 230.988281 103.871094 L 254.085938 103.871094 L 254.085938 115.410156 L 230.988281 115.410156 Z M 230.988281 103.871094 " fill-opacity="1" fill-rule="nonzero"/><path fill="#160059" d="M 69.285156 115.410156 L 230.988281 115.410156 L 230.988281 126.945312 L 69.285156 126.945312 Z M 69.285156 115.410156 " fill-opacity="1" fill-rule="nonzero"/><g clip-path="url(#b4456e7eb3)"><path fill="#160059" d="M 254.085938 92.335938 L 265.636719 92.335938 L 265.636719 103.871094 L 254.085938 103.871094 Z M 254.085938 92.335938 " fill-opacity="1" fill-rule="nonzero"/></g><path fill="#160059" d="M 80.835938 69.265625 L 103.9375 69.265625 L 103.9375 80.800781 L 80.835938 80.800781 Z M 80.835938 69.265625 " fill-opacity="1" fill-rule="nonzero"/><path fill="#160059" d="M 46.1875 80.800781 L 80.835938 80.800781 L 80.835938 92.335938 L 46.1875 92.335938 Z M 46.1875 80.800781 " fill-opacity="1" fill-rule="nonzero"/><g clip-path="url(#8489fa4d55)"><path fill="#160059" d="M 34.636719 92.335938 L 46.1875 92.335938 L 46.1875 103.871094 L 34.636719 103.871094 Z M 34.636719 92.335938 " fill-opacity="1" fill-rule="nonzero"/></g><path fill="#160059" d="M 46.1875 103.871094 L 69.285156 103.871094 L 69.285156 115.410156 L 46.1875 115.410156 Z M 46.1875 103.871094 " fill-opacity="1" fill-rule="nonzero"/><path fill="#160059" d="M 80.835938 92.335938 L 103.9375 92.335938 L 103.9375 103.871094 L 80.835938 103.871094 Z M 80.835938 92.335938 " fill-opacity="1" fill-rule="nonzero"/><path fill="#160059" d="M 196.335938 92.335938 L 219.4375 92.335938 L 219.4375 103.871094 L 196.335938 103.871094 Z M 196.335938 92.335938 " fill-opacity="1" fill-rule="nonzero"/><path fill="#160059" d="M 103.9375 126.945312 L 196.335938 126.945312 L 196.335938 138.480469 L 103.9375 138.480469 Z M 103.9375 126.945312 " fill-opacity="0.5" fill-rule="nonzero"/><path fill="#160059" d="M 115.488281 138.480469 L 138.585938 138.480469 L 138.585938 150.015625 L 115.488281 150.015625 Z M 115.488281 138.480469 " fill-opacity="1" fill-rule="nonzero"/><path fill="#160059" d="M 161.6875 138.480469 L 184.785156 138.480469 L 184.785156 150.015625 L 161.6875 150.015625 Z M 161.6875 138.480469 " fill-opacity="1" fill-rule="nonzero"/><path fill="#9500ff" d="M 127.035156 150.015625 L 138.585938 150.015625 L 138.585938 161.550781 L 127.035156 161.550781 Z M 127.035156 150.015625 " fill-opacity="1" fill-rule="nonzero"/><path fill="#9500ff" d="M 161.6875 150.015625 L 173.238281 150.015625 L 173.238281 161.550781 L 161.6875 161.550781 Z M 161.6875 150.015625 " fill-opacity="1" fill-rule="nonzero"/><path fill="#160059" d="M 184.785156 150.015625 L 196.335938 150.015625 L 196.335938 161.550781 L 184.785156 161.550781 Z M 184.785156 150.015625 " fill-opacity="1" fill-rule="nonzero"/><path fill="#160059" d="M 103.9375 150.015625 L 115.488281 150.015625 L 115.488281 161.550781 L 103.9375 161.550781 Z M 103.9375 150.015625 " fill-opacity="1" fill-rule="nonzero"/><path fill="#160059" d="M 69.285156 161.550781 L 80.835938 161.550781 L 80.835938 184.625 L 69.285156 184.625 Z M 69.285156 161.550781 " fill-opacity="1" fill-rule="nonzero"/><path fill="#160059" d="M 80.835938 184.625 L 92.386719 184.625 L 92.386719 207.695312 L 80.835938 207.695312 Z M 80.835938 184.625 " fill-opacity="1" fill-rule="nonzero"/><path fill="#160059" d="M 80.835938 196.160156 L 103.9375 196.160156 L 103.9375 207.695312 L 80.835938 207.695312 Z M 80.835938 196.160156 " fill-opacity="1" fill-rule="nonzero"/><path fill="#160059" d="M 103.9375 207.695312 L 138.585938 207.695312 L 138.585938 219.230469 L 103.9375 219.230469 Z M 103.9375 207.695312 " fill-opacity="1" fill-rule="nonzero"/><path fill="#160059" d="M 138.585938 219.230469 L 161.6875 219.230469 L 161.6875 230.769531 L 138.585938 230.769531 Z M 138.585938 219.230469 " fill-opacity="1" fill-rule="nonzero"/><path fill="#160059" d="M 161.6875 207.695312 L 196.335938 207.695312 L 196.335938 219.230469 L 161.6875 219.230469 Z M 161.6875 207.695312 " fill-opacity="1" fill-rule="nonzero"/><path fill="#160059" d="M 196.335938 196.160156 L 219.4375 196.160156 L 219.4375 207.695312 L 196.335938 207.695312 Z M 196.335938 196.160156 " fill-opacity="1" fill-rule="nonzero"/><path fill="#160059" d="M 207.886719 184.625 L 219.4375 184.625 L 219.4375 207.695312 L 207.886719 207.695312 Z M 207.886719 184.625 " fill-opacity="1" fill-rule="nonzero"/><path fill="#160059" d="M 219.4375 161.550781 L 230.988281 161.550781 L 230.988281 184.625 L 219.4375 184.625 Z M 219.4375 161.550781 " fill-opacity="1" fill-rule="nonzero"/><path fill="#160059" d="M 57.738281 126.945312 L 69.285156 126.945312 L 69.285156 161.550781 L 57.738281 161.550781 Z M 57.738281 126.945312 " fill-opacity="1" fill-rule="nonzero"/><path fill="#160059" d="M 230.988281 126.945312 L 242.535156 126.945312 L 242.535156 161.550781 L 230.988281 161.550781 Z M 230.988281 126.945312 " fill-opacity="1" fill-rule="nonzero"/><path fill="#160059" d="M 69.285156 150.015625 L 80.835938 150.015625 L 80.835938 161.550781 L 69.285156 161.550781 Z M 69.285156 150.015625 " fill-opacity="0.5" fill-rule="nonzero"/><path fill="#160059" d="M 219.4375 150.015625 L 230.988281 150.015625 L 230.988281 161.550781 L 219.4375 161.550781 Z M 219.4375 150.015625 " fill-opacity="0.5" fill-rule="nonzero"/><path fill="#160059" d="M 80.835938 138.480469 L 92.386719 138.480469 L 92.386719 184.625 L 80.835938 184.625 Z M 80.835938 138.480469 " fill-opacity="0.3" fill-rule="nonzero"/><path fill="#160059" d="M 92.386719 126.945312 L 103.9375 126.945312 L 103.9375 138.480469 L 92.386719 138.480469 Z M 92.386719 126.945312 " fill-opacity="0.3" fill-rule="nonzero"/><path fill="#160059" d="M 92.386719 184.625 L 103.9375 184.625 L 103.9375 196.160156 L 92.386719 196.160156 Z M 92.386719 184.625 " fill-opacity="0.3" fill-rule="nonzero"/><path fill="#160059" d="M 103.9375 196.160156 L 115.488281 196.160156 L 115.488281 207.695312 L 103.9375 207.695312 Z M 103.9375 196.160156 " fill-opacity="0.3" fill-rule="nonzero"/><path fill="#160059" d="M 184.785156 196.160156 L 196.335938 196.160156 L 196.335938 207.695312 L 184.785156 207.695312 Z M 184.785156 196.160156 " fill-opacity="0.3" fill-rule="nonzero"/><path fill="#160059" d="M 161.6875 173.089844 L 173.238281 173.089844 L 173.238281 184.625 L 161.6875 184.625 Z M 161.6875 173.089844 " fill-opacity="0.5" fill-rule="nonzero"/><path fill="#160059" d="M 127.035156 173.089844 L 138.585938 173.089844 L 138.585938 184.625 L 127.035156 184.625 Z M 127.035156 173.089844 " fill-opacity="0.5" fill-rule="nonzero"/><path fill="#160059" d="M 138.585938 184.625 L 161.6875 184.625 L 161.6875 196.160156 L 138.585938 196.160156 Z M 138.585938 184.625 " fill-opacity="0.5" fill-rule="nonzero"/><path fill="#160059" d="M 138.585938 207.695312 L 161.6875 207.695312 L 161.6875 219.230469 L 138.585938 219.230469 Z M 138.585938 207.695312 " fill-opacity="0.5" fill-rule="nonzero"/><path fill="#160059" d="M 115.488281 196.160156 L 127.035156 196.160156 L 127.035156 207.695312 L 115.488281 207.695312 Z M 115.488281 196.160156 " fill-opacity="0.5" fill-rule="nonzero"/><path fill="#160059" d="M 173.238281 196.160156 L 184.785156 196.160156 L 184.785156 207.695312 L 173.238281 207.695312 Z M 173.238281 196.160156 " fill-opacity="0.5" fill-rule="nonzero"/><path fill="#160059" d="M 196.335938 184.625 L 207.886719 184.625 L 207.886719 196.160156 L 196.335938 196.160156 Z M 196.335938 184.625 " fill-opacity="0.3" fill-rule="nonzero"/><path fill="#160059" d="M 196.335938 126.945312 L 207.886719 126.945312 L 207.886719 138.480469 L 196.335938 138.480469 Z M 196.335938 126.945312 " fill-opacity="0.3" fill-rule="nonzero"/><path fill="#160059" d="M 207.886719 138.480469 L 219.4375 138.480469 L 219.4375 184.625 L 207.886719 184.625 Z M 207.886719 138.480469 " fill-opacity="0.3" fill-rule="nonzero"/><path fill="#160059" d="M 69.285156 92.335938 L 80.835938 92.335938 L 80.835938 103.871094 L 69.285156 103.871094 Z M 69.285156 92.335938 " fill-opacity="0.5" fill-rule="nonzero"/><path fill="#160059" d="M 103.9375 69.265625 L 115.488281 69.265625 L 115.488281 80.800781 L 103.9375 80.800781 Z M 103.9375 69.265625 " fill-opacity="0.5" fill-rule="nonzero"/><path fill="#160059" d="M 115.488281 46.191406 L 127.035156 46.191406 L 127.035156 57.730469 L 115.488281 57.730469 Z M 115.488281 46.191406 " fill-opacity="0.5" fill-rule="nonzero"/><path fill="#160059" d="M 138.585938 69.265625 L 150.136719 69.265625 L 150.136719 80.800781 L 138.585938 80.800781 Z M 138.585938 69.265625 " fill-opacity="0.5" fill-rule="nonzero"/><path fill="#160059" d="M 196.335938 103.871094 L 207.886719 103.871094 L 207.886719 115.410156 L 196.335938 115.410156 Z M 196.335938 103.871094 " fill-opacity="0.5" fill-rule="nonzero"/><path fill="#160059" d="M 219.4375 92.335938 L 230.988281 92.335938 L 230.988281 103.871094 L 219.4375 103.871094 Z M 219.4375 92.335938 " fill-opacity="0.5" fill-rule="nonzero"/><path fill="#160059" d="M 173.238281 92.335938 L 173.238281 80.800781 L 161.6875 80.800781 L 161.6875 92.335938 L 103.9375 92.335938 L 103.9375 103.871094 L 121.261719 103.871094 L 121.261719 115.410156 L 132.8125 115.410156 L 132.8125 103.871094 L 196.335938 103.871094 L 196.335938 92.335938 Z M 173.238281 92.335938 " fill-opacity="0.5" fill-rule="nonzero"/><path fill="#160059" d="M 150.136719 46.191406 L 161.6875 46.191406 L 161.6875 57.730469 L 150.136719 57.730469 Z M 150.136719 46.191406 " fill-opacity="0.5" fill-rule="nonzero"/><path fill="#160059" d="M 173.238281 57.730469 L 184.785156 57.730469 L 184.785156 69.265625 L 173.238281 69.265625 Z M 173.238281 57.730469 " fill-opacity="0.5" fill-rule="nonzero"/><path fill="#160059" d="M 127.035156 23.121094 L 138.585938 23.121094 L 138.585938 34.65625 L 127.035156 34.65625 Z M 127.035156 23.121094 " fill-opacity="0.5" fill-rule="nonzero"/><path fill="#160059" d="M 103.9375 11.585938 L 115.488281 11.585938 L 115.488281 23.121094 L 103.9375 23.121094 Z M 103.9375 11.585938 " fill-opacity="0.5" fill-rule="nonzero"/><path fill="#160059" d="M 115.488281 0.0507812 L 138.585938 0.0507812 L 138.585938 11.585938 L 115.488281 11.585938 Z M 115.488281 0.0507812 " fill-opacity="0.5" fill-rule="nonzero"/><path fill="#160059" d="M 127.035156 219.230469 L 138.585938 219.230469 L 138.585938 369.199219 L 127.035156 369.199219 Z M 127.035156 219.230469 " fill-opacity="1" fill-rule="nonzero"/><path fill="#160059" d="M 161.6875 219.230469 L 173.238281 219.230469 L 173.238281 369.199219 L 161.6875 369.199219 Z M 161.6875 219.230469 " fill-opacity="1" fill-rule="nonzero"/><path fill="#160059" d="M 57.738281 184.625 L 69.285156 184.625 L 69.285156 196.160156 L 57.738281 196.160156 Z M 57.738281 184.625 " fill-opacity="1" fill-rule="nonzero"/><path fill="#160059" d="M 46.1875 196.160156 L 57.738281 196.160156 L 57.738281 230.769531 L 46.1875 230.769531 Z M 46.1875 196.160156 " fill-opacity="1" fill-rule="nonzero"/><g clip-path="url(#605701d96c)"><path fill="#160059" d="M 34.636719 230.769531 L 46.1875 230.769531 L 46.1875 346.128906 L 34.636719 346.128906 Z M 34.636719 230.769531 " fill-opacity="1" fill-rule="nonzero"/></g><path fill="#160059" d="M 46.1875 346.128906 L 57.738281 346.128906 L 57.738281 380.734375 L 46.1875 380.734375 Z M 46.1875 346.128906 " fill-opacity="1" fill-rule="nonzero"/><path fill="#160059" d="M 57.738281 380.734375 L 69.285156 380.734375 L 69.285156 403.808594 L 57.738281 403.808594 Z M 57.738281 380.734375 " fill-opacity="1" fill-rule="nonzero"/><path fill="#160059" d="M 57.738281 392.269531 L 80.835938 392.269531 L 80.835938 403.808594 L 57.738281 403.808594 Z M 57.738281 392.269531 " fill-opacity="1" fill-rule="nonzero"/><path fill="#160059" d="M 80.835938 380.734375 L 92.386719 380.734375 L 92.386719 392.269531 L 80.835938 392.269531 Z M 80.835938 380.734375 " fill-opacity="1" fill-rule="nonzero"/><path fill="#160059" d="M 92.386719 369.199219 L 115.488281 369.199219 L 115.488281 380.734375 L 92.386719 380.734375 Z M 92.386719 369.199219 " fill-opacity="1" fill-rule="nonzero"/><path fill="#160059" d="M 115.488281 357.664062 L 138.585938 357.664062 L 138.585938 369.199219 L 115.488281 369.199219 Z M 115.488281 357.664062 " fill-opacity="1" fill-rule="nonzero"/><path fill="#160059" d="M 161.6875 357.664062 L 184.785156 357.664062 L 184.785156 369.199219 L 161.6875 369.199219 Z M 161.6875 357.664062 " fill-opacity="1" fill-rule="nonzero"/><path fill="#160059" d="M 184.785156 369.199219 L 207.886719 369.199219 L 207.886719 380.734375 L 184.785156 380.734375 Z M 184.785156 369.199219 " fill-opacity="1" fill-rule="nonzero"/><path fill="#160059" d="M 207.886719 380.734375 L 219.4375 380.734375 L 219.4375 392.269531 L 207.886719 392.269531 Z M 207.886719 380.734375 " fill-opacity="1" fill-rule="nonzero"/><path fill="#160059" d="M 219.4375 392.269531 L 242.535156 392.269531 L 242.535156 403.808594 L 219.4375 403.808594 Z M 219.4375 392.269531 " fill-opacity="1" fill-rule="nonzero"/><path fill="#160059" d="M 230.988281 380.734375 L 242.535156 380.734375 L 242.535156 403.808594 L 230.988281 403.808594 Z M 230.988281 380.734375 " fill-opacity="1" fill-rule="nonzero"/><path fill="#160059" d="M 242.535156 346.128906 L 254.085938 346.128906 L 254.085938 380.734375 L 242.535156 380.734375 Z M 242.535156 346.128906 " fill-opacity="1" fill-rule="nonzero"/><g clip-path="url(#e0f3e7f573)"><path fill="#160059" d="M 254.085938 230.769531 L 265.636719 230.769531 L 265.636719 346.128906 L 254.085938 346.128906 Z M 254.085938 230.769531 " fill-opacity="1" fill-rule="nonzero"/></g><path fill="#160059" d="M 242.535156 196.160156 L 254.085938 196.160156 L 254.085938 230.769531 L 242.535156 230.769531 Z M 242.535156 196.160156 " fill-opacity="1" fill-rule="nonzero"/><path fill="#160059" d="M 230.988281 184.625 L 242.535156 184.625 L 242.535156 196.160156 L 230.988281 196.160156 Z M 230.988281 184.625 " fill-opacity="1" fill-rule="nonzero"/><path fill="#160059" d="M 69.285156 126.945312 L 80.835938 126.945312 L 80.835938 138.480469 L 69.285156 138.480469 Z M 69.285156 126.945312 " fill-opacity="0.5" fill-rule="nonzero"/><path fill="#160059" d="M 219.4375 126.945312 L 230.988281 126.945312 L 230.988281 138.480469 L 219.4375 138.480469 Z M 219.4375 126.945312 " fill-opacity="0.5" fill-rule="nonzero"/><path fill="#160059" d="M 138.585938 230.769531 L 161.6875 230.769531 L 161.6875 242.304688 L 138.585938 242.304688 Z M 138.585938 230.769531 " fill-opacity="0.5" fill-rule="nonzero"/><path fill="#160059" d="M 69.285156 392.269531 L 80.835938 392.269531 L 80.835938 415.34375 L 69.285156 415.34375 Z M 69.285156 392.269531 " fill-opacity="1" fill-rule="nonzero"/><path fill="#160059" d="M 80.835938 415.34375 L 103.9375 415.34375 L 103.9375 426.878906 L 80.835938 426.878906 Z M 80.835938 415.34375 " fill-opacity="1" fill-rule="nonzero"/><path fill="#160059" d="M 196.335938 415.34375 L 219.4375 415.34375 L 219.4375 426.878906 L 196.335938 426.878906 Z M 196.335938 415.34375 " fill-opacity="1" fill-rule="nonzero"/><path fill="#160059" d="M 219.4375 392.269531 L 230.988281 392.269531 L 230.988281 415.34375 L 219.4375 415.34375 Z M 219.4375 392.269531 " fill-opacity="1" fill-rule="nonzero"/><path fill="#160059" d="M 92.386719 219.230469 L 103.9375 219.230469 L 103.9375 288.449219 L 92.386719 288.449219 Z M 92.386719 219.230469 " fill-opacity="1" fill-rule="nonzero"/><path fill="#160059" d="M 115.488281 219.230469 L 127.035156 219.230469 L 127.035156 288.449219 L 115.488281 288.449219 Z M 115.488281 219.230469 " fill-opacity="0.5" fill-rule="nonzero"/><path fill="#160059" d="M 173.238281 219.230469 L 184.785156 219.230469 L 184.785156 288.449219 L 173.238281 288.449219 Z M 173.238281 219.230469 " fill-opacity="0.5" fill-rule="nonzero"/><path fill="#160059" d="M 196.335938 219.230469 L 207.886719 219.230469 L 207.886719 288.449219 L 196.335938 288.449219 Z M 196.335938 219.230469 " fill-opacity="1" fill-rule="nonzero"/><path fill="#160059" d="M 103.9375 288.449219 L 115.488281 288.449219 L 115.488281 334.589844 L 103.9375 334.589844 Z M 103.9375 288.449219 " fill-opacity="1" fill-rule="nonzero"/><path fill="#160059" d="M 184.785156 288.449219 L 196.335938 288.449219 L 196.335938 334.589844 L 184.785156 334.589844 Z M 184.785156 288.449219 " fill-opacity="1" fill-rule="nonzero"/><path fill="#160059" d="M 115.488281 334.589844 L 127.035156 334.589844 L 127.035156 346.128906 L 115.488281 346.128906 Z M 115.488281 334.589844 " fill-opacity="1" fill-rule="nonzero"/><path fill="#160059" d="M 173.238281 334.589844 L 184.785156 334.589844 L 184.785156 346.128906 L 173.238281 346.128906 Z M 173.238281 334.589844 " fill-opacity="1" fill-rule="nonzero"/><path fill="#160059" d="M 69.285156 184.625 L 80.835938 184.625 L 80.835938 207.695312 L 69.285156 207.695312 Z M 69.285156 184.625 " fill-opacity="0.5" fill-rule="nonzero"/><path fill="#160059" d="M 219.4375 184.625 L 230.988281 184.625 L 230.988281 207.695312 L 219.4375 207.695312 Z M 219.4375 184.625 " fill-opacity="0.5" fill-rule="nonzero"/><path fill="#160059" d="M 80.835938 207.695312 L 92.386719 207.695312 L 92.386719 219.230469 L 80.835938 219.230469 Z M 80.835938 207.695312 " fill-opacity="0.5" fill-rule="nonzero"/><path fill="#160059" d="M 207.886719 207.695312 L 219.4375 207.695312 L 219.4375 219.230469 L 207.886719 219.230469 Z M 207.886719 207.695312 " fill-opacity="0.5" fill-rule="nonzero"/><path fill="#160059" d="M 69.285156 207.695312 L 80.835938 207.695312 L 80.835938 265.375 L 69.285156 265.375 Z M 69.285156 207.695312 " fill-opacity="1" fill-rule="nonzero"/><path fill="#160059" d="M 57.738281 265.375 L 69.285156 265.375 L 69.285156 288.449219 L 57.738281 288.449219 Z M 57.738281 265.375 " fill-opacity="1" fill-rule="nonzero"/><g clip-path="url(#aba2e4a848)"><path fill="#160059" d="M 34.636719 288.449219 L 57.738281 288.449219 L 57.738281 299.984375 L 34.636719 299.984375 Z M 34.636719 288.449219 " fill-opacity="1" fill-rule="nonzero"/></g><path fill="#160059" d="M 230.988281 265.375 L 219.4375 265.375 L 219.4375 207.695312 L 230.988281 207.695312 Z M 230.988281 265.375 " fill-opacity="1" fill-rule="nonzero"/><path fill="#160059" d="M 242.535156 288.449219 L 230.988281 288.449219 L 230.988281 265.375 L 242.535156 265.375 Z M 242.535156 288.449219 " fill-opacity="1" fill-rule="nonzero"/><g clip-path="url(#1fee5bf4b3)"><path fill="#160059" d="M 265.636719 299.984375 L 242.535156 299.984375 L 242.535156 288.449219 L 265.636719 288.449219 Z M 265.636719 299.984375 " fill-opacity="1" fill-rule="nonzero"/></g><path fill="#160059" d="M 46.1875 276.910156 L 57.738281 276.910156 L 57.738281 288.449219 L 46.1875 288.449219 Z M 46.1875 276.910156 " fill-opacity="0.5" fill-rule="nonzero"/><path fill="#160059" d="M 207.886719 392.269531 L 219.4375 392.269531 L 219.4375 403.808594 L 207.886719 403.808594 Z M 207.886719 392.269531 " fill-opacity="0.5" fill-rule="nonzero"/><path fill="#160059" d="M 80.835938 392.269531 L 92.386719 392.269531 L 92.386719 403.808594 L 80.835938 403.808594 Z M 80.835938 392.269531 " fill-opacity="0.5" fill-rule="nonzero"/><path fill="#160059" d="M 92.386719 380.734375 L 115.488281 380.734375 L 115.488281 392.269531 L 92.386719 392.269531 Z M 92.386719 380.734375 " fill-opacity="0.5" fill-rule="nonzero"/><path fill="#160059" d="M 184.785156 380.734375 L 207.886719 380.734375 L 207.886719 392.269531 L 184.785156 392.269531 Z M 184.785156 380.734375 " fill-opacity="0.5" fill-rule="nonzero"/><path fill="#160059" d="M 115.488281 369.199219 L 138.585938 369.199219 L 138.585938 380.734375 L 115.488281 380.734375 Z M 115.488281 369.199219 " fill-opacity="0.5" fill-rule="nonzero"/><path fill="#160059" d="M 161.6875 369.199219 L 184.785156 369.199219 L 184.785156 380.734375 L 161.6875 380.734375 Z M 161.6875 369.199219 " fill-opacity="0.5" fill-rule="nonzero"/><path fill="#160059" d="M 242.535156 276.910156 L 254.085938 276.910156 L 254.085938 288.449219 L 242.535156 288.449219 Z M 242.535156 276.910156 " fill-opacity="0.5" fill-rule="nonzero"/><path fill="#160059" d="M 80.835938 323.054688 L 92.386719 323.054688 L 92.386719 334.589844 L 80.835938 334.589844 Z M 80.835938 323.054688 " fill-opacity="0.5" fill-rule="nonzero"/><path fill="#160059" d="M 80.835938 288.449219 L 92.386719 288.449219 L 92.386719 299.984375 L 80.835938 299.984375 Z M 80.835938 288.449219 " fill-opacity="0.5" fill-rule="nonzero"/><path fill="#160059" d="M 184.785156 346.128906 L 196.335938 346.128906 L 196.335938 357.664062 L 184.785156 357.664062 Z M 184.785156 346.128906 " fill-opacity="0.5" fill-rule="nonzero"/><path fill="#160059" d="M 230.988281 346.128906 L 242.535156 346.128906 L 242.535156 357.664062 L 230.988281 357.664062 Z M 230.988281 346.128906 " fill-opacity="0.5" fill-rule="nonzero"/><path fill="#160059" d="M 196.335938 334.589844 L 207.886719 334.589844 L 207.886719 346.128906 L 196.335938 346.128906 Z M 196.335938 334.589844 " fill-opacity="0.5" fill-rule="nonzero"/><path fill="#160059" d="M 207.886719 346.128906 L 219.4375 346.128906 L 219.4375 357.664062 L 207.886719 357.664062 Z M 207.886719 346.128906 " fill-opacity="0.5" fill-rule="nonzero"/><path fill="#160059" d="M 219.4375 323.054688 L 230.988281 323.054688 L 230.988281 334.589844 L 219.4375 334.589844 Z M 219.4375 323.054688 " fill-opacity="0.5" fill-rule="nonzero"/><path fill="#160059" d="M 242.535156 311.519531 L 254.085938 311.519531 L 254.085938 323.054688 L 242.535156 323.054688 Z M 242.535156 311.519531 " fill-opacity="0.5" fill-rule="nonzero"/><path fill="#160059" d="M 46.1875 299.984375 L 57.738281 299.984375 L 57.738281 311.519531 L 46.1875 311.519531 Z M 46.1875 299.984375 " fill-opacity="0.5" fill-rule="nonzero"/><path fill="#160059" d="M 196.335938 357.664062 L 207.886719 357.664062 L 207.886719 369.199219 L 196.335938 369.199219 Z M 196.335938 357.664062 " fill-opacity="0.5" fill-rule="nonzero"/><path fill="#160059" d="M 219.4375 357.664062 L 230.988281 357.664062 L 230.988281 369.199219 L 219.4375 369.199219 Z M 219.4375 357.664062 " fill-opacity="0.5" fill-rule="nonzero"/><path fill="#160059" d="M 207.886719 369.199219 L 219.4375 369.199219 L 219.4375 380.734375 L 207.886719 380.734375 Z M 207.886719 369.199219 " fill-opacity="0.5" fill-rule="nonzero"/><path fill="#160059" d="M 230.988281 369.199219 L 242.535156 369.199219 L 242.535156 380.734375 L 230.988281 380.734375 Z M 230.988281 369.199219 " fill-opacity="0.5" fill-rule="nonzero"/><path fill="#160059" d="M 207.886719 288.449219 L 219.4375 288.449219 L 219.4375 299.984375 L 207.886719 299.984375 Z M 207.886719 288.449219 " fill-opacity="0.5" fill-rule="nonzero"/><path fill="#160059" d="M 69.285156 369.199219 L 80.835938 369.199219 L 80.835938 380.734375 L 69.285156 380.734375 Z M 69.285156 369.199219 " fill-opacity="0.5" fill-rule="nonzero"/><path fill="#160059" d="M 57.738281 357.664062 L 69.285156 357.664062 L 69.285156 369.199219 L 57.738281 369.199219 Z M 57.738281 357.664062 " fill-opacity="0.5" fill-rule="nonzero"/><path fill="#160059" d="M 80.835938 357.664062 L 92.386719 357.664062 L 92.386719 369.199219 L 80.835938 369.199219 Z M 80.835938 357.664062 " fill-opacity="0.5" fill-rule="nonzero"/><path fill="#160059" d="M 103.9375 357.664062 L 115.488281 357.664062 L 115.488281 369.199219 L 103.9375 369.199219 Z M 103.9375 357.664062 " fill-opacity="0.5" fill-rule="nonzero"/><path fill="#160059" d="M 57.738281 334.589844 L 69.285156 334.589844 L 69.285156 346.128906 L 57.738281 346.128906 Z M 57.738281 334.589844 " fill-opacity="0.5" fill-rule="nonzero"/><path fill="#160059" d="M 103.9375 334.589844 L 115.488281 334.589844 L 115.488281 346.128906 L 103.9375 346.128906 Z M 103.9375 334.589844 " fill-opacity="0.5" fill-rule="nonzero"/><path fill="#160059" d="M 92.386719 346.128906 L 103.9375 346.128906 L 103.9375 357.664062 L 92.386719 357.664062 Z M 92.386719 346.128906 " fill-opacity="0.5" fill-rule="nonzero"/><path fill="#160059" d="M 115.488281 346.128906 L 127.035156 346.128906 L 127.035156 357.664062 L 115.488281 357.664062 Z M 115.488281 346.128906 " fill-opacity="0.5" fill-rule="nonzero"/><path fill="#160059" d="M 69.285156 346.128906 L 80.835938 346.128906 L 80.835938 357.664062 L 69.285156 357.664062 Z M 69.285156 346.128906 " fill-opacity="0.5" fill-rule="nonzero"/></svg>