<svg xmlns="http://www.w3.org/2000/svg" xmlns:xlink="http://www.w3.org/1999/xlink" width="400" zoomAndPan="magnify" viewBox="0 0 300 449.999984" height="600" preserveAspectRatio="xMidYMid meet" version="1.0"><defs><filter x="0%" y="0%" width="100%" height="100%" id="87b2e5e56e"><feColorMatrix values="0 0 0 0 1 0 0 0 0 1 0 0 0 0 1 0 0 0 1 0" color-interpolation-filters="sRGB"/></filter><clipPath id="05fd22940a"><path d="M 52.636719 0 L 247.636719 0 L 247.636719 450 L 52.636719 450 Z M 52.636719 0 " clip-rule="nonzero"/></clipPath><clipPath id="0ddbcd3221"><path d="M 52.636719 267 L 102 267 L 102 305 L 52.636719 305 Z M 52.636719 267 " clip-rule="nonzero"/></clipPath><clipPath id="d81e873f22"><path d="M 198 267 L 247.636719 267 L 247.636719 305 L 198 305 Z M 198 267 " clip-rule="nonzero"/></clipPath><clipPath id="e777a274e3"><path d="M 52.636719 145 L 247.636719 145 L 247.636719 268 L 52.636719 268 Z M 52.636719 145 " clip-rule="nonzero"/></clipPath><clipPath id="90712e911b"><path d="M 64 0 L 247.636719 0 L 247.636719 195 L 64 195 Z M 64 0 " clip-rule="nonzero"/></clipPath><mask id="5d8da629ed"><g filter="url(#87b2e5e56e)"><rect x="-30" width="360" fill="#000000" y="-44.999998" height="539.99998" fill-opacity="0.5"/></g></mask><clipPath id="d3b38cb721"><path d="M 0.28125 0.921875 L 12.519531 0.921875 L 12.519531 13.160156 L 0.28125 13.160156 Z M 0.28125 0.921875 " clip-rule="nonzero"/></clipPath><clipPath id="dbc7a210a9"><rect x="0" width="13" y="0" height="14"/></clipPath><mask id="a5c2d7b4fc"><g filter="url(#87b2e5e56e)"><rect x="-30" width="360" fill="#000000" y="-44.999998" height="539.99998" fill-opacity="0.5"/></g></mask><clipPath id="b9dbabbcae"><path d="M 0.0390625 0.199219 L 12.519531 0.199219 L 12.519531 49 L 0.0390625 49 Z M 0.0390625 0.199219 " clip-rule="nonzero"/></clipPath><clipPath id="bd535f1671"><rect x="0" width="13" y="0" height="50"/></clipPath><mask id="03bb4c0a64"><g filter="url(#87b2e5e56e)"><rect x="-30" width="360" fill="#000000" y="-44.999998" height="539.99998" fill-opacity="0.5"/></g></mask><clipPath id="1f8e3031a6"><path d="M 0.0390625 0.960938 L 12.519531 0.960938 L 12.519531 13.199219 L 0.0390625 13.199219 Z M 0.0390625 0.960938 " clip-rule="nonzero"/></clipPath><clipPath id="ad3da3005a"><rect x="0" width="13" y="0" height="14"/></clipPath><mask id="0e30dcc098"><g filter="url(#87b2e5e56e)"><rect x="-30" width="360" fill="#000000" y="-44.999998" height="539.99998" fill-opacity="0.5"/></g></mask><clipPath id="cb89bcbb25"><path d="M 0.480469 0.960938 L 12.71875 0.960938 L 12.71875 13.199219 L 0.480469 13.199219 Z M 0.480469 0.960938 " clip-rule="nonzero"/></clipPath><clipPath id="7113060246"><rect x="0" width="13" y="0" height="14"/></clipPath><mask id="62ab2cdcef"><g filter="url(#87b2e5e56e)"><rect x="-30" width="360" fill="#000000" y="-44.999998" height="539.99998" fill-opacity="0.5"/></g></mask><clipPath id="fcb0aa452e"><path d="M 0.480469 0.71875 L 12.960938 0.71875 L 12.960938 13 L 0.480469 13 Z M 0.480469 0.71875 " clip-rule="nonzero"/></clipPath><clipPath id="f8c6e86b04"><rect x="0" width="13" y="0" height="14"/></clipPath><mask id="ab70b572b3"><g filter="url(#87b2e5e56e)"><rect x="-30" width="360" fill="#000000" y="-44.999998" height="539.99998" fill-opacity="0.5"/></g></mask><clipPath id="1a3d0353bb"><path d="M 0.71875 0.480469 L 13 0.480469 L 13 12.960938 L 0.71875 12.960938 Z M 0.71875 0.480469 " clip-rule="nonzero"/></clipPath><clipPath id="e3d04e6e4c"><rect x="0" width="14" y="0" height="13"/></clipPath><mask id="cf542abe01"><g filter="url(#87b2e5e56e)"><rect x="-30" width="360" fill="#000000" y="-44.999998" height="539.99998" fill-opacity="0.5"/></g></mask><clipPath id="111a792dcb"><path d="M 0.761719 0 L 49.71875 0 L 49.71875 12.238281 L 0.761719 12.238281 Z M 0.761719 0 " clip-rule="nonzero"/></clipPath><clipPath id="bcd65771be"><rect x="0" width="50" y="0" height="13"/></clipPath><clipPath id="0bd6e88730"><path d="M 234 48 L 247.636719 48 L 247.636719 195 L 234 195 Z M 234 48 " clip-rule="nonzero"/></clipPath><mask id="c0e12a4849"><g filter="url(#87b2e5e56e)"><rect x="-30" width="360" fill="#000000" y="-44.999998" height="539.99998" fill-opacity="0.5"/></g></mask><clipPath id="f4e08644e7"><path d="M 1 0.480469 L 13.441406 0.480469 L 13.441406 146.640625 L 1 146.640625 Z M 1 0.480469 " clip-rule="nonzero"/></clipPath><clipPath id="ef1747d02e"><rect x="0" width="14" y="0" height="147"/></clipPath><mask id="4050a36d83"><g filter="url(#87b2e5e56e)"><rect x="-30" width="360" fill="#000000" y="-44.999998" height="539.99998" fill-opacity="0.5"/></g></mask><clipPath id="4a4d770004"><path d="M 0.960938 0.238281 L 13.199219 0.238281 L 13.199219 24.71875 L 0.960938 24.71875 Z M 0.960938 0.238281 " clip-rule="nonzero"/></clipPath><clipPath id="573a20996c"><rect x="0" width="14" y="0" height="25"/></clipPath><mask id="052d386385"><g filter="url(#87b2e5e56e)"><rect x="-30" width="360" fill="#000000" y="-44.999998" height="539.99998" fill-opacity="0.5"/></g></mask><clipPath id="2cb215f223"><path d="M 0.480469 0 L 25 0 L 25 12.480469 L 0.480469 12.480469 Z M 0.480469 0 " clip-rule="nonzero"/></clipPath><clipPath id="f131abdfb6"><rect x="0" width="26" y="0" height="13"/></clipPath><mask id="9e1d9dfa42"><g filter="url(#87b2e5e56e)"><rect x="-30" width="360" fill="#000000" y="-44.999998" height="539.99998" fill-opacity="0.3"/></g></mask><clipPath id="9a2e39b8b6"><path d="M 0.480469 0.71875 L 37.199219 0.71875 L 37.199219 110.398438 L 0.480469 110.398438 Z M 0.480469 0.71875 " clip-rule="nonzero"/></clipPath><clipPath id="807a6c9cba"><rect x="0" width="38" y="0" height="111"/></clipPath><mask id="9dca116d02"><g filter="url(#87b2e5e56e)"><rect x="-30" width="360" fill="#000000" y="-44.999998" height="539.99998" fill-opacity="0.5"/></g></mask><clipPath id="7f81dc8c24"><path d="M 0.28125 0.238281 L 12.519531 0.238281 L 12.519531 12.71875 L 0.28125 12.71875 Z M 0.28125 0.238281 " clip-rule="nonzero"/></clipPath><clipPath id="f4598acbaf"><rect x="0" width="13" y="0" height="13"/></clipPath><mask id="dfe0677787"><g filter="url(#87b2e5e56e)"><rect x="-30" width="360" fill="#000000" y="-44.999998" height="539.99998" fill-opacity="0.3"/></g></mask><clipPath id="91ae5da792"><path d="M 0.28125 0.238281 L 12.761719 0.238281 L 12.761719 12.71875 L 0.28125 12.71875 Z M 0.28125 0.238281 " clip-rule="nonzero"/></clipPath><clipPath id="07dab0b839"><rect x="0" width="13" y="0" height="13"/></clipPath><mask id="f1d6c7e3ce"><g filter="url(#87b2e5e56e)"><rect x="-30" width="360" fill="#000000" y="-44.999998" height="539.99998" fill-opacity="0.3"/></g></mask><clipPath id="03d042884c"><path d="M 0.480469 0.480469 L 12.71875 0.480469 L 12.71875 12.71875 L 0.480469 12.71875 Z M 0.480469 0.480469 " clip-rule="nonzero"/></clipPath><clipPath id="fc0c628399"><rect x="0" width="13" y="0" height="13"/></clipPath><mask id="bcab211b4b"><g filter="url(#87b2e5e56e)"><rect x="-30" width="360" fill="#000000" y="-44.999998" height="539.99998" fill-opacity="0.3"/></g></mask><clipPath id="d650e617f2"><path d="M 0.519531 0.238281 L 25 0.238281 L 25 24.71875 L 0.519531 24.71875 Z M 0.519531 0.238281 " clip-rule="nonzero"/></clipPath><clipPath id="2cf5dba929"><rect x="0" width="25" y="0" height="25"/></clipPath><mask id="f20ac019b1"><g filter="url(#87b2e5e56e)"><rect x="-30" width="360" fill="#000000" y="-44.999998" height="539.99998" fill-opacity="0.3"/></g></mask><clipPath id="a3a4aad6b2"><path d="M 0.761719 0.480469 L 37.71875 0.480469 L 37.71875 12.960938 L 0.761719 12.960938 Z M 0.761719 0.480469 " clip-rule="nonzero"/></clipPath><clipPath id="c8b80f0f8a"><rect x="0" width="38" y="0" height="13"/></clipPath><mask id="5f76d88b2b"><g filter="url(#87b2e5e56e)"><rect x="-30" width="360" fill="#000000" y="-44.999998" height="539.99998" fill-opacity="0.3"/></g></mask><clipPath id="14ef50b297"><path d="M 0.28125 0.71875 L 61.480469 0.71875 L 61.480469 13 L 0.28125 13 Z M 0.28125 0.71875 " clip-rule="nonzero"/></clipPath><clipPath id="57f44ceff4"><rect x="0" width="62" y="0" height="14"/></clipPath><mask id="5d54c51ac0"><g filter="url(#87b2e5e56e)"><rect x="-30" width="360" fill="#000000" y="-44.999998" height="539.99998" fill-opacity="0.5"/></g></mask><clipPath id="7d525935e1"><path d="M 0.71875 1 L 13 1 L 13 49.921875 L 0.71875 49.921875 Z M 0.71875 1 " clip-rule="nonzero"/></clipPath><clipPath id="cfc35e81f7"><rect x="0" width="14" y="0" height="50"/></clipPath><mask id="06be07c6b4"><g filter="url(#87b2e5e56e)"><rect x="-30" width="360" fill="#000000" y="-44.999998" height="539.99998" fill-opacity="0.3"/></g></mask><clipPath id="a26e9f8251"><path d="M 0.28125 0.679688 L 12.761719 0.679688 L 12.761719 13 L 0.28125 13 Z M 0.28125 0.679688 " clip-rule="nonzero"/></clipPath><clipPath id="7fbe7cb6b8"><rect x="0" width="13" y="0" height="14"/></clipPath><mask id="155e3b7f76"><g filter="url(#87b2e5e56e)"><rect x="-30" width="360" fill="#000000" y="-44.999998" height="539.99998" fill-opacity="0.3"/></g></mask><clipPath id="e8e44f0a2c"><path d="M 0.238281 0.679688 L 12.71875 0.679688 L 12.71875 13 L 0.238281 13 Z M 0.238281 0.679688 " clip-rule="nonzero"/></clipPath><clipPath id="fe9e5a9d8b"><rect x="0" width="13" y="0" height="14"/></clipPath><mask id="b719d9cecb"><g filter="url(#87b2e5e56e)"><rect x="-30" width="360" fill="#000000" y="-44.999998" height="539.99998" fill-opacity="0.3"/></g></mask><clipPath id="1d3fb17b53"><path d="M 0.28125 1 L 25 1 L 25 13.398438 L 0.28125 13.398438 Z M 0.28125 1 " clip-rule="nonzero"/></clipPath><clipPath id="fb96f2395b"><rect x="0" width="25" y="0" height="14"/></clipPath><mask id="1d84e632b3"><g filter="url(#87b2e5e56e)"><rect x="-30" width="360" fill="#000000" y="-44.999998" height="539.99998" fill-opacity="0.3"/></g></mask><clipPath id="653f3ec5ae"><path d="M 0.761719 0.921875 L 25.238281 0.921875 L 25.238281 13.160156 L 0.761719 13.160156 Z M 0.761719 0.921875 " clip-rule="nonzero"/></clipPath><clipPath id="0b0a1cbc80"><rect x="0" width="26" y="0" height="14"/></clipPath><mask id="f2ceeee097"><g filter="url(#87b2e5e56e)"><rect x="-30" width="360" fill="#000000" y="-44.999998" height="539.99998" fill-opacity="0.3"/></g></mask><clipPath id="33f84c191c"><path d="M 0 1 L 24.71875 1 L 24.71875 13.398438 L 0 13.398438 Z M 0 1 " clip-rule="nonzero"/></clipPath><clipPath id="c2fedc3243"><rect x="0" width="25" y="0" height="14"/></clipPath><mask id="a2caa72253"><g filter="url(#87b2e5e56e)"><rect x="-30" width="360" fill="#000000" y="-44.999998" height="539.99998" fill-opacity="0.3"/></g></mask><clipPath id="b546d7744c"><path d="M 0.480469 0.921875 L 24.960938 0.921875 L 24.960938 13.160156 L 0.480469 13.160156 Z M 0.480469 0.921875 " clip-rule="nonzero"/></clipPath><clipPath id="9d65e77105"><rect x="0" width="25" y="0" height="14"/></clipPath><clipPath id="f64a3a10bb"><path d="M 52.636719 206 L 65 206 L 65 280 L 52.636719 280 Z M 52.636719 206 " clip-rule="nonzero"/></clipPath><clipPath id="eab603ced4"><path d="M 234 206 L 247.636719 206 L 247.636719 293 L 234 293 Z M 234 206 " clip-rule="nonzero"/></clipPath><mask id="7d116cf2ea"><g filter="url(#87b2e5e56e)"><rect x="-30" width="360" fill="#000000" y="-44.999998" height="539.99998" fill-opacity="0.5"/></g></mask><clipPath id="c0141c827f"><path d="M 1 0.640625 L 13.441406 0.640625 L 13.441406 86 L 1 86 Z M 1 0.640625 " clip-rule="nonzero"/></clipPath><clipPath id="8fd5b4251c"><rect x="0" width="14" y="0" height="87"/></clipPath><clipPath id="7ef295e8e4"><path d="M 52.636719 279 L 65 279 L 65 292 L 52.636719 292 Z M 52.636719 279 " clip-rule="nonzero"/></clipPath><mask id="c66173aa7c"><g filter="url(#87b2e5e56e)"><rect x="-30" width="360" fill="#000000" y="-44.999998" height="539.99998" fill-opacity="0.3"/></g></mask><clipPath id="bb5c176b0b"><path d="M 0.800781 0.839844 L 25.28125 0.839844 L 25.28125 13.078125 L 0.800781 13.078125 Z M 0.800781 0.839844 " clip-rule="nonzero"/></clipPath><clipPath id="7b80abbddc"><rect x="0" width="26" y="0" height="14"/></clipPath><clipPath id="5b2ee897dd"><path d="M 234 279 L 247.636719 279 L 247.636719 293 L 234 293 Z M 234 279 " clip-rule="nonzero"/></clipPath><mask id="b9b5cffbdc"><g filter="url(#87b2e5e56e)"><rect x="-30" width="360" fill="#000000" y="-44.999998" height="539.99998" fill-opacity="0.5"/></g></mask><clipPath id="652edc1e69"><path d="M 1 0.601562 L 13.441406 0.601562 L 13.441406 13 L 1 13 Z M 1 0.601562 " clip-rule="nonzero"/></clipPath><clipPath id="b3ed906ed5"><rect x="0" width="14" y="0" height="14"/></clipPath><mask id="0c55319777"><g filter="url(#87b2e5e56e)"><rect x="-30" width="360" fill="#000000" y="-44.999998" height="539.99998" fill-opacity="0.3"/></g></mask><clipPath id="eff9619ac2"><path d="M 0.71875 0.839844 L 25.199219 0.839844 L 25.199219 13.078125 L 0.71875 13.078125 Z M 0.71875 0.839844 " clip-rule="nonzero"/></clipPath><clipPath id="c5a9b6aebf"><rect x="0" width="26" y="0" height="14"/></clipPath><mask id="c344b31b8f"><g filter="url(#87b2e5e56e)"><rect x="-30" width="360" fill="#000000" y="-44.999998" height="539.99998" fill-opacity="0.5"/></g></mask><clipPath id="6bedb4acb7"><path d="M 0.800781 0.839844 L 13.039062 0.839844 L 13.039062 13.078125 L 0.800781 13.078125 Z M 0.800781 0.839844 " clip-rule="nonzero"/></clipPath><clipPath id="00756e0cc4"><rect x="0" width="14" y="0" height="14"/></clipPath><mask id="594084a0d7"><g filter="url(#87b2e5e56e)"><rect x="-30" width="360" fill="#000000" y="-44.999998" height="539.99998" fill-opacity="0.5"/></g></mask><clipPath id="d3a7bf2acb"><path d="M 1 0.359375 L 13.28125 0.359375 L 13.28125 12.839844 L 1 12.839844 Z M 1 0.359375 " clip-rule="nonzero"/></clipPath><clipPath id="79ded73a2e"><rect x="0" width="14" y="0" height="13"/></clipPath><mask id="d12ee65e30"><g filter="url(#87b2e5e56e)"><rect x="-30" width="360" fill="#000000" y="-44.999998" height="539.99998" fill-opacity="0.5"/></g></mask><clipPath id="22106d6acb"><path d="M 0.960938 0.839844 L 13.199219 0.839844 L 13.199219 13.078125 L 0.960938 13.078125 Z M 0.960938 0.839844 " clip-rule="nonzero"/></clipPath><clipPath id="1f1087ea4a"><rect x="0" width="14" y="0" height="14"/></clipPath><mask id="dc4d6ec219"><g filter="url(#87b2e5e56e)"><rect x="-30" width="360" fill="#000000" y="-44.999998" height="539.99998" fill-opacity="0.5"/></g></mask><clipPath id="82ae8bb649"><path d="M 0.71875 0.359375 L 13 0.359375 L 13 12.839844 L 0.71875 12.839844 Z M 0.71875 0.359375 " clip-rule="nonzero"/></clipPath><clipPath id="08e1583ba7"><rect x="0" width="14" y="0" height="13"/></clipPath><mask id="9c4396d48d"><g filter="url(#87b2e5e56e)"><rect x="-30" width="360" fill="#000000" y="-44.999998" height="539.99998" fill-opacity="0.5"/></g></mask><clipPath id="fe83a1caed"><path d="M 0.71875 1 L 13 1 L 13 98.519531 L 0.71875 98.519531 Z M 0.71875 1 " clip-rule="nonzero"/></clipPath><clipPath id="ab1fba000c"><rect x="0" width="14" y="0" height="99"/></clipPath><mask id="85361335db"><g filter="url(#87b2e5e56e)"><rect x="-30" width="360" fill="#000000" y="-44.999998" height="539.99998" fill-opacity="0.5"/></g></mask><clipPath id="69f6aaa1fd"><path d="M 0.519531 1 L 13 1 L 13 147.078125 L 0.519531 147.078125 Z M 0.519531 1 " clip-rule="nonzero"/></clipPath><clipPath id="1e6007c68a"><rect x="0" width="13" y="0" height="148"/></clipPath><mask id="ca09419c88"><g filter="url(#87b2e5e56e)"><rect x="-30" width="360" fill="#000000" y="-44.999998" height="539.99998" fill-opacity="0.5"/></g></mask><clipPath id="adbe00d6eb"><path d="M 0 1 L 12.480469 1 L 12.480469 147.078125 L 0 147.078125 Z M 0 1 " clip-rule="nonzero"/></clipPath><clipPath id="963bbcc5e0"><rect x="0" width="13" y="0" height="148"/></clipPath><mask id="71998dc18d"><g filter="url(#87b2e5e56e)"><rect x="-30" width="360" fill="#000000" y="-44.999998" height="539.99998" fill-opacity="0.5"/></g></mask><clipPath id="2745c4e89c"><path d="M 0.28125 1 L 12.761719 1 L 12.761719 62 L 0.28125 62 Z M 0.28125 1 " clip-rule="nonzero"/></clipPath><clipPath id="28cae55151"><rect x="0" width="13" y="0" height="63"/></clipPath><mask id="0dca1538b2"><g filter="url(#87b2e5e56e)"><rect x="-30" width="360" fill="#000000" y="-44.999998" height="539.99998" fill-opacity="0.5"/></g></mask><clipPath id="9ac2499f22"><path d="M 0.238281 1 L 12.71875 1 L 12.71875 62 L 0.238281 62 Z M 0.238281 1 " clip-rule="nonzero"/></clipPath><clipPath id="b4a60a5d9b"><rect x="0" width="13" y="0" height="63"/></clipPath><mask id="c29f19c238"><g filter="url(#87b2e5e56e)"><rect x="-30" width="360" fill="#000000" y="-44.999998" height="539.99998" fill-opacity="0.3"/></g></mask><clipPath id="cb1323cf9e"><path d="M 0.0390625 0.800781 L 36.761719 0.800781 L 36.761719 37.519531 L 0.0390625 37.519531 Z M 0.0390625 0.800781 " clip-rule="nonzero"/></clipPath><clipPath id="0dce0de892"><rect x="0" width="37" y="0" height="38"/></clipPath><mask id="22c6afaffb"><g filter="url(#87b2e5e56e)"><rect x="-30" width="360" fill="#000000" y="-44.999998" height="539.99998" fill-opacity="0.5"/></g></mask><clipPath id="5dfd90a847"><path d="M 0.28125 0.558594 L 12.761719 0.558594 L 12.761719 25.039062 L 0.28125 25.039062 Z M 0.28125 0.558594 " clip-rule="nonzero"/></clipPath><clipPath id="20453f5a26"><rect x="0" width="13" y="0" height="26"/></clipPath><mask id="69fe3a1732"><g filter="url(#87b2e5e56e)"><rect x="-30" width="360" fill="#000000" y="-44.999998" height="539.99998" fill-opacity="0.5"/></g></mask><clipPath id="0cd1128fdb"><path d="M 0.238281 0.558594 L 12.71875 0.558594 L 12.71875 25.039062 L 0.238281 25.039062 Z M 0.238281 0.558594 " clip-rule="nonzero"/></clipPath><clipPath id="3b519edc5e"><rect x="0" width="13" y="0" height="26"/></clipPath><mask id="e14257bdce"><g filter="url(#87b2e5e56e)"><rect x="-30" width="360" fill="#000000" y="-44.999998" height="539.99998" fill-opacity="0.2"/></g></mask><clipPath id="408a46badb"><path d="M 0.0390625 0.121094 L 36.761719 0.121094 L 36.761719 134.039062 L 0.0390625 134.039062 Z M 0.0390625 0.121094 " clip-rule="nonzero"/></clipPath><clipPath id="f2d0fa51a7"><rect x="0" width="37" y="0" height="135"/></clipPath><mask id="9e15ed64fb"><g filter="url(#87b2e5e56e)"><rect x="-30" width="360" fill="#000000" y="-44.999998" height="539.99998" fill-opacity="0.2"/></g></mask><clipPath id="142f84a85b"><path d="M 0.238281 0.121094 L 36.960938 0.121094 L 36.960938 134.039062 L 0.238281 134.039062 Z M 0.238281 0.121094 " clip-rule="nonzero"/></clipPath><clipPath id="d9f7e9f5a9"><rect x="0" width="37" y="0" height="135"/></clipPath><mask id="7068cb912f"><g filter="url(#87b2e5e56e)"><rect x="-30" width="360" fill="#000000" y="-44.999998" height="539.99998" fill-opacity="0.5"/></g></mask><clipPath id="507b8feb5f"><path d="M 0.0390625 0.878906 L 25 0.878906 L 25 25.359375 L 0.0390625 25.359375 Z M 0.0390625 0.878906 " clip-rule="nonzero"/></clipPath><clipPath id="676d242f4c"><path d="M 97 0.878906 L 121.960938 0.878906 L 121.960938 25.359375 L 97 25.359375 Z M 97 0.878906 " clip-rule="nonzero"/></clipPath><clipPath id="a276d42135"><rect x="0" width="122" y="0" height="26"/></clipPath><mask id="3198ed34bc"><g filter="url(#87b2e5e56e)"><rect x="-30" width="360" fill="#000000" y="-44.999998" height="539.99998" fill-opacity="0.3"/></g></mask><clipPath id="b5fb5bdcdc"><path d="M 0.0390625 1 L 12.519531 1 L 12.519531 25.640625 L 0.0390625 25.640625 Z M 0.0390625 1 " clip-rule="nonzero"/></clipPath><clipPath id="a9153da6ae"><rect x="0" width="13" y="0" height="26"/></clipPath><mask id="8cb25d65ce"><g filter="url(#87b2e5e56e)"><rect x="-30" width="360" fill="#000000" y="-44.999998" height="539.99998" fill-opacity="0.3"/></g></mask><clipPath id="e68487c068"><path d="M 0.28125 0.398438 L 12.519531 0.398438 L 12.519531 12.640625 L 0.28125 12.640625 Z M 0.28125 0.398438 " clip-rule="nonzero"/></clipPath><clipPath id="f3ef15d8ad"><rect x="0" width="13" y="0" height="13"/></clipPath><mask id="f616185823"><g filter="url(#87b2e5e56e)"><rect x="-30" width="360" fill="#000000" y="-44.999998" height="539.99998" fill-opacity="0.3"/></g></mask><clipPath id="d8338984de"><path d="M 0.28125 0.398438 L 12.761719 0.398438 L 12.761719 12.878906 L 0.28125 12.878906 Z M 0.28125 0.398438 " clip-rule="nonzero"/></clipPath><clipPath id="e4516bad89"><rect x="0" width="13" y="0" height="13"/></clipPath><mask id="ff2287d399"><g filter="url(#87b2e5e56e)"><rect x="-30" width="360" fill="#000000" y="-44.999998" height="539.99998" fill-opacity="0.3"/></g></mask><clipPath id="59ca13fdfd"><path d="M 0.480469 0.398438 L 12.71875 0.398438 L 12.71875 12.640625 L 0.480469 12.640625 Z M 0.480469 0.398438 " clip-rule="nonzero"/></clipPath><clipPath id="3cb29dbfb7"><rect x="0" width="13" y="0" height="13"/></clipPath><mask id="3aa5121dfa"><g filter="url(#87b2e5e56e)"><rect x="-30" width="360" fill="#000000" y="-44.999998" height="539.99998" fill-opacity="0.3"/></g></mask><clipPath id="6607cb3fed"><path d="M 0.238281 0.398438 L 12.71875 0.398438 L 12.71875 12.878906 L 0.238281 12.878906 Z M 0.238281 0.398438 " clip-rule="nonzero"/></clipPath><clipPath id="8278b31cc3"><rect x="0" width="13" y="0" height="13"/></clipPath><mask id="403507ce01"><g filter="url(#87b2e5e56e)"><rect x="-30" width="360" fill="#000000" y="-44.999998" height="539.99998" fill-opacity="0.3"/></g></mask><clipPath id="e3ad0316f8"><path d="M 0.238281 0.359375 L 12.71875 0.359375 L 12.71875 37.078125 L 0.238281 37.078125 Z M 0.238281 0.359375 " clip-rule="nonzero"/></clipPath><clipPath id="653d83e48a"><rect x="0" width="13" y="0" height="38"/></clipPath><mask id="a83ed4ac28"><g filter="url(#87b2e5e56e)"><rect x="-30" width="360" fill="#000000" y="-44.999998" height="539.99998" fill-opacity="0.3"/></g></mask><clipPath id="c8ca8a5d87"><path d="M 0.480469 1 L 12.71875 1 L 12.71875 13.320312 L 0.480469 13.320312 Z M 0.480469 1 " clip-rule="nonzero"/></clipPath><clipPath id="b0493cfa3c"><rect x="0" width="13" y="0" height="14"/></clipPath><mask id="45db19ee4d"><g filter="url(#87b2e5e56e)"><rect x="-30" width="360" fill="#000000" y="-44.999998" height="539.99998" fill-opacity="0.3"/></g></mask><clipPath id="0780d67a98"><path d="M 0.480469 0.320312 L 12.71875 0.320312 L 12.71875 37 L 0.480469 37 Z M 0.480469 0.320312 " clip-rule="nonzero"/></clipPath><clipPath id="e52204a78b"><rect x="0" width="13" y="0" height="38"/></clipPath><mask id="2a12bc97c8"><g filter="url(#87b2e5e56e)"><rect x="-30" width="360" fill="#000000" y="-44.999998" height="539.99998" fill-opacity="0.3"/></g></mask><clipPath id="d701e75270"><path d="M 0.28125 0.320312 L 12.519531 0.320312 L 12.519531 37 L 0.28125 37 Z M 0.28125 0.320312 " clip-rule="nonzero"/></clipPath><clipPath id="b6204e475b"><rect x="0" width="13" y="0" height="38"/></clipPath><mask id="d1802c57d7"><g filter="url(#87b2e5e56e)"><rect x="-30" width="360" fill="#000000" y="-44.999998" height="539.99998" fill-opacity="0.3"/></g></mask><clipPath id="27bf37aa76"><path d="M 0.28125 0.359375 L 12.761719 0.359375 L 12.761719 37.078125 L 0.28125 37.078125 Z M 0.28125 0.359375 " clip-rule="nonzero"/></clipPath><clipPath id="d3ec27c176"><rect x="0" width="13" y="0" height="38"/></clipPath><mask id="1c9e8f57ed"><g filter="url(#87b2e5e56e)"><rect x="-30" width="360" fill="#000000" y="-44.999998" height="539.99998" fill-opacity="0.3"/></g></mask><clipPath id="790cc034c4"><path d="M 0.28125 1 L 12.519531 1 L 12.519531 13.320312 L 0.28125 13.320312 Z M 0.28125 1 " clip-rule="nonzero"/></clipPath><clipPath id="6da63f94be"><rect x="0" width="13" y="0" height="14"/></clipPath><mask id="98b9500480"><g filter="url(#87b2e5e56e)"><rect x="-30" width="360" fill="#000000" y="-44.999998" height="539.99998" fill-opacity="0.3"/></g></mask><clipPath id="4bbb072c14"><path d="M 0.28125 0.121094 L 12.761719 0.121094 L 12.761719 12.601562 L 0.28125 12.601562 Z M 0.28125 0.121094 " clip-rule="nonzero"/></clipPath><clipPath id="61dd7fc685"><rect x="0" width="13" y="0" height="13"/></clipPath><mask id="300c9bbb0b"><g filter="url(#87b2e5e56e)"><rect x="-30" width="360" fill="#000000" y="-44.999998" height="539.99998" fill-opacity="0.3"/></g></mask><clipPath id="634810d467"><path d="M 0.238281 0.121094 L 12.71875 0.121094 L 12.71875 12.601562 L 0.238281 12.601562 Z M 0.238281 0.121094 " clip-rule="nonzero"/></clipPath><clipPath id="45892d2fd7"><rect x="0" width="13" y="0" height="13"/></clipPath><mask id="5be16a99a3"><g filter="url(#87b2e5e56e)"><rect x="-30" width="360" fill="#000000" y="-44.999998" height="539.99998" fill-opacity="0.3"/></g></mask><clipPath id="4a4f7e0bee"><path d="M 0.480469 0.160156 L 12.960938 0.160156 L 12.960938 12.640625 L 0.480469 12.640625 Z M 0.480469 0.160156 " clip-rule="nonzero"/></clipPath><clipPath id="264baad631"><rect x="0" width="13" y="0" height="13"/></clipPath><mask id="663a8ec993"><g filter="url(#87b2e5e56e)"><rect x="-30" width="360" fill="#000000" y="-44.999998" height="539.99998" fill-opacity="0.3"/></g></mask><clipPath id="45e08369fd"><path d="M 0.0390625 0.800781 L 121.960938 0.800781 L 121.960938 61.761719 L 0.0390625 61.761719 Z M 0.0390625 0.800781 " clip-rule="nonzero"/></clipPath><clipPath id="97575259c6"><rect x="0" width="122" y="0" height="62"/></clipPath></defs><g clip-path="url(#05fd22940a)"><path fill="#160059" d="M 235.128906 48.648438 L 235.128906 24.324219 L 222.96875 24.324219 L 222.96875 12.164062 L 198.644531 12.164062 L 198.644531 0 L 125.671875 0 L 125.671875 12.164062 L 101.347656 12.164062 L 101.347656 24.324219 L 89.183594 24.324219 L 89.183594 36.488281 L 77.023438 36.488281 L 77.023438 60.8125 L 64.859375 60.8125 L 64.859375 145.945312 L 77.023438 145.945312 L 77.023438 182.433594 L 64.859375 182.433594 L 64.859375 206.757812 L 52.699219 206.757812 L 52.699219 291.890625 L 64.859375 291.890625 L 64.859375 304.054688 L 77.023438 304.054688 L 77.023438 401.351562 L 89.183594 401.351562 L 89.183594 425.675781 L 101.347656 425.675781 L 101.347656 450 L 137.832031 450 L 137.832031 437.835938 L 162.15625 437.835938 L 162.15625 450 L 198.644531 450 L 198.644531 425.675781 L 210.804688 425.675781 L 210.804688 401.351562 L 222.96875 401.351562 L 222.96875 304.054688 L 235.128906 304.054688 L 235.128906 291.890625 L 247.292969 291.890625 L 247.292969 206.757812 L 235.128906 206.757812 L 235.128906 194.59375 L 247.292969 194.59375 L 247.292969 48.648438 Z M 235.128906 48.648438 " fill-opacity="1" fill-rule="nonzero"/></g><path fill="#00ed60" d="M 77.023438 352.703125 L 222.96875 352.703125 L 222.96875 401.351562 L 77.023438 401.351562 Z M 77.023438 352.703125 " fill-opacity="1" fill-rule="nonzero"/><path fill="#c68047" d="M 198.644531 389.1875 L 198.644531 425.675781 L 174.320312 425.675781 L 174.320312 413.511719 L 125.671875 413.511719 L 125.671875 425.675781 L 101.347656 425.675781 L 101.347656 389.1875 Z M 198.644531 389.1875 " fill-opacity="1" fill-rule="nonzero"/><path fill="#c68047" d="M 89.183594 48.648438 L 89.183594 133.785156 L 113.507812 133.785156 L 113.507812 145.945312 L 125.671875 145.945312 L 125.671875 170.269531 L 174.320312 170.269531 L 174.320312 145.945312 L 186.480469 145.945312 L 186.480469 133.785156 L 210.804688 133.785156 L 210.804688 48.648438 Z M 89.183594 48.648438 " fill-opacity="1" fill-rule="nonzero"/><path fill="#5324ff" d="M 125.671875 97.296875 L 137.832031 97.296875 L 137.832031 109.460938 L 125.671875 109.460938 Z M 125.671875 97.296875 " fill-opacity="1" fill-rule="nonzero"/><path fill="#5324ff" d="M 162.15625 97.296875 L 174.320312 97.296875 L 174.320312 109.460938 L 162.15625 109.460938 Z M 162.15625 97.296875 " fill-opacity="1" fill-rule="nonzero"/><g clip-path="url(#0ddbcd3221)"><path fill="#c68047" d="M 101.347656 267.566406 L 52.699219 267.566406 L 52.699219 291.890625 L 64.859375 291.890625 L 64.859375 304.054688 L 89.183594 304.054688 L 89.183594 291.890625 L 101.347656 291.890625 Z M 101.347656 267.566406 " fill-opacity="1" fill-rule="nonzero"/></g><g clip-path="url(#d81e873f22)"><path fill="#c68047" d="M 247.292969 267.566406 L 198.644531 267.566406 L 198.644531 291.890625 L 210.804688 291.890625 L 210.804688 304.054688 L 235.128906 304.054688 L 235.128906 291.890625 L 247.292969 291.890625 Z M 247.292969 267.566406 " fill-opacity="1" fill-rule="nonzero"/></g><g clip-path="url(#e777a274e3)"><path fill="#00ed60" d="M 235.128906 206.757812 L 235.128906 182.433594 L 210.804688 182.433594 L 210.804688 158.109375 L 198.644531 158.109375 L 198.644531 145.945312 L 174.320312 145.945312 L 174.320312 170.269531 L 125.671875 170.269531 L 125.671875 145.945312 L 101.347656 145.945312 L 101.347656 158.109375 L 77.023438 158.109375 L 77.023438 182.433594 L 64.859375 182.433594 L 64.859375 206.757812 L 52.699219 206.757812 L 52.699219 267.566406 L 247.292969 267.566406 L 247.292969 206.757812 Z M 235.128906 206.757812 " fill-opacity="1" fill-rule="nonzero"/></g><path fill="#ff63d8" d="M 174.320312 267.566406 L 174.320312 170.269531 L 125.671875 170.269531 L 125.671875 267.566406 L 89.183594 267.566406 L 89.183594 425.675781 L 210.804688 425.675781 L 210.804688 267.566406 Z M 174.320312 267.566406 " fill-opacity="1" fill-rule="nonzero"/><path fill="#00ed60" d="M 101.347656 255.40625 L 125.671875 255.40625 L 125.671875 304.054688 L 101.347656 304.054688 Z M 101.347656 255.40625 " fill-opacity="1" fill-rule="nonzero"/><path fill="#00ed60" d="M 89.183594 291.890625 L 113.507812 291.890625 L 113.507812 364.863281 L 89.183594 364.863281 Z M 89.183594 291.890625 " fill-opacity="1" fill-rule="nonzero"/><path fill="#00ed60" d="M 174.320312 255.40625 L 198.644531 255.40625 L 198.644531 304.054688 L 174.320312 304.054688 Z M 174.320312 255.40625 " fill-opacity="1" fill-rule="nonzero"/><path fill="#00ed60" d="M 186.480469 291.890625 L 210.804688 291.890625 L 210.804688 364.863281 L 186.480469 364.863281 Z M 186.480469 291.890625 " fill-opacity="1" fill-rule="nonzero"/><path fill="#00ed60" d="M 77.023438 304.054688 L 101.347656 304.054688 L 101.347656 377.027344 L 77.023438 377.027344 Z M 77.023438 304.054688 " fill-opacity="1" fill-rule="nonzero"/><path fill="#00ed60" d="M 198.644531 304.054688 L 222.96875 304.054688 L 222.96875 377.027344 L 198.644531 377.027344 Z M 198.644531 304.054688 " fill-opacity="1" fill-rule="nonzero"/><g clip-path="url(#90712e911b)"><path fill="#5324ff" d="M 235.128906 48.648438 L 235.128906 24.324219 L 222.96875 24.324219 L 222.96875 12.164062 L 198.644531 12.164062 L 198.644531 0 L 125.671875 0 L 125.671875 12.164062 L 101.347656 12.164062 L 101.347656 24.324219 L 89.183594 24.324219 L 89.183594 36.488281 L 77.023438 36.488281 L 77.023438 60.8125 L 64.859375 60.8125 L 64.859375 145.945312 L 77.023438 145.945312 L 77.023438 158.109375 L 113.507812 158.109375 L 113.507812 72.972656 L 125.671875 72.972656 L 125.671875 60.8125 L 149.996094 60.8125 L 149.996094 72.972656 L 174.320312 72.972656 L 174.320312 85.136719 L 186.480469 85.136719 L 186.480469 145.945312 L 210.804688 145.945312 L 210.804688 182.433594 L 235.128906 182.433594 L 235.128906 194.59375 L 247.292969 194.59375 L 247.292969 48.648438 Z M 235.128906 48.648438 " fill-opacity="1" fill-rule="nonzero"/></g><path fill="#160059" d="M 64.859375 60.8125 L 77.023438 60.8125 L 77.023438 145.945312 L 64.859375 145.945312 Z M 64.859375 60.8125 " fill-opacity="1" fill-rule="nonzero"/><path fill="#160059" d="M 113.507812 85.136719 L 113.507812 72.972656 L 101.347656 72.972656 L 101.347656 145.945312 L 113.507812 145.945312 L 113.507812 97.296875 L 137.832031 97.296875 L 137.832031 85.136719 Z M 113.507812 85.136719 " fill-opacity="1" fill-rule="nonzero"/><g mask="url(#5d8da629ed)"><g transform="matrix(1, 0, 0, 1, 101, 145)"><g clip-path="url(#dbc7a210a9)"><g clip-path="url(#d3b38cb721)"><path fill="#160059" d="M 0.347656 0.945312 L 12.507812 0.945312 L 12.507812 13.109375 L 0.347656 13.109375 Z M 0.347656 0.945312 " fill-opacity="1" fill-rule="nonzero"/></g></g></g></g><g mask="url(#a5c2d7b4fc)"><g transform="matrix(1, 0, 0, 1, 89, 97)"><g clip-path="url(#bd535f1671)"><g clip-path="url(#b9dbabbcae)"><path fill="#160059" d="M 0.183594 0.296875 L 12.347656 0.296875 L 12.347656 48.945312 L 0.183594 48.945312 Z M 0.183594 0.296875 " fill-opacity="1" fill-rule="nonzero"/></g></g></g></g><g mask="url(#03bb4c0a64)"><g transform="matrix(1, 0, 0, 1, 89, 72)"><g clip-path="url(#ad3da3005a)"><g clip-path="url(#1f8e3031a6)"><path fill="#160059" d="M 0.183594 0.972656 L 12.347656 0.972656 L 12.347656 13.136719 L 0.183594 13.136719 Z M 0.183594 0.972656 " fill-opacity="1" fill-rule="nonzero"/></g></g></g></g><g mask="url(#0e30dcc098)"><g transform="matrix(1, 0, 0, 1, 186, 72)"><g clip-path="url(#7113060246)"><g clip-path="url(#cb89bcbb25)"><path fill="#160059" d="M 0.480469 0.972656 L 12.644531 0.972656 L 12.644531 13.136719 L 0.480469 13.136719 Z M 0.480469 0.972656 " fill-opacity="1" fill-rule="nonzero"/></g></g></g></g><g mask="url(#62ab2cdcef)"><g transform="matrix(1, 0, 0, 1, 198, 60)"><g clip-path="url(#f8c6e86b04)"><g clip-path="url(#fcb0aa452e)"><path fill="#160059" d="M 0.644531 0.8125 L 12.804688 0.8125 L 12.804688 12.972656 L 0.644531 12.972656 Z M 0.644531 0.8125 " fill-opacity="1" fill-rule="nonzero"/></g></g></g></g><g mask="url(#ab70b572b3)"><g transform="matrix(1, 0, 0, 1, 210, 48)"><g clip-path="url(#e3d04e6e4c)"><g clip-path="url(#1a3d0353bb)"><path fill="#160059" d="M 0.804688 0.648438 L 12.96875 0.648438 L 12.96875 12.8125 L 0.804688 12.8125 Z M 0.804688 0.648438 " fill-opacity="1" fill-rule="nonzero"/></g></g></g></g><path fill="#160059" d="M 77.023438 145.945312 L 89.183594 145.945312 L 89.183594 182.433594 L 77.023438 182.433594 Z M 77.023438 145.945312 " fill-opacity="1" fill-rule="nonzero"/><path fill="#160059" d="M 77.023438 36.488281 L 89.183594 36.488281 L 89.183594 60.8125 L 77.023438 60.8125 Z M 77.023438 36.488281 " fill-opacity="1" fill-rule="nonzero"/><path fill="#160059" d="M 89.183594 24.324219 L 101.347656 24.324219 L 101.347656 36.488281 L 89.183594 36.488281 Z M 89.183594 24.324219 " fill-opacity="1" fill-rule="nonzero"/><path fill="#160059" d="M 101.347656 12.164062 L 125.671875 12.164062 L 125.671875 24.324219 L 101.347656 24.324219 Z M 101.347656 12.164062 " fill-opacity="1" fill-rule="nonzero"/><path fill="#160059" d="M 125.671875 0 L 149.996094 0 L 149.996094 12.164062 L 125.671875 12.164062 Z M 125.671875 0 " fill-opacity="1" fill-rule="nonzero"/><g mask="url(#cf542abe01)"><g transform="matrix(1, 0, 0, 1, 149, 0)"><g clip-path="url(#bcd65771be)"><g clip-path="url(#111a792dcb)"><path fill="#160059" d="M 0.996094 0 L 49.644531 0 L 49.644531 12.164062 L 0.996094 12.164062 Z M 0.996094 0 " fill-opacity="1" fill-rule="nonzero"/></g></g></g></g><g clip-path="url(#0bd6e88730)"><g mask="url(#c0e12a4849)"><g transform="matrix(1, 0, 0, 1, 234, 48)"><g clip-path="url(#ef1747d02e)"><g clip-path="url(#f4e08644e7)"><path fill="#160059" d="M 1.128906 0.648438 L 13.292969 0.648438 L 13.292969 146.59375 L 1.128906 146.59375 Z M 1.128906 0.648438 " fill-opacity="1" fill-rule="nonzero"/></g></g></g></g></g><g mask="url(#4050a36d83)"><g transform="matrix(1, 0, 0, 1, 222, 24)"><g clip-path="url(#573a20996c)"><g clip-path="url(#4a4d770004)"><path fill="#160059" d="M 0.96875 0.324219 L 13.128906 0.324219 L 13.128906 24.648438 L 0.96875 24.648438 Z M 0.96875 0.324219 " fill-opacity="1" fill-rule="nonzero"/></g></g></g></g><g mask="url(#052d386385)"><g transform="matrix(1, 0, 0, 1, 198, 12)"><g clip-path="url(#f131abdfb6)"><g clip-path="url(#2cb215f223)"><path fill="#160059" d="M 0.644531 0.164062 L 24.96875 0.164062 L 24.96875 12.324219 L 0.644531 12.324219 Z M 0.644531 0.164062 " fill-opacity="1" fill-rule="nonzero"/></g></g></g></g><path fill="#160059" d="M 125.671875 48.648438 L 149.996094 48.648438 L 149.996094 60.8125 L 125.671875 60.8125 Z M 125.671875 48.648438 " fill-opacity="1" fill-rule="nonzero"/><path fill="#160059" d="M 149.996094 60.8125 L 174.320312 60.8125 L 174.320312 72.972656 L 149.996094 72.972656 Z M 149.996094 60.8125 " fill-opacity="1" fill-rule="nonzero"/><path fill="#160059" d="M 186.480469 85.136719 L 186.480469 72.972656 L 174.320312 72.972656 L 174.320312 85.136719 L 162.15625 85.136719 L 162.15625 97.296875 L 186.480469 97.296875 L 186.480469 145.945312 L 198.644531 145.945312 L 198.644531 85.136719 Z M 186.480469 85.136719 " fill-opacity="1" fill-rule="nonzero"/><path fill="#160059" d="M 113.507812 60.8125 L 125.671875 60.8125 L 125.671875 72.972656 L 113.507812 72.972656 Z M 113.507812 60.8125 " fill-opacity="1" fill-rule="nonzero"/><path fill="#160059" d="M 222.96875 170.269531 L 222.96875 158.109375 L 210.804688 158.109375 L 210.804688 145.945312 L 198.644531 145.945312 L 198.644531 170.269531 L 210.804688 170.269531 L 210.804688 182.433594 L 235.128906 182.433594 L 235.128906 170.269531 Z M 222.96875 170.269531 " fill-opacity="1" fill-rule="nonzero"/><g mask="url(#9e1d9dfa42)"><g transform="matrix(1, 0, 0, 1, 198, 60)"><g clip-path="url(#807a6c9cba)"><g clip-path="url(#9a2e39b8b6)"><path fill="#160059" d="M 24.96875 0.8125 L 24.96875 12.972656 L 12.804688 12.972656 L 12.804688 25.136719 L 0.644531 25.136719 L 0.644531 49.460938 L 12.804688 49.460938 L 12.804688 73.785156 L 24.96875 73.785156 L 24.96875 110.269531 L 37.128906 110.269531 L 37.128906 0.8125 Z M 24.96875 0.8125 " fill-opacity="1" fill-rule="nonzero"/></g></g></g></g><g mask="url(#9dca116d02)"><g transform="matrix(1, 0, 0, 1, 101, 24)"><g clip-path="url(#f4598acbaf)"><g clip-path="url(#7f81dc8c24)"><path fill="#160059" d="M 0.347656 0.324219 L 12.507812 0.324219 L 12.507812 12.488281 L 0.347656 12.488281 Z M 0.347656 0.324219 " fill-opacity="1" fill-rule="nonzero"/></g></g></g></g><path fill="#160059" d="M 113.507812 36.488281 L 125.671875 36.488281 L 125.671875 48.648438 L 113.507812 48.648438 Z M 113.507812 36.488281 " fill-opacity="1" fill-rule="nonzero"/><g mask="url(#dfe0677787)"><g transform="matrix(1, 0, 0, 1, 113, 24)"><g clip-path="url(#07dab0b839)"><g clip-path="url(#91ae5da792)"><path fill="#160059" d="M 0.507812 0.324219 L 12.671875 0.324219 L 12.671875 12.488281 L 0.507812 12.488281 Z M 0.507812 0.324219 " fill-opacity="1" fill-rule="nonzero"/></g></g></g></g><g mask="url(#f1d6c7e3ce)"><g transform="matrix(1, 0, 0, 1, 186, 36)"><g clip-path="url(#fc0c628399)"><g clip-path="url(#03d042884c)"><path fill="#160059" d="M 0.480469 0.488281 L 12.644531 0.488281 L 12.644531 12.648438 L 0.480469 12.648438 Z M 0.480469 0.488281 " fill-opacity="1" fill-rule="nonzero"/></g></g></g></g><g mask="url(#bcab211b4b)"><g transform="matrix(1, 0, 0, 1, 125, 24)"><g clip-path="url(#2cf5dba929)"><g clip-path="url(#d650e617f2)"><path fill="#160059" d="M 12.832031 0.324219 L 12.832031 12.488281 L 0.671875 12.488281 L 0.671875 24.648438 L 24.996094 24.648438 L 24.996094 0.324219 Z M 12.832031 0.324219 " fill-opacity="1" fill-rule="nonzero"/></g></g></g></g><g mask="url(#f20ac019b1)"><g transform="matrix(1, 0, 0, 1, 149, 48)"><g clip-path="url(#c8b80f0f8a)"><g clip-path="url(#a3a4aad6b2)"><path fill="#160059" d="M 0.996094 0.648438 L 37.480469 0.648438 L 37.480469 12.8125 L 0.996094 12.8125 Z M 0.996094 0.648438 " fill-opacity="1" fill-rule="nonzero"/></g></g></g></g><g mask="url(#5f76d88b2b)"><g transform="matrix(1, 0, 0, 1, 113, 60)"><g clip-path="url(#57f44ceff4)"><g clip-path="url(#14ef50b297)"><path fill="#160059" d="M 0.507812 0.8125 L 61.320312 0.8125 L 61.320312 12.972656 L 0.507812 12.972656 Z M 0.507812 0.8125 " fill-opacity="1" fill-rule="nonzero"/></g></g></g></g><g mask="url(#5d54c51ac0)"><g transform="matrix(1, 0, 0, 1, 210, 84)"><g clip-path="url(#cfc35e81f7)"><g clip-path="url(#7d525935e1)"><path fill="#160059" d="M 0.804688 1.136719 L 12.96875 1.136719 L 12.96875 49.785156 L 0.804688 49.785156 Z M 0.804688 1.136719 " fill-opacity="1" fill-rule="nonzero"/></g></g></g></g><path fill="#160059" d="M 113.507812 145.945312 L 137.832031 145.945312 L 137.832031 158.109375 L 113.507812 158.109375 Z M 113.507812 145.945312 " fill-opacity="1" fill-rule="nonzero"/><path fill="#160059" d="M 162.15625 145.945312 L 186.480469 145.945312 L 186.480469 158.109375 L 162.15625 158.109375 Z M 162.15625 145.945312 " fill-opacity="1" fill-rule="nonzero"/><g mask="url(#06be07c6b4)"><g transform="matrix(1, 0, 0, 1, 113, 133)"><g clip-path="url(#7fbe7cb6b8)"><g clip-path="url(#a26e9f8251)"><path fill="#160059" d="M 0.507812 0.785156 L 12.671875 0.785156 L 12.671875 12.945312 L 0.507812 12.945312 Z M 0.507812 0.785156 " fill-opacity="1" fill-rule="nonzero"/></g></g></g></g><g mask="url(#155e3b7f76)"><g transform="matrix(1, 0, 0, 1, 174, 133)"><g clip-path="url(#fe9e5a9d8b)"><g clip-path="url(#e8e44f0a2c)"><path fill="#160059" d="M 0.320312 0.785156 L 12.480469 0.785156 L 12.480469 12.945312 L 0.320312 12.945312 Z M 0.320312 0.785156 " fill-opacity="1" fill-rule="nonzero"/></g></g></g></g><path fill="#00ed60" d="M 113.507812 158.109375 L 137.832031 158.109375 L 137.832031 170.269531 L 113.507812 170.269531 Z M 113.507812 158.109375 " fill-opacity="1" fill-rule="nonzero"/><path fill="#00ed60" d="M 162.15625 158.109375 L 186.480469 158.109375 L 186.480469 170.269531 L 162.15625 170.269531 Z M 162.15625 158.109375 " fill-opacity="1" fill-rule="nonzero"/><g mask="url(#b719d9cecb)"><g transform="matrix(1, 0, 0, 1, 113, 157)"><g clip-path="url(#fb96f2395b)"><g clip-path="url(#1d3fb17b53)"><path fill="#160059" d="M 0.507812 1.109375 L 24.832031 1.109375 L 24.832031 13.269531 L 0.507812 13.269531 Z M 0.507812 1.109375 " fill-opacity="1" fill-rule="nonzero"/></g></g></g></g><g mask="url(#1d84e632b3)"><g transform="matrix(1, 0, 0, 1, 137, 145)"><g clip-path="url(#0b0a1cbc80)"><g clip-path="url(#653f3ec5ae)"><path fill="#160059" d="M 0.832031 0.945312 L 25.15625 0.945312 L 25.15625 13.109375 L 0.832031 13.109375 Z M 0.832031 0.945312 " fill-opacity="1" fill-rule="nonzero"/></g></g></g></g><g mask="url(#f2ceeee097)"><g transform="matrix(1, 0, 0, 1, 162, 157)"><g clip-path="url(#c2fedc3243)"><g clip-path="url(#33f84c191c)"><path fill="#160059" d="M 0.15625 1.109375 L 24.480469 1.109375 L 24.480469 13.269531 L 0.15625 13.269531 Z M 0.15625 1.109375 " fill-opacity="1" fill-rule="nonzero"/></g></g></g></g><g mask="url(#a2caa72253)"><g transform="matrix(1, 0, 0, 1, 186, 145)"><g clip-path="url(#9d65e77105)"><g clip-path="url(#b546d7744c)"><path fill="#160059" d="M 0.480469 0.945312 L 24.804688 0.945312 L 24.804688 13.109375 L 0.480469 13.109375 Z M 0.480469 0.945312 " fill-opacity="1" fill-rule="nonzero"/></g></g></g></g><path fill="#160059" d="M 64.859375 182.433594 L 77.023438 182.433594 L 77.023438 206.757812 L 64.859375 206.757812 Z M 64.859375 182.433594 " fill-opacity="1" fill-rule="nonzero"/><g clip-path="url(#f64a3a10bb)"><path fill="#160059" d="M 52.699219 206.757812 L 64.859375 206.757812 L 64.859375 279.730469 L 52.699219 279.730469 Z M 52.699219 206.757812 " fill-opacity="1" fill-rule="nonzero"/></g><g clip-path="url(#eab603ced4)"><g mask="url(#7d116cf2ea)"><g transform="matrix(1, 0, 0, 1, 234, 206)"><g clip-path="url(#8fd5b4251c)"><g clip-path="url(#c0141c827f)"><path fill="#160059" d="M 1.128906 0.757812 L 13.292969 0.757812 L 13.292969 85.890625 L 1.128906 85.890625 Z M 1.128906 0.757812 " fill-opacity="1" fill-rule="nonzero"/></g></g></g></g></g><path fill="#160059" d="M 222.96875 182.433594 L 235.128906 182.433594 L 235.128906 206.757812 L 222.96875 206.757812 Z M 222.96875 182.433594 " fill-opacity="1" fill-rule="nonzero"/><path fill="#160059" d="M 89.183594 243.242188 L 101.347656 243.242188 L 101.347656 291.890625 L 89.183594 291.890625 Z M 89.183594 243.242188 " fill-opacity="1" fill-rule="nonzero"/><g clip-path="url(#7ef295e8e4)"><path fill="#160059" d="M 52.699219 279.730469 L 64.859375 279.730469 L 64.859375 291.890625 L 52.699219 291.890625 Z M 52.699219 279.730469 " fill-opacity="1" fill-rule="nonzero"/></g><g mask="url(#c66173aa7c)"><g transform="matrix(1, 0, 0, 1, 64, 291)"><g clip-path="url(#7b80abbddc)"><g clip-path="url(#bb5c176b0b)"><path fill="#160059" d="M 0.859375 0.890625 L 25.183594 0.890625 L 25.183594 13.054688 L 0.859375 13.054688 Z M 0.859375 0.890625 " fill-opacity="1" fill-rule="nonzero"/></g></g></g></g><path fill="#160059" d="M 198.644531 243.242188 L 210.804688 243.242188 L 210.804688 291.890625 L 198.644531 291.890625 Z M 198.644531 243.242188 " fill-opacity="1" fill-rule="nonzero"/><g clip-path="url(#5b2ee897dd)"><g mask="url(#b9b5cffbdc)"><g transform="matrix(1, 0, 0, 1, 234, 279)"><g clip-path="url(#b3ed906ed5)"><g clip-path="url(#652edc1e69)"><path fill="#160059" d="M 1.128906 0.730469 L 13.292969 0.730469 L 13.292969 12.890625 L 1.128906 12.890625 Z M 1.128906 0.730469 " fill-opacity="1" fill-rule="nonzero"/></g></g></g></g></g><g mask="url(#0c55319777)"><g transform="matrix(1, 0, 0, 1, 210, 291)"><g clip-path="url(#c5a9b6aebf)"><g clip-path="url(#eff9619ac2)"><path fill="#160059" d="M 0.804688 0.890625 L 25.128906 0.890625 L 25.128906 13.054688 L 0.804688 13.054688 Z M 0.804688 0.890625 " fill-opacity="1" fill-rule="nonzero"/></g></g></g></g><g mask="url(#c344b31b8f)"><g transform="matrix(1, 0, 0, 1, 64, 291)"><g clip-path="url(#00756e0cc4)"><g clip-path="url(#6bedb4acb7)"><path fill="#160059" d="M 0.859375 0.890625 L 13.023438 0.890625 L 13.023438 13.054688 L 0.859375 13.054688 Z M 0.859375 0.890625 " fill-opacity="1" fill-rule="nonzero"/></g></g></g></g><g mask="url(#594084a0d7)"><g transform="matrix(1, 0, 0, 1, 76, 267)"><g clip-path="url(#79ded73a2e)"><g clip-path="url(#d3a7bf2acb)"><path fill="#160059" d="M 1.023438 0.566406 L 13.183594 0.566406 L 13.183594 12.730469 L 1.023438 12.730469 Z M 1.023438 0.566406 " fill-opacity="1" fill-rule="nonzero"/></g></g></g></g><g mask="url(#d12ee65e30)"><g transform="matrix(1, 0, 0, 1, 222, 291)"><g clip-path="url(#1f1087ea4a)"><g clip-path="url(#22106d6acb)"><path fill="#160059" d="M 0.96875 0.890625 L 13.128906 0.890625 L 13.128906 13.054688 L 0.96875 13.054688 Z M 0.96875 0.890625 " fill-opacity="1" fill-rule="nonzero"/></g></g></g></g><g mask="url(#dc4d6ec219)"><g transform="matrix(1, 0, 0, 1, 210, 267)"><g clip-path="url(#08e1583ba7)"><g clip-path="url(#82ae8bb649)"><path fill="#160059" d="M 0.804688 0.566406 L 12.96875 0.566406 L 12.96875 12.730469 L 0.804688 12.730469 Z M 0.804688 0.566406 " fill-opacity="1" fill-rule="nonzero"/></g></g></g></g><path fill="#160059" d="M 198.644531 279.730469 L 210.804688 279.730469 L 210.804688 291.890625 L 198.644531 291.890625 Z M 198.644531 279.730469 " fill-opacity="1" fill-rule="nonzero"/><path fill="#160059" d="M 77.023438 304.054688 L 89.183594 304.054688 L 89.183594 401.351562 L 77.023438 401.351562 Z M 77.023438 304.054688 " fill-opacity="1" fill-rule="nonzero"/><g mask="url(#9c4396d48d)"><g transform="matrix(1, 0, 0, 1, 210, 303)"><g clip-path="url(#ab1fba000c)"><g clip-path="url(#fe83a1caed)"><path fill="#160059" d="M 0.804688 1.054688 L 12.96875 1.054688 L 12.96875 98.351562 L 0.804688 98.351562 Z M 0.804688 1.054688 " fill-opacity="1" fill-rule="nonzero"/></g></g></g></g><path fill="#160059" d="M 89.183594 413.511719 L 125.671875 413.511719 L 125.671875 425.675781 L 89.183594 425.675781 Z M 89.183594 413.511719 " fill-opacity="1" fill-rule="nonzero"/><g mask="url(#85361335db)"><g transform="matrix(1, 0, 0, 1, 125, 157)"><g clip-path="url(#1e6007c68a)"><g clip-path="url(#69f6aaa1fd)"><path fill="#160059" d="M 0.671875 1.109375 L 12.832031 1.109375 L 12.832031 147.054688 L 0.671875 147.054688 Z M 0.671875 1.109375 " fill-opacity="1" fill-rule="nonzero"/></g></g></g></g><g mask="url(#ca09419c88)"><g transform="matrix(1, 0, 0, 1, 162, 157)"><g clip-path="url(#963bbcc5e0)"><g clip-path="url(#adbe00d6eb)"><path fill="#160059" d="M 0.15625 1.109375 L 12.320312 1.109375 L 12.320312 147.054688 L 0.15625 147.054688 Z M 0.15625 1.109375 " fill-opacity="1" fill-rule="nonzero"/></g></g></g></g><g mask="url(#71998dc18d)"><g transform="matrix(1, 0, 0, 1, 113, 303)"><g clip-path="url(#28cae55151)"><g clip-path="url(#2745c4e89c)"><path fill="#160059" d="M 0.507812 1.054688 L 12.671875 1.054688 L 12.671875 61.863281 L 0.507812 61.863281 Z M 0.507812 1.054688 " fill-opacity="1" fill-rule="nonzero"/></g></g></g></g><g mask="url(#0dca1538b2)"><g transform="matrix(1, 0, 0, 1, 174, 303)"><g clip-path="url(#b4a60a5d9b)"><g clip-path="url(#9ac2499f22)"><path fill="#160059" d="M 0.320312 1.054688 L 12.480469 1.054688 L 12.480469 61.863281 L 0.320312 61.863281 Z M 0.320312 1.054688 " fill-opacity="1" fill-rule="nonzero"/></g></g></g></g><path fill="#160059" d="M 101.347656 364.863281 L 113.507812 364.863281 L 113.507812 377.027344 L 101.347656 377.027344 Z M 101.347656 364.863281 " fill-opacity="1" fill-rule="nonzero"/><path fill="#160059" d="M 186.480469 364.863281 L 198.644531 364.863281 L 198.644531 377.027344 L 186.480469 377.027344 Z M 186.480469 364.863281 " fill-opacity="1" fill-rule="nonzero"/><path fill="#160059" d="M 174.320312 352.703125 L 186.480469 352.703125 L 186.480469 364.863281 L 174.320312 364.863281 Z M 174.320312 352.703125 " fill-opacity="1" fill-rule="nonzero"/><path fill="#160059" d="M 198.644531 377.027344 L 210.804688 377.027344 L 210.804688 389.1875 L 198.644531 389.1875 Z M 198.644531 377.027344 " fill-opacity="1" fill-rule="nonzero"/><path fill="#160059" d="M 77.023438 377.027344 L 101.347656 377.027344 L 101.347656 389.1875 L 77.023438 389.1875 Z M 77.023438 377.027344 " fill-opacity="1" fill-rule="nonzero"/><path fill="#160059" d="M 113.507812 352.703125 L 125.671875 352.703125 L 125.671875 364.863281 L 113.507812 364.863281 Z M 113.507812 352.703125 " fill-opacity="1" fill-rule="nonzero"/><g mask="url(#c29f19c238)"><g transform="matrix(1, 0, 0, 1, 89, 364)"><g clip-path="url(#0dce0de892)"><g clip-path="url(#cb1323cf9e)"><path fill="#160059" d="M 24.507812 0.863281 L 12.347656 0.863281 L 12.347656 25.1875 L 0.183594 25.1875 L 0.183594 37.351562 L 24.507812 37.351562 L 24.507812 25.1875 L 36.671875 25.1875 L 36.671875 0.863281 Z M 24.507812 0.863281 " fill-opacity="1" fill-rule="nonzero"/></g></g></g></g><g mask="url(#22c6afaffb)"><g transform="matrix(1, 0, 0, 1, 113, 352)"><g clip-path="url(#20453f5a26)"><g clip-path="url(#5dfd90a847)"><path fill="#160059" d="M 0.507812 0.703125 L 12.671875 0.703125 L 12.671875 25.027344 L 0.507812 25.027344 Z M 0.507812 0.703125 " fill-opacity="1" fill-rule="nonzero"/></g></g></g></g><g mask="url(#69fe3a1732)"><g transform="matrix(1, 0, 0, 1, 174, 352)"><g clip-path="url(#3b519edc5e)"><g clip-path="url(#0cd1128fdb)"><path fill="#160059" d="M 0.320312 0.703125 L 12.480469 0.703125 L 12.480469 25.027344 L 0.320312 25.027344 Z M 0.320312 0.703125 " fill-opacity="1" fill-rule="nonzero"/></g></g></g></g><path fill="#160059" d="M 137.832031 170.269531 L 162.15625 170.269531 L 162.15625 182.433594 L 137.832031 182.433594 Z M 137.832031 170.269531 " fill-opacity="1" fill-rule="nonzero"/><g mask="url(#e14257bdce)"><g transform="matrix(1, 0, 0, 1, 89, 243)"><g clip-path="url(#f2d0fa51a7)"><g clip-path="url(#408a46badb)"><path fill="#160059" d="M 36.671875 0.242188 L 12.347656 0.242188 L 12.347656 48.890625 L 0.183594 48.890625 L 0.183594 134.027344 L 24.507812 134.027344 L 24.507812 61.054688 L 36.671875 61.054688 Z M 36.671875 0.242188 " fill-opacity="1" fill-rule="nonzero"/></g></g></g></g><g mask="url(#9e15ed64fb)"><g transform="matrix(1, 0, 0, 1, 174, 243)"><g clip-path="url(#d9f7e9f5a9)"><g clip-path="url(#142f84a85b)"><path fill="#160059" d="M 0.320312 0.242188 L 24.644531 0.242188 L 24.644531 48.890625 L 36.804688 48.890625 L 36.804688 134.027344 L 12.480469 134.027344 L 12.480469 61.054688 L 0.320312 61.054688 Z M 0.320312 0.242188 " fill-opacity="1" fill-rule="nonzero"/></g></g></g></g><g mask="url(#7068cb912f)"><g transform="matrix(1, 0, 0, 1, 89, 218)"><g clip-path="url(#a276d42135)"><g clip-path="url(#507b8feb5f)"><path fill="#160059" d="M 12.347656 0.917969 L 0.183594 0.917969 L 0.183594 25.242188 L 24.507812 25.242188 L 24.507812 13.082031 L 12.347656 13.082031 Z M 12.347656 0.917969 " fill-opacity="1" fill-rule="nonzero"/></g><g clip-path="url(#676d242f4c)"><path fill="#160059" d="M 109.644531 0.917969 L 109.644531 13.082031 L 97.480469 13.082031 L 97.480469 25.242188 L 121.804688 25.242188 L 121.804688 0.917969 Z M 109.644531 0.917969 " fill-opacity="1" fill-rule="nonzero"/></g></g></g></g><g mask="url(#3198ed34bc)"><g transform="matrix(1, 0, 0, 1, 89, 157)"><g clip-path="url(#a9153da6ae)"><g clip-path="url(#b5fb5bdcdc)"><path fill="#160059" d="M 0.183594 1.109375 L 12.347656 1.109375 L 12.347656 25.433594 L 0.183594 25.433594 Z M 0.183594 1.109375 " fill-opacity="1" fill-rule="nonzero"/></g></g></g></g><g mask="url(#8cb25d65ce)"><g transform="matrix(1, 0, 0, 1, 101, 182)"><g clip-path="url(#f3ef15d8ad)"><g clip-path="url(#e68487c068)"><path fill="#160059" d="M 0.347656 0.433594 L 12.507812 0.433594 L 12.507812 12.59375 L 0.347656 12.59375 Z M 0.347656 0.433594 " fill-opacity="1" fill-rule="nonzero"/></g></g></g></g><g mask="url(#f616185823)"><g transform="matrix(1, 0, 0, 1, 113, 194)"><g clip-path="url(#e4516bad89)"><g clip-path="url(#d8338984de)"><path fill="#160059" d="M 0.507812 0.59375 L 12.671875 0.59375 L 12.671875 12.757812 L 0.507812 12.757812 Z M 0.507812 0.59375 " fill-opacity="1" fill-rule="nonzero"/></g></g></g></g><g mask="url(#ff2287d399)"><g transform="matrix(1, 0, 0, 1, 186, 182)"><g clip-path="url(#3cb29dbfb7)"><g clip-path="url(#59ca13fdfd)"><path fill="#160059" d="M 0.480469 0.433594 L 12.644531 0.433594 L 12.644531 12.59375 L 0.480469 12.59375 Z M 0.480469 0.433594 " fill-opacity="1" fill-rule="nonzero"/></g></g></g></g><g mask="url(#3aa5121dfa)"><g transform="matrix(1, 0, 0, 1, 174, 194)"><g clip-path="url(#8278b31cc3)"><g clip-path="url(#6607cb3fed)"><path fill="#160059" d="M 0.320312 0.59375 L 12.480469 0.59375 L 12.480469 12.757812 L 0.320312 12.757812 Z M 0.320312 0.59375 " fill-opacity="1" fill-rule="nonzero"/></g></g></g></g><g mask="url(#403507ce01)"><g transform="matrix(1, 0, 0, 1, 174, 267)"><g clip-path="url(#653d83e48a)"><g clip-path="url(#e3ad0316f8)"><path fill="#160059" d="M 0.320312 0.566406 L 12.480469 0.566406 L 12.480469 37.054688 L 0.320312 37.054688 Z M 0.320312 0.566406 " fill-opacity="1" fill-rule="nonzero"/></g></g></g></g><g mask="url(#a83ed4ac28)"><g transform="matrix(1, 0, 0, 1, 186, 303)"><g clip-path="url(#b0493cfa3c)"><g clip-path="url(#c8ca8a5d87)"><path fill="#160059" d="M 0.480469 1.054688 L 12.644531 1.054688 L 12.644531 13.214844 L 0.480469 13.214844 Z M 0.480469 1.054688 " fill-opacity="1" fill-rule="nonzero"/></g></g></g></g><g mask="url(#45db19ee4d)"><g transform="matrix(1, 0, 0, 1, 186, 328)"><g clip-path="url(#e52204a78b)"><g clip-path="url(#0780d67a98)"><path fill="#160059" d="M 0.480469 0.378906 L 12.644531 0.378906 L 12.644531 36.863281 L 0.480469 36.863281 Z M 0.480469 0.378906 " fill-opacity="1" fill-rule="nonzero"/></g></g></g></g><g mask="url(#2a12bc97c8)"><g transform="matrix(1, 0, 0, 1, 101, 328)"><g clip-path="url(#b6204e475b)"><g clip-path="url(#d701e75270)"><path fill="#160059" d="M 0.347656 0.378906 L 12.507812 0.378906 L 12.507812 36.863281 L 0.347656 36.863281 Z M 0.347656 0.378906 " fill-opacity="1" fill-rule="nonzero"/></g></g></g></g><g mask="url(#d1802c57d7)"><g transform="matrix(1, 0, 0, 1, 113, 267)"><g clip-path="url(#d3ec27c176)"><g clip-path="url(#27bf37aa76)"><path fill="#160059" d="M 0.507812 0.566406 L 12.671875 0.566406 L 12.671875 37.054688 L 0.507812 37.054688 Z M 0.507812 0.566406 " fill-opacity="1" fill-rule="nonzero"/></g></g></g></g><g mask="url(#1c9e8f57ed)"><g transform="matrix(1, 0, 0, 1, 101, 303)"><g clip-path="url(#6da63f94be)"><g clip-path="url(#790cc034c4)"><path fill="#160059" d="M 0.347656 1.054688 L 12.507812 1.054688 L 12.507812 13.214844 L 0.347656 13.214844 Z M 0.347656 1.054688 " fill-opacity="1" fill-rule="nonzero"/></g></g></g></g><g mask="url(#98b9500480)"><g transform="matrix(1, 0, 0, 1, 113, 243)"><g clip-path="url(#61dd7fc685)"><g clip-path="url(#4bbb072c14)"><path fill="#160059" d="M 0.507812 0.242188 L 12.671875 0.242188 L 12.671875 12.40625 L 0.507812 12.40625 Z M 0.507812 0.242188 " fill-opacity="1" fill-rule="nonzero"/></g></g></g></g><g mask="url(#300c9bbb0b)"><g transform="matrix(1, 0, 0, 1, 174, 243)"><g clip-path="url(#45892d2fd7)"><g clip-path="url(#634810d467)"><path fill="#160059" d="M 0.320312 0.242188 L 12.480469 0.242188 L 12.480469 12.40625 L 0.320312 12.40625 Z M 0.320312 0.242188 " fill-opacity="1" fill-rule="nonzero"/></g></g></g></g><g mask="url(#5be16a99a3)"><g transform="matrix(1, 0, 0, 1, 198, 170)"><g clip-path="url(#264baad631)"><g clip-path="url(#4a4f7e0bee)"><path fill="#160059" d="M 0.644531 0.269531 L 12.804688 0.269531 L 12.804688 12.433594 L 0.644531 12.433594 Z M 0.644531 0.269531 " fill-opacity="1" fill-rule="nonzero"/></g></g></g></g><path fill="#160059" d="M 137.832031 425.675781 L 101.347656 425.675781 L 101.347656 450 L 137.832031 450 L 137.832031 437.835938 L 149.996094 437.835938 L 149.996094 425.675781 Z M 137.832031 425.675781 " fill-opacity="1" fill-rule="nonzero"/><path fill="#160059" d="M 162.15625 425.675781 L 198.644531 425.675781 L 198.644531 450 L 162.15625 450 L 162.15625 437.835938 L 149.996094 437.835938 L 149.996094 425.675781 Z M 162.15625 425.675781 " fill-opacity="1" fill-rule="nonzero"/><path fill="#00ed60" d="M 113.507812 425.675781 L 137.832031 425.675781 L 137.832031 437.835938 L 113.507812 437.835938 Z M 113.507812 425.675781 " fill-opacity="1" fill-rule="nonzero"/><path fill="#00ed60" d="M 162.15625 425.675781 L 186.480469 425.675781 L 186.480469 437.835938 L 162.15625 437.835938 Z M 162.15625 425.675781 " fill-opacity="1" fill-rule="nonzero"/><path fill="#160059" d="M 89.183594 401.351562 L 101.347656 401.351562 L 101.347656 425.675781 L 89.183594 425.675781 Z M 89.183594 401.351562 " fill-opacity="1" fill-rule="nonzero"/><g mask="url(#663a8ec993)"><g transform="matrix(1, 0, 0, 1, 89, 364)"><g clip-path="url(#97575259c6)"><g clip-path="url(#45e08369fd)"><path fill="#160059" d="M 109.644531 25.1875 L 109.644531 0.863281 L 85.320312 0.863281 L 85.320312 25.1875 L 97.480469 25.1875 L 97.480469 37.351562 L 109.644531 37.351562 L 109.644531 49.511719 L 0.183594 49.511719 L 0.183594 61.675781 L 121.804688 61.675781 L 121.804688 25.1875 Z M 109.644531 25.1875 " fill-opacity="1" fill-rule="nonzero"/></g></g></g></g><path fill="#160059" d="M 198.644531 413.511719 L 210.804688 413.511719 L 210.804688 425.675781 L 198.644531 425.675781 Z M 198.644531 413.511719 " fill-opacity="1" fill-rule="nonzero"/></svg>