<svg xmlns="http://www.w3.org/2000/svg" xmlns:xlink="http://www.w3.org/1999/xlink" width="400" zoomAndPan="magnify" viewBox="0 0 300 449.999984" height="600" preserveAspectRatio="xMidYMid meet" version="1.0"><defs><filter x="0%" y="0%" width="100%" height="100%" id="2a99570144"><feColorMatrix values="0 0 0 0 1 0 0 0 0 1 0 0 0 0 1 0 0 0 1 0" color-interpolation-filters="sRGB"/></filter><clipPath id="2d8afbc3e4"><path d="M 44.046875 0 L 256.296875 0 L 256.296875 450 L 44.046875 450 Z M 44.046875 0 " clip-rule="nonzero"/></clipPath><clipPath id="3a943cf8be"><path d="M 44.046875 145 L 256.296875 145 L 256.296875 305 L 44.046875 305 Z M 44.046875 145 " clip-rule="nonzero"/></clipPath><clipPath id="348ee90d96"><path d="M 44.046875 264 L 98 264 L 98 305 L 44.046875 305 Z M 44.046875 264 " clip-rule="nonzero"/></clipPath><clipPath id="7d84045197"><path d="M 203 264 L 256.296875 264 L 256.296875 305 L 203 305 Z M 203 264 " clip-rule="nonzero"/></clipPath><clipPath id="9db3af510a"><path d="M 44.046875 198 L 58 198 L 58 278 L 44.046875 278 Z M 44.046875 198 " clip-rule="nonzero"/></clipPath><clipPath id="c728cde52f"><path d="M 44.046875 277 L 58 277 L 58 292 L 44.046875 292 Z M 44.046875 277 " clip-rule="nonzero"/></clipPath><clipPath id="e4c7201350"><path d="M 44.046875 251 L 98 251 L 98 265 L 44.046875 265 Z M 44.046875 251 " clip-rule="nonzero"/></clipPath><clipPath id="ac5434f376"><path d="M 203 198 L 256.296875 198 L 256.296875 292 L 203 292 Z M 203 198 " clip-rule="nonzero"/></clipPath><mask id="edb4a5b559"><g filter="url(#2a99570144)"><rect x="-30" width="360" fill="#000000" y="-44.999998" height="539.99998" fill-opacity="0.5"/></g></mask><clipPath id="db26e9bd22"><path d="M 0.199219 13 L 27 13 L 27 27 L 0.199219 27 Z M 0.199219 13 " clip-rule="nonzero"/></clipPath><clipPath id="7c2ba3975b"><rect x="0" width="81" y="0" height="107"/></clipPath></defs><g clip-path="url(#2d8afbc3e4)"><path fill="#160059" d="M 242.972656 198.53125 L 242.972656 172.058594 L 229.714844 172.058594 L 229.714844 158.824219 L 216.457031 158.824219 L 216.457031 145.589844 L 203.199219 145.589844 L 203.199219 132.351562 L 216.457031 132.351562 L 216.457031 119.117188 L 229.714844 119.117188 L 229.714844 105.882812 L 242.972656 105.882812 L 242.972656 92.648438 L 229.714844 92.648438 L 229.714844 79.410156 L 242.972656 79.410156 L 242.972656 66.175781 L 229.714844 66.175781 L 229.714844 52.941406 L 216.457031 52.941406 L 216.457031 13.234375 L 203.199219 13.234375 L 203.199219 0 L 176.683594 0 L 176.683594 13.234375 L 163.425781 13.234375 L 163.425781 26.46875 L 136.914062 26.46875 L 136.914062 13.234375 L 123.65625 13.234375 L 123.65625 0 L 97.140625 0 L 97.140625 13.234375 L 83.882812 13.234375 L 83.882812 52.941406 L 70.625 52.941406 L 70.625 66.175781 L 57.371094 66.175781 L 57.371094 79.410156 L 70.625 79.410156 L 70.625 92.648438 L 57.371094 92.648438 L 57.371094 105.882812 L 70.625 105.882812 L 70.625 119.117188 L 83.882812 119.117188 L 83.882812 132.351562 L 97.140625 132.351562 L 97.140625 145.589844 L 83.882812 145.589844 L 83.882812 158.824219 L 70.625 158.824219 L 70.625 172.058594 L 57.371094 172.058594 L 57.371094 198.53125 L 44.113281 198.53125 L 44.113281 291.175781 L 57.371094 291.175781 L 57.371094 304.410156 L 70.625 304.410156 L 70.625 410.292969 L 57.371094 410.292969 L 57.371094 436.765625 L 70.625 436.765625 L 70.625 450 L 123.65625 450 L 123.65625 436.765625 L 176.683594 436.765625 L 176.683594 450 L 229.714844 450 L 229.714844 436.765625 L 242.972656 436.765625 L 242.972656 410.292969 L 229.714844 410.292969 L 229.714844 304.410156 L 242.972656 304.410156 L 242.972656 291.175781 L 256.226562 291.175781 L 256.226562 198.53125 Z M 242.972656 198.53125 " fill-opacity="1" fill-rule="nonzero"/></g><path fill="#ffffdb" d="M 229.714844 66.175781 L 229.714844 52.941406 L 216.457031 52.941406 L 216.457031 13.234375 L 203.199219 13.234375 L 203.199219 0 L 176.683594 0 L 176.683594 13.234375 L 163.425781 13.234375 L 163.425781 26.46875 L 150.171875 26.46875 L 150.171875 39.707031 L 136.914062 39.707031 L 136.914062 26.46875 L 123.65625 26.46875 L 123.65625 13.234375 L 97.140625 13.234375 L 97.140625 66.175781 L 70.625 66.175781 L 70.625 79.410156 L 83.882812 79.410156 L 83.882812 92.648438 L 70.625 92.648438 L 70.625 105.882812 L 83.882812 105.882812 L 83.882812 119.117188 L 97.140625 119.117188 L 97.140625 132.351562 L 110.398438 132.351562 L 110.398438 158.824219 L 189.941406 158.824219 L 189.941406 132.351562 L 203.199219 132.351562 L 203.199219 119.117188 L 229.714844 119.117188 L 229.714844 105.882812 L 242.972656 105.882812 L 242.972656 92.648438 L 229.714844 92.648438 L 229.714844 79.410156 L 242.972656 79.410156 L 242.972656 66.175781 Z M 229.714844 66.175781 " fill-opacity="1" fill-rule="nonzero"/><path fill="#a82800" d="M 229.714844 410.292969 L 229.714844 277.941406 L 70.625 277.941406 L 70.625 410.292969 L 57.371094 410.292969 L 57.371094 436.765625 L 70.625 436.765625 L 70.625 450 L 123.65625 450 L 123.65625 436.765625 L 176.683594 436.765625 L 176.683594 450 L 229.714844 450 L 229.714844 436.765625 L 242.972656 436.765625 L 242.972656 410.292969 Z M 229.714844 410.292969 " fill-opacity="1" fill-rule="nonzero"/><g clip-path="url(#3a943cf8be)"><path fill="#ff0043" d="M 242.972656 198.53125 L 242.972656 172.058594 L 229.714844 172.058594 L 229.714844 158.824219 L 216.457031 158.824219 L 216.457031 145.589844 L 83.882812 145.589844 L 83.882812 158.824219 L 70.625 158.824219 L 70.625 172.058594 L 57.371094 172.058594 L 57.371094 198.53125 L 44.113281 198.53125 L 44.113281 291.175781 L 57.371094 291.175781 L 57.371094 277.941406 L 83.882812 277.941406 L 83.882812 304.410156 L 216.457031 304.410156 L 216.457031 277.941406 L 229.714844 277.941406 L 229.714844 291.175781 L 256.226562 291.175781 L 256.226562 198.53125 Z M 242.972656 198.53125 " fill-opacity="1" fill-rule="nonzero"/></g><g clip-path="url(#348ee90d96)"><path fill="#ffffdb" d="M 57.371094 277.941406 L 44.113281 277.941406 L 44.113281 291.175781 L 57.371094 291.175781 L 57.371094 304.410156 L 83.882812 304.410156 L 83.882812 291.175781 L 97.140625 291.175781 L 97.140625 264.707031 L 57.371094 264.707031 Z M 57.371094 277.941406 " fill-opacity="1" fill-rule="nonzero"/></g><g clip-path="url(#7d84045197)"><path fill="#ffffdb" d="M 242.972656 277.941406 L 242.972656 264.707031 L 203.199219 264.707031 L 203.199219 291.175781 L 216.457031 291.175781 L 216.457031 304.410156 L 242.972656 304.410156 L 242.972656 291.175781 L 256.226562 291.175781 L 256.226562 277.941406 Z M 242.972656 277.941406 " fill-opacity="1" fill-rule="nonzero"/></g><path fill="#160059" d="M 123.65625 145.589844 L 136.914062 145.589844 L 136.914062 158.824219 L 123.65625 158.824219 Z M 123.65625 145.589844 " fill-opacity="1" fill-rule="nonzero"/><path fill="#160059" d="M 163.425781 145.589844 L 176.683594 145.589844 L 176.683594 158.824219 L 163.425781 158.824219 Z M 163.425781 145.589844 " fill-opacity="1" fill-rule="nonzero"/><path fill="#a82800" d="M 203.199219 291.175781 L 203.199219 145.589844 L 189.941406 145.589844 L 189.941406 198.53125 L 110.398438 198.53125 L 110.398438 145.589844 L 97.140625 145.589844 L 97.140625 291.175781 L 83.882812 291.175781 L 83.882812 317.648438 L 216.457031 317.648438 L 216.457031 291.175781 Z M 203.199219 291.175781 " fill-opacity="1" fill-rule="nonzero"/><path fill="#ffffdb" d="M 136.914062 132.351562 L 163.425781 132.351562 L 163.425781 172.058594 L 136.914062 172.058594 Z M 136.914062 132.351562 " fill-opacity="1" fill-rule="nonzero"/><path fill="#160059" d="M 136.914062 172.058594 L 163.425781 172.058594 L 163.425781 185.292969 L 136.914062 185.292969 Z M 136.914062 172.058594 " fill-opacity="0.3" fill-rule="nonzero"/><path fill="#160059" d="M 163.425781 158.824219 L 176.683594 158.824219 L 176.683594 172.058594 L 163.425781 172.058594 Z M 163.425781 158.824219 " fill-opacity="0.3" fill-rule="nonzero"/><path fill="#160059" d="M 123.65625 158.824219 L 136.914062 158.824219 L 136.914062 172.058594 L 123.65625 172.058594 Z M 123.65625 158.824219 " fill-opacity="0.3" fill-rule="nonzero"/><path fill="#160059" d="M 70.625 158.824219 L 83.882812 158.824219 L 83.882812 172.058594 L 70.625 172.058594 Z M 70.625 158.824219 " fill-opacity="1" fill-rule="nonzero"/><path fill="#160059" d="M 57.371094 172.058594 L 70.625 172.058594 L 70.625 198.53125 L 57.371094 198.53125 Z M 57.371094 172.058594 " fill-opacity="1" fill-rule="nonzero"/><g clip-path="url(#9db3af510a)"><path fill="#160059" d="M 44.113281 198.53125 L 57.371094 198.53125 L 57.371094 277.941406 L 44.113281 277.941406 Z M 44.113281 198.53125 " fill-opacity="1" fill-rule="nonzero"/></g><g clip-path="url(#c728cde52f)"><path fill="#160059" d="M 44.113281 277.941406 L 57.371094 277.941406 L 57.371094 291.175781 L 44.113281 291.175781 Z M 44.113281 277.941406 " fill-opacity="0.5" fill-rule="nonzero"/></g><path fill="#160059" d="M 57.371094 291.175781 L 70.625 291.175781 L 70.625 304.410156 L 57.371094 304.410156 Z M 57.371094 291.175781 " fill-opacity="0.5" fill-rule="nonzero"/><path fill="#160059" d="M 83.882812 277.941406 L 97.140625 277.941406 L 97.140625 291.175781 L 83.882812 291.175781 Z M 83.882812 277.941406 " fill-opacity="0.5" fill-rule="nonzero"/><path fill="#160059" d="M 83.882812 264.707031 L 97.140625 264.707031 L 97.140625 277.941406 L 83.882812 277.941406 Z M 83.882812 264.707031 " fill-opacity="0.2" fill-rule="nonzero"/><path fill="#160059" d="M 70.625 291.175781 L 83.882812 291.175781 L 83.882812 304.410156 L 70.625 304.410156 Z M 70.625 291.175781 " fill-opacity="0.2" fill-rule="nonzero"/><path fill="#160059" d="M 242.972656 304.410156 L 229.714844 304.410156 L 229.714844 291.175781 L 242.972656 291.175781 Z M 242.972656 304.410156 " fill-opacity="0.5" fill-rule="nonzero"/><path fill="#160059" d="M 216.457031 291.175781 L 203.199219 291.175781 L 203.199219 277.941406 L 216.457031 277.941406 Z M 216.457031 291.175781 " fill-opacity="0.5" fill-rule="nonzero"/><path fill="#160059" d="M 216.457031 277.941406 L 203.199219 277.941406 L 203.199219 264.707031 L 216.457031 264.707031 Z M 216.457031 277.941406 " fill-opacity="0.2" fill-rule="nonzero"/><path fill="#160059" d="M 229.714844 304.410156 L 216.457031 304.410156 L 216.457031 291.175781 L 229.714844 291.175781 Z M 229.714844 304.410156 " fill-opacity="0.2" fill-rule="nonzero"/><path fill="#160059" d="M 229.714844 172.058594 L 216.457031 172.058594 L 216.457031 158.824219 L 229.714844 158.824219 Z M 229.714844 172.058594 " fill-opacity="0.5" fill-rule="nonzero"/><path fill="#160059" d="M 242.972656 198.53125 L 229.714844 198.53125 L 229.714844 172.058594 L 242.972656 172.058594 Z M 242.972656 198.53125 " fill-opacity="0.5" fill-rule="nonzero"/><path fill="#160059" d="M 97.140625 145.589844 L 110.398438 145.589844 L 110.398438 158.824219 L 97.140625 158.824219 Z M 97.140625 145.589844 " fill-opacity="0.5" fill-rule="nonzero"/><path fill="#160059" d="M 189.941406 145.589844 L 203.199219 145.589844 L 203.199219 158.824219 L 189.941406 158.824219 Z M 189.941406 145.589844 " fill-opacity="0.5" fill-rule="nonzero"/><path fill="#edd9cc" d="M 97.140625 198.53125 L 110.398438 198.53125 L 110.398438 211.765625 L 97.140625 211.765625 Z M 97.140625 198.53125 " fill-opacity="1" fill-rule="nonzero"/><path fill="#edd9cc" d="M 189.941406 198.53125 L 203.199219 198.53125 L 203.199219 211.765625 L 189.941406 211.765625 Z M 189.941406 198.53125 " fill-opacity="1" fill-rule="nonzero"/><path fill="#160059" d="M 136.914062 344.117188 L 163.425781 344.117188 L 163.425781 436.765625 L 136.914062 436.765625 Z M 136.914062 344.117188 " fill-opacity="1" fill-rule="nonzero"/><path fill="#160059" d="M 97.140625 264.707031 L 110.398438 264.707031 L 110.398438 291.175781 L 97.140625 291.175781 Z M 97.140625 264.707031 " fill-opacity="1" fill-rule="nonzero"/><path fill="#160059" d="M 189.941406 264.707031 L 203.199219 264.707031 L 203.199219 291.175781 L 189.941406 291.175781 Z M 189.941406 264.707031 " fill-opacity="1" fill-rule="nonzero"/><path fill="#160059" d="M 97.140625 225 L 110.398438 225 L 110.398438 291.175781 L 97.140625 291.175781 Z M 97.140625 225 " fill-opacity="0.5" fill-rule="nonzero"/><path fill="#160059" d="M 189.941406 225 L 203.199219 225 L 203.199219 291.175781 L 189.941406 291.175781 Z M 189.941406 225 " fill-opacity="0.5" fill-rule="nonzero"/><path fill="#160059" d="M 97.140625 277.941406 L 136.914062 277.941406 L 136.914062 291.175781 L 97.140625 291.175781 Z M 97.140625 277.941406 " fill-opacity="0.5" fill-rule="nonzero"/><path fill="#160059" d="M 163.425781 277.941406 L 203.199219 277.941406 L 203.199219 291.175781 L 163.425781 291.175781 Z M 163.425781 277.941406 " fill-opacity="0.5" fill-rule="nonzero"/><g clip-path="url(#e4c7201350)"><path fill="#160059" d="M 44.113281 251.46875 L 97.140625 251.46875 L 97.140625 264.707031 L 44.113281 264.707031 Z M 44.113281 251.46875 " fill-opacity="0.5" fill-rule="nonzero"/></g><g clip-path="url(#ac5434f376)"><path fill="#160059" d="M 242.972656 198.53125 L 242.972656 251.46875 L 203.199219 251.46875 L 203.199219 264.707031 L 242.972656 264.707031 L 242.972656 291.175781 L 256.226562 291.175781 L 256.226562 198.53125 Z M 242.972656 198.53125 " fill-opacity="0.5" fill-rule="nonzero"/></g><path fill="#160059" d="M 83.882812 211.765625 L 97.140625 211.765625 L 97.140625 251.46875 L 83.882812 251.46875 Z M 83.882812 211.765625 " fill-opacity="0.3" fill-rule="nonzero"/><path fill="#160059" d="M 203.199219 211.765625 L 216.457031 211.765625 L 216.457031 251.46875 L 203.199219 251.46875 Z M 203.199219 211.765625 " fill-opacity="0.3" fill-rule="nonzero"/><path fill="#160059" d="M 110.398438 198.53125 L 189.941406 198.53125 L 189.941406 211.765625 L 110.398438 211.765625 Z M 110.398438 198.53125 " fill-opacity="0.3" fill-rule="nonzero"/><path fill="#160059" d="M 70.625 304.410156 L 83.882812 304.410156 L 83.882812 410.292969 L 70.625 410.292969 Z M 70.625 304.410156 " fill-opacity="1" fill-rule="nonzero"/><path fill="#160059" d="M 123.65625 330.882812 L 176.683594 330.882812 L 176.683594 344.117188 L 123.65625 344.117188 Z M 123.65625 330.882812 " fill-opacity="1" fill-rule="nonzero"/><path fill="#ff0043" d="M 70.625 410.292969 L 123.65625 410.292969 L 123.65625 436.765625 L 70.625 436.765625 Z M 70.625 410.292969 " fill-opacity="1" fill-rule="nonzero"/><path fill="#ff0043" d="M 176.683594 410.292969 L 229.714844 410.292969 L 229.714844 436.765625 L 176.683594 436.765625 Z M 176.683594 410.292969 " fill-opacity="1" fill-rule="nonzero"/><path fill="#160059" d="M 70.625 410.292969 L 70.625 423.53125 L 110.398438 423.53125 L 110.398438 436.765625 L 123.65625 436.765625 L 123.65625 410.292969 Z M 70.625 410.292969 " fill-opacity="0.5" fill-rule="nonzero"/><path fill="#160059" d="M 176.683594 410.292969 L 176.683594 436.765625 L 189.941406 436.765625 L 189.941406 423.53125 L 229.714844 423.53125 L 229.714844 410.292969 Z M 176.683594 410.292969 " fill-opacity="0.5" fill-rule="nonzero"/><path fill="#160059" d="M 57.371094 410.292969 L 70.625 410.292969 L 70.625 436.765625 L 57.371094 436.765625 Z M 57.371094 410.292969 " fill-opacity="1" fill-rule="nonzero"/><path fill="#160059" d="M 70.625 436.765625 L 123.65625 436.765625 L 123.65625 450 L 70.625 450 Z M 70.625 436.765625 " fill-opacity="1" fill-rule="nonzero"/><path fill="#160059" d="M 176.683594 436.765625 L 229.714844 436.765625 L 229.714844 450 L 176.683594 450 Z M 176.683594 436.765625 " fill-opacity="1" fill-rule="nonzero"/><path fill="#160059" d="M 229.714844 410.292969 L 242.972656 410.292969 L 242.972656 436.765625 L 229.714844 436.765625 Z M 229.714844 410.292969 " fill-opacity="1" fill-rule="nonzero"/><path fill="#160059" d="M 123.65625 423.53125 L 176.683594 423.53125 L 176.683594 436.765625 L 123.65625 436.765625 Z M 123.65625 423.53125 " fill-opacity="0.5" fill-rule="nonzero"/><path fill="#160059" d="M 70.625 397.058594 L 97.140625 397.058594 L 97.140625 410.292969 L 70.625 410.292969 Z M 70.625 397.058594 " fill-opacity="0.5" fill-rule="nonzero"/><path fill="#160059" d="M 216.457031 304.410156 L 216.457031 397.058594 L 203.199219 397.058594 L 203.199219 410.292969 L 229.714844 410.292969 L 229.714844 304.410156 Z M 216.457031 304.410156 " fill-opacity="0.5" fill-rule="nonzero"/><path fill="#160059" d="M 176.683594 397.058594 L 189.941406 397.058594 L 189.941406 410.292969 L 176.683594 410.292969 Z M 176.683594 397.058594 " fill-opacity="0.3" fill-rule="nonzero"/><path fill="#160059" d="M 110.398438 397.058594 L 123.65625 397.058594 L 123.65625 410.292969 L 110.398438 410.292969 Z M 110.398438 397.058594 " fill-opacity="0.3" fill-rule="nonzero"/><path fill="#160059" d="M 123.65625 238.234375 L 176.683594 238.234375 L 176.683594 251.46875 L 123.65625 251.46875 Z M 123.65625 238.234375 " fill-opacity="0.5" fill-rule="nonzero"/><path fill="#160059" d="M 83.882812 145.589844 L 97.140625 145.589844 L 97.140625 158.824219 L 83.882812 158.824219 Z M 83.882812 145.589844 " fill-opacity="1" fill-rule="nonzero"/><path fill="#160059" d="M 97.140625 0 L 123.65625 0 L 123.65625 13.234375 L 97.140625 13.234375 Z M 97.140625 0 " fill-opacity="1" fill-rule="nonzero"/><path fill="#160059" d="M 123.65625 13.234375 L 136.914062 13.234375 L 136.914062 26.46875 L 123.65625 26.46875 Z M 123.65625 13.234375 " fill-opacity="1" fill-rule="nonzero"/><path fill="#160059" d="M 136.914062 26.46875 L 150.171875 26.46875 L 150.171875 39.707031 L 136.914062 39.707031 Z M 136.914062 26.46875 " fill-opacity="1" fill-rule="nonzero"/><path fill="#160059" d="M 150.171875 26.46875 L 163.425781 26.46875 L 163.425781 39.707031 L 150.171875 39.707031 Z M 150.171875 26.46875 " fill-opacity="0.5" fill-rule="nonzero"/><path fill="#160059" d="M 83.882812 13.234375 L 97.140625 13.234375 L 97.140625 66.175781 L 83.882812 66.175781 Z M 83.882812 13.234375 " fill-opacity="1" fill-rule="nonzero"/><path fill="#160059" d="M 70.625 52.941406 L 97.140625 52.941406 L 97.140625 66.175781 L 70.625 66.175781 Z M 70.625 52.941406 " fill-opacity="1" fill-rule="nonzero"/><path fill="#160059" d="M 57.371094 66.175781 L 70.625 66.175781 L 70.625 79.410156 L 57.371094 79.410156 Z M 57.371094 66.175781 " fill-opacity="1" fill-rule="nonzero"/><path fill="#160059" d="M 70.625 79.410156 L 83.882812 79.410156 L 83.882812 92.648438 L 70.625 92.648438 Z M 70.625 79.410156 " fill-opacity="1" fill-rule="nonzero"/><path fill="#160059" d="M 57.371094 92.648438 L 70.625 92.648438 L 70.625 105.882812 L 57.371094 105.882812 Z M 57.371094 92.648438 " fill-opacity="1" fill-rule="nonzero"/><path fill="#160059" d="M 70.625 105.882812 L 83.882812 105.882812 L 83.882812 119.117188 L 70.625 119.117188 Z M 70.625 105.882812 " fill-opacity="1" fill-rule="nonzero"/><path fill="#160059" d="M 83.882812 119.117188 L 97.140625 119.117188 L 97.140625 132.351562 L 83.882812 132.351562 Z M 83.882812 119.117188 " fill-opacity="1" fill-rule="nonzero"/><path fill="#160059" d="M 97.140625 132.351562 L 123.65625 132.351562 L 123.65625 145.589844 L 97.140625 145.589844 Z M 97.140625 132.351562 " fill-opacity="1" fill-rule="nonzero"/><path fill="#160059" d="M 176.683594 132.351562 L 203.199219 132.351562 L 203.199219 145.589844 L 176.683594 145.589844 Z M 176.683594 132.351562 " fill-opacity="1" fill-rule="nonzero"/><path fill="#160059" d="M 203.199219 119.117188 L 216.457031 119.117188 L 216.457031 132.351562 L 203.199219 132.351562 Z M 203.199219 119.117188 " fill-opacity="1" fill-rule="nonzero"/><path fill="#160059" d="M 216.457031 105.882812 L 229.714844 105.882812 L 229.714844 119.117188 L 216.457031 119.117188 Z M 216.457031 105.882812 " fill-opacity="1" fill-rule="nonzero"/><g mask="url(#edb4a5b559)"><g transform="matrix(1, 0, 0, 1, 163, 0)"><g clip-path="url(#7c2ba3975b)"><g clip-path="url(#db26e9bd22)"><path fill="#160059" d="M 0.425781 13.234375 L 26.941406 13.234375 L 26.941406 26.46875 L 0.425781 26.46875 Z M 0.425781 13.234375 " fill-opacity="1" fill-rule="nonzero"/></g><path fill="#160059" d="M 13.683594 0 L 40.199219 0 L 40.199219 13.234375 L 13.683594 13.234375 Z M 13.683594 0 " fill-opacity="1" fill-rule="nonzero"/><path fill="#160059" d="M 79.972656 79.410156 L 79.972656 66.175781 L 66.714844 66.175781 L 66.714844 52.941406 L 53.457031 52.941406 L 53.457031 13.234375 L 40.199219 13.234375 L 40.199219 66.175781 L 53.457031 66.175781 L 53.457031 105.882812 L 79.972656 105.882812 L 79.972656 92.648438 L 66.714844 92.648438 L 66.714844 79.410156 Z M 79.972656 79.410156 " fill-opacity="1" fill-rule="nonzero"/></g></g></g><path fill="#160059" d="M 176.683594 92.648438 L 176.683594 79.410156 L 123.65625 79.410156 L 123.65625 92.648438 L 110.398438 92.648438 L 110.398438 132.351562 L 136.914062 132.351562 L 136.914062 145.589844 L 163.425781 145.589844 L 163.425781 132.351562 L 189.941406 132.351562 L 189.941406 92.648438 Z M 176.683594 92.648438 " fill-opacity="0.2" fill-rule="nonzero"/><path fill="#160059" d="M 123.65625 79.410156 L 136.914062 79.410156 L 136.914062 92.648438 L 123.65625 92.648438 Z M 123.65625 79.410156 " fill-opacity="1" fill-rule="nonzero"/><path fill="#160059" d="M 123.65625 66.175781 L 136.914062 66.175781 L 136.914062 79.410156 L 123.65625 79.410156 Z M 123.65625 66.175781 " fill-opacity="0.5" fill-rule="nonzero"/><path fill="#160059" d="M 110.398438 13.234375 L 123.65625 13.234375 L 123.65625 26.46875 L 110.398438 26.46875 Z M 110.398438 13.234375 " fill-opacity="0.5" fill-rule="nonzero"/><path fill="#160059" d="M 70.625 66.175781 L 83.882812 66.175781 L 83.882812 79.410156 L 70.625 79.410156 Z M 70.625 66.175781 " fill-opacity="0.5" fill-rule="nonzero"/><path fill="#160059" d="M 70.625 92.648438 L 83.882812 92.648438 L 83.882812 105.882812 L 70.625 105.882812 Z M 70.625 92.648438 " fill-opacity="0.5" fill-rule="nonzero"/><path fill="#160059" d="M 83.882812 105.882812 L 97.140625 105.882812 L 97.140625 119.117188 L 83.882812 119.117188 Z M 83.882812 105.882812 " fill-opacity="0.5" fill-rule="nonzero"/><path fill="#160059" d="M 203.199219 105.882812 L 216.457031 105.882812 L 216.457031 119.117188 L 203.199219 119.117188 Z M 203.199219 105.882812 " fill-opacity="0.5" fill-rule="nonzero"/><path fill="#160059" d="M 123.65625 39.707031 L 176.683594 39.707031 L 176.683594 52.941406 L 123.65625 52.941406 Z M 123.65625 39.707031 " fill-opacity="0.2" fill-rule="nonzero"/><path fill="#160059" d="M 136.914062 39.707031 L 163.425781 39.707031 L 163.425781 52.941406 L 136.914062 52.941406 Z M 136.914062 39.707031 " fill-opacity="0.2" fill-rule="nonzero"/><path fill="#160059" d="M 136.914062 158.824219 L 163.425781 158.824219 L 163.425781 172.058594 L 136.914062 172.058594 Z M 136.914062 158.824219 " fill-opacity="0.5" fill-rule="nonzero"/><path fill="#160059" d="M 176.683594 92.648438 L 189.941406 92.648438 L 189.941406 105.882812 L 176.683594 105.882812 Z M 176.683594 92.648438 " fill-opacity="0.2" fill-rule="nonzero"/><path fill="#160059" d="M 163.425781 105.882812 L 176.683594 105.882812 L 176.683594 119.117188 L 163.425781 119.117188 Z M 163.425781 105.882812 " fill-opacity="0.2" fill-rule="nonzero"/><path fill="#160059" d="M 123.65625 105.882812 L 136.914062 105.882812 L 136.914062 119.117188 L 123.65625 119.117188 Z M 123.65625 105.882812 " fill-opacity="0.2" fill-rule="nonzero"/><path fill="#160059" d="M 163.425781 79.410156 L 176.683594 79.410156 L 176.683594 92.648438 L 163.425781 92.648438 Z M 163.425781 79.410156 " fill-opacity="1" fill-rule="nonzero"/><path fill="#160059" d="M 163.425781 66.175781 L 176.683594 66.175781 L 176.683594 79.410156 L 163.425781 79.410156 Z M 163.425781 66.175781 " fill-opacity="0.5" fill-rule="nonzero"/><path fill="#160059" d="M 136.914062 105.882812 L 163.425781 105.882812 L 163.425781 119.117188 L 136.914062 119.117188 Z M 136.914062 105.882812 " fill-opacity="1" fill-rule="nonzero"/><path fill="#a82800" d="M 97.140625 13.234375 L 110.398438 13.234375 L 110.398438 52.941406 L 97.140625 52.941406 Z M 97.140625 13.234375 " fill-opacity="1" fill-rule="nonzero"/><path fill="#a82800" d="M 189.941406 13.234375 L 203.199219 13.234375 L 203.199219 52.941406 L 189.941406 52.941406 Z M 189.941406 13.234375 " fill-opacity="1" fill-rule="nonzero"/><path fill="#160059" d="M 176.683594 0 L 203.199219 0 L 203.199219 13.234375 L 176.683594 13.234375 Z M 176.683594 0 " fill-opacity="1" fill-rule="nonzero"/></svg>