<svg xmlns="http://www.w3.org/2000/svg" xmlns:xlink="http://www.w3.org/1999/xlink" width="500" zoomAndPan="magnify" viewBox="0 0 375 149.999998" height="200" preserveAspectRatio="xMidYMid meet" version="1.0"><defs><g/><clipPath id="f88095487c"><path d="M 0 18.113281 L 267 18.113281 L 267 132.863281 L 0 132.863281 Z M 0 18.113281 " clip-rule="nonzero"/></clipPath><clipPath id="0df8a36ee7"><path d="M 0 18.113281 L 267 18.113281 L 267 132 L 0 132 Z M 0 18.113281 " clip-rule="nonzero"/></clipPath><clipPath id="76c492deb8"><path d="M 0 18.113281 L 267 18.113281 L 267 132.863281 L 0 132.863281 Z M 0 18.113281 " clip-rule="nonzero"/></clipPath><clipPath id="c6c4a33724"><path d="M 145.945312 18.113281 L 374.695312 18.113281 L 374.695312 131.363281 L 145.945312 131.363281 Z M 145.945312 18.113281 " clip-rule="nonzero"/></clipPath><clipPath id="ac004434c4"><path d="M 145.945312 41 L 368 41 L 368 125 L 145.945312 125 Z M 145.945312 41 " clip-rule="nonzero"/></clipPath><clipPath id="964615ac85"><path d="M 145.945312 26 L 353 26 L 353 42 L 145.945312 42 Z M 145.945312 26 " clip-rule="nonzero"/></clipPath><clipPath id="524c0fda07"><path d="M 145.945312 18.113281 L 374.695312 18.113281 L 374.695312 131.363281 L 145.945312 131.363281 Z M 145.945312 18.113281 " clip-rule="nonzero"/></clipPath></defs><g clip-path="url(#f88095487c)"><path fill="#00ed60" d="M 266.308594 41.21875 L 266.308594 40.742188 L 259.621094 40.742188 L 259.621094 34.289062 L 259.355469 34.289062 L 259.355469 33.804688 L 251.875 33.804688 L 251.875 26.589844 L 251.605469 26.589844 L 251.605469 26.109375 L 244.121094 26.109375 L 244.121094 18.894531 L 243.851562 18.894531 L 243.851562 18.417969 L 22.992188 18.417969 L 22.992188 26.109375 L 16.019531 26.109375 L 16.019531 33.582031 L 15.839844 33.582031 L 15.839844 33.804688 L 8.273438 33.804688 L 8.273438 40.742188 L 0.519531 40.742188 L 0.519531 109.261719 L 0.789062 109.261719 L 0.789062 109.742188 L 8.273438 109.742188 L 8.273438 116.949219 L 8.535156 116.949219 L 8.535156 117.429688 L 16.019531 117.429688 L 16.019531 123.886719 L 16.269531 123.886719 L 16.269531 124.371094 L 22.992188 124.371094 L 22.992188 131.59375 L 23.257812 131.59375 L 23.257812 132.070312 L 244.121094 132.070312 L 244.121094 124.371094 L 244.039062 124.371094 L 244.039062 123.886719 L 244.121094 123.886719 L 244.121094 124.371094 L 251.898438 124.371094 L 251.898438 117.445312 L 259.644531 117.445312 L 259.644531 109.769531 L 266.617188 109.769531 L 266.617188 41.21875 Z M 243.851562 117.085938 Z M 251.628906 109.261719 L 251.628906 109.054688 Z M 251.628906 109.261719 " fill-opacity="1" fill-rule="nonzero"/></g><g clip-path="url(#0df8a36ee7)"><path fill="#00ed60" d="M 259.417969 41.214844 L 259.417969 34.292969 L 251.640625 34.292969 L 251.640625 41.578125 L 251.402344 41.578125 L 251.402344 34.292969 L 251.640625 34.292969 L 251.640625 26.625 L 243.863281 26.625 L 243.863281 34.066406 L 243.78125 34.066406 L 243.78125 26.625 L 243.863281 26.625 L 243.863281 18.914062 L 23 18.914062 L 23 26.625 L 16.023438 26.625 L 16.023438 34.066406 L 15.84375 34.066406 L 15.84375 34.292969 L 8.273438 34.292969 L 8.273438 41.214844 L 0.519531 41.214844 L 0.519531 109.664062 L 8.296875 109.664062 L 8.296875 109.460938 L 8.566406 109.460938 L 8.566406 109.664062 L 8.296875 109.664062 L 8.296875 117.355469 L 16.074219 117.355469 L 16.074219 124.277344 L 23 124.277344 L 23 131.96875 L 243.914062 131.96875 L 243.914062 124.277344 L 243.828125 124.277344 L 243.828125 117.480469 L 243.914062 117.480469 L 243.914062 124.277344 L 251.6875 124.277344 L 251.6875 117.355469 L 259.464844 117.355469 L 259.464844 109.664062 L 266.441406 109.664062 L 266.441406 41.214844 Z M 251.394531 117.027344 L 251.394531 110.296875 L 251.636719 110.296875 L 251.636719 117.027344 Z M 258.621094 110.027344 L 251.664062 110.027344 L 251.664062 109.820312 L 258.621094 109.820312 Z M 258.621094 110.027344 " fill-opacity="1" fill-rule="nonzero"/></g><path fill="#ffffff" d="M 76.535156 48.925781 L 84.15625 48.925781 L 84.15625 56.546875 L 76.535156 56.546875 Z M 76.535156 48.925781 " fill-opacity="1" fill-rule="nonzero"/><path fill="#ffffff" d="M 61.308594 48.925781 L 68.929688 48.925781 L 68.929688 56.546875 L 61.308594 56.546875 Z M 61.308594 48.925781 " fill-opacity="1" fill-rule="nonzero"/><path fill="#ffffff" d="M 53.691406 41.308594 L 46.082031 41.308594 L 46.082031 102.226562 L 53.691406 102.226562 L 53.691406 48.917969 L 61.308594 48.917969 L 61.308594 41.308594 Z M 53.691406 41.308594 " fill-opacity="1" fill-rule="nonzero"/><path fill="#ffffff" d="M 84.15625 41.308594 L 84.15625 48.917969 L 91.765625 48.917969 L 91.765625 102.226562 L 99.375 102.226562 L 99.375 41.308594 Z M 84.15625 41.308594 " fill-opacity="1" fill-rule="nonzero"/><path fill="#ffffff" d="M 68.929688 64.148438 L 68.929688 71.761719 L 76.535156 71.761719 L 76.535156 56.546875 L 68.929688 56.546875 Z M 68.929688 64.148438 " fill-opacity="1" fill-rule="nonzero"/><path fill="#ffffff" d="M 205.976562 94.613281 L 198.367188 94.613281 L 198.367188 102.226562 L 221.210938 102.226562 L 221.210938 94.613281 Z M 205.976562 94.613281 " fill-opacity="1" fill-rule="nonzero"/><path fill="#ffffff" d="M 221.210938 41.308594 L 221.210938 94.613281 L 228.820312 94.613281 L 228.820312 41.308594 Z M 221.210938 41.308594 " fill-opacity="1" fill-rule="nonzero"/><path fill="#ffffff" d="M 122.226562 41.308594 L 106.996094 41.308594 L 106.996094 102.226562 L 137.449219 102.226562 L 137.449219 94.613281 L 114.605469 94.613281 L 114.605469 71.761719 L 129.839844 71.761719 L 129.839844 64.148438 L 114.605469 64.148438 L 114.605469 48.917969 L 137.449219 48.917969 L 137.449219 41.308594 Z M 122.226562 41.308594 " fill-opacity="1" fill-rule="nonzero"/><path fill="#ffffff" d="M 198.367188 79.382812 L 198.367188 41.308594 L 190.753906 41.308594 L 190.753906 94.613281 L 198.367188 94.613281 Z M 198.367188 79.382812 " fill-opacity="1" fill-rule="nonzero"/><path fill="#ffffff" d="M 175.523438 48.917969 L 175.523438 64.148438 L 167.90625 64.148438 L 167.90625 56.546875 L 160.289062 56.546875 L 160.289062 48.917969 L 152.679688 48.917969 L 152.679688 41.308594 L 145.070312 41.308594 L 145.070312 102.226562 L 152.679688 102.226562 L 152.679688 64.148438 L 160.289062 64.148438 L 160.289062 71.761719 L 167.90625 71.761719 L 167.90625 79.382812 L 175.523438 79.382812 L 175.523438 102.226562 L 183.136719 102.226562 L 183.136719 41.308594 L 175.523438 41.308594 Z M 175.523438 48.917969 " fill-opacity="1" fill-rule="nonzero"/><path fill="#00db4e" d="M 175.640625 56.546875 L 175.640625 41.191406 L 167.789062 41.191406 L 167.789062 64.269531 L 175.640625 64.269531 Z M 175.640625 56.546875 " fill-opacity="1" fill-rule="nonzero"/><path fill="#00db4e" d="M 160.167969 79.503906 L 167.789062 79.503906 L 167.789062 102.347656 L 175.640625 102.347656 L 175.640625 79.265625 L 168.027344 79.265625 L 168.027344 71.644531 L 160.40625 71.644531 L 160.40625 64.027344 L 152.558594 64.027344 L 152.558594 71.882812 L 160.167969 71.882812 Z M 160.167969 79.503906 " fill-opacity="1" fill-rule="nonzero"/><path fill="#00db4e" d="M 221.332031 86.992188 L 221.332031 41.191406 L 213.472656 41.191406 L 213.472656 94.734375 L 221.332031 94.734375 Z M 221.332031 86.992188 " fill-opacity="1" fill-rule="nonzero"/><path fill="#00db4e" d="M 145.1875 94.613281 L 145.1875 41.191406 L 137.328125 41.191406 L 137.328125 102.347656 L 145.1875 102.347656 Z M 145.1875 94.613281 " fill-opacity="1" fill-rule="nonzero"/><path fill="#00db4e" d="M 190.632812 102.347656 L 198.488281 102.347656 L 198.488281 94.492188 L 190.871094 94.492188 L 190.871094 41.191406 L 183.019531 41.191406 L 183.019531 94.734375 L 190.632812 94.734375 Z M 190.632812 102.347656 " fill-opacity="1" fill-rule="nonzero"/><path fill="#00db4e" d="M 46.203125 94.613281 L 46.203125 41.191406 L 38.347656 41.191406 L 38.347656 102.347656 L 46.203125 102.347656 Z M 46.203125 94.613281 " fill-opacity="1" fill-rule="nonzero"/><path fill="#00db4e" d="M 252.082031 41.585938 L 252.082031 41.191406 L 251.597656 41.191406 L 251.597656 109.710938 L 243.988281 109.710938 L 243.988281 117.332031 L 23.390625 117.332031 L 23.390625 124.917969 L 244.230469 124.917969 L 244.230469 117.734375 L 244.332031 117.734375 L 244.332031 117.308594 L 253.722656 117.308594 L 253.722656 111.152344 L 259.070312 111.152344 L 259.070312 41.585938 Z M 252.082031 41.585938 " fill-opacity="1" fill-rule="nonzero"/><path fill="#00db4e" d="M 61.1875 64.148438 L 61.1875 71.882812 L 69.046875 71.882812 L 69.046875 56.421875 L 61.425781 56.421875 L 61.425781 48.804688 L 53.574219 48.804688 L 53.574219 56.664062 L 61.1875 56.664062 Z M 61.1875 64.148438 " fill-opacity="1" fill-rule="nonzero"/><path fill="#00db4e" d="M 91.886719 94.613281 L 91.886719 48.804688 L 84.039062 48.804688 L 84.039062 102.347656 L 91.886719 102.347656 Z M 91.886719 94.613281 " fill-opacity="1" fill-rule="nonzero"/><path fill="#00db4e" d="M 107.117188 94.613281 L 107.117188 41.191406 L 99.253906 41.191406 L 99.253906 102.347656 L 107.117188 102.347656 Z M 107.117188 94.613281 " fill-opacity="1" fill-rule="nonzero"/><path fill="#a8d67c" d="M 8.035156 48.691406 L 8.035156 48.917969 L 15.625 48.917969 L 15.625 41.699219 L 8.035156 41.699219 Z M 8.035156 48.691406 " fill-opacity="1" fill-rule="nonzero"/><path fill="#a8d67c" d="M 236.519531 26.164062 L 23.582031 26.164062 L 23.582031 33.929688 L 15.804688 33.929688 L 15.804688 41.308594 L 30.859375 41.308594 L 30.859375 33.703125 L 244.144531 33.703125 L 244.144531 26.164062 Z M 236.519531 26.164062 " fill-opacity="1" fill-rule="nonzero"/><path fill="#a8d67c" d="M 244.222656 33.929688 L 244.222656 33.703125 L 244.144531 33.703125 L 244.144531 41.308594 L 251.753906 41.308594 L 251.753906 33.929688 Z M 244.222656 33.929688 " fill-opacity="1" fill-rule="nonzero"/><g clip-path="url(#76c492deb8)"><path fill="#3d3b52" d="M 259.945312 40.652344 L 259.945312 33.660156 L 252.167969 33.660156 L 252.167969 25.882812 L 244.390625 25.882812 L 244.390625 18.128906 L 22.519531 18.128906 L 22.519531 25.90625 L 15.535156 25.90625 L 15.535156 33.683594 L 7.757812 33.683594 L 7.757812 40.652344 L 0 40.652344 L 0 110.316406 L 7.777344 110.316406 L 7.777344 118.09375 L 15.550781 118.09375 L 15.550781 125.078125 L 22.519531 125.078125 L 22.519531 132.855469 L 244.410156 132.855469 L 244.410156 125.078125 L 252.183594 125.078125 L 252.183594 118.078125 L 259.960938 118.078125 L 259.960938 110.304688 L 266.90625 110.304688 L 266.90625 40.652344 Z M 258.621094 48.691406 L 258.621094 109.769531 L 251.636719 109.769531 L 251.636719 116.769531 L 243.859375 116.769531 L 243.859375 124.546875 L 23.835938 124.546875 L 23.835938 116.769531 L 16.0625 116.769531 L 16.0625 109.769531 L 8.285156 109.769531 L 8.285156 41.96875 L 16.0625 41.96875 L 16.0625 34.191406 L 23.835938 34.191406 L 23.835938 26.414062 L 243.871094 26.414062 L 243.871094 34.191406 L 251.648438 34.191406 L 251.648438 41.96875 L 258.632812 41.96875 Z M 258.621094 48.691406 " fill-opacity="1" fill-rule="nonzero"/></g><g clip-path="url(#c6c4a33724)"><path fill="#00ed60" d="M 374.402344 41.175781 L 374.402344 40.699219 L 367.726562 40.699219 L 367.726562 34.253906 L 367.464844 34.253906 L 367.464844 33.773438 L 359.996094 33.773438 L 359.996094 26.570312 L 359.726562 26.570312 L 359.726562 26.09375 L 352.257812 26.09375 L 352.257812 18.894531 L 351.988281 18.894531 L 351.988281 18.417969 L 131.558594 18.417969 L 131.558594 26.09375 L 124.597656 26.09375 L 124.597656 33.550781 L 124.417969 33.550781 L 124.417969 33.773438 L 116.867188 33.773438 L 116.867188 40.699219 L 109.128906 40.699219 L 109.128906 109.085938 L 109.398438 109.085938 L 109.398438 109.5625 L 116.867188 109.5625 L 116.867188 116.757812 L 117.128906 116.757812 L 117.128906 117.234375 L 124.597656 117.234375 L 124.597656 123.683594 L 124.847656 123.683594 L 124.847656 124.167969 L 131.558594 124.167969 L 131.558594 131.371094 L 131.820312 131.371094 L 131.820312 131.851562 L 352.257812 131.851562 L 352.257812 124.167969 L 352.175781 124.167969 L 352.175781 123.683594 L 352.257812 123.683594 L 352.257812 124.167969 L 360.019531 124.167969 L 360.019531 117.253906 L 367.75 117.253906 L 367.75 109.59375 L 374.710938 109.59375 L 374.710938 41.175781 Z M 351.988281 116.894531 Z M 359.75 109.085938 L 359.75 108.878906 Z M 359.75 109.085938 " fill-opacity="1" fill-rule="nonzero"/><path fill="#00ed60" d="M 367.523438 41.167969 L 367.523438 34.261719 L 359.761719 34.261719 L 359.761719 41.535156 L 359.523438 41.535156 L 359.523438 34.261719 L 359.761719 34.261719 L 359.761719 26.609375 L 352.003906 26.609375 L 352.003906 34.035156 L 351.917969 34.035156 L 351.917969 26.609375 L 352.003906 26.609375 L 352.003906 18.914062 L 131.5625 18.914062 L 131.5625 26.609375 L 124.601562 26.609375 L 124.601562 34.035156 L 124.421875 34.035156 L 124.421875 34.261719 L 116.867188 34.261719 L 116.867188 41.167969 L 109.128906 41.167969 L 109.128906 109.484375 L 116.890625 109.484375 L 116.890625 109.285156 L 117.15625 109.285156 L 117.15625 109.484375 L 116.890625 109.484375 L 116.890625 117.164062 L 124.652344 117.164062 L 124.652344 124.070312 L 131.5625 124.070312 L 131.5625 131.75 L 352.050781 131.75 L 352.050781 124.070312 L 351.964844 124.070312 L 351.964844 117.289062 L 352.050781 117.289062 L 352.050781 124.070312 L 359.8125 124.070312 L 359.8125 117.164062 L 367.570312 117.164062 L 367.570312 109.484375 L 374.535156 109.484375 L 374.535156 41.167969 Z M 359.519531 116.835938 L 359.519531 110.117188 L 359.757812 110.117188 L 359.757812 116.835938 Z M 366.730469 109.851562 L 359.785156 109.851562 L 359.785156 109.640625 L 366.730469 109.640625 Z M 366.730469 109.851562 " fill-opacity="1" fill-rule="nonzero"/></g><path fill="#ffffff" d="M 184.996094 48.863281 L 192.601562 48.863281 L 192.601562 56.472656 L 184.996094 56.472656 Z M 184.996094 48.863281 " fill-opacity="1" fill-rule="nonzero"/><path fill="#ffffff" d="M 169.796875 48.863281 L 177.402344 48.863281 L 177.402344 56.472656 L 169.796875 56.472656 Z M 169.796875 48.863281 " fill-opacity="1" fill-rule="nonzero"/><path fill="#ffffff" d="M 162.195312 41.265625 L 154.601562 41.265625 L 154.601562 102.066406 L 162.195312 102.066406 L 162.195312 48.859375 L 169.796875 48.859375 L 169.796875 41.265625 Z M 162.195312 41.265625 " fill-opacity="1" fill-rule="nonzero"/><path fill="#ffffff" d="M 192.601562 41.265625 L 192.601562 48.859375 L 200.199219 48.859375 L 200.199219 102.066406 L 207.792969 102.066406 L 207.792969 41.265625 Z M 192.601562 41.265625 " fill-opacity="1" fill-rule="nonzero"/><path fill="#ffffff" d="M 177.402344 64.058594 L 177.402344 71.660156 L 184.996094 71.660156 L 184.996094 56.472656 L 177.402344 56.472656 Z M 177.402344 64.058594 " fill-opacity="1" fill-rule="nonzero"/><path fill="#ffffff" d="M 314.1875 94.464844 L 306.59375 94.464844 L 306.59375 102.066406 L 329.394531 102.066406 L 329.394531 94.464844 Z M 314.1875 94.464844 " fill-opacity="1" fill-rule="nonzero"/><path fill="#ffffff" d="M 329.394531 41.265625 L 329.394531 94.464844 L 336.988281 94.464844 L 336.988281 41.265625 Z M 329.394531 41.265625 " fill-opacity="1" fill-rule="nonzero"/><path fill="#ffffff" d="M 230.597656 41.265625 L 215.398438 41.265625 L 215.398438 102.066406 L 245.792969 102.066406 L 245.792969 94.464844 L 222.992188 94.464844 L 222.992188 71.660156 L 238.199219 71.660156 L 238.199219 64.058594 L 222.992188 64.058594 L 222.992188 48.859375 L 245.792969 48.859375 L 245.792969 41.265625 Z M 230.597656 41.265625 " fill-opacity="1" fill-rule="nonzero"/><path fill="#ffffff" d="M 306.59375 79.265625 L 306.59375 41.265625 L 298.992188 41.265625 L 298.992188 94.464844 L 306.59375 94.464844 Z M 306.59375 79.265625 " fill-opacity="1" fill-rule="nonzero"/><path fill="#ffffff" d="M 283.792969 48.859375 L 283.792969 64.058594 L 276.191406 64.058594 L 276.191406 56.472656 L 268.585938 56.472656 L 268.585938 48.859375 L 260.992188 48.859375 L 260.992188 41.265625 L 253.398438 41.265625 L 253.398438 102.066406 L 260.992188 102.066406 L 260.992188 64.058594 L 268.585938 64.058594 L 268.585938 71.660156 L 276.191406 71.660156 L 276.191406 79.265625 L 283.792969 79.265625 L 283.792969 102.066406 L 291.390625 102.066406 L 291.390625 41.265625 L 283.792969 41.265625 Z M 283.792969 48.859375 " fill-opacity="1" fill-rule="nonzero"/><path fill="#00db4e" d="M 283.910156 56.472656 L 283.910156 41.144531 L 276.074219 41.144531 L 276.074219 64.179688 L 283.910156 64.179688 Z M 283.910156 56.472656 " fill-opacity="1" fill-rule="nonzero"/><path fill="#00db4e" d="M 268.46875 79.382812 L 276.074219 79.382812 L 276.074219 102.183594 L 283.910156 102.183594 L 283.910156 79.144531 L 276.3125 79.144531 L 276.3125 71.539062 L 268.707031 71.539062 L 268.707031 63.941406 L 260.871094 63.941406 L 260.871094 71.777344 L 268.46875 71.777344 Z M 268.46875 79.382812 " fill-opacity="1" fill-rule="nonzero"/><path fill="#00db4e" d="M 329.511719 86.859375 L 329.511719 41.144531 L 321.667969 41.144531 L 321.667969 94.585938 L 329.511719 94.585938 Z M 329.511719 86.859375 " fill-opacity="1" fill-rule="nonzero"/><path fill="#00db4e" d="M 253.515625 94.464844 L 253.515625 41.144531 L 245.671875 41.144531 L 245.671875 102.183594 L 253.515625 102.183594 Z M 253.515625 94.464844 " fill-opacity="1" fill-rule="nonzero"/><path fill="#00db4e" d="M 298.875 102.183594 L 306.710938 102.183594 L 306.710938 94.347656 L 299.113281 94.347656 L 299.113281 41.144531 L 291.273438 41.144531 L 291.273438 94.585938 L 298.875 94.585938 Z M 298.875 102.183594 " fill-opacity="1" fill-rule="nonzero"/><path fill="#00db4e" d="M 154.722656 94.464844 L 154.722656 41.144531 L 146.882812 41.144531 L 146.882812 102.183594 L 154.722656 102.183594 Z M 154.722656 94.464844 " fill-opacity="1" fill-rule="nonzero"/><g clip-path="url(#ac004434c4)"><path fill="#00db4e" d="M 360.203125 41.539062 L 360.203125 41.144531 L 359.722656 41.144531 L 359.722656 109.535156 L 352.128906 109.535156 L 352.128906 117.140625 L 131.953125 117.140625 L 131.953125 124.710938 L 352.367188 124.710938 L 352.367188 117.539062 L 352.46875 117.539062 L 352.46875 117.117188 L 361.839844 117.117188 L 361.839844 110.972656 L 367.179688 110.972656 L 367.179688 41.539062 Z M 360.203125 41.539062 " fill-opacity="1" fill-rule="nonzero"/></g><path fill="#00db4e" d="M 169.679688 64.058594 L 169.679688 71.777344 L 177.523438 71.777344 L 177.523438 56.34375 L 169.917969 56.34375 L 169.917969 48.746094 L 162.078125 48.746094 L 162.078125 56.589844 L 169.679688 56.589844 Z M 169.679688 64.058594 " fill-opacity="1" fill-rule="nonzero"/><path fill="#00db4e" d="M 200.316406 94.464844 L 200.316406 48.746094 L 192.484375 48.746094 L 192.484375 102.183594 L 200.316406 102.183594 Z M 200.316406 94.464844 " fill-opacity="1" fill-rule="nonzero"/><path fill="#00db4e" d="M 215.515625 94.464844 L 215.515625 41.144531 L 207.671875 41.144531 L 207.671875 102.183594 L 215.515625 102.183594 Z M 215.515625 94.464844 " fill-opacity="1" fill-rule="nonzero"/><g clip-path="url(#964615ac85)"><path fill="#a8d67c" d="M 344.671875 26.148438 L 132.144531 26.148438 L 132.144531 33.898438 L 124.382812 33.898438 L 124.382812 41.265625 L 139.410156 41.265625 L 139.410156 33.671875 L 352.28125 33.671875 L 352.28125 26.148438 Z M 344.671875 26.148438 " fill-opacity="1" fill-rule="nonzero"/></g><path fill="#a8d67c" d="M 352.359375 33.898438 L 352.359375 33.671875 L 352.28125 33.671875 L 352.28125 41.265625 L 359.875 41.265625 L 359.875 33.898438 Z M 352.359375 33.898438 " fill-opacity="1" fill-rule="nonzero"/><g clip-path="url(#524c0fda07)"><path fill="#3d3b52" d="M 368.050781 40.609375 L 368.050781 33.628906 L 360.289062 33.628906 L 360.289062 25.867188 L 352.527344 25.867188 L 352.527344 18.128906 L 131.085938 18.128906 L 131.085938 25.890625 L 124.113281 25.890625 L 124.113281 33.652344 L 116.351562 33.652344 L 116.351562 40.609375 L 108.609375 40.609375 L 108.609375 110.136719 L 116.371094 110.136719 L 116.371094 117.898438 L 124.132812 117.898438 L 124.132812 124.871094 L 131.085938 124.871094 L 131.085938 132.632812 L 352.546875 132.632812 L 352.546875 124.871094 L 360.304688 124.871094 L 360.304688 117.886719 L 368.066406 117.886719 L 368.066406 110.125 L 375 110.125 L 375 40.609375 Z M 366.730469 48.632812 L 366.730469 109.59375 L 359.757812 109.59375 L 359.757812 116.578125 L 351.996094 116.578125 L 351.996094 124.339844 L 132.398438 124.339844 L 132.398438 116.578125 L 124.636719 116.578125 L 124.636719 109.59375 L 116.878906 109.59375 L 116.878906 41.921875 L 124.636719 41.921875 L 124.636719 34.160156 L 132.398438 34.160156 L 132.398438 26.398438 L 352.007812 26.398438 L 352.007812 34.160156 L 359.769531 34.160156 L 359.769531 41.921875 L 366.742188 41.921875 Z M 366.730469 48.632812 " fill-opacity="1" fill-rule="nonzero"/></g><path stroke-linecap="butt" transform="matrix(0.75, -0.000000000000000093, 0.000000000000000093, 0.75, 37.005298, 74.704874)" fill="none" stroke-linejoin="miter" d="M -0.00185514 22.997669 L 410.58671 22.997669 " stroke="#00ed60" stroke-width="46" stroke-opacity="1" stroke-miterlimit="4"/><path stroke-linecap="butt" transform="matrix(0.75, -0.000000000000000093, 0.000000000000000093, 0.75, 37.005298, 41.090661)" fill="none" stroke-linejoin="miter" d="M -0.00185514 22.998911 L 410.58671 22.998911 " stroke="#00ed60" stroke-width="46" stroke-opacity="1" stroke-miterlimit="4"/><g fill="#00db4e" fill-opacity="1"><g transform="translate(25.658047, 93.616871)"><g><path d="M 4.378906 0 L 48.160156 0 L 48.160156 -8.757812 L 13.132812 -8.757812 L 13.132812 -17.511719 L 39.402344 -17.511719 L 39.402344 -26.269531 L 13.132812 -26.269531 L 13.132812 -35.027344 L 48.160156 -35.027344 L 48.160156 -43.78125 L 4.378906 -43.78125 Z M 4.378906 0 "/></g></g></g><g fill="#00db4e" fill-opacity="1"><g transform="translate(78.197095, 93.616871)"><g><path d="M 39.402344 0 L 48.160156 0 L 48.160156 -43.78125 L 39.402344 -43.78125 L 39.402344 -17.511719 L 30.648438 -17.511719 L 30.648438 -8.757812 L 39.402344 -8.757812 Z M 4.378906 0 L 13.132812 0 L 13.132812 -26.269531 L 21.890625 -26.269531 L 21.890625 -35.027344 L 13.132812 -35.027344 L 13.132812 -43.78125 L 4.378906 -43.78125 Z M 21.890625 -17.511719 L 30.648438 -17.511719 L 30.648438 -26.269531 L 21.890625 -26.269531 Z M 21.890625 -17.511719 "/></g></g></g><g fill="#00db4e" fill-opacity="1"><g transform="translate(130.736143, 93.616871)"><g><path d="M 21.890625 0 L 30.648438 0 L 30.648438 -35.027344 L 48.160156 -35.027344 L 48.160156 -43.78125 L 4.378906 -43.78125 L 4.378906 -35.027344 L 21.890625 -35.027344 Z M 21.890625 0 "/></g></g></g><g fill="#00db4e" fill-opacity="1"><g transform="translate(183.275191, 93.616871)"><g><path d="M 4.378906 0 L 13.132812 0 L 13.132812 -8.757812 L 39.402344 -8.757812 L 39.402344 -17.511719 L 13.132812 -17.511719 L 13.132812 -35.027344 L 39.402344 -35.027344 L 39.402344 -43.78125 L 4.378906 -43.78125 Z M 39.402344 0 L 48.160156 0 L 48.160156 -8.757812 L 39.402344 -8.757812 Z M 39.402344 -17.511719 L 48.160156 -17.511719 L 48.160156 -35.027344 L 39.402344 -35.027344 Z M 39.402344 -17.511719 "/></g></g></g><g fill="#00db4e" fill-opacity="1"><g transform="translate(235.814239, 93.616871)"><g><path d="M 4.378906 0 L 13.132812 0 L 13.132812 -8.757812 L 39.402344 -8.757812 L 39.402344 0 L 48.160156 0 L 48.160156 -35.027344 L 39.402344 -35.027344 L 39.402344 -17.511719 L 13.132812 -17.511719 L 13.132812 -35.027344 L 4.378906 -35.027344 Z M 13.132812 -35.027344 L 39.402344 -35.027344 L 39.402344 -43.78125 L 13.132812 -43.78125 Z M 13.132812 -35.027344 "/></g></g></g><g fill="#00db4e" fill-opacity="1"><g transform="translate(288.353287, 93.616871)"><g><path d="M 4.378906 0 L 13.132812 0 L 13.132812 -8.757812 L 39.402344 -8.757812 L 39.402344 -17.511719 L 13.132812 -17.511719 L 13.132812 -35.027344 L 39.402344 -35.027344 L 39.402344 -43.78125 L 4.378906 -43.78125 Z M 39.402344 0 L 48.160156 0 L 48.160156 -8.757812 L 39.402344 -8.757812 Z M 39.402344 -17.511719 L 48.160156 -17.511719 L 48.160156 -35.027344 L 39.402344 -35.027344 Z M 39.402344 -17.511719 "/></g></g></g><g fill="#ffffff" fill-opacity="1"><g transform="translate(32.589196, 93.616871)"><g><path d="M 4.378906 0 L 48.160156 0 L 48.160156 -8.757812 L 13.132812 -8.757812 L 13.132812 -17.511719 L 39.402344 -17.511719 L 39.402344 -26.269531 L 13.132812 -26.269531 L 13.132812 -35.027344 L 48.160156 -35.027344 L 48.160156 -43.78125 L 4.378906 -43.78125 Z M 4.378906 0 "/></g></g></g><g fill="#ffffff" fill-opacity="1"><g transform="translate(85.128244, 93.616871)"><g><path d="M 39.402344 0 L 48.160156 0 L 48.160156 -43.78125 L 39.402344 -43.78125 L 39.402344 -17.511719 L 30.648438 -17.511719 L 30.648438 -8.757812 L 39.402344 -8.757812 Z M 4.378906 0 L 13.132812 0 L 13.132812 -26.269531 L 21.890625 -26.269531 L 21.890625 -35.027344 L 13.132812 -35.027344 L 13.132812 -43.78125 L 4.378906 -43.78125 Z M 21.890625 -17.511719 L 30.648438 -17.511719 L 30.648438 -26.269531 L 21.890625 -26.269531 Z M 21.890625 -17.511719 "/></g></g></g><g fill="#ffffff" fill-opacity="1"><g transform="translate(137.667292, 93.616871)"><g><path d="M 21.890625 0 L 30.648438 0 L 30.648438 -35.027344 L 48.160156 -35.027344 L 48.160156 -43.78125 L 4.378906 -43.78125 L 4.378906 -35.027344 L 21.890625 -35.027344 Z M 21.890625 0 "/></g></g></g><g fill="#ffffff" fill-opacity="1"><g transform="translate(190.20634, 93.616871)"><g><path d="M 4.378906 0 L 13.132812 0 L 13.132812 -8.757812 L 39.402344 -8.757812 L 39.402344 -17.511719 L 13.132812 -17.511719 L 13.132812 -35.027344 L 39.402344 -35.027344 L 39.402344 -43.78125 L 4.378906 -43.78125 Z M 39.402344 0 L 48.160156 0 L 48.160156 -8.757812 L 39.402344 -8.757812 Z M 39.402344 -17.511719 L 48.160156 -17.511719 L 48.160156 -35.027344 L 39.402344 -35.027344 Z M 39.402344 -17.511719 "/></g></g></g><g fill="#ffffff" fill-opacity="1"><g transform="translate(242.745388, 93.616871)"><g><path d="M 4.378906 0 L 13.132812 0 L 13.132812 -8.757812 L 39.402344 -8.757812 L 39.402344 0 L 48.160156 0 L 48.160156 -35.027344 L 39.402344 -35.027344 L 39.402344 -17.511719 L 13.132812 -17.511719 L 13.132812 -35.027344 L 4.378906 -35.027344 Z M 13.132812 -35.027344 L 39.402344 -35.027344 L 39.402344 -43.78125 L 13.132812 -43.78125 Z M 13.132812 -35.027344 "/></g></g></g><g fill="#ffffff" fill-opacity="1"><g transform="translate(295.284436, 93.616871)"><g><path d="M 4.378906 0 L 13.132812 0 L 13.132812 -8.757812 L 39.402344 -8.757812 L 39.402344 -17.511719 L 13.132812 -17.511719 L 13.132812 -35.027344 L 39.402344 -35.027344 L 39.402344 -43.78125 L 4.378906 -43.78125 Z M 39.402344 0 L 48.160156 0 L 48.160156 -8.757812 L 39.402344 -8.757812 Z M 39.402344 -17.511719 L 48.160156 -17.511719 L 48.160156 -35.027344 L 39.402344 -35.027344 Z M 39.402344 -17.511719 "/></g></g></g></svg>