<svg xmlns="http://www.w3.org/2000/svg" xmlns:xlink="http://www.w3.org/1999/xlink" width="1400" zoomAndPan="magnify" viewBox="0 0 1050 37.5" height="50" preserveAspectRatio="xMidYMid meet" version="1.0"><defs><clipPath id="8362cf5dcd"><path d="M 409.8125 7.15625 L 532.675781 7.15625 L 532.675781 36.761719 L 409.8125 36.761719 Z M 409.8125 7.15625 " clip-rule="nonzero"/></clipPath><clipPath id="bde81d3be4"><path d="M 409.8125 7.15625 L 532 7.15625 L 532 36.761719 L 409.8125 36.761719 Z M 409.8125 7.15625 " clip-rule="nonzero"/></clipPath><clipPath id="07f5682fa3"><path d="M 531 30 L 532.675781 30 L 532.675781 34 L 531 34 Z M 531 30 " clip-rule="nonzero"/></clipPath><clipPath id="342704642e"><path d="M 469 7.15625 L 475 7.15625 L 475 9 L 469 9 Z M 469 7.15625 " clip-rule="nonzero"/></clipPath><clipPath id="5bd3cb6990"><path d="M 414.707031 1.125 L 463.554688 1.125 L 463.554688 32.210938 L 414.707031 32.210938 Z M 414.707031 1.125 " clip-rule="nonzero"/></clipPath><clipPath id="7ff086ffd5"><path d="M 420 23 L 453 23 L 453 32.210938 L 420 32.210938 Z M 420 23 " clip-rule="nonzero"/></clipPath><clipPath id="7020af606c"><path d="M 414.707031 15 L 424 15 L 424 30 L 414.707031 30 Z M 414.707031 15 " clip-rule="nonzero"/></clipPath><clipPath id="710d77d3c4"><path d="M 437 1.125 L 441 1.125 L 441 10 L 437 10 Z M 437 1.125 " clip-rule="nonzero"/></clipPath><clipPath id="b1606d0fe0"><path d="M 454 1.125 L 458 1.125 L 458 4 L 454 4 Z M 454 1.125 " clip-rule="nonzero"/></clipPath><clipPath id="d9b634c42a"><path d="M 460 9 L 463.554688 9 L 463.554688 16 L 460 16 Z M 460 9 " clip-rule="nonzero"/></clipPath><clipPath id="377c56995b"><path d="M 517.664062 7.15625 L 640.527344 7.15625 L 640.527344 36.761719 L 517.664062 36.761719 Z M 517.664062 7.15625 " clip-rule="nonzero"/></clipPath><clipPath id="0a4e743550"><path d="M 517.664062 7.15625 L 639 7.15625 L 639 36.761719 L 517.664062 36.761719 Z M 517.664062 7.15625 " clip-rule="nonzero"/></clipPath><clipPath id="deedd5cb49"><path d="M 638 30 L 640.527344 30 L 640.527344 34 L 638 34 Z M 638 30 " clip-rule="nonzero"/></clipPath><clipPath id="6a3392add7"><path d="M 577 7.15625 L 583 7.15625 L 583 9 L 577 9 Z M 577 7.15625 " clip-rule="nonzero"/></clipPath></defs><g clip-path="url(#8362cf5dcd)"><path fill="#bfebf4" d="M 531.015625 30.167969 L 531.015625 28.527344 L 529.355469 28.527344 L 529.355469 26.886719 L 527.695312 26.886719 L 527.695312 25.242188 L 522.714844 25.242188 L 522.714844 26.886719 L 521.054688 26.886719 L 521.054688 28.527344 L 519.394531 28.527344 L 519.394531 26.886719 L 521.054688 26.886719 L 521.054688 23.601562 L 519.394531 23.601562 L 519.394531 21.957031 L 517.734375 21.957031 L 517.734375 20.316406 L 514.414062 20.316406 L 514.414062 21.957031 L 511.089844 21.957031 L 511.089844 20.316406 L 509.429688 20.316406 L 509.429688 18.675781 L 501.128906 18.675781 L 501.128906 20.316406 L 499.46875 20.316406 L 499.46875 21.957031 L 497.808594 21.957031 L 497.808594 23.601562 L 492.828125 23.601562 L 492.828125 25.242188 L 489.507812 25.242188 L 489.507812 23.601562 L 487.847656 23.601562 L 487.847656 20.316406 L 489.507812 20.316406 L 489.507812 17.03125 L 487.847656 17.03125 L 487.847656 15.390625 L 486.1875 15.390625 L 486.1875 13.746094 L 484.527344 13.746094 L 484.527344 12.105469 L 477.886719 12.105469 L 477.886719 10.464844 L 476.226562 10.464844 L 476.226562 8.820312 L 474.566406 8.820312 L 474.566406 7.179688 L 464.601562 7.179688 L 464.601562 8.820312 L 462.941406 8.820312 L 462.941406 10.464844 L 461.28125 10.464844 L 461.28125 13.746094 L 457.960938 13.746094 L 457.960938 15.390625 L 456.300781 15.390625 L 456.300781 17.03125 L 454.640625 17.03125 L 454.640625 18.675781 L 452.980469 18.675781 L 452.980469 21.957031 L 454.640625 21.957031 L 454.640625 23.601562 L 456.300781 23.601562 L 456.300781 25.242188 L 454.640625 25.242188 L 454.640625 28.527344 L 452.980469 28.527344 L 452.980469 26.886719 L 449.660156 26.886719 L 449.660156 25.242188 L 448 25.242188 L 448 21.957031 L 449.660156 21.957031 L 449.660156 18.675781 L 448 18.675781 L 448 15.390625 L 446.339844 15.390625 L 446.339844 13.746094 L 443.019531 13.746094 L 443.019531 12.105469 L 436.378906 12.105469 L 436.378906 13.746094 L 433.058594 13.746094 L 433.058594 15.390625 L 429.738281 15.390625 L 429.738281 17.03125 L 428.078125 17.03125 L 428.078125 18.675781 L 426.417969 18.675781 L 426.417969 20.316406 L 423.097656 20.316406 L 423.097656 21.957031 L 421.4375 21.957031 L 421.4375 23.601562 L 414.792969 23.601562 L 414.792969 25.242188 L 413.132812 25.242188 L 413.132812 26.886719 L 411.472656 26.886719 L 411.472656 31.8125 L 409.8125 31.8125 L 409.8125 35.09375 L 411.472656 35.09375 L 411.472656 36.738281 L 531.015625 36.738281 L 531.015625 35.09375 L 532.675781 35.09375 L 532.675781 30.167969 Z M 531.015625 30.167969 " fill-opacity="1" fill-rule="nonzero"/></g><path fill="#7c9ae0" d="M 433.058594 20.316406 L 431.398438 20.316406 L 431.398438 17.03125 L 433.058594 17.03125 L 433.058594 15.390625 L 429.738281 15.390625 L 429.738281 21.957031 L 431.398438 21.957031 L 431.398438 23.601562 L 433.058594 23.601562 Z M 433.058594 20.316406 " fill-opacity="1" fill-rule="nonzero"/><path fill="#7c9ae0" d="M 433.058594 23.601562 L 434.71875 23.601562 L 434.71875 25.242188 L 433.058594 25.242188 Z M 433.058594 23.601562 " fill-opacity="1" fill-rule="nonzero"/><path fill="#7c9ae0" d="M 434.71875 21.957031 L 438.039062 21.957031 L 438.039062 23.601562 L 434.71875 23.601562 Z M 434.71875 21.957031 " fill-opacity="1" fill-rule="nonzero"/><path fill="#7c9ae0" d="M 438.039062 20.316406 L 441.359375 20.316406 L 441.359375 21.957031 L 438.039062 21.957031 Z M 438.039062 20.316406 " fill-opacity="1" fill-rule="nonzero"/><path fill="#7c9ae0" d="M 441.359375 21.957031 L 443.019531 21.957031 L 443.019531 23.601562 L 441.359375 23.601562 Z M 441.359375 21.957031 " fill-opacity="1" fill-rule="nonzero"/><path fill="#7c9ae0" d="M 421.4375 23.601562 L 423.097656 23.601562 L 423.097656 25.242188 L 421.4375 25.242188 Z M 421.4375 23.601562 " fill-opacity="1" fill-rule="nonzero"/><path fill="#7c9ae0" d="M 419.777344 25.242188 L 421.4375 25.242188 L 421.4375 26.886719 L 419.777344 26.886719 Z M 419.777344 25.242188 " fill-opacity="1" fill-rule="nonzero"/><path fill="#7c9ae0" d="M 418.113281 26.886719 L 419.777344 26.886719 L 419.777344 28.527344 L 418.113281 28.527344 Z M 418.113281 26.886719 " fill-opacity="1" fill-rule="nonzero"/><path fill="#7c9ae0" d="M 419.777344 28.527344 L 421.4375 28.527344 L 421.4375 31.8125 L 419.777344 31.8125 Z M 419.777344 28.527344 " fill-opacity="1" fill-rule="nonzero"/><path fill="#7c9ae0" d="M 424.757812 30.167969 L 426.417969 30.167969 L 426.417969 31.8125 L 424.757812 31.8125 Z M 424.757812 30.167969 " fill-opacity="1" fill-rule="nonzero"/><path fill="#7c9ae0" d="M 426.417969 28.527344 L 428.078125 28.527344 L 428.078125 30.167969 L 426.417969 30.167969 Z M 426.417969 28.527344 " fill-opacity="1" fill-rule="nonzero"/><path fill="#7c9ae0" d="M 433.058594 26.886719 L 433.058594 25.242188 L 431.398438 25.242188 L 431.398438 26.886719 L 428.078125 26.886719 L 428.078125 28.527344 L 433.058594 28.527344 Z M 433.058594 26.886719 " fill-opacity="1" fill-rule="nonzero"/><path fill="#7c9ae0" d="M 433.058594 28.527344 L 434.71875 28.527344 L 434.71875 30.167969 L 433.058594 30.167969 Z M 433.058594 28.527344 " fill-opacity="1" fill-rule="nonzero"/><path fill="#7c9ae0" d="M 434.71875 30.167969 L 436.378906 30.167969 L 436.378906 31.8125 L 434.71875 31.8125 Z M 434.71875 30.167969 " fill-opacity="1" fill-rule="nonzero"/><path fill="#7c9ae0" d="M 441.359375 26.886719 L 444.679688 26.886719 L 444.679688 28.527344 L 441.359375 28.527344 Z M 441.359375 26.886719 " fill-opacity="1" fill-rule="nonzero"/><path fill="#7c9ae0" d="M 444.679688 25.242188 L 449.660156 25.242188 L 449.660156 26.886719 L 444.679688 26.886719 Z M 444.679688 25.242188 " fill-opacity="1" fill-rule="nonzero"/><path fill="#7c9ae0" d="M 452.980469 28.527344 L 454.640625 28.527344 L 454.640625 30.167969 L 452.980469 30.167969 Z M 452.980469 28.527344 " fill-opacity="1" fill-rule="nonzero"/><path fill="#7c9ae0" d="M 464.601562 15.390625 L 466.261719 15.390625 L 466.261719 17.03125 L 464.601562 17.03125 Z M 464.601562 15.390625 " fill-opacity="1" fill-rule="nonzero"/><path fill="#7c9ae0" d="M 413.132812 25.242188 L 414.792969 25.242188 L 414.792969 26.886719 L 413.132812 26.886719 Z M 413.132812 25.242188 " fill-opacity="1" fill-rule="nonzero"/><path fill="#7c9ae0" d="M 414.792969 23.601562 L 418.113281 23.601562 L 418.113281 25.242188 L 414.792969 25.242188 Z M 414.792969 23.601562 " fill-opacity="1" fill-rule="nonzero"/><path fill="#7c9ae0" d="M 474.566406 28.527344 L 476.226562 28.527344 L 476.226562 30.167969 L 474.566406 30.167969 Z M 474.566406 28.527344 " fill-opacity="1" fill-rule="nonzero"/><path fill="#7c9ae0" d="M 469.585938 23.601562 L 471.246094 23.601562 L 471.246094 25.242188 L 469.585938 25.242188 Z M 469.585938 23.601562 " fill-opacity="1" fill-rule="nonzero"/><path fill="#7c9ae0" d="M 467.925781 20.316406 L 469.585938 20.316406 L 469.585938 23.601562 L 467.925781 23.601562 Z M 467.925781 20.316406 " fill-opacity="1" fill-rule="nonzero"/><path fill="#7c9ae0" d="M 469.585938 17.03125 L 471.246094 17.03125 L 471.246094 20.316406 L 469.585938 20.316406 Z M 469.585938 17.03125 " fill-opacity="1" fill-rule="nonzero"/><path fill="#7c9ae0" d="M 471.246094 15.390625 L 472.90625 15.390625 L 472.90625 17.03125 L 471.246094 17.03125 Z M 471.246094 15.390625 " fill-opacity="1" fill-rule="nonzero"/><path fill="#7c9ae0" d="M 472.90625 13.746094 L 476.226562 13.746094 L 476.226562 15.390625 L 472.90625 15.390625 Z M 472.90625 13.746094 " fill-opacity="1" fill-rule="nonzero"/><path fill="#7c9ae0" d="M 476.226562 12.105469 L 479.546875 12.105469 L 479.546875 13.746094 L 476.226562 13.746094 Z M 476.226562 12.105469 " fill-opacity="1" fill-rule="nonzero"/><path fill="#7c9ae0" d="M 472.90625 23.601562 L 474.566406 23.601562 L 474.566406 25.242188 L 472.90625 25.242188 Z M 472.90625 23.601562 " fill-opacity="1" fill-rule="nonzero"/><path fill="#7c9ae0" d="M 474.566406 21.957031 L 476.226562 21.957031 L 476.226562 23.601562 L 474.566406 23.601562 Z M 474.566406 21.957031 " fill-opacity="1" fill-rule="nonzero"/><path fill="#7c9ae0" d="M 476.226562 20.316406 L 481.207031 20.316406 L 481.207031 21.957031 L 476.226562 21.957031 Z M 476.226562 20.316406 " fill-opacity="1" fill-rule="nonzero"/><path fill="#7c9ae0" d="M 481.207031 21.957031 L 482.867188 21.957031 L 482.867188 23.601562 L 481.207031 23.601562 Z M 481.207031 21.957031 " fill-opacity="1" fill-rule="nonzero"/><path fill="#7c9ae0" d="M 482.867188 28.527344 L 484.527344 28.527344 L 484.527344 30.167969 L 482.867188 30.167969 Z M 482.867188 28.527344 " fill-opacity="1" fill-rule="nonzero"/><path fill="#7c9ae0" d="M 484.527344 26.886719 L 487.847656 26.886719 L 487.847656 28.527344 L 484.527344 28.527344 Z M 484.527344 26.886719 " fill-opacity="1" fill-rule="nonzero"/><path fill="#7c9ae0" d="M 487.847656 25.242188 L 491.167969 25.242188 L 491.167969 26.886719 L 487.847656 26.886719 Z M 487.847656 25.242188 " fill-opacity="1" fill-rule="nonzero"/><g clip-path="url(#bde81d3be4)"><path fill="#7c9ae0" d="M 521.054688 35.09375 L 521.054688 33.453125 L 519.394531 33.453125 L 519.394531 30.167969 L 517.734375 30.167969 L 517.734375 35.09375 L 504.449219 35.09375 L 504.449219 33.453125 L 502.789062 33.453125 L 502.789062 30.167969 L 497.808594 30.167969 L 497.808594 31.8125 L 499.46875 31.8125 L 499.46875 33.453125 L 496.148438 33.453125 L 496.148438 35.09375 L 484.527344 35.09375 L 484.527344 33.453125 L 482.867188 33.453125 L 482.867188 30.167969 L 481.207031 30.167969 L 481.207031 31.8125 L 479.546875 31.8125 L 479.546875 33.453125 L 477.886719 33.453125 L 477.886719 35.09375 L 467.925781 35.09375 L 467.925781 33.453125 L 466.261719 33.453125 L 466.261719 31.8125 L 467.925781 31.8125 L 467.925781 30.167969 L 469.585938 30.167969 L 469.585938 28.527344 L 474.566406 28.527344 L 474.566406 26.886719 L 472.90625 26.886719 L 472.90625 25.242188 L 471.246094 25.242188 L 471.246094 26.886719 L 467.925781 26.886719 L 467.925781 28.527344 L 466.261719 28.527344 L 466.261719 30.167969 L 462.941406 30.167969 L 462.941406 26.886719 L 461.28125 26.886719 L 461.28125 21.957031 L 456.300781 21.957031 L 456.300781 18.675781 L 457.960938 18.675781 L 457.960938 17.03125 L 459.621094 17.03125 L 459.621094 15.390625 L 464.601562 15.390625 L 464.601562 10.464844 L 466.261719 10.464844 L 466.261719 8.820312 L 469.585938 8.820312 L 469.585938 7.179688 L 464.601562 7.179688 L 464.601562 8.820312 L 462.941406 8.820312 L 462.941406 10.464844 L 461.28125 10.464844 L 461.28125 13.746094 L 457.960938 13.746094 L 457.960938 15.390625 L 456.300781 15.390625 L 456.300781 17.03125 L 454.640625 17.03125 L 454.640625 18.675781 L 452.980469 18.675781 L 452.980469 21.957031 L 454.640625 21.957031 L 454.640625 23.601562 L 456.300781 23.601562 L 456.300781 25.242188 L 454.640625 25.242188 L 454.640625 28.527344 L 457.960938 28.527344 L 457.960938 26.886719 L 459.621094 26.886719 L 459.621094 30.167969 L 461.28125 30.167969 L 461.28125 33.453125 L 462.941406 33.453125 L 462.941406 35.09375 L 454.640625 35.09375 L 454.640625 33.453125 L 452.980469 33.453125 L 452.980469 30.167969 L 451.320312 30.167969 L 451.320312 31.8125 L 449.660156 31.8125 L 449.660156 35.09375 L 443.019531 35.09375 L 443.019531 33.453125 L 441.359375 33.453125 L 441.359375 28.527344 L 439.699219 28.527344 L 439.699219 31.8125 L 438.039062 31.8125 L 438.039062 35.09375 L 426.417969 35.09375 L 426.417969 33.453125 L 424.757812 33.453125 L 424.757812 31.8125 L 421.4375 31.8125 L 421.4375 33.453125 L 423.097656 33.453125 L 423.097656 35.09375 L 414.792969 35.09375 L 414.792969 33.453125 L 413.132812 33.453125 L 413.132812 31.8125 L 414.792969 31.8125 L 414.792969 30.167969 L 413.132812 30.167969 L 413.132812 26.886719 L 411.472656 26.886719 L 411.472656 31.8125 L 409.8125 31.8125 L 409.8125 35.09375 L 411.472656 35.09375 L 411.472656 36.738281 L 531.015625 36.738281 L 531.015625 35.09375 Z M 521.054688 35.09375 " fill-opacity="1" fill-rule="nonzero"/></g><path fill="#7c9ae0" d="M 433.058594 13.746094 L 434.71875 13.746094 L 434.71875 15.390625 L 433.058594 15.390625 Z M 433.058594 13.746094 " fill-opacity="1" fill-rule="nonzero"/><path fill="#7c9ae0" d="M 499.46875 23.601562 L 499.46875 21.957031 L 497.808594 21.957031 L 497.808594 25.242188 L 499.46875 25.242188 Z M 499.46875 23.601562 " fill-opacity="1" fill-rule="nonzero"/><path fill="#7c9ae0" d="M 496.148438 25.242188 L 497.808594 25.242188 L 497.808594 30.167969 L 496.148438 30.167969 Z M 496.148438 25.242188 " fill-opacity="1" fill-rule="nonzero"/><path fill="#7c9ae0" d="M 502.789062 28.527344 L 504.449219 28.527344 L 504.449219 30.167969 L 502.789062 30.167969 Z M 502.789062 28.527344 " fill-opacity="1" fill-rule="nonzero"/><path fill="#7c9ae0" d="M 509.429688 26.886719 L 509.429688 25.242188 L 507.769531 25.242188 L 507.769531 26.886719 L 504.449219 26.886719 L 504.449219 28.527344 L 509.429688 28.527344 Z M 509.429688 26.886719 " fill-opacity="1" fill-rule="nonzero"/><path fill="#7c9ae0" d="M 509.429688 28.527344 L 511.089844 28.527344 L 511.089844 30.167969 L 509.429688 30.167969 Z M 509.429688 28.527344 " fill-opacity="1" fill-rule="nonzero"/><path fill="#7c9ae0" d="M 519.394531 28.527344 L 521.054688 28.527344 L 521.054688 30.167969 L 519.394531 30.167969 Z M 519.394531 28.527344 " fill-opacity="1" fill-rule="nonzero"/><path fill="#7c9ae0" d="M 509.429688 23.601562 L 511.089844 23.601562 L 511.089844 25.242188 L 509.429688 25.242188 Z M 509.429688 23.601562 " fill-opacity="1" fill-rule="nonzero"/><path fill="#7c9ae0" d="M 511.089844 21.957031 L 514.414062 21.957031 L 514.414062 23.601562 L 511.089844 23.601562 Z M 511.089844 21.957031 " fill-opacity="1" fill-rule="nonzero"/><path fill="#7c9ae0" d="M 499.46875 20.316406 L 501.128906 20.316406 L 501.128906 21.957031 L 499.46875 21.957031 Z M 499.46875 20.316406 " fill-opacity="1" fill-rule="nonzero"/><path fill="#d8bbff" d="M 434.71875 13.746094 L 436.378906 13.746094 L 436.378906 15.390625 L 434.71875 15.390625 Z M 434.71875 13.746094 " fill-opacity="1" fill-rule="nonzero"/><path fill="#d8bbff" d="M 438.039062 21.957031 L 438.039062 20.316406 L 436.378906 20.316406 L 436.378906 18.675781 L 434.71875 18.675781 L 434.71875 15.390625 L 433.058594 15.390625 L 433.058594 17.03125 L 431.398438 17.03125 L 431.398438 20.316406 L 433.058594 20.316406 L 433.058594 23.601562 L 434.71875 23.601562 L 434.71875 21.957031 Z M 438.039062 21.957031 " fill-opacity="1" fill-rule="nonzero"/><path fill="#d8bbff" d="M 438.039062 18.675781 L 441.359375 18.675781 L 441.359375 20.316406 L 438.039062 20.316406 Z M 438.039062 18.675781 " fill-opacity="1" fill-rule="nonzero"/><path fill="#d8bbff" d="M 433.058594 25.242188 L 434.71875 25.242188 L 434.71875 28.527344 L 433.058594 28.527344 Z M 433.058594 25.242188 " fill-opacity="1" fill-rule="nonzero"/><path fill="#d8bbff" d="M 434.71875 23.601562 L 438.039062 23.601562 L 438.039062 25.242188 L 434.71875 25.242188 Z M 434.71875 23.601562 " fill-opacity="1" fill-rule="nonzero"/><path fill="#d8bbff" d="M 434.71875 28.527344 L 434.71875 30.167969 L 436.378906 30.167969 L 436.378906 31.8125 L 439.699219 31.8125 L 439.699219 28.527344 Z M 434.71875 28.527344 " fill-opacity="1" fill-rule="nonzero"/><path fill="#d8bbff" d="M 439.699219 26.886719 L 441.359375 26.886719 L 441.359375 28.527344 L 439.699219 28.527344 Z M 439.699219 26.886719 " fill-opacity="1" fill-rule="nonzero"/><path fill="#d8bbff" d="M 428.078125 31.8125 L 429.738281 31.8125 L 429.738281 30.167969 L 431.398438 30.167969 L 431.398438 28.527344 L 428.078125 28.527344 L 428.078125 30.167969 L 426.417969 30.167969 L 426.417969 31.8125 L 424.757812 31.8125 L 424.757812 33.453125 L 426.417969 33.453125 L 426.417969 35.09375 L 438.039062 35.09375 L 438.039062 33.453125 L 428.078125 33.453125 Z M 428.078125 31.8125 " fill-opacity="1" fill-rule="nonzero"/><path fill="#d8bbff" d="M 443.019531 33.453125 L 449.660156 33.453125 L 449.660156 35.09375 L 443.019531 35.09375 Z M 443.019531 33.453125 " fill-opacity="1" fill-rule="nonzero"/><path fill="#d8bbff" d="M 467.925781 33.453125 L 477.886719 33.453125 L 477.886719 35.09375 L 467.925781 35.09375 Z M 467.925781 33.453125 " fill-opacity="1" fill-rule="nonzero"/><path fill="#d8bbff" d="M 413.132812 31.8125 L 413.132812 33.453125 L 414.792969 33.453125 L 414.792969 35.09375 L 423.097656 35.09375 L 423.097656 33.453125 L 416.453125 33.453125 L 416.453125 30.167969 L 414.792969 30.167969 L 414.792969 31.8125 Z M 413.132812 31.8125 " fill-opacity="1" fill-rule="nonzero"/><path fill="#d8bbff" d="M 413.132812 26.886719 L 414.792969 26.886719 L 414.792969 30.167969 L 413.132812 30.167969 Z M 413.132812 26.886719 " fill-opacity="1" fill-rule="nonzero"/><path fill="#d8bbff" d="M 414.792969 25.242188 L 418.113281 25.242188 L 418.113281 26.886719 L 414.792969 26.886719 Z M 414.792969 25.242188 " fill-opacity="1" fill-rule="nonzero"/><path fill="#d8bbff" d="M 418.113281 23.601562 L 421.4375 23.601562 L 421.4375 25.242188 L 418.113281 25.242188 Z M 418.113281 23.601562 " fill-opacity="1" fill-rule="nonzero"/><path fill="#d8bbff" d="M 459.621094 15.390625 L 464.601562 15.390625 L 464.601562 17.03125 L 459.621094 17.03125 Z M 459.621094 15.390625 " fill-opacity="1" fill-rule="nonzero"/><path fill="#d8bbff" d="M 459.621094 20.316406 L 459.621094 17.03125 L 457.960938 17.03125 L 457.960938 18.675781 L 456.300781 18.675781 L 456.300781 21.957031 L 461.28125 21.957031 L 461.28125 20.316406 Z M 459.621094 20.316406 " fill-opacity="1" fill-rule="nonzero"/><path fill="#d8bbff" d="M 464.601562 25.242188 L 462.941406 25.242188 L 462.941406 21.957031 L 461.28125 21.957031 L 461.28125 26.886719 L 462.941406 26.886719 L 462.941406 30.167969 L 466.261719 30.167969 L 466.261719 28.527344 L 464.601562 28.527344 Z M 464.601562 25.242188 " fill-opacity="1" fill-rule="nonzero"/><path fill="#d8bbff" d="M 466.261719 26.886719 L 467.925781 26.886719 L 467.925781 28.527344 L 466.261719 28.527344 Z M 466.261719 26.886719 " fill-opacity="1" fill-rule="nonzero"/><path fill="#d8bbff" d="M 441.359375 28.527344 L 441.359375 33.453125 L 443.019531 33.453125 L 443.019531 30.167969 L 444.679688 30.167969 L 444.679688 28.527344 Z M 441.359375 28.527344 " fill-opacity="1" fill-rule="nonzero"/><path fill="#d8bbff" d="M 444.679688 26.886719 L 449.660156 26.886719 L 449.660156 28.527344 L 444.679688 28.527344 Z M 444.679688 26.886719 " fill-opacity="1" fill-rule="nonzero"/><path fill="#d8bbff" d="M 464.601562 23.601562 L 466.261719 23.601562 L 466.261719 25.242188 L 464.601562 25.242188 Z M 464.601562 23.601562 " fill-opacity="1" fill-rule="nonzero"/><path fill="#d8bbff" d="M 456.300781 31.8125 L 454.640625 31.8125 L 454.640625 35.09375 L 462.941406 35.09375 L 462.941406 33.453125 L 456.300781 33.453125 Z M 456.300781 31.8125 " fill-opacity="1" fill-rule="nonzero"/><path fill="#d8bbff" d="M 448 30.167969 L 449.660156 30.167969 L 449.660156 31.8125 L 448 31.8125 Z M 448 30.167969 " fill-opacity="1" fill-rule="nonzero"/><path fill="#d8bbff" d="M 441.359375 17.03125 L 443.019531 17.03125 L 443.019531 18.675781 L 441.359375 18.675781 Z M 441.359375 17.03125 " fill-opacity="1" fill-rule="nonzero"/><path fill="#d8bbff" d="M 443.019531 20.316406 L 444.679688 20.316406 L 444.679688 21.957031 L 443.019531 21.957031 Z M 443.019531 20.316406 " fill-opacity="1" fill-rule="nonzero"/><path fill="#d8bbff" d="M 441.359375 25.242188 L 443.019531 25.242188 L 443.019531 26.886719 L 441.359375 26.886719 Z M 441.359375 25.242188 " fill-opacity="1" fill-rule="nonzero"/><path fill="#d8bbff" d="M 426.417969 30.167969 L 426.417969 28.527344 L 423.097656 28.527344 L 423.097656 25.242188 L 421.4375 25.242188 L 421.4375 26.886719 L 419.777344 26.886719 L 419.777344 28.527344 L 421.4375 28.527344 L 421.4375 31.8125 L 424.757812 31.8125 L 424.757812 30.167969 Z M 426.417969 30.167969 " fill-opacity="1" fill-rule="nonzero"/><path fill="#d8bbff" d="M 426.417969 26.886719 L 428.078125 26.886719 L 428.078125 28.527344 L 426.417969 28.527344 Z M 426.417969 26.886719 " fill-opacity="1" fill-rule="nonzero"/><path fill="#d8bbff" d="M 469.585938 20.316406 L 471.246094 20.316406 L 471.246094 23.601562 L 469.585938 23.601562 Z M 469.585938 20.316406 " fill-opacity="1" fill-rule="nonzero"/><path fill="#d8bbff" d="M 471.246094 23.601562 L 472.90625 23.601562 L 472.90625 25.242188 L 471.246094 25.242188 Z M 471.246094 23.601562 " fill-opacity="1" fill-rule="nonzero"/><path fill="#d8bbff" d="M 486.1875 31.8125 L 486.1875 30.167969 L 487.847656 30.167969 L 487.847656 28.527344 L 484.527344 28.527344 L 484.527344 30.167969 L 482.867188 30.167969 L 482.867188 33.453125 L 484.527344 33.453125 L 484.527344 31.8125 Z M 486.1875 31.8125 " fill-opacity="1" fill-rule="nonzero"/><path fill="#d8bbff" d="M 496.148438 31.8125 L 496.148438 33.453125 L 499.46875 33.453125 L 499.46875 31.8125 L 497.808594 31.8125 L 497.808594 30.167969 L 496.148438 30.167969 Z M 496.148438 31.8125 " fill-opacity="1" fill-rule="nonzero"/><path fill="#d8bbff" d="M 487.847656 31.8125 L 486.1875 31.8125 L 486.1875 33.453125 L 484.527344 33.453125 L 484.527344 35.09375 L 496.148438 35.09375 L 496.148438 33.453125 L 487.847656 33.453125 Z M 487.847656 31.8125 " fill-opacity="1" fill-rule="nonzero"/><path fill="#d8bbff" d="M 469.585938 30.167969 L 471.246094 30.167969 L 471.246094 31.8125 L 469.585938 31.8125 Z M 469.585938 30.167969 " fill-opacity="1" fill-rule="nonzero"/><path fill="#d8bbff" d="M 472.90625 25.242188 L 474.566406 25.242188 L 474.566406 26.886719 L 472.90625 26.886719 Z M 472.90625 25.242188 " fill-opacity="1" fill-rule="nonzero"/><path fill="#d8bbff" d="M 474.566406 26.886719 L 476.226562 26.886719 L 476.226562 28.527344 L 474.566406 28.527344 Z M 474.566406 26.886719 " fill-opacity="1" fill-rule="nonzero"/><path fill="#d8bbff" d="M 474.566406 23.601562 L 476.226562 23.601562 L 476.226562 25.242188 L 474.566406 25.242188 Z M 474.566406 23.601562 " fill-opacity="1" fill-rule="nonzero"/><path fill="#d8bbff" d="M 501.128906 18.675781 L 502.789062 18.675781 L 502.789062 21.957031 L 501.128906 21.957031 Z M 501.128906 18.675781 " fill-opacity="1" fill-rule="nonzero"/><path fill="#d8bbff" d="M 499.46875 21.957031 L 501.128906 21.957031 L 501.128906 25.242188 L 499.46875 25.242188 Z M 499.46875 21.957031 " fill-opacity="1" fill-rule="nonzero"/><path fill="#d8bbff" d="M 499.46875 28.527344 L 499.46875 25.242188 L 497.808594 25.242188 L 497.808594 30.167969 L 502.789062 30.167969 L 502.789062 28.527344 Z M 499.46875 28.527344 " fill-opacity="1" fill-rule="nonzero"/><path fill="#d8bbff" d="M 502.789062 26.886719 L 504.449219 26.886719 L 504.449219 28.527344 L 502.789062 28.527344 Z M 502.789062 26.886719 " fill-opacity="1" fill-rule="nonzero"/><path fill="#d8bbff" d="M 504.449219 25.242188 L 507.769531 25.242188 L 507.769531 26.886719 L 504.449219 26.886719 Z M 504.449219 25.242188 " fill-opacity="1" fill-rule="nonzero"/><path fill="#d8bbff" d="M 502.789062 30.167969 L 504.449219 30.167969 L 504.449219 33.453125 L 502.789062 33.453125 Z M 502.789062 30.167969 " fill-opacity="1" fill-rule="nonzero"/><path fill="#d8bbff" d="M 502.789062 23.601562 L 504.449219 23.601562 L 504.449219 25.242188 L 502.789062 25.242188 Z M 502.789062 23.601562 " fill-opacity="1" fill-rule="nonzero"/><path fill="#d8bbff" d="M 507.769531 23.601562 L 509.429688 23.601562 L 509.429688 25.242188 L 507.769531 25.242188 Z M 507.769531 23.601562 " fill-opacity="1" fill-rule="nonzero"/><path fill="#d8bbff" d="M 494.488281 25.242188 L 496.148438 25.242188 L 496.148438 26.886719 L 494.488281 26.886719 Z M 494.488281 25.242188 " fill-opacity="1" fill-rule="nonzero"/><path fill="#d8bbff" d="M 516.074219 33.453125 L 504.449219 33.453125 L 504.449219 35.09375 L 517.734375 35.09375 L 517.734375 30.167969 L 516.074219 30.167969 Z M 516.074219 33.453125 " fill-opacity="1" fill-rule="nonzero"/><path fill="#d8bbff" d="M 514.414062 28.527344 L 516.074219 28.527344 L 516.074219 30.167969 L 514.414062 30.167969 Z M 514.414062 28.527344 " fill-opacity="1" fill-rule="nonzero"/><path fill="#d8bbff" d="M 522.714844 28.527344 L 521.054688 28.527344 L 521.054688 30.167969 L 519.394531 30.167969 L 519.394531 33.453125 L 521.054688 33.453125 L 521.054688 35.09375 L 531.015625 35.09375 L 531.015625 33.453125 L 522.714844 33.453125 Z M 522.714844 28.527344 " fill-opacity="1" fill-rule="nonzero"/><g clip-path="url(#07f5682fa3)"><path fill="#d8bbff" d="M 531.015625 30.167969 L 532.675781 30.167969 L 532.675781 33.453125 L 531.015625 33.453125 Z M 531.015625 30.167969 " fill-opacity="1" fill-rule="nonzero"/></g><path fill="#d8bbff" d="M 464.601562 10.464844 L 466.261719 10.464844 L 466.261719 15.390625 L 464.601562 15.390625 Z M 464.601562 10.464844 " fill-opacity="1" fill-rule="nonzero"/><path fill="#d8bbff" d="M 466.261719 8.820312 L 469.585938 8.820312 L 469.585938 10.464844 L 466.261719 10.464844 Z M 466.261719 8.820312 " fill-opacity="1" fill-rule="nonzero"/><path fill="#d8bbff" d="M 471.246094 17.03125 L 472.90625 17.03125 L 472.90625 20.316406 L 471.246094 20.316406 Z M 471.246094 17.03125 " fill-opacity="1" fill-rule="nonzero"/><path fill="#d8bbff" d="M 472.90625 15.390625 L 474.566406 15.390625 L 474.566406 17.03125 L 472.90625 17.03125 Z M 472.90625 15.390625 " fill-opacity="1" fill-rule="nonzero"/><path fill="#d8bbff" d="M 476.226562 13.746094 L 477.886719 13.746094 L 477.886719 15.390625 L 476.226562 15.390625 Z M 476.226562 13.746094 " fill-opacity="1" fill-rule="nonzero"/><path fill="#d8bbff" d="M 426.417969 18.675781 L 428.078125 18.675781 L 428.078125 20.316406 L 426.417969 20.316406 Z M 426.417969 18.675781 " fill-opacity="1" fill-rule="nonzero"/><path fill="#d8bbff" d="M 421.4375 21.957031 L 423.097656 21.957031 L 423.097656 23.601562 L 421.4375 23.601562 Z M 421.4375 21.957031 " fill-opacity="1" fill-rule="nonzero"/><path fill="#d8bbff" d="M 423.097656 20.316406 L 426.417969 20.316406 L 426.417969 21.957031 L 423.097656 21.957031 Z M 423.097656 20.316406 " fill-opacity="1" fill-rule="nonzero"/><path fill="#f2fcfc" d="M 446.339844 15.390625 L 446.339844 13.746094 L 443.019531 13.746094 L 443.019531 12.105469 L 436.378906 12.105469 L 436.378906 13.746094 L 441.359375 13.746094 L 441.359375 15.390625 L 444.679688 15.390625 L 444.679688 17.03125 L 446.339844 17.03125 L 446.339844 18.675781 L 448 18.675781 L 448 15.390625 Z M 446.339844 15.390625 " fill-opacity="1" fill-rule="nonzero"/><path fill="#f2fcfc" d="M 448 18.675781 L 449.660156 18.675781 L 449.660156 21.957031 L 448 21.957031 Z M 448 18.675781 " fill-opacity="1" fill-rule="nonzero"/><path fill="#f2fcfc" d="M 446.339844 21.957031 L 448 21.957031 L 448 25.242188 L 446.339844 25.242188 Z M 446.339844 21.957031 " fill-opacity="1" fill-rule="nonzero"/><path fill="#f2fcfc" d="M 431.398438 25.242188 L 433.058594 25.242188 L 433.058594 23.601562 L 431.398438 23.601562 L 431.398438 21.957031 L 429.738281 21.957031 L 429.738281 25.242188 L 428.078125 25.242188 L 428.078125 26.886719 L 431.398438 26.886719 Z M 431.398438 25.242188 " fill-opacity="1" fill-rule="nonzero"/><path fill="#f2fcfc" d="M 438.039062 21.957031 L 441.359375 21.957031 L 441.359375 23.601562 L 438.039062 23.601562 Z M 438.039062 21.957031 " fill-opacity="1" fill-rule="nonzero"/><path fill="#f2fcfc" d="M 449.660156 26.886719 L 452.980469 26.886719 L 452.980469 28.527344 L 449.660156 28.527344 Z M 449.660156 26.886719 " fill-opacity="1" fill-rule="nonzero"/><path fill="#f2fcfc" d="M 457.960938 26.886719 L 459.621094 26.886719 L 459.621094 28.527344 L 457.960938 28.527344 Z M 457.960938 26.886719 " fill-opacity="1" fill-rule="nonzero"/><path fill="#f2fcfc" d="M 454.640625 28.527344 L 457.960938 28.527344 L 457.960938 30.167969 L 454.640625 30.167969 Z M 454.640625 28.527344 " fill-opacity="1" fill-rule="nonzero"/><path fill="#f2fcfc" d="M 444.679688 20.316406 L 446.339844 20.316406 L 446.339844 21.957031 L 444.679688 21.957031 Z M 444.679688 20.316406 " fill-opacity="1" fill-rule="nonzero"/><path fill="#f2fcfc" d="M 439.699219 15.390625 L 441.359375 15.390625 L 441.359375 17.03125 L 439.699219 17.03125 Z M 439.699219 15.390625 " fill-opacity="1" fill-rule="nonzero"/><path fill="#f2fcfc" d="M 474.566406 8.820312 L 476.226562 8.820312 L 476.226562 10.464844 L 474.566406 10.464844 Z M 474.566406 8.820312 " fill-opacity="1" fill-rule="nonzero"/><path fill="#f2fcfc" d="M 476.226562 10.464844 L 477.886719 10.464844 L 477.886719 12.105469 L 476.226562 12.105469 Z M 476.226562 10.464844 " fill-opacity="1" fill-rule="nonzero"/><path fill="#f2fcfc" d="M 474.566406 12.105469 L 476.226562 12.105469 L 476.226562 13.746094 L 474.566406 13.746094 Z M 474.566406 12.105469 " fill-opacity="1" fill-rule="nonzero"/><g clip-path="url(#342704642e)"><path fill="#f2fcfc" d="M 469.585938 7.179688 L 474.566406 7.179688 L 474.566406 8.820312 L 469.585938 8.820312 Z M 469.585938 7.179688 " fill-opacity="1" fill-rule="nonzero"/></g><path fill="#f2fcfc" d="M 479.546875 12.105469 L 484.527344 12.105469 L 484.527344 13.746094 L 479.546875 13.746094 Z M 479.546875 12.105469 " fill-opacity="1" fill-rule="nonzero"/><path fill="#f2fcfc" d="M 484.527344 13.746094 L 486.1875 13.746094 L 486.1875 15.390625 L 484.527344 15.390625 Z M 484.527344 13.746094 " fill-opacity="1" fill-rule="nonzero"/><path fill="#f2fcfc" d="M 482.867188 15.390625 L 484.527344 15.390625 L 484.527344 17.03125 L 482.867188 17.03125 Z M 482.867188 15.390625 " fill-opacity="1" fill-rule="nonzero"/><path fill="#f2fcfc" d="M 486.1875 15.390625 L 487.847656 15.390625 L 487.847656 17.03125 L 486.1875 17.03125 Z M 486.1875 15.390625 " fill-opacity="1" fill-rule="nonzero"/><path fill="#f2fcfc" d="M 487.847656 17.03125 L 489.507812 17.03125 L 489.507812 20.316406 L 487.847656 20.316406 Z M 487.847656 17.03125 " fill-opacity="1" fill-rule="nonzero"/><path fill="#f2fcfc" d="M 486.1875 20.316406 L 487.847656 20.316406 L 487.847656 23.601562 L 486.1875 23.601562 Z M 486.1875 20.316406 " fill-opacity="1" fill-rule="nonzero"/><path fill="#f2fcfc" d="M 487.847656 23.601562 L 489.507812 23.601562 L 489.507812 25.242188 L 487.847656 25.242188 Z M 487.847656 23.601562 " fill-opacity="1" fill-rule="nonzero"/><path fill="#f2fcfc" d="M 484.527344 18.675781 L 486.1875 18.675781 L 486.1875 20.316406 L 484.527344 20.316406 Z M 484.527344 18.675781 " fill-opacity="1" fill-rule="nonzero"/><path fill="#f2fcfc" d="M 476.226562 21.957031 L 481.207031 21.957031 L 481.207031 23.601562 L 476.226562 23.601562 Z M 476.226562 21.957031 " fill-opacity="1" fill-rule="nonzero"/><path fill="#f2fcfc" d="M 481.207031 23.601562 L 482.867188 23.601562 L 482.867188 25.242188 L 481.207031 25.242188 Z M 481.207031 23.601562 " fill-opacity="1" fill-rule="nonzero"/><path fill="#f2fcfc" d="M 492.828125 23.601562 L 497.808594 23.601562 L 497.808594 25.242188 L 492.828125 25.242188 Z M 492.828125 23.601562 " fill-opacity="1" fill-rule="nonzero"/><path fill="#f2fcfc" d="M 482.867188 26.886719 L 484.527344 26.886719 L 484.527344 28.527344 L 482.867188 28.527344 Z M 482.867188 26.886719 " fill-opacity="1" fill-rule="nonzero"/><path fill="#f2fcfc" d="M 481.207031 17.03125 L 482.867188 17.03125 L 482.867188 18.675781 L 481.207031 18.675781 Z M 481.207031 17.03125 " fill-opacity="1" fill-rule="nonzero"/><path fill="#f2fcfc" d="M 502.789062 18.675781 L 509.429688 18.675781 L 509.429688 20.316406 L 502.789062 20.316406 Z M 502.789062 18.675781 " fill-opacity="1" fill-rule="nonzero"/><path fill="#f2fcfc" d="M 509.429688 20.316406 L 511.089844 20.316406 L 511.089844 21.957031 L 509.429688 21.957031 Z M 509.429688 20.316406 " fill-opacity="1" fill-rule="nonzero"/><path fill="#f2fcfc" d="M 507.769531 21.957031 L 509.429688 21.957031 L 509.429688 23.601562 L 507.769531 23.601562 Z M 507.769531 21.957031 " fill-opacity="1" fill-rule="nonzero"/><path fill="#f2fcfc" d="M 514.414062 20.316406 L 517.734375 20.316406 L 517.734375 21.957031 L 514.414062 21.957031 Z M 514.414062 20.316406 " fill-opacity="1" fill-rule="nonzero"/><path fill="#f2fcfc" d="M 517.734375 21.957031 L 519.394531 21.957031 L 519.394531 23.601562 L 517.734375 23.601562 Z M 517.734375 21.957031 " fill-opacity="1" fill-rule="nonzero"/><path fill="#f2fcfc" d="M 519.394531 23.601562 L 521.054688 23.601562 L 521.054688 26.886719 L 519.394531 26.886719 Z M 519.394531 23.601562 " fill-opacity="1" fill-rule="nonzero"/><path fill="#f2fcfc" d="M 516.074219 23.601562 L 517.734375 23.601562 L 517.734375 25.242188 L 516.074219 25.242188 Z M 516.074219 23.601562 " fill-opacity="1" fill-rule="nonzero"/><path fill="#f2fcfc" d="M 514.414062 30.167969 L 516.074219 30.167969 L 516.074219 31.8125 L 514.414062 31.8125 Z M 514.414062 30.167969 " fill-opacity="1" fill-rule="nonzero"/><path fill="#f2fcfc" d="M 511.089844 25.242188 L 512.75 25.242188 L 512.75 26.886719 L 511.089844 26.886719 Z M 511.089844 25.242188 " fill-opacity="1" fill-rule="nonzero"/><path fill="#f2fcfc" d="M 471.246094 13.746094 L 472.90625 13.746094 L 472.90625 15.390625 L 471.246094 15.390625 Z M 471.246094 13.746094 " fill-opacity="1" fill-rule="nonzero"/><path fill="#f2fcfc" d="M 469.585938 12.105469 L 471.246094 12.105469 L 471.246094 13.746094 L 469.585938 13.746094 Z M 469.585938 12.105469 " fill-opacity="1" fill-rule="nonzero"/><path fill="#f2fcfc" d="M 521.054688 26.886719 L 522.714844 26.886719 L 522.714844 28.527344 L 521.054688 28.527344 Z M 521.054688 26.886719 " fill-opacity="1" fill-rule="nonzero"/><path fill="#f2fcfc" d="M 522.714844 25.242188 L 527.695312 25.242188 L 527.695312 26.886719 L 522.714844 26.886719 Z M 522.714844 25.242188 " fill-opacity="1" fill-rule="nonzero"/><path fill="#f2fcfc" d="M 527.695312 26.886719 L 529.355469 26.886719 L 529.355469 28.527344 L 527.695312 28.527344 Z M 527.695312 26.886719 " fill-opacity="1" fill-rule="nonzero"/><path fill="#f2fcfc" d="M 529.355469 28.527344 L 531.015625 28.527344 L 531.015625 30.167969 L 529.355469 30.167969 Z M 529.355469 28.527344 " fill-opacity="1" fill-rule="nonzero"/><path fill="#f2fcfc" d="M 527.695312 30.167969 L 529.355469 30.167969 L 529.355469 31.8125 L 527.695312 31.8125 Z M 527.695312 30.167969 " fill-opacity="1" fill-rule="nonzero"/><path fill="#f2fcfc" d="M 524.375 28.527344 L 526.035156 28.527344 L 526.035156 30.167969 L 524.375 30.167969 Z M 524.375 28.527344 " fill-opacity="1" fill-rule="nonzero"/><path fill="#f2fcfc" d="M 491.167969 26.886719 L 492.828125 26.886719 L 492.828125 28.527344 L 491.167969 28.527344 Z M 491.167969 26.886719 " fill-opacity="1" fill-rule="nonzero"/><path fill="#f2fcfc" d="M 428.078125 17.03125 L 429.738281 17.03125 L 429.738281 18.675781 L 428.078125 18.675781 Z M 428.078125 17.03125 " fill-opacity="1" fill-rule="nonzero"/><path fill="#f2fcfc" d="M 431.398438 28.527344 L 433.058594 28.527344 L 433.058594 30.167969 L 431.398438 30.167969 Z M 431.398438 28.527344 " fill-opacity="1" fill-rule="nonzero"/><path fill="#f2fcfc" d="M 433.058594 30.167969 L 434.71875 30.167969 L 434.71875 31.8125 L 433.058594 31.8125 Z M 433.058594 30.167969 " fill-opacity="1" fill-rule="nonzero"/><path fill="#f2fcfc" d="M 418.113281 25.242188 L 419.777344 25.242188 L 419.777344 26.886719 L 418.113281 26.886719 Z M 418.113281 25.242188 " fill-opacity="1" fill-rule="nonzero"/><path fill="#f2fcfc" d="M 439.699219 25.242188 L 441.359375 25.242188 L 441.359375 26.886719 L 439.699219 26.886719 Z M 439.699219 25.242188 " fill-opacity="1" fill-rule="nonzero"/><path fill="#f2fcfc" d="M 438.039062 26.886719 L 439.699219 26.886719 L 439.699219 28.527344 L 438.039062 28.527344 Z M 438.039062 26.886719 " fill-opacity="1" fill-rule="nonzero"/><path fill="#f2fcfc" d="M 469.585938 25.242188 L 471.246094 25.242188 L 471.246094 26.886719 L 469.585938 26.886719 Z M 469.585938 25.242188 " fill-opacity="1" fill-rule="nonzero"/><path fill="#f2fcfc" d="M 466.261719 20.316406 L 467.925781 20.316406 L 467.925781 23.601562 L 466.261719 23.601562 Z M 466.261719 20.316406 " fill-opacity="1" fill-rule="nonzero"/><path fill="#f2fcfc" d="M 464.601562 18.675781 L 466.261719 18.675781 L 466.261719 20.316406 L 464.601562 20.316406 Z M 464.601562 18.675781 " fill-opacity="1" fill-rule="nonzero"/><path fill="#f2fcfc" d="M 467.925781 17.03125 L 469.585938 17.03125 L 469.585938 18.675781 L 467.925781 18.675781 Z M 467.925781 17.03125 " fill-opacity="1" fill-rule="nonzero"/><path fill="#f2fcfc" d="M 477.886719 31.8125 L 479.546875 31.8125 L 479.546875 33.453125 L 477.886719 33.453125 Z M 477.886719 31.8125 " fill-opacity="1" fill-rule="nonzero"/><path fill="#f2fcfc" d="M 479.546875 28.527344 L 482.867188 28.527344 L 482.867188 30.167969 L 479.546875 30.167969 Z M 479.546875 28.527344 " fill-opacity="1" fill-rule="nonzero"/><path fill="#f2fcfc" d="M 477.886719 26.886719 L 479.546875 26.886719 L 479.546875 28.527344 L 477.886719 28.527344 Z M 477.886719 26.886719 " fill-opacity="1" fill-rule="nonzero"/><path fill="#f2fcfc" d="M 494.488281 31.8125 L 496.148438 31.8125 L 496.148438 33.453125 L 494.488281 33.453125 Z M 494.488281 31.8125 " fill-opacity="1" fill-rule="nonzero"/><g clip-path="url(#5bd3cb6990)"><path fill="#ffbbea" d="M 460.679688 9.601562 L 460.679688 1.125 L 454.933594 1.125 L 454.933594 3.953125 L 452.0625 3.953125 L 452.0625 6.777344 L 446.3125 6.777344 L 446.3125 3.953125 L 443.441406 3.953125 L 443.441406 1.125 L 437.695312 1.125 L 437.695312 9.601562 L 434.820312 9.601562 L 434.820312 15.253906 L 437.695312 15.253906 L 437.695312 18.078125 L 429.074219 18.078125 L 429.074219 20.90625 L 426.199219 20.90625 L 426.199219 23.730469 L 423.328125 23.730469 L 423.328125 18.078125 L 426.199219 18.078125 L 426.199219 15.253906 L 429.074219 15.253906 L 429.074219 12.429688 L 426.199219 12.429688 L 426.199219 9.601562 L 420.453125 9.601562 L 420.453125 12.429688 L 417.578125 12.429688 L 417.578125 15.253906 L 414.707031 15.253906 L 414.707031 26.558594 L 417.578125 26.558594 L 417.578125 29.382812 L 420.453125 29.382812 L 420.453125 32.207031 L 452.0625 32.207031 L 452.0625 29.382812 L 454.933594 29.382812 L 454.933594 26.558594 L 452.0625 26.558594 L 452.0625 23.730469 L 454.933594 23.730469 L 454.933594 20.90625 L 457.808594 20.90625 L 457.808594 18.078125 L 460.679688 18.078125 L 460.679688 15.253906 L 463.554688 15.253906 L 463.554688 9.601562 Z M 460.679688 9.601562 " fill-opacity="1" fill-rule="nonzero"/></g><path fill="#57bbff" d="M 431.945312 23.730469 L 437.695312 23.730469 L 437.695312 26.558594 L 431.945312 26.558594 Z M 431.945312 23.730469 " fill-opacity="1" fill-rule="nonzero"/><path fill="#57bbff" d="M 437.695312 26.558594 L 440.566406 26.558594 L 440.566406 29.382812 L 437.695312 29.382812 Z M 437.695312 26.558594 " fill-opacity="1" fill-rule="nonzero"/><path fill="#57bbff" d="M 420.453125 9.601562 L 426.199219 9.601562 L 426.199219 12.429688 L 420.453125 12.429688 Z M 420.453125 9.601562 " fill-opacity="1" fill-rule="nonzero"/><path fill="#57bbff" d="M 426.199219 12.429688 L 429.074219 12.429688 L 429.074219 15.253906 L 426.199219 15.253906 Z M 426.199219 12.429688 " fill-opacity="1" fill-rule="nonzero"/><path fill="#57bbff" d="M 452.0625 26.558594 L 454.933594 26.558594 L 454.933594 29.382812 L 452.0625 29.382812 Z M 452.0625 26.558594 " fill-opacity="1" fill-rule="nonzero"/><path fill="#e24795" d="M 443.441406 15.253906 L 446.3125 15.253906 L 446.3125 18.078125 L 443.441406 18.078125 Z M 443.441406 15.253906 " fill-opacity="1" fill-rule="nonzero"/><path fill="#e24795" d="M 452.0625 15.253906 L 454.933594 15.253906 L 454.933594 18.078125 L 452.0625 18.078125 Z M 452.0625 15.253906 " fill-opacity="1" fill-rule="nonzero"/><path fill="#5211ba" d="M 443.441406 12.429688 L 446.3125 12.429688 L 446.3125 15.253906 L 443.441406 15.253906 Z M 443.441406 12.429688 " fill-opacity="1" fill-rule="nonzero"/><path fill="#5211ba" d="M 452.0625 12.429688 L 454.933594 12.429688 L 454.933594 15.253906 L 452.0625 15.253906 Z M 452.0625 12.429688 " fill-opacity="1" fill-rule="nonzero"/><path fill="#5211ba" d="M 437.695312 15.253906 L 440.566406 15.253906 L 440.566406 18.078125 L 437.695312 18.078125 Z M 437.695312 15.253906 " fill-opacity="1" fill-rule="nonzero"/><path fill="#5211ba" d="M 440.566406 18.078125 L 443.441406 18.078125 L 443.441406 20.90625 L 440.566406 20.90625 Z M 440.566406 18.078125 " fill-opacity="1" fill-rule="nonzero"/><path fill="#5211ba" d="M 443.441406 20.90625 L 454.933594 20.90625 L 454.933594 23.730469 L 443.441406 23.730469 Z M 443.441406 20.90625 " fill-opacity="1" fill-rule="nonzero"/><g clip-path="url(#7ff086ffd5)"><path fill="#5211ba" d="M 426.199219 23.730469 L 423.328125 23.730469 L 423.328125 29.382812 L 420.453125 29.382812 L 420.453125 32.207031 L 452.0625 32.207031 L 452.0625 29.382812 L 426.199219 29.382812 Z M 426.199219 23.730469 " fill-opacity="1" fill-rule="nonzero"/></g><path fill="#5211ba" d="M 454.933594 18.078125 L 457.808594 18.078125 L 457.808594 20.90625 L 454.933594 20.90625 Z M 454.933594 18.078125 " fill-opacity="1" fill-rule="nonzero"/><path fill="#5211ba" d="M 457.808594 15.253906 L 460.679688 15.253906 L 460.679688 18.078125 L 457.808594 18.078125 Z M 457.808594 15.253906 " fill-opacity="1" fill-rule="nonzero"/><path fill="#9f8fff" d="M 429.074219 20.90625 L 426.199219 20.90625 L 426.199219 29.382812 L 437.695312 29.382812 L 437.695312 26.558594 L 429.074219 26.558594 Z M 429.074219 20.90625 " fill-opacity="1" fill-rule="nonzero"/><g clip-path="url(#7020af606c)"><path fill="#9f8fff" d="M 420.453125 23.730469 L 417.578125 23.730469 L 417.578125 20.90625 L 420.453125 20.90625 L 420.453125 18.078125 L 417.578125 18.078125 L 417.578125 15.253906 L 414.707031 15.253906 L 414.707031 26.558594 L 417.578125 26.558594 L 417.578125 29.382812 L 423.328125 29.382812 L 423.328125 26.558594 L 420.453125 26.558594 Z M 420.453125 23.730469 " fill-opacity="1" fill-rule="nonzero"/></g><path fill="#9f8fff" d="M 417.578125 12.429688 L 420.453125 12.429688 L 420.453125 15.253906 L 417.578125 15.253906 Z M 417.578125 12.429688 " fill-opacity="1" fill-rule="nonzero"/><path fill="#9f8fff" d="M 423.328125 15.253906 L 426.199219 15.253906 L 426.199219 18.078125 L 423.328125 18.078125 Z M 423.328125 15.253906 " fill-opacity="1" fill-rule="nonzero"/><path fill="#9f8fff" d="M 440.566406 15.253906 L 443.441406 15.253906 L 443.441406 18.078125 L 440.566406 18.078125 Z M 440.566406 15.253906 " fill-opacity="1" fill-rule="nonzero"/><path fill="#9f8fff" d="M 454.933594 15.253906 L 457.808594 15.253906 L 457.808594 18.078125 L 454.933594 18.078125 Z M 454.933594 15.253906 " fill-opacity="1" fill-rule="nonzero"/><path fill="#9f8fff" d="M 443.441406 18.078125 L 454.933594 18.078125 L 454.933594 20.90625 L 443.441406 20.90625 Z M 443.441406 18.078125 " fill-opacity="1" fill-rule="nonzero"/><path fill="#9f8fff" d="M 437.695312 12.429688 L 437.695312 9.601562 L 434.820312 9.601562 L 434.820312 15.253906 L 440.566406 15.253906 L 440.566406 12.429688 Z M 437.695312 12.429688 " fill-opacity="1" fill-rule="nonzero"/><g clip-path="url(#710d77d3c4)"><path fill="#9f8fff" d="M 437.695312 1.125 L 440.566406 1.125 L 440.566406 9.601562 L 437.695312 9.601562 Z M 437.695312 1.125 " fill-opacity="1" fill-rule="nonzero"/></g><path fill="#9f8fff" d="M 452.0625 3.953125 L 454.933594 3.953125 L 454.933594 6.777344 L 452.0625 6.777344 Z M 452.0625 3.953125 " fill-opacity="1" fill-rule="nonzero"/><g clip-path="url(#b1606d0fe0)"><path fill="#9f8fff" d="M 454.933594 1.125 L 457.808594 1.125 L 457.808594 3.953125 L 454.933594 3.953125 Z M 454.933594 1.125 " fill-opacity="1" fill-rule="nonzero"/></g><path fill="#9f8fff" d="M 449.1875 23.730469 L 452.0625 23.730469 L 452.0625 29.382812 L 449.1875 29.382812 Z M 449.1875 23.730469 " fill-opacity="1" fill-rule="nonzero"/><path fill="#57bbff" d="M 452.0625 3.953125 L 454.933594 3.953125 L 454.933594 6.777344 L 452.0625 6.777344 Z M 452.0625 3.953125 " fill-opacity="1" fill-rule="nonzero"/><g clip-path="url(#d9b634c42a)"><path fill="#57bbff" d="M 460.679688 9.601562 L 463.554688 9.601562 L 463.554688 15.253906 L 460.679688 15.253906 Z M 460.679688 9.601562 " fill-opacity="1" fill-rule="nonzero"/></g><g clip-path="url(#377c56995b)"><path fill="#bfebf4" d="M 638.867188 30.167969 L 638.867188 28.527344 L 637.207031 28.527344 L 637.207031 26.886719 L 635.546875 26.886719 L 635.546875 25.242188 L 630.566406 25.242188 L 630.566406 26.886719 L 628.90625 26.886719 L 628.90625 28.527344 L 627.246094 28.527344 L 627.246094 26.886719 L 628.90625 26.886719 L 628.90625 23.601562 L 627.246094 23.601562 L 627.246094 21.957031 L 625.582031 21.957031 L 625.582031 20.316406 L 622.261719 20.316406 L 622.261719 21.957031 L 618.941406 21.957031 L 618.941406 20.316406 L 617.28125 20.316406 L 617.28125 18.675781 L 608.980469 18.675781 L 608.980469 20.316406 L 607.320312 20.316406 L 607.320312 21.957031 L 605.660156 21.957031 L 605.660156 23.601562 L 600.679688 23.601562 L 600.679688 25.242188 L 597.359375 25.242188 L 597.359375 23.601562 L 595.699219 23.601562 L 595.699219 20.316406 L 597.359375 20.316406 L 597.359375 17.03125 L 595.699219 17.03125 L 595.699219 15.390625 L 594.039062 15.390625 L 594.039062 13.746094 L 592.378906 13.746094 L 592.378906 12.105469 L 585.738281 12.105469 L 585.738281 10.464844 L 584.078125 10.464844 L 584.078125 8.820312 L 582.417969 8.820312 L 582.417969 7.179688 L 572.453125 7.179688 L 572.453125 8.820312 L 570.792969 8.820312 L 570.792969 10.464844 L 569.132812 10.464844 L 569.132812 13.746094 L 565.8125 13.746094 L 565.8125 15.390625 L 564.152344 15.390625 L 564.152344 17.03125 L 562.492188 17.03125 L 562.492188 18.675781 L 560.832031 18.675781 L 560.832031 21.957031 L 562.492188 21.957031 L 562.492188 23.601562 L 564.152344 23.601562 L 564.152344 25.242188 L 562.492188 25.242188 L 562.492188 28.527344 L 560.832031 28.527344 L 560.832031 26.886719 L 557.511719 26.886719 L 557.511719 25.242188 L 555.851562 25.242188 L 555.851562 21.957031 L 557.511719 21.957031 L 557.511719 18.675781 L 555.851562 18.675781 L 555.851562 15.390625 L 554.191406 15.390625 L 554.191406 13.746094 L 550.871094 13.746094 L 550.871094 12.105469 L 544.230469 12.105469 L 544.230469 13.746094 L 540.910156 13.746094 L 540.910156 15.390625 L 537.589844 15.390625 L 537.589844 17.03125 L 535.929688 17.03125 L 535.929688 18.675781 L 534.269531 18.675781 L 534.269531 20.316406 L 530.945312 20.316406 L 530.945312 21.957031 L 529.285156 21.957031 L 529.285156 23.601562 L 522.644531 23.601562 L 522.644531 25.242188 L 520.984375 25.242188 L 520.984375 26.886719 L 519.324219 26.886719 L 519.324219 31.8125 L 517.664062 31.8125 L 517.664062 35.09375 L 519.324219 35.09375 L 519.324219 36.738281 L 638.867188 36.738281 L 638.867188 35.09375 L 640.527344 35.09375 L 640.527344 30.167969 Z M 638.867188 30.167969 " fill-opacity="1" fill-rule="nonzero"/></g><path fill="#7c9ae0" d="M 540.910156 20.316406 L 539.25 20.316406 L 539.25 17.03125 L 540.910156 17.03125 L 540.910156 15.390625 L 537.589844 15.390625 L 537.589844 21.957031 L 539.25 21.957031 L 539.25 23.601562 L 540.910156 23.601562 Z M 540.910156 20.316406 " fill-opacity="1" fill-rule="nonzero"/><path fill="#7c9ae0" d="M 540.910156 23.601562 L 542.570312 23.601562 L 542.570312 25.242188 L 540.910156 25.242188 Z M 540.910156 23.601562 " fill-opacity="1" fill-rule="nonzero"/><path fill="#7c9ae0" d="M 542.570312 21.957031 L 545.890625 21.957031 L 545.890625 23.601562 L 542.570312 23.601562 Z M 542.570312 21.957031 " fill-opacity="1" fill-rule="nonzero"/><path fill="#7c9ae0" d="M 545.890625 20.316406 L 549.210938 20.316406 L 549.210938 21.957031 L 545.890625 21.957031 Z M 545.890625 20.316406 " fill-opacity="1" fill-rule="nonzero"/><path fill="#7c9ae0" d="M 549.210938 21.957031 L 550.871094 21.957031 L 550.871094 23.601562 L 549.210938 23.601562 Z M 549.210938 21.957031 " fill-opacity="1" fill-rule="nonzero"/><path fill="#7c9ae0" d="M 529.285156 23.601562 L 530.945312 23.601562 L 530.945312 25.242188 L 529.285156 25.242188 Z M 529.285156 23.601562 " fill-opacity="1" fill-rule="nonzero"/><path fill="#7c9ae0" d="M 527.625 25.242188 L 529.285156 25.242188 L 529.285156 26.886719 L 527.625 26.886719 Z M 527.625 25.242188 " fill-opacity="1" fill-rule="nonzero"/><path fill="#7c9ae0" d="M 525.964844 26.886719 L 527.625 26.886719 L 527.625 28.527344 L 525.964844 28.527344 Z M 525.964844 26.886719 " fill-opacity="1" fill-rule="nonzero"/><path fill="#7c9ae0" d="M 527.625 28.527344 L 529.285156 28.527344 L 529.285156 31.8125 L 527.625 31.8125 Z M 527.625 28.527344 " fill-opacity="1" fill-rule="nonzero"/><path fill="#7c9ae0" d="M 532.605469 30.167969 L 534.269531 30.167969 L 534.269531 31.8125 L 532.605469 31.8125 Z M 532.605469 30.167969 " fill-opacity="1" fill-rule="nonzero"/><path fill="#7c9ae0" d="M 534.269531 28.527344 L 535.929688 28.527344 L 535.929688 30.167969 L 534.269531 30.167969 Z M 534.269531 28.527344 " fill-opacity="1" fill-rule="nonzero"/><path fill="#7c9ae0" d="M 540.910156 26.886719 L 540.910156 25.242188 L 539.25 25.242188 L 539.25 26.886719 L 535.929688 26.886719 L 535.929688 28.527344 L 540.910156 28.527344 Z M 540.910156 26.886719 " fill-opacity="1" fill-rule="nonzero"/><path fill="#7c9ae0" d="M 540.910156 28.527344 L 542.570312 28.527344 L 542.570312 30.167969 L 540.910156 30.167969 Z M 540.910156 28.527344 " fill-opacity="1" fill-rule="nonzero"/><path fill="#7c9ae0" d="M 542.570312 30.167969 L 544.230469 30.167969 L 544.230469 31.8125 L 542.570312 31.8125 Z M 542.570312 30.167969 " fill-opacity="1" fill-rule="nonzero"/><path fill="#7c9ae0" d="M 549.210938 26.886719 L 552.53125 26.886719 L 552.53125 28.527344 L 549.210938 28.527344 Z M 549.210938 26.886719 " fill-opacity="1" fill-rule="nonzero"/><path fill="#7c9ae0" d="M 552.53125 25.242188 L 557.511719 25.242188 L 557.511719 26.886719 L 552.53125 26.886719 Z M 552.53125 25.242188 " fill-opacity="1" fill-rule="nonzero"/><path fill="#7c9ae0" d="M 560.832031 28.527344 L 562.492188 28.527344 L 562.492188 30.167969 L 560.832031 30.167969 Z M 560.832031 28.527344 " fill-opacity="1" fill-rule="nonzero"/><path fill="#7c9ae0" d="M 572.453125 15.390625 L 574.113281 15.390625 L 574.113281 17.03125 L 572.453125 17.03125 Z M 572.453125 15.390625 " fill-opacity="1" fill-rule="nonzero"/><path fill="#7c9ae0" d="M 520.984375 25.242188 L 522.644531 25.242188 L 522.644531 26.886719 L 520.984375 26.886719 Z M 520.984375 25.242188 " fill-opacity="1" fill-rule="nonzero"/><path fill="#7c9ae0" d="M 522.644531 23.601562 L 525.964844 23.601562 L 525.964844 25.242188 L 522.644531 25.242188 Z M 522.644531 23.601562 " fill-opacity="1" fill-rule="nonzero"/><path fill="#7c9ae0" d="M 582.417969 28.527344 L 584.078125 28.527344 L 584.078125 30.167969 L 582.417969 30.167969 Z M 582.417969 28.527344 " fill-opacity="1" fill-rule="nonzero"/><path fill="#7c9ae0" d="M 577.433594 23.601562 L 579.09375 23.601562 L 579.09375 25.242188 L 577.433594 25.242188 Z M 577.433594 23.601562 " fill-opacity="1" fill-rule="nonzero"/><path fill="#7c9ae0" d="M 575.773438 20.316406 L 577.433594 20.316406 L 577.433594 23.601562 L 575.773438 23.601562 Z M 575.773438 20.316406 " fill-opacity="1" fill-rule="nonzero"/><path fill="#7c9ae0" d="M 577.433594 17.03125 L 579.09375 17.03125 L 579.09375 20.316406 L 577.433594 20.316406 Z M 577.433594 17.03125 " fill-opacity="1" fill-rule="nonzero"/><path fill="#7c9ae0" d="M 579.09375 15.390625 L 580.757812 15.390625 L 580.757812 17.03125 L 579.09375 17.03125 Z M 579.09375 15.390625 " fill-opacity="1" fill-rule="nonzero"/><path fill="#7c9ae0" d="M 580.757812 13.746094 L 584.078125 13.746094 L 584.078125 15.390625 L 580.757812 15.390625 Z M 580.757812 13.746094 " fill-opacity="1" fill-rule="nonzero"/><path fill="#7c9ae0" d="M 584.078125 12.105469 L 587.398438 12.105469 L 587.398438 13.746094 L 584.078125 13.746094 Z M 584.078125 12.105469 " fill-opacity="1" fill-rule="nonzero"/><path fill="#7c9ae0" d="M 580.757812 23.601562 L 582.417969 23.601562 L 582.417969 25.242188 L 580.757812 25.242188 Z M 580.757812 23.601562 " fill-opacity="1" fill-rule="nonzero"/><path fill="#7c9ae0" d="M 582.417969 21.957031 L 584.078125 21.957031 L 584.078125 23.601562 L 582.417969 23.601562 Z M 582.417969 21.957031 " fill-opacity="1" fill-rule="nonzero"/><path fill="#7c9ae0" d="M 584.078125 20.316406 L 589.058594 20.316406 L 589.058594 21.957031 L 584.078125 21.957031 Z M 584.078125 20.316406 " fill-opacity="1" fill-rule="nonzero"/><path fill="#7c9ae0" d="M 589.058594 21.957031 L 590.71875 21.957031 L 590.71875 23.601562 L 589.058594 23.601562 Z M 589.058594 21.957031 " fill-opacity="1" fill-rule="nonzero"/><path fill="#7c9ae0" d="M 590.71875 28.527344 L 592.378906 28.527344 L 592.378906 30.167969 L 590.71875 30.167969 Z M 590.71875 28.527344 " fill-opacity="1" fill-rule="nonzero"/><path fill="#7c9ae0" d="M 592.378906 26.886719 L 595.699219 26.886719 L 595.699219 28.527344 L 592.378906 28.527344 Z M 592.378906 26.886719 " fill-opacity="1" fill-rule="nonzero"/><path fill="#7c9ae0" d="M 595.699219 25.242188 L 599.019531 25.242188 L 599.019531 26.886719 L 595.699219 26.886719 Z M 595.699219 25.242188 " fill-opacity="1" fill-rule="nonzero"/><g clip-path="url(#0a4e743550)"><path fill="#7c9ae0" d="M 628.90625 35.09375 L 628.90625 33.453125 L 627.246094 33.453125 L 627.246094 30.167969 L 625.582031 30.167969 L 625.582031 35.09375 L 612.300781 35.09375 L 612.300781 33.453125 L 610.640625 33.453125 L 610.640625 30.167969 L 605.660156 30.167969 L 605.660156 31.8125 L 607.320312 31.8125 L 607.320312 33.453125 L 604 33.453125 L 604 35.09375 L 592.378906 35.09375 L 592.378906 33.453125 L 590.71875 33.453125 L 590.71875 30.167969 L 589.058594 30.167969 L 589.058594 31.8125 L 587.398438 31.8125 L 587.398438 33.453125 L 585.738281 33.453125 L 585.738281 35.09375 L 575.773438 35.09375 L 575.773438 33.453125 L 574.113281 33.453125 L 574.113281 31.8125 L 575.773438 31.8125 L 575.773438 30.167969 L 577.433594 30.167969 L 577.433594 28.527344 L 582.417969 28.527344 L 582.417969 26.886719 L 580.757812 26.886719 L 580.757812 25.242188 L 579.09375 25.242188 L 579.09375 26.886719 L 575.773438 26.886719 L 575.773438 28.527344 L 574.113281 28.527344 L 574.113281 30.167969 L 570.792969 30.167969 L 570.792969 26.886719 L 569.132812 26.886719 L 569.132812 21.957031 L 564.152344 21.957031 L 564.152344 18.675781 L 565.8125 18.675781 L 565.8125 17.03125 L 567.472656 17.03125 L 567.472656 15.390625 L 572.453125 15.390625 L 572.453125 10.464844 L 574.113281 10.464844 L 574.113281 8.820312 L 577.433594 8.820312 L 577.433594 7.179688 L 572.453125 7.179688 L 572.453125 8.820312 L 570.792969 8.820312 L 570.792969 10.464844 L 569.132812 10.464844 L 569.132812 13.746094 L 565.8125 13.746094 L 565.8125 15.390625 L 564.152344 15.390625 L 564.152344 17.03125 L 562.492188 17.03125 L 562.492188 18.675781 L 560.832031 18.675781 L 560.832031 21.957031 L 562.492188 21.957031 L 562.492188 23.601562 L 564.152344 23.601562 L 564.152344 25.242188 L 562.492188 25.242188 L 562.492188 28.527344 L 565.8125 28.527344 L 565.8125 26.886719 L 567.472656 26.886719 L 567.472656 30.167969 L 569.132812 30.167969 L 569.132812 33.453125 L 570.792969 33.453125 L 570.792969 35.09375 L 562.492188 35.09375 L 562.492188 33.453125 L 560.832031 33.453125 L 560.832031 30.167969 L 559.171875 30.167969 L 559.171875 31.8125 L 557.511719 31.8125 L 557.511719 35.09375 L 550.871094 35.09375 L 550.871094 33.453125 L 549.210938 33.453125 L 549.210938 28.527344 L 547.550781 28.527344 L 547.550781 31.8125 L 545.890625 31.8125 L 545.890625 35.09375 L 534.269531 35.09375 L 534.269531 33.453125 L 532.605469 33.453125 L 532.605469 31.8125 L 529.285156 31.8125 L 529.285156 33.453125 L 530.945312 33.453125 L 530.945312 35.09375 L 522.644531 35.09375 L 522.644531 33.453125 L 520.984375 33.453125 L 520.984375 31.8125 L 522.644531 31.8125 L 522.644531 30.167969 L 520.984375 30.167969 L 520.984375 26.886719 L 519.324219 26.886719 L 519.324219 31.8125 L 517.664062 31.8125 L 517.664062 35.09375 L 519.324219 35.09375 L 519.324219 36.738281 L 638.867188 36.738281 L 638.867188 35.09375 Z M 628.90625 35.09375 " fill-opacity="1" fill-rule="nonzero"/></g><path fill="#7c9ae0" d="M 540.910156 13.746094 L 542.570312 13.746094 L 542.570312 15.390625 L 540.910156 15.390625 Z M 540.910156 13.746094 " fill-opacity="1" fill-rule="nonzero"/><path fill="#7c9ae0" d="M 607.320312 23.601562 L 607.320312 21.957031 L 605.660156 21.957031 L 605.660156 25.242188 L 607.320312 25.242188 Z M 607.320312 23.601562 " fill-opacity="1" fill-rule="nonzero"/><path fill="#7c9ae0" d="M 604 25.242188 L 605.660156 25.242188 L 605.660156 30.167969 L 604 30.167969 Z M 604 25.242188 " fill-opacity="1" fill-rule="nonzero"/><path fill="#7c9ae0" d="M 610.640625 28.527344 L 612.300781 28.527344 L 612.300781 30.167969 L 610.640625 30.167969 Z M 610.640625 28.527344 " fill-opacity="1" fill-rule="nonzero"/><path fill="#7c9ae0" d="M 617.28125 26.886719 L 617.28125 25.242188 L 615.621094 25.242188 L 615.621094 26.886719 L 612.300781 26.886719 L 612.300781 28.527344 L 617.28125 28.527344 Z M 617.28125 26.886719 " fill-opacity="1" fill-rule="nonzero"/><path fill="#7c9ae0" d="M 617.28125 28.527344 L 618.941406 28.527344 L 618.941406 30.167969 L 617.28125 30.167969 Z M 617.28125 28.527344 " fill-opacity="1" fill-rule="nonzero"/><path fill="#7c9ae0" d="M 627.246094 28.527344 L 628.90625 28.527344 L 628.90625 30.167969 L 627.246094 30.167969 Z M 627.246094 28.527344 " fill-opacity="1" fill-rule="nonzero"/><path fill="#7c9ae0" d="M 617.28125 23.601562 L 618.941406 23.601562 L 618.941406 25.242188 L 617.28125 25.242188 Z M 617.28125 23.601562 " fill-opacity="1" fill-rule="nonzero"/><path fill="#7c9ae0" d="M 618.941406 21.957031 L 622.261719 21.957031 L 622.261719 23.601562 L 618.941406 23.601562 Z M 618.941406 21.957031 " fill-opacity="1" fill-rule="nonzero"/><path fill="#7c9ae0" d="M 607.320312 20.316406 L 608.980469 20.316406 L 608.980469 21.957031 L 607.320312 21.957031 Z M 607.320312 20.316406 " fill-opacity="1" fill-rule="nonzero"/><path fill="#d8bbff" d="M 542.570312 13.746094 L 544.230469 13.746094 L 544.230469 15.390625 L 542.570312 15.390625 Z M 542.570312 13.746094 " fill-opacity="1" fill-rule="nonzero"/><path fill="#d8bbff" d="M 545.890625 21.957031 L 545.890625 20.316406 L 544.230469 20.316406 L 544.230469 18.675781 L 542.570312 18.675781 L 542.570312 15.390625 L 540.910156 15.390625 L 540.910156 17.03125 L 539.25 17.03125 L 539.25 20.316406 L 540.910156 20.316406 L 540.910156 23.601562 L 542.570312 23.601562 L 542.570312 21.957031 Z M 545.890625 21.957031 " fill-opacity="1" fill-rule="nonzero"/><path fill="#d8bbff" d="M 545.890625 18.675781 L 549.210938 18.675781 L 549.210938 20.316406 L 545.890625 20.316406 Z M 545.890625 18.675781 " fill-opacity="1" fill-rule="nonzero"/><path fill="#d8bbff" d="M 540.910156 25.242188 L 542.570312 25.242188 L 542.570312 28.527344 L 540.910156 28.527344 Z M 540.910156 25.242188 " fill-opacity="1" fill-rule="nonzero"/><path fill="#d8bbff" d="M 542.570312 23.601562 L 545.890625 23.601562 L 545.890625 25.242188 L 542.570312 25.242188 Z M 542.570312 23.601562 " fill-opacity="1" fill-rule="nonzero"/><path fill="#d8bbff" d="M 542.570312 28.527344 L 542.570312 30.167969 L 544.230469 30.167969 L 544.230469 31.8125 L 547.550781 31.8125 L 547.550781 28.527344 Z M 542.570312 28.527344 " fill-opacity="1" fill-rule="nonzero"/><path fill="#d8bbff" d="M 547.550781 26.886719 L 549.210938 26.886719 L 549.210938 28.527344 L 547.550781 28.527344 Z M 547.550781 26.886719 " fill-opacity="1" fill-rule="nonzero"/><path fill="#d8bbff" d="M 535.929688 31.8125 L 537.589844 31.8125 L 537.589844 30.167969 L 539.25 30.167969 L 539.25 28.527344 L 535.929688 28.527344 L 535.929688 30.167969 L 534.269531 30.167969 L 534.269531 31.8125 L 532.605469 31.8125 L 532.605469 33.453125 L 534.269531 33.453125 L 534.269531 35.09375 L 545.890625 35.09375 L 545.890625 33.453125 L 535.929688 33.453125 Z M 535.929688 31.8125 " fill-opacity="1" fill-rule="nonzero"/><path fill="#d8bbff" d="M 550.871094 33.453125 L 557.511719 33.453125 L 557.511719 35.09375 L 550.871094 35.09375 Z M 550.871094 33.453125 " fill-opacity="1" fill-rule="nonzero"/><path fill="#d8bbff" d="M 575.773438 33.453125 L 585.738281 33.453125 L 585.738281 35.09375 L 575.773438 35.09375 Z M 575.773438 33.453125 " fill-opacity="1" fill-rule="nonzero"/><path fill="#d8bbff" d="M 520.984375 31.8125 L 520.984375 33.453125 L 522.644531 33.453125 L 522.644531 35.09375 L 530.945312 35.09375 L 530.945312 33.453125 L 524.304688 33.453125 L 524.304688 30.167969 L 522.644531 30.167969 L 522.644531 31.8125 Z M 520.984375 31.8125 " fill-opacity="1" fill-rule="nonzero"/><path fill="#d8bbff" d="M 520.984375 26.886719 L 522.644531 26.886719 L 522.644531 30.167969 L 520.984375 30.167969 Z M 520.984375 26.886719 " fill-opacity="1" fill-rule="nonzero"/><path fill="#d8bbff" d="M 522.644531 25.242188 L 525.964844 25.242188 L 525.964844 26.886719 L 522.644531 26.886719 Z M 522.644531 25.242188 " fill-opacity="1" fill-rule="nonzero"/><path fill="#d8bbff" d="M 525.964844 23.601562 L 529.285156 23.601562 L 529.285156 25.242188 L 525.964844 25.242188 Z M 525.964844 23.601562 " fill-opacity="1" fill-rule="nonzero"/><path fill="#d8bbff" d="M 567.472656 15.390625 L 572.453125 15.390625 L 572.453125 17.03125 L 567.472656 17.03125 Z M 567.472656 15.390625 " fill-opacity="1" fill-rule="nonzero"/><path fill="#d8bbff" d="M 567.472656 20.316406 L 567.472656 17.03125 L 565.8125 17.03125 L 565.8125 18.675781 L 564.152344 18.675781 L 564.152344 21.957031 L 569.132812 21.957031 L 569.132812 20.316406 Z M 567.472656 20.316406 " fill-opacity="1" fill-rule="nonzero"/><path fill="#d8bbff" d="M 572.453125 25.242188 L 570.792969 25.242188 L 570.792969 21.957031 L 569.132812 21.957031 L 569.132812 26.886719 L 570.792969 26.886719 L 570.792969 30.167969 L 574.113281 30.167969 L 574.113281 28.527344 L 572.453125 28.527344 Z M 572.453125 25.242188 " fill-opacity="1" fill-rule="nonzero"/><path fill="#d8bbff" d="M 574.113281 26.886719 L 575.773438 26.886719 L 575.773438 28.527344 L 574.113281 28.527344 Z M 574.113281 26.886719 " fill-opacity="1" fill-rule="nonzero"/><path fill="#d8bbff" d="M 549.210938 28.527344 L 549.210938 33.453125 L 550.871094 33.453125 L 550.871094 30.167969 L 552.53125 30.167969 L 552.53125 28.527344 Z M 549.210938 28.527344 " fill-opacity="1" fill-rule="nonzero"/><path fill="#d8bbff" d="M 552.53125 26.886719 L 557.511719 26.886719 L 557.511719 28.527344 L 552.53125 28.527344 Z M 552.53125 26.886719 " fill-opacity="1" fill-rule="nonzero"/><path fill="#d8bbff" d="M 572.453125 23.601562 L 574.113281 23.601562 L 574.113281 25.242188 L 572.453125 25.242188 Z M 572.453125 23.601562 " fill-opacity="1" fill-rule="nonzero"/><path fill="#d8bbff" d="M 564.152344 31.8125 L 562.492188 31.8125 L 562.492188 35.09375 L 570.792969 35.09375 L 570.792969 33.453125 L 564.152344 33.453125 Z M 564.152344 31.8125 " fill-opacity="1" fill-rule="nonzero"/><path fill="#d8bbff" d="M 555.851562 30.167969 L 557.511719 30.167969 L 557.511719 31.8125 L 555.851562 31.8125 Z M 555.851562 30.167969 " fill-opacity="1" fill-rule="nonzero"/><path fill="#d8bbff" d="M 549.210938 17.03125 L 550.871094 17.03125 L 550.871094 18.675781 L 549.210938 18.675781 Z M 549.210938 17.03125 " fill-opacity="1" fill-rule="nonzero"/><path fill="#d8bbff" d="M 550.871094 20.316406 L 552.53125 20.316406 L 552.53125 21.957031 L 550.871094 21.957031 Z M 550.871094 20.316406 " fill-opacity="1" fill-rule="nonzero"/><path fill="#d8bbff" d="M 549.210938 25.242188 L 550.871094 25.242188 L 550.871094 26.886719 L 549.210938 26.886719 Z M 549.210938 25.242188 " fill-opacity="1" fill-rule="nonzero"/><path fill="#d8bbff" d="M 534.269531 30.167969 L 534.269531 28.527344 L 530.945312 28.527344 L 530.945312 25.242188 L 529.285156 25.242188 L 529.285156 26.886719 L 527.625 26.886719 L 527.625 28.527344 L 529.285156 28.527344 L 529.285156 31.8125 L 532.605469 31.8125 L 532.605469 30.167969 Z M 534.269531 30.167969 " fill-opacity="1" fill-rule="nonzero"/><path fill="#d8bbff" d="M 534.269531 26.886719 L 535.929688 26.886719 L 535.929688 28.527344 L 534.269531 28.527344 Z M 534.269531 26.886719 " fill-opacity="1" fill-rule="nonzero"/><path fill="#d8bbff" d="M 577.433594 20.316406 L 579.09375 20.316406 L 579.09375 23.601562 L 577.433594 23.601562 Z M 577.433594 20.316406 " fill-opacity="1" fill-rule="nonzero"/><path fill="#d8bbff" d="M 579.09375 23.601562 L 580.757812 23.601562 L 580.757812 25.242188 L 579.09375 25.242188 Z M 579.09375 23.601562 " fill-opacity="1" fill-rule="nonzero"/><path fill="#d8bbff" d="M 594.039062 31.8125 L 594.039062 30.167969 L 595.699219 30.167969 L 595.699219 28.527344 L 592.378906 28.527344 L 592.378906 30.167969 L 590.71875 30.167969 L 590.71875 33.453125 L 592.378906 33.453125 L 592.378906 31.8125 Z M 594.039062 31.8125 " fill-opacity="1" fill-rule="nonzero"/><path fill="#d8bbff" d="M 604 31.8125 L 604 33.453125 L 607.320312 33.453125 L 607.320312 31.8125 L 605.660156 31.8125 L 605.660156 30.167969 L 604 30.167969 Z M 604 31.8125 " fill-opacity="1" fill-rule="nonzero"/><path fill="#d8bbff" d="M 595.699219 31.8125 L 594.039062 31.8125 L 594.039062 33.453125 L 592.378906 33.453125 L 592.378906 35.09375 L 604 35.09375 L 604 33.453125 L 595.699219 33.453125 Z M 595.699219 31.8125 " fill-opacity="1" fill-rule="nonzero"/><path fill="#d8bbff" d="M 577.433594 30.167969 L 579.09375 30.167969 L 579.09375 31.8125 L 577.433594 31.8125 Z M 577.433594 30.167969 " fill-opacity="1" fill-rule="nonzero"/><path fill="#d8bbff" d="M 580.757812 25.242188 L 582.417969 25.242188 L 582.417969 26.886719 L 580.757812 26.886719 Z M 580.757812 25.242188 " fill-opacity="1" fill-rule="nonzero"/><path fill="#d8bbff" d="M 582.417969 26.886719 L 584.078125 26.886719 L 584.078125 28.527344 L 582.417969 28.527344 Z M 582.417969 26.886719 " fill-opacity="1" fill-rule="nonzero"/><path fill="#d8bbff" d="M 582.417969 23.601562 L 584.078125 23.601562 L 584.078125 25.242188 L 582.417969 25.242188 Z M 582.417969 23.601562 " fill-opacity="1" fill-rule="nonzero"/><path fill="#d8bbff" d="M 608.980469 18.675781 L 610.640625 18.675781 L 610.640625 21.957031 L 608.980469 21.957031 Z M 608.980469 18.675781 " fill-opacity="1" fill-rule="nonzero"/><path fill="#d8bbff" d="M 607.320312 21.957031 L 608.980469 21.957031 L 608.980469 25.242188 L 607.320312 25.242188 Z M 607.320312 21.957031 " fill-opacity="1" fill-rule="nonzero"/><path fill="#d8bbff" d="M 607.320312 28.527344 L 607.320312 25.242188 L 605.660156 25.242188 L 605.660156 30.167969 L 610.640625 30.167969 L 610.640625 28.527344 Z M 607.320312 28.527344 " fill-opacity="1" fill-rule="nonzero"/><path fill="#d8bbff" d="M 610.640625 26.886719 L 612.300781 26.886719 L 612.300781 28.527344 L 610.640625 28.527344 Z M 610.640625 26.886719 " fill-opacity="1" fill-rule="nonzero"/><path fill="#d8bbff" d="M 612.300781 25.242188 L 615.621094 25.242188 L 615.621094 26.886719 L 612.300781 26.886719 Z M 612.300781 25.242188 " fill-opacity="1" fill-rule="nonzero"/><path fill="#d8bbff" d="M 610.640625 30.167969 L 612.300781 30.167969 L 612.300781 33.453125 L 610.640625 33.453125 Z M 610.640625 30.167969 " fill-opacity="1" fill-rule="nonzero"/><path fill="#d8bbff" d="M 610.640625 23.601562 L 612.300781 23.601562 L 612.300781 25.242188 L 610.640625 25.242188 Z M 610.640625 23.601562 " fill-opacity="1" fill-rule="nonzero"/><path fill="#d8bbff" d="M 615.621094 23.601562 L 617.28125 23.601562 L 617.28125 25.242188 L 615.621094 25.242188 Z M 615.621094 23.601562 " fill-opacity="1" fill-rule="nonzero"/><path fill="#d8bbff" d="M 602.339844 25.242188 L 604 25.242188 L 604 26.886719 L 602.339844 26.886719 Z M 602.339844 25.242188 " fill-opacity="1" fill-rule="nonzero"/><path fill="#d8bbff" d="M 623.921875 33.453125 L 612.300781 33.453125 L 612.300781 35.09375 L 625.582031 35.09375 L 625.582031 30.167969 L 623.921875 30.167969 Z M 623.921875 33.453125 " fill-opacity="1" fill-rule="nonzero"/><path fill="#d8bbff" d="M 622.261719 28.527344 L 623.921875 28.527344 L 623.921875 30.167969 L 622.261719 30.167969 Z M 622.261719 28.527344 " fill-opacity="1" fill-rule="nonzero"/><path fill="#d8bbff" d="M 630.566406 28.527344 L 628.90625 28.527344 L 628.90625 30.167969 L 627.246094 30.167969 L 627.246094 33.453125 L 628.90625 33.453125 L 628.90625 35.09375 L 638.867188 35.09375 L 638.867188 33.453125 L 630.566406 33.453125 Z M 630.566406 28.527344 " fill-opacity="1" fill-rule="nonzero"/><g clip-path="url(#deedd5cb49)"><path fill="#d8bbff" d="M 638.867188 30.167969 L 640.527344 30.167969 L 640.527344 33.453125 L 638.867188 33.453125 Z M 638.867188 30.167969 " fill-opacity="1" fill-rule="nonzero"/></g><path fill="#d8bbff" d="M 572.453125 10.464844 L 574.113281 10.464844 L 574.113281 15.390625 L 572.453125 15.390625 Z M 572.453125 10.464844 " fill-opacity="1" fill-rule="nonzero"/><path fill="#d8bbff" d="M 574.113281 8.820312 L 577.433594 8.820312 L 577.433594 10.464844 L 574.113281 10.464844 Z M 574.113281 8.820312 " fill-opacity="1" fill-rule="nonzero"/><path fill="#d8bbff" d="M 579.09375 17.03125 L 580.757812 17.03125 L 580.757812 20.316406 L 579.09375 20.316406 Z M 579.09375 17.03125 " fill-opacity="1" fill-rule="nonzero"/><path fill="#d8bbff" d="M 580.757812 15.390625 L 582.417969 15.390625 L 582.417969 17.03125 L 580.757812 17.03125 Z M 580.757812 15.390625 " fill-opacity="1" fill-rule="nonzero"/><path fill="#d8bbff" d="M 584.078125 13.746094 L 585.738281 13.746094 L 585.738281 15.390625 L 584.078125 15.390625 Z M 584.078125 13.746094 " fill-opacity="1" fill-rule="nonzero"/><path fill="#d8bbff" d="M 534.269531 18.675781 L 535.929688 18.675781 L 535.929688 20.316406 L 534.269531 20.316406 Z M 534.269531 18.675781 " fill-opacity="1" fill-rule="nonzero"/><path fill="#d8bbff" d="M 529.285156 21.957031 L 530.945312 21.957031 L 530.945312 23.601562 L 529.285156 23.601562 Z M 529.285156 21.957031 " fill-opacity="1" fill-rule="nonzero"/><path fill="#d8bbff" d="M 530.945312 20.316406 L 534.269531 20.316406 L 534.269531 21.957031 L 530.945312 21.957031 Z M 530.945312 20.316406 " fill-opacity="1" fill-rule="nonzero"/><path fill="#f2fcfc" d="M 554.191406 15.390625 L 554.191406 13.746094 L 550.871094 13.746094 L 550.871094 12.105469 L 544.230469 12.105469 L 544.230469 13.746094 L 549.210938 13.746094 L 549.210938 15.390625 L 552.53125 15.390625 L 552.53125 17.03125 L 554.191406 17.03125 L 554.191406 18.675781 L 555.851562 18.675781 L 555.851562 15.390625 Z M 554.191406 15.390625 " fill-opacity="1" fill-rule="nonzero"/><path fill="#f2fcfc" d="M 555.851562 18.675781 L 557.511719 18.675781 L 557.511719 21.957031 L 555.851562 21.957031 Z M 555.851562 18.675781 " fill-opacity="1" fill-rule="nonzero"/><path fill="#f2fcfc" d="M 554.191406 21.957031 L 555.851562 21.957031 L 555.851562 25.242188 L 554.191406 25.242188 Z M 554.191406 21.957031 " fill-opacity="1" fill-rule="nonzero"/><path fill="#f2fcfc" d="M 539.25 25.242188 L 540.910156 25.242188 L 540.910156 23.601562 L 539.25 23.601562 L 539.25 21.957031 L 537.589844 21.957031 L 537.589844 25.242188 L 535.929688 25.242188 L 535.929688 26.886719 L 539.25 26.886719 Z M 539.25 25.242188 " fill-opacity="1" fill-rule="nonzero"/><path fill="#f2fcfc" d="M 545.890625 21.957031 L 549.210938 21.957031 L 549.210938 23.601562 L 545.890625 23.601562 Z M 545.890625 21.957031 " fill-opacity="1" fill-rule="nonzero"/><path fill="#f2fcfc" d="M 557.511719 26.886719 L 560.832031 26.886719 L 560.832031 28.527344 L 557.511719 28.527344 Z M 557.511719 26.886719 " fill-opacity="1" fill-rule="nonzero"/><path fill="#f2fcfc" d="M 565.8125 26.886719 L 567.472656 26.886719 L 567.472656 28.527344 L 565.8125 28.527344 Z M 565.8125 26.886719 " fill-opacity="1" fill-rule="nonzero"/><path fill="#f2fcfc" d="M 562.492188 28.527344 L 565.8125 28.527344 L 565.8125 30.167969 L 562.492188 30.167969 Z M 562.492188 28.527344 " fill-opacity="1" fill-rule="nonzero"/><path fill="#f2fcfc" d="M 552.53125 20.316406 L 554.191406 20.316406 L 554.191406 21.957031 L 552.53125 21.957031 Z M 552.53125 20.316406 " fill-opacity="1" fill-rule="nonzero"/><path fill="#f2fcfc" d="M 547.550781 15.390625 L 549.210938 15.390625 L 549.210938 17.03125 L 547.550781 17.03125 Z M 547.550781 15.390625 " fill-opacity="1" fill-rule="nonzero"/><path fill="#f2fcfc" d="M 582.417969 8.820312 L 584.078125 8.820312 L 584.078125 10.464844 L 582.417969 10.464844 Z M 582.417969 8.820312 " fill-opacity="1" fill-rule="nonzero"/><path fill="#f2fcfc" d="M 584.078125 10.464844 L 585.738281 10.464844 L 585.738281 12.105469 L 584.078125 12.105469 Z M 584.078125 10.464844 " fill-opacity="1" fill-rule="nonzero"/><path fill="#f2fcfc" d="M 582.417969 12.105469 L 584.078125 12.105469 L 584.078125 13.746094 L 582.417969 13.746094 Z M 582.417969 12.105469 " fill-opacity="1" fill-rule="nonzero"/><g clip-path="url(#6a3392add7)"><path fill="#f2fcfc" d="M 577.433594 7.179688 L 582.417969 7.179688 L 582.417969 8.820312 L 577.433594 8.820312 Z M 577.433594 7.179688 " fill-opacity="1" fill-rule="nonzero"/></g><path fill="#f2fcfc" d="M 587.398438 12.105469 L 592.378906 12.105469 L 592.378906 13.746094 L 587.398438 13.746094 Z M 587.398438 12.105469 " fill-opacity="1" fill-rule="nonzero"/><path fill="#f2fcfc" d="M 592.378906 13.746094 L 594.039062 13.746094 L 594.039062 15.390625 L 592.378906 15.390625 Z M 592.378906 13.746094 " fill-opacity="1" fill-rule="nonzero"/><path fill="#f2fcfc" d="M 590.71875 15.390625 L 592.378906 15.390625 L 592.378906 17.03125 L 590.71875 17.03125 Z M 590.71875 15.390625 " fill-opacity="1" fill-rule="nonzero"/><path fill="#f2fcfc" d="M 594.039062 15.390625 L 595.699219 15.390625 L 595.699219 17.03125 L 594.039062 17.03125 Z M 594.039062 15.390625 " fill-opacity="1" fill-rule="nonzero"/><path fill="#f2fcfc" d="M 595.699219 17.03125 L 597.359375 17.03125 L 597.359375 20.316406 L 595.699219 20.316406 Z M 595.699219 17.03125 " fill-opacity="1" fill-rule="nonzero"/><path fill="#f2fcfc" d="M 594.039062 20.316406 L 595.699219 20.316406 L 595.699219 23.601562 L 594.039062 23.601562 Z M 594.039062 20.316406 " fill-opacity="1" fill-rule="nonzero"/><path fill="#f2fcfc" d="M 595.699219 23.601562 L 597.359375 23.601562 L 597.359375 25.242188 L 595.699219 25.242188 Z M 595.699219 23.601562 " fill-opacity="1" fill-rule="nonzero"/><path fill="#f2fcfc" d="M 592.378906 18.675781 L 594.039062 18.675781 L 594.039062 20.316406 L 592.378906 20.316406 Z M 592.378906 18.675781 " fill-opacity="1" fill-rule="nonzero"/><path fill="#f2fcfc" d="M 584.078125 21.957031 L 589.058594 21.957031 L 589.058594 23.601562 L 584.078125 23.601562 Z M 584.078125 21.957031 " fill-opacity="1" fill-rule="nonzero"/><path fill="#f2fcfc" d="M 589.058594 23.601562 L 590.71875 23.601562 L 590.71875 25.242188 L 589.058594 25.242188 Z M 589.058594 23.601562 " fill-opacity="1" fill-rule="nonzero"/><path fill="#f2fcfc" d="M 600.679688 23.601562 L 605.660156 23.601562 L 605.660156 25.242188 L 600.679688 25.242188 Z M 600.679688 23.601562 " fill-opacity="1" fill-rule="nonzero"/><path fill="#f2fcfc" d="M 590.71875 26.886719 L 592.378906 26.886719 L 592.378906 28.527344 L 590.71875 28.527344 Z M 590.71875 26.886719 " fill-opacity="1" fill-rule="nonzero"/><path fill="#f2fcfc" d="M 589.058594 17.03125 L 590.71875 17.03125 L 590.71875 18.675781 L 589.058594 18.675781 Z M 589.058594 17.03125 " fill-opacity="1" fill-rule="nonzero"/><path fill="#f2fcfc" d="M 610.640625 18.675781 L 617.28125 18.675781 L 617.28125 20.316406 L 610.640625 20.316406 Z M 610.640625 18.675781 " fill-opacity="1" fill-rule="nonzero"/><path fill="#f2fcfc" d="M 617.28125 20.316406 L 618.941406 20.316406 L 618.941406 21.957031 L 617.28125 21.957031 Z M 617.28125 20.316406 " fill-opacity="1" fill-rule="nonzero"/><path fill="#f2fcfc" d="M 615.621094 21.957031 L 617.28125 21.957031 L 617.28125 23.601562 L 615.621094 23.601562 Z M 615.621094 21.957031 " fill-opacity="1" fill-rule="nonzero"/><path fill="#f2fcfc" d="M 622.261719 20.316406 L 625.582031 20.316406 L 625.582031 21.957031 L 622.261719 21.957031 Z M 622.261719 20.316406 " fill-opacity="1" fill-rule="nonzero"/><path fill="#f2fcfc" d="M 625.582031 21.957031 L 627.246094 21.957031 L 627.246094 23.601562 L 625.582031 23.601562 Z M 625.582031 21.957031 " fill-opacity="1" fill-rule="nonzero"/><path fill="#f2fcfc" d="M 627.246094 23.601562 L 628.90625 23.601562 L 628.90625 26.886719 L 627.246094 26.886719 Z M 627.246094 23.601562 " fill-opacity="1" fill-rule="nonzero"/><path fill="#f2fcfc" d="M 623.921875 23.601562 L 625.582031 23.601562 L 625.582031 25.242188 L 623.921875 25.242188 Z M 623.921875 23.601562 " fill-opacity="1" fill-rule="nonzero"/><path fill="#f2fcfc" d="M 622.261719 30.167969 L 623.921875 30.167969 L 623.921875 31.8125 L 622.261719 31.8125 Z M 622.261719 30.167969 " fill-opacity="1" fill-rule="nonzero"/><path fill="#f2fcfc" d="M 618.941406 25.242188 L 620.601562 25.242188 L 620.601562 26.886719 L 618.941406 26.886719 Z M 618.941406 25.242188 " fill-opacity="1" fill-rule="nonzero"/><path fill="#f2fcfc" d="M 579.09375 13.746094 L 580.757812 13.746094 L 580.757812 15.390625 L 579.09375 15.390625 Z M 579.09375 13.746094 " fill-opacity="1" fill-rule="nonzero"/><path fill="#f2fcfc" d="M 577.433594 12.105469 L 579.09375 12.105469 L 579.09375 13.746094 L 577.433594 13.746094 Z M 577.433594 12.105469 " fill-opacity="1" fill-rule="nonzero"/><path fill="#f2fcfc" d="M 628.90625 26.886719 L 630.566406 26.886719 L 630.566406 28.527344 L 628.90625 28.527344 Z M 628.90625 26.886719 " fill-opacity="1" fill-rule="nonzero"/><path fill="#f2fcfc" d="M 630.566406 25.242188 L 635.546875 25.242188 L 635.546875 26.886719 L 630.566406 26.886719 Z M 630.566406 25.242188 " fill-opacity="1" fill-rule="nonzero"/><path fill="#f2fcfc" d="M 635.546875 26.886719 L 637.207031 26.886719 L 637.207031 28.527344 L 635.546875 28.527344 Z M 635.546875 26.886719 " fill-opacity="1" fill-rule="nonzero"/><path fill="#f2fcfc" d="M 637.207031 28.527344 L 638.867188 28.527344 L 638.867188 30.167969 L 637.207031 30.167969 Z M 637.207031 28.527344 " fill-opacity="1" fill-rule="nonzero"/><path fill="#f2fcfc" d="M 635.546875 30.167969 L 637.207031 30.167969 L 637.207031 31.8125 L 635.546875 31.8125 Z M 635.546875 30.167969 " fill-opacity="1" fill-rule="nonzero"/><path fill="#f2fcfc" d="M 632.226562 28.527344 L 633.886719 28.527344 L 633.886719 30.167969 L 632.226562 30.167969 Z M 632.226562 28.527344 " fill-opacity="1" fill-rule="nonzero"/><path fill="#f2fcfc" d="M 599.019531 26.886719 L 600.679688 26.886719 L 600.679688 28.527344 L 599.019531 28.527344 Z M 599.019531 26.886719 " fill-opacity="1" fill-rule="nonzero"/><path fill="#f2fcfc" d="M 535.929688 17.03125 L 537.589844 17.03125 L 537.589844 18.675781 L 535.929688 18.675781 Z M 535.929688 17.03125 " fill-opacity="1" fill-rule="nonzero"/><path fill="#f2fcfc" d="M 539.25 28.527344 L 540.910156 28.527344 L 540.910156 30.167969 L 539.25 30.167969 Z M 539.25 28.527344 " fill-opacity="1" fill-rule="nonzero"/><path fill="#f2fcfc" d="M 540.910156 30.167969 L 542.570312 30.167969 L 542.570312 31.8125 L 540.910156 31.8125 Z M 540.910156 30.167969 " fill-opacity="1" fill-rule="nonzero"/><path fill="#f2fcfc" d="M 525.964844 25.242188 L 527.625 25.242188 L 527.625 26.886719 L 525.964844 26.886719 Z M 525.964844 25.242188 " fill-opacity="1" fill-rule="nonzero"/><path fill="#f2fcfc" d="M 547.550781 25.242188 L 549.210938 25.242188 L 549.210938 26.886719 L 547.550781 26.886719 Z M 547.550781 25.242188 " fill-opacity="1" fill-rule="nonzero"/><path fill="#f2fcfc" d="M 545.890625 26.886719 L 547.550781 26.886719 L 547.550781 28.527344 L 545.890625 28.527344 Z M 545.890625 26.886719 " fill-opacity="1" fill-rule="nonzero"/><path fill="#f2fcfc" d="M 577.433594 25.242188 L 579.09375 25.242188 L 579.09375 26.886719 L 577.433594 26.886719 Z M 577.433594 25.242188 " fill-opacity="1" fill-rule="nonzero"/><path fill="#f2fcfc" d="M 574.113281 20.316406 L 575.773438 20.316406 L 575.773438 23.601562 L 574.113281 23.601562 Z M 574.113281 20.316406 " fill-opacity="1" fill-rule="nonzero"/><path fill="#f2fcfc" d="M 572.453125 18.675781 L 574.113281 18.675781 L 574.113281 20.316406 L 572.453125 20.316406 Z M 572.453125 18.675781 " fill-opacity="1" fill-rule="nonzero"/><path fill="#f2fcfc" d="M 575.773438 17.03125 L 577.433594 17.03125 L 577.433594 18.675781 L 575.773438 18.675781 Z M 575.773438 17.03125 " fill-opacity="1" fill-rule="nonzero"/><path fill="#f2fcfc" d="M 585.738281 31.8125 L 587.398438 31.8125 L 587.398438 33.453125 L 585.738281 33.453125 Z M 585.738281 31.8125 " fill-opacity="1" fill-rule="nonzero"/><path fill="#f2fcfc" d="M 587.398438 28.527344 L 590.71875 28.527344 L 590.71875 30.167969 L 587.398438 30.167969 Z M 587.398438 28.527344 " fill-opacity="1" fill-rule="nonzero"/><path fill="#f2fcfc" d="M 585.738281 26.886719 L 587.398438 26.886719 L 587.398438 28.527344 L 585.738281 28.527344 Z M 585.738281 26.886719 " fill-opacity="1" fill-rule="nonzero"/><path fill="#f2fcfc" d="M 602.339844 31.8125 L 604 31.8125 L 604 33.453125 L 602.339844 33.453125 Z M 602.339844 31.8125 " fill-opacity="1" fill-rule="nonzero"/></svg>