<svg xmlns="http://www.w3.org/2000/svg" xmlns:xlink="http://www.w3.org/1999/xlink" width="500" zoomAndPan="magnify" viewBox="0 0 375 149.999998" height="200" preserveAspectRatio="xMidYMid meet" version="1.0"><defs><clipPath id="5765366b34"><path d="M 71.628906 0 L 303.378906 0 L 303.378906 150 L 71.628906 150 Z M 71.628906 0 " clip-rule="nonzero"/></clipPath><clipPath id="7a811d00c9"><path d="M 71.628906 68 L 113 68 L 113 137 L 71.628906 137 Z M 71.628906 68 " clip-rule="nonzero"/></clipPath><clipPath id="ea8566d70f"><path d="M 289 40 L 303.378906 40 L 303.378906 69 L 289 69 Z M 289 40 " clip-rule="nonzero"/></clipPath></defs><g clip-path="url(#5765366b34)"><path fill="#ffbbea" d="M 289.746094 40.921875 L 289.746094 0.0273438 L 262.480469 0.0273438 L 262.480469 13.65625 L 248.851562 13.65625 L 248.851562 27.289062 L 221.585938 27.289062 L 221.585938 13.65625 L 207.953125 13.65625 L 207.953125 0.0273438 L 180.6875 0.0273438 L 180.6875 40.921875 L 167.054688 40.921875 L 167.054688 68.183594 L 180.6875 68.183594 L 180.6875 81.816406 L 139.789062 81.816406 L 139.789062 95.449219 L 126.160156 95.449219 L 126.160156 109.078125 L 112.527344 109.078125 L 112.527344 81.816406 L 126.160156 81.816406 L 126.160156 68.183594 L 139.789062 68.183594 L 139.789062 54.550781 L 126.160156 54.550781 L 126.160156 40.921875 L 98.894531 40.921875 L 98.894531 54.550781 L 85.261719 54.550781 L 85.261719 68.183594 L 71.628906 68.183594 L 71.628906 122.710938 L 85.261719 122.710938 L 85.261719 136.34375 L 98.894531 136.34375 L 98.894531 149.972656 L 248.851562 149.972656 L 248.851562 136.34375 L 262.480469 136.34375 L 262.480469 122.710938 L 248.851562 122.710938 L 248.851562 109.078125 L 262.480469 109.078125 L 262.480469 95.449219 L 276.113281 95.449219 L 276.113281 81.816406 L 289.746094 81.816406 L 289.746094 68.183594 L 303.378906 68.183594 L 303.378906 40.921875 Z M 289.746094 40.921875 " fill-opacity="1" fill-rule="nonzero"/></g><path fill="#57bbff" d="M 153.421875 109.078125 L 180.6875 109.078125 L 180.6875 122.710938 L 153.421875 122.710938 Z M 153.421875 109.078125 " fill-opacity="1" fill-rule="nonzero"/><path fill="#57bbff" d="M 180.6875 122.710938 L 194.320312 122.710938 L 194.320312 136.34375 L 180.6875 136.34375 Z M 180.6875 122.710938 " fill-opacity="1" fill-rule="nonzero"/><path fill="#57bbff" d="M 98.894531 40.921875 L 126.160156 40.921875 L 126.160156 54.550781 L 98.894531 54.550781 Z M 98.894531 40.921875 " fill-opacity="1" fill-rule="nonzero"/><path fill="#57bbff" d="M 126.160156 54.550781 L 139.789062 54.550781 L 139.789062 68.183594 L 126.160156 68.183594 Z M 126.160156 54.550781 " fill-opacity="1" fill-rule="nonzero"/><path fill="#57bbff" d="M 248.851562 122.710938 L 262.480469 122.710938 L 262.480469 136.34375 L 248.851562 136.34375 Z M 248.851562 122.710938 " fill-opacity="1" fill-rule="nonzero"/><path fill="#e24795" d="M 207.953125 68.183594 L 221.585938 68.183594 L 221.585938 81.816406 L 207.953125 81.816406 Z M 207.953125 68.183594 " fill-opacity="1" fill-rule="nonzero"/><path fill="#e24795" d="M 248.851562 68.183594 L 262.480469 68.183594 L 262.480469 81.816406 L 248.851562 81.816406 Z M 248.851562 68.183594 " fill-opacity="1" fill-rule="nonzero"/><path fill="#5211ba" d="M 207.953125 54.550781 L 221.585938 54.550781 L 221.585938 68.183594 L 207.953125 68.183594 Z M 207.953125 54.550781 " fill-opacity="1" fill-rule="nonzero"/><path fill="#5211ba" d="M 248.851562 54.550781 L 262.480469 54.550781 L 262.480469 68.183594 L 248.851562 68.183594 Z M 248.851562 54.550781 " fill-opacity="1" fill-rule="nonzero"/><path fill="#5211ba" d="M 180.6875 68.183594 L 194.320312 68.183594 L 194.320312 81.816406 L 180.6875 81.816406 Z M 180.6875 68.183594 " fill-opacity="1" fill-rule="nonzero"/><path fill="#5211ba" d="M 194.320312 81.816406 L 207.953125 81.816406 L 207.953125 95.449219 L 194.320312 95.449219 Z M 194.320312 81.816406 " fill-opacity="1" fill-rule="nonzero"/><path fill="#5211ba" d="M 207.953125 95.449219 L 262.480469 95.449219 L 262.480469 109.078125 L 207.953125 109.078125 Z M 207.953125 95.449219 " fill-opacity="1" fill-rule="nonzero"/><path fill="#5211ba" d="M 126.160156 109.078125 L 112.527344 109.078125 L 112.527344 136.34375 L 98.894531 136.34375 L 98.894531 149.972656 L 248.851562 149.972656 L 248.851562 136.34375 L 126.160156 136.34375 Z M 126.160156 109.078125 " fill-opacity="1" fill-rule="nonzero"/><path fill="#5211ba" d="M 262.480469 81.816406 L 276.113281 81.816406 L 276.113281 95.449219 L 262.480469 95.449219 Z M 262.480469 81.816406 " fill-opacity="1" fill-rule="nonzero"/><path fill="#5211ba" d="M 276.113281 68.183594 L 289.746094 68.183594 L 289.746094 81.816406 L 276.113281 81.816406 Z M 276.113281 68.183594 " fill-opacity="1" fill-rule="nonzero"/><path fill="#9f8fff" d="M 139.789062 95.449219 L 126.160156 95.449219 L 126.160156 136.34375 L 180.6875 136.34375 L 180.6875 122.710938 L 139.789062 122.710938 Z M 139.789062 95.449219 " fill-opacity="1" fill-rule="nonzero"/><g clip-path="url(#7a811d00c9)"><path fill="#9f8fff" d="M 98.894531 109.078125 L 85.261719 109.078125 L 85.261719 95.449219 L 98.894531 95.449219 L 98.894531 81.816406 L 85.261719 81.816406 L 85.261719 68.183594 L 71.628906 68.183594 L 71.628906 122.710938 L 85.261719 122.710938 L 85.261719 136.34375 L 112.527344 136.34375 L 112.527344 122.710938 L 98.894531 122.710938 Z M 98.894531 109.078125 " fill-opacity="1" fill-rule="nonzero"/></g><path fill="#9f8fff" d="M 85.261719 54.550781 L 98.894531 54.550781 L 98.894531 68.183594 L 85.261719 68.183594 Z M 85.261719 54.550781 " fill-opacity="1" fill-rule="nonzero"/><path fill="#9f8fff" d="M 112.527344 68.183594 L 126.160156 68.183594 L 126.160156 81.816406 L 112.527344 81.816406 Z M 112.527344 68.183594 " fill-opacity="1" fill-rule="nonzero"/><path fill="#9f8fff" d="M 194.320312 68.183594 L 207.953125 68.183594 L 207.953125 81.816406 L 194.320312 81.816406 Z M 194.320312 68.183594 " fill-opacity="1" fill-rule="nonzero"/><path fill="#9f8fff" d="M 262.480469 68.183594 L 276.113281 68.183594 L 276.113281 81.816406 L 262.480469 81.816406 Z M 262.480469 68.183594 " fill-opacity="1" fill-rule="nonzero"/><path fill="#9f8fff" d="M 207.953125 81.816406 L 262.480469 81.816406 L 262.480469 95.449219 L 207.953125 95.449219 Z M 207.953125 81.816406 " fill-opacity="1" fill-rule="nonzero"/><path fill="#9f8fff" d="M 180.6875 54.550781 L 180.6875 40.921875 L 167.054688 40.921875 L 167.054688 68.183594 L 194.320312 68.183594 L 194.320312 54.550781 Z M 180.6875 54.550781 " fill-opacity="1" fill-rule="nonzero"/><path fill="#9f8fff" d="M 180.6875 0.0273438 L 194.320312 0.0273438 L 194.320312 40.921875 L 180.6875 40.921875 Z M 180.6875 0.0273438 " fill-opacity="1" fill-rule="nonzero"/><path fill="#9f8fff" d="M 248.851562 13.65625 L 262.480469 13.65625 L 262.480469 27.289062 L 248.851562 27.289062 Z M 248.851562 13.65625 " fill-opacity="1" fill-rule="nonzero"/><path fill="#9f8fff" d="M 262.480469 0.0273438 L 276.113281 0.0273438 L 276.113281 13.65625 L 262.480469 13.65625 Z M 262.480469 0.0273438 " fill-opacity="1" fill-rule="nonzero"/><path fill="#9f8fff" d="M 235.21875 109.078125 L 248.851562 109.078125 L 248.851562 136.34375 L 235.21875 136.34375 Z M 235.21875 109.078125 " fill-opacity="1" fill-rule="nonzero"/><path fill="#57bbff" d="M 248.851562 13.65625 L 262.480469 13.65625 L 262.480469 27.289062 L 248.851562 27.289062 Z M 248.851562 13.65625 " fill-opacity="1" fill-rule="nonzero"/><g clip-path="url(#ea8566d70f)"><path fill="#57bbff" d="M 289.746094 40.921875 L 303.378906 40.921875 L 303.378906 68.183594 L 289.746094 68.183594 Z M 289.746094 40.921875 " fill-opacity="1" fill-rule="nonzero"/></g></svg>