<svg xmlns="http://www.w3.org/2000/svg" xmlns:xlink="http://www.w3.org/1999/xlink" width="500" zoomAndPan="magnify" viewBox="0 0 375 149.999998" height="200" preserveAspectRatio="xMidYMid meet" version="1.0"><defs><g/><clipPath id="770ce7f122"><path d="M 0 12.128906 L 304.5 12.128906 L 304.5 138 L 0 138 Z M 0 12.128906 " clip-rule="nonzero"/></clipPath><clipPath id="87d13ca682"><path d="M 0 12.128906 L 304.5 12.128906 L 304.5 138 L 0 138 Z M 0 12.128906 " clip-rule="nonzero"/></clipPath><clipPath id="f9399be550"><path d="M 114.835938 12.128906 L 374.84375 12.128906 L 374.84375 138 L 114.835938 138 Z M 114.835938 12.128906 " clip-rule="nonzero"/></clipPath><clipPath id="cbd36219f1"><path d="M 114.835938 48 L 116 48 L 116 67 L 114.835938 67 Z M 114.835938 48 " clip-rule="nonzero"/></clipPath><clipPath id="981b2900d4"><path d="M 114.835938 92 L 134 92 L 134 102 L 114.835938 102 Z M 114.835938 92 " clip-rule="nonzero"/></clipPath><clipPath id="e2d19f7bc0"><path d="M 114.835938 39 L 367 39 L 367 129 L 114.835938 129 Z M 114.835938 39 " clip-rule="nonzero"/></clipPath><clipPath id="2cdf9323a3"><path d="M 114.835938 39 L 116 39 L 116 76 L 114.835938 76 Z M 114.835938 39 " clip-rule="nonzero"/></clipPath><clipPath id="1823a782d0"><path d="M 114.835938 21 L 349 21 L 349 31 L 114.835938 31 Z M 114.835938 21 " clip-rule="nonzero"/></clipPath><clipPath id="4069fb5642"><path d="M 114.835938 12.128906 L 374.84375 12.128906 L 374.84375 138 L 114.835938 138 Z M 114.835938 12.128906 " clip-rule="nonzero"/></clipPath></defs><g clip-path="url(#770ce7f122)"><path fill="#ff63d8" d="M 304.535156 39.238281 L 304.535156 110.347656 L 295.601562 110.347656 L 295.601562 119.238281 L 286.65625 119.238281 L 286.65625 128.121094 L 277.722656 128.121094 L 277.722656 137.007812 L 27.480469 137.007812 L 27.480469 128.121094 L 18.546875 128.121094 L 18.546875 119.238281 L 9.601562 119.238281 L 9.601562 110.347656 L 0.667969 110.347656 L 0.667969 39.238281 L 9.601562 39.238281 L 9.601562 30.359375 L 18.546875 30.359375 L 18.546875 21.492188 L 27.480469 21.492188 L 27.480469 12.578125 L 277.722656 12.578125 L 277.722656 21.492188 L 286.65625 21.492188 L 286.65625 30.359375 L 295.601562 30.359375 L 295.601562 39.238281 Z M 304.535156 39.238281 " fill-opacity="1" fill-rule="nonzero"/></g><path fill="#ffffff" d="M 35.945312 57.089844 L 35.945312 66.035156 L 44.898438 66.035156 L 44.898438 48.132812 L 35.945312 48.132812 Z M 35.945312 57.089844 " fill-opacity="1" fill-rule="nonzero"/><path fill="#ffffff" d="M 53.84375 39.179688 L 44.898438 39.179688 L 44.898438 48.132812 L 71.753906 48.132812 L 71.753906 39.179688 Z M 53.84375 39.179688 " fill-opacity="1" fill-rule="nonzero"/><path fill="#ffffff" d="M 53.84375 74.996094 L 62.804688 74.996094 L 62.804688 66.035156 L 44.898438 66.035156 L 44.898438 74.996094 Z M 53.84375 74.996094 " fill-opacity="1" fill-rule="nonzero"/><path fill="#ffffff" d="M 44.898438 92.894531 L 35.945312 92.894531 L 35.945312 101.851562 L 62.804688 101.851562 L 62.804688 92.894531 Z M 44.898438 92.894531 " fill-opacity="1" fill-rule="nonzero"/><path fill="#ffffff" d="M 62.804688 92.894531 L 71.753906 92.894531 L 71.753906 74.996094 L 62.804688 74.996094 Z M 62.804688 92.894531 " fill-opacity="1" fill-rule="nonzero"/><path fill="#ffffff" d="M 116.515625 39.179688 L 98.613281 39.179688 L 98.613281 101.851562 L 134.429688 101.851562 L 134.429688 66.035156 L 116.515625 66.035156 L 116.515625 74.996094 L 125.46875 74.996094 L 125.46875 92.894531 L 107.570312 92.894531 L 107.570312 48.132812 L 134.429688 48.132812 L 134.429688 39.179688 Z M 116.515625 39.179688 " fill-opacity="1" fill-rule="nonzero"/><path fill="#ffffff" d="M 206.054688 48.132812 L 206.054688 101.851562 L 215 101.851562 L 215 39.179688 L 206.054688 39.179688 Z M 206.054688 48.132812 " fill-opacity="1" fill-rule="nonzero"/><path fill="#ffffff" d="M 250.8125 39.179688 L 250.8125 57.089844 L 241.867188 57.089844 L 241.867188 48.132812 L 232.910156 48.132812 L 232.910156 39.179688 L 223.957031 39.179688 L 223.957031 101.851562 L 232.910156 101.851562 L 232.910156 66.035156 L 241.867188 66.035156 L 241.867188 74.996094 L 250.8125 74.996094 L 250.8125 101.851562 L 259.765625 101.851562 L 259.765625 39.179688 Z M 250.8125 39.179688 " fill-opacity="1" fill-rule="nonzero"/><path fill="#ffffff" d="M 80.703125 48.132812 L 80.703125 101.851562 L 89.660156 101.851562 L 89.660156 39.179688 L 80.703125 39.179688 Z M 80.703125 48.132812 " fill-opacity="1" fill-rule="nonzero"/><path fill="#ffffff" d="M 170.238281 48.132812 L 170.238281 57.089844 L 161.285156 57.089844 L 161.285156 48.132812 L 152.332031 48.132812 L 152.332031 39.179688 L 143.378906 39.179688 L 143.378906 101.851562 L 152.332031 101.851562 L 152.332031 66.035156 L 161.285156 66.035156 L 161.285156 74.996094 L 170.238281 74.996094 L 170.238281 101.851562 L 179.195312 101.851562 L 179.195312 39.179688 L 170.238281 39.179688 Z M 170.238281 48.132812 " fill-opacity="1" fill-rule="nonzero"/><path fill="#cb34a5" d="M 170.335938 48.132812 L 170.335938 39.082031 L 161.1875 39.082031 L 161.1875 57.1875 L 170.335938 57.1875 Z M 170.335938 48.132812 " fill-opacity="1" fill-rule="nonzero"/><path fill="#cb34a5" d="M 161.1875 83.949219 L 161.1875 101.949219 L 170.335938 101.949219 L 170.335938 74.898438 L 161.382812 74.898438 L 161.382812 65.9375 L 152.242188 65.9375 L 152.242188 75.09375 L 161.1875 75.09375 Z M 161.1875 83.949219 " fill-opacity="1" fill-rule="nonzero"/><path fill="#cb34a5" d="M 143.480469 92.894531 L 143.480469 39.082031 L 134.328125 39.082031 L 134.328125 101.949219 L 143.480469 101.949219 Z M 143.480469 92.894531 " fill-opacity="1" fill-rule="nonzero"/><path fill="#cb34a5" d="M 241.769531 83.949219 L 241.769531 101.949219 L 250.914062 101.949219 L 250.914062 74.898438 L 241.964844 74.898438 L 241.964844 65.9375 L 232.8125 65.9375 L 232.8125 75.09375 L 241.769531 75.09375 Z M 241.769531 83.949219 " fill-opacity="1" fill-rule="nonzero"/><path fill="#cb34a5" d="M 250.914062 48.132812 L 250.914062 39.082031 L 241.769531 39.082031 L 241.769531 57.1875 L 250.914062 57.1875 Z M 250.914062 48.132812 " fill-opacity="1" fill-rule="nonzero"/><path fill="#cb34a5" d="M 125.566406 83.949219 L 125.566406 74.898438 L 116.417969 74.898438 L 116.417969 92.992188 L 125.566406 92.992188 Z M 125.566406 83.949219 " fill-opacity="1" fill-rule="nonzero"/><path fill="#cb34a5" d="M 224.054688 92.894531 L 224.054688 39.082031 L 214.898438 39.082031 L 214.898438 101.949219 L 224.054688 101.949219 Z M 224.054688 92.894531 " fill-opacity="1" fill-rule="nonzero"/><path fill="#cb34a5" d="M 206.152344 92.894531 L 206.152344 39.082031 L 197.003906 39.082031 L 197.003906 101.949219 L 206.152344 101.949219 Z M 206.152344 92.894531 " fill-opacity="1" fill-rule="nonzero"/><path fill="#cb34a5" d="M 36.042969 92.796875 L 26.890625 92.796875 L 26.890625 101.949219 L 36.042969 101.949219 Z M 36.042969 92.796875 " fill-opacity="1" fill-rule="nonzero"/><path fill="#cb34a5" d="M 286.523438 39.082031 L 286.523438 110.707031 L 277.574219 110.707031 L 277.574219 119.664062 L 26.890625 119.664062 L 26.890625 128.808594 L 277.769531 128.808594 L 277.769531 119.863281 L 286.722656 119.863281 L 286.722656 110.902344 L 295.679688 110.902344 L 295.679688 39.082031 Z M 286.523438 39.082031 " fill-opacity="1" fill-rule="nonzero"/><path fill="#cb34a5" d="M 98.710938 92.894531 L 98.710938 39.082031 L 89.5625 39.082031 L 89.5625 101.949219 L 98.710938 101.949219 Z M 98.710938 92.894531 " fill-opacity="1" fill-rule="nonzero"/><path fill="#cb34a5" d="M 35.847656 75.09375 L 44.996094 75.09375 L 44.996094 65.9375 L 36.042969 65.9375 L 36.042969 48.230469 L 44.996094 48.230469 L 44.996094 39.082031 L 35.847656 39.082031 L 35.847656 48.035156 L 26.890625 48.035156 L 26.890625 66.136719 L 35.847656 66.136719 Z M 35.847656 75.09375 " fill-opacity="1" fill-rule="nonzero"/><path fill="#cb34a5" d="M 62.902344 83.949219 L 62.902344 74.898438 L 53.746094 74.898438 L 53.746094 92.992188 L 62.902344 92.992188 Z M 62.902344 83.949219 " fill-opacity="1" fill-rule="nonzero"/><path fill="#cb34a5" d="M 80.800781 92.894531 L 80.800781 39.082031 L 71.65625 39.082031 L 71.65625 101.949219 L 80.800781 101.949219 Z M 80.800781 92.894531 " fill-opacity="1" fill-rule="nonzero"/><path fill="#cb34a5" d="M 18.042969 30.234375 L 26.996094 30.234375 L 26.996094 39.1875 L 18.042969 39.1875 Z M 18.042969 30.234375 " fill-opacity="1" fill-rule="nonzero"/><path fill="#cb34a5" d="M 268.726562 21.273438 L 26.988281 21.273438 L 26.988281 30.226562 L 277.675781 30.226562 L 277.675781 21.273438 Z M 268.726562 21.273438 " fill-opacity="1" fill-rule="nonzero"/><path fill="#ff63d8" d="M 116.515625 48.132812 L 107.570312 48.132812 L 107.570312 92.894531 L 116.515625 92.894531 L 116.515625 66.035156 L 134.429688 66.035156 L 134.429688 48.132812 Z M 116.515625 48.132812 " fill-opacity="1" fill-rule="nonzero"/><path fill="#ff63d8" d="M 53.84375 48.132812 L 44.898438 48.132812 L 44.898438 66.035156 L 62.804688 66.035156 L 62.804688 74.996094 L 71.753906 74.996094 L 71.753906 48.132812 Z M 53.84375 48.132812 " fill-opacity="1" fill-rule="nonzero"/><g clip-path="url(#87d13ca682)"><path fill="#3d3b52" d="M 295.714844 39.050781 L 295.714844 30.101562 L 286.753906 30.101562 L 286.753906 21.144531 L 277.800781 21.144531 L 277.800781 12.191406 L 26.855469 12.191406 L 26.855469 21.144531 L 17.910156 21.144531 L 17.910156 30.101562 L 8.953125 30.101562 L 8.953125 39.050781 L 0 39.050781 L 0 110.9375 L 8.953125 110.9375 L 8.953125 119.894531 L 17.910156 119.894531 L 17.910156 128.839844 L 26.855469 128.839844 L 26.855469 137.792969 L 277.800781 137.792969 L 277.800781 128.839844 L 286.746094 128.839844 L 286.746094 119.894531 L 295.707031 119.894531 L 295.707031 110.9375 L 304.652344 110.9375 L 304.652344 39.050781 Z M 295.484375 48.132812 L 295.484375 110.671875 L 286.492188 110.671875 L 286.492188 119.632812 L 277.546875 119.632812 L 277.546875 128.578125 L 27.117188 128.578125 L 27.117188 119.632812 L 18.171875 119.632812 L 18.171875 110.671875 L 9.214844 110.671875 L 9.214844 39.292969 L 18.171875 39.292969 L 18.171875 30.363281 L 27.117188 30.363281 L 27.117188 21.40625 L 277.546875 21.40625 L 277.546875 30.363281 L 286.492188 30.363281 L 286.492188 39.3125 L 295.484375 39.3125 Z M 295.484375 48.132812 " fill-opacity="1" fill-rule="nonzero"/></g><g clip-path="url(#f9399be550)"><path fill="#ff63d8" d="M 374.878906 39.238281 L 374.878906 110.347656 L 365.945312 110.347656 L 365.945312 119.238281 L 357 119.238281 L 357 128.121094 L 348.070312 128.121094 L 348.070312 137.007812 L 97.824219 137.007812 L 97.824219 128.121094 L 88.890625 128.121094 L 88.890625 119.238281 L 79.945312 119.238281 L 79.945312 110.347656 L 71.011719 110.347656 L 71.011719 39.238281 L 79.945312 39.238281 L 79.945312 30.359375 L 88.890625 30.359375 L 88.890625 21.492188 L 97.824219 21.492188 L 97.824219 12.578125 L 348.070312 12.578125 L 348.070312 21.492188 L 357 21.492188 L 357 30.359375 L 365.945312 30.359375 L 365.945312 39.238281 Z M 374.878906 39.238281 " fill-opacity="1" fill-rule="nonzero"/></g><g clip-path="url(#cbd36219f1)"><path fill="#ffffff" d="M 106.292969 57.089844 L 106.292969 66.035156 L 115.242188 66.035156 L 115.242188 48.132812 L 106.292969 48.132812 Z M 106.292969 57.089844 " fill-opacity="1" fill-rule="nonzero"/></g><path fill="#ffffff" d="M 124.191406 39.179688 L 115.242188 39.179688 L 115.242188 48.132812 L 142.101562 48.132812 L 142.101562 39.179688 Z M 124.191406 39.179688 " fill-opacity="1" fill-rule="nonzero"/><path fill="#ffffff" d="M 124.191406 74.996094 L 133.148438 74.996094 L 133.148438 66.035156 L 115.242188 66.035156 L 115.242188 74.996094 Z M 124.191406 74.996094 " fill-opacity="1" fill-rule="nonzero"/><g clip-path="url(#981b2900d4)"><path fill="#ffffff" d="M 115.242188 92.894531 L 106.292969 92.894531 L 106.292969 101.851562 L 133.148438 101.851562 L 133.148438 92.894531 Z M 115.242188 92.894531 " fill-opacity="1" fill-rule="nonzero"/></g><path fill="#ffffff" d="M 133.148438 92.894531 L 142.101562 92.894531 L 142.101562 74.996094 L 133.148438 74.996094 Z M 133.148438 92.894531 " fill-opacity="1" fill-rule="nonzero"/><path fill="#ffffff" d="M 186.863281 39.179688 L 168.957031 39.179688 L 168.957031 101.851562 L 204.773438 101.851562 L 204.773438 66.035156 L 186.863281 66.035156 L 186.863281 74.996094 L 195.8125 74.996094 L 195.8125 92.894531 L 177.917969 92.894531 L 177.917969 48.132812 L 204.773438 48.132812 L 204.773438 39.179688 Z M 186.863281 39.179688 " fill-opacity="1" fill-rule="nonzero"/><path fill="#ffffff" d="M 276.398438 48.132812 L 276.398438 101.851562 L 285.34375 101.851562 L 285.34375 39.179688 L 276.398438 39.179688 Z M 276.398438 48.132812 " fill-opacity="1" fill-rule="nonzero"/><path fill="#ffffff" d="M 321.160156 39.179688 L 321.160156 57.089844 L 312.214844 57.089844 L 312.214844 48.132812 L 303.253906 48.132812 L 303.253906 39.179688 L 294.300781 39.179688 L 294.300781 101.851562 L 303.253906 101.851562 L 303.253906 66.035156 L 312.214844 66.035156 L 312.214844 74.996094 L 321.160156 74.996094 L 321.160156 101.851562 L 330.113281 101.851562 L 330.113281 39.179688 Z M 321.160156 39.179688 " fill-opacity="1" fill-rule="nonzero"/><path fill="#ffffff" d="M 151.046875 48.132812 L 151.046875 101.851562 L 160.003906 101.851562 L 160.003906 39.179688 L 151.046875 39.179688 Z M 151.046875 48.132812 " fill-opacity="1" fill-rule="nonzero"/><path fill="#ffffff" d="M 240.582031 48.132812 L 240.582031 57.089844 L 231.628906 57.089844 L 231.628906 48.132812 L 222.679688 48.132812 L 222.679688 39.179688 L 213.726562 39.179688 L 213.726562 101.851562 L 222.679688 101.851562 L 222.679688 66.035156 L 231.628906 66.035156 L 231.628906 74.996094 L 240.582031 74.996094 L 240.582031 101.851562 L 249.542969 101.851562 L 249.542969 39.179688 L 240.582031 39.179688 Z M 240.582031 48.132812 " fill-opacity="1" fill-rule="nonzero"/><path fill="#cb34a5" d="M 240.679688 48.132812 L 240.679688 39.082031 L 231.53125 39.082031 L 231.53125 57.1875 L 240.679688 57.1875 Z M 240.679688 48.132812 " fill-opacity="1" fill-rule="nonzero"/><path fill="#cb34a5" d="M 231.53125 83.949219 L 231.53125 101.949219 L 240.679688 101.949219 L 240.679688 74.898438 L 231.726562 74.898438 L 231.726562 65.9375 L 222.585938 65.9375 L 222.585938 75.09375 L 231.53125 75.09375 Z M 231.53125 83.949219 " fill-opacity="1" fill-rule="nonzero"/><path fill="#cb34a5" d="M 213.824219 92.894531 L 213.824219 39.082031 L 204.675781 39.082031 L 204.675781 101.949219 L 213.824219 101.949219 Z M 213.824219 92.894531 " fill-opacity="1" fill-rule="nonzero"/><path fill="#cb34a5" d="M 312.117188 83.949219 L 312.117188 101.949219 L 321.257812 101.949219 L 321.257812 74.898438 L 312.3125 74.898438 L 312.3125 65.9375 L 303.15625 65.9375 L 303.15625 75.09375 L 312.117188 75.09375 Z M 312.117188 83.949219 " fill-opacity="1" fill-rule="nonzero"/><path fill="#cb34a5" d="M 321.257812 48.132812 L 321.257812 39.082031 L 312.117188 39.082031 L 312.117188 57.1875 L 321.257812 57.1875 Z M 321.257812 48.132812 " fill-opacity="1" fill-rule="nonzero"/><path fill="#cb34a5" d="M 195.914062 83.949219 L 195.914062 74.898438 L 186.765625 74.898438 L 186.765625 92.992188 L 195.914062 92.992188 Z M 195.914062 83.949219 " fill-opacity="1" fill-rule="nonzero"/><path fill="#cb34a5" d="M 294.402344 92.894531 L 294.402344 39.082031 L 285.246094 39.082031 L 285.246094 101.949219 L 294.402344 101.949219 Z M 294.402344 92.894531 " fill-opacity="1" fill-rule="nonzero"/><path fill="#cb34a5" d="M 276.496094 92.894531 L 276.496094 39.082031 L 267.347656 39.082031 L 267.347656 101.949219 L 276.496094 101.949219 Z M 276.496094 92.894531 " fill-opacity="1" fill-rule="nonzero"/><g clip-path="url(#e2d19f7bc0)"><path fill="#cb34a5" d="M 356.871094 39.082031 L 356.871094 110.707031 L 347.917969 110.707031 L 347.917969 119.664062 L 97.234375 119.664062 L 97.234375 128.808594 L 348.113281 128.808594 L 348.113281 119.863281 L 357.066406 119.863281 L 357.066406 110.902344 L 366.027344 110.902344 L 366.027344 39.082031 Z M 356.871094 39.082031 " fill-opacity="1" fill-rule="nonzero"/></g><path fill="#cb34a5" d="M 169.054688 92.894531 L 169.054688 39.082031 L 159.90625 39.082031 L 159.90625 101.949219 L 169.054688 101.949219 Z M 169.054688 92.894531 " fill-opacity="1" fill-rule="nonzero"/><g clip-path="url(#2cdf9323a3)"><path fill="#cb34a5" d="M 106.195312 75.09375 L 115.34375 75.09375 L 115.34375 65.9375 L 106.390625 65.9375 L 106.390625 48.230469 L 115.34375 48.230469 L 115.34375 39.082031 L 106.195312 39.082031 L 106.195312 48.035156 L 97.234375 48.035156 L 97.234375 66.136719 L 106.195312 66.136719 Z M 106.195312 75.09375 " fill-opacity="1" fill-rule="nonzero"/></g><path fill="#cb34a5" d="M 133.246094 83.949219 L 133.246094 74.898438 L 124.089844 74.898438 L 124.089844 92.992188 L 133.246094 92.992188 Z M 133.246094 83.949219 " fill-opacity="1" fill-rule="nonzero"/><path fill="#cb34a5" d="M 151.144531 92.894531 L 151.144531 39.082031 L 142.003906 39.082031 L 142.003906 101.949219 L 151.144531 101.949219 Z M 151.144531 92.894531 " fill-opacity="1" fill-rule="nonzero"/><g clip-path="url(#1823a782d0)"><path fill="#cb34a5" d="M 339.070312 21.273438 L 97.332031 21.273438 L 97.332031 30.226562 L 348.023438 30.226562 L 348.023438 21.273438 Z M 339.070312 21.273438 " fill-opacity="1" fill-rule="nonzero"/></g><path fill="#ff63d8" d="M 186.863281 48.132812 L 177.917969 48.132812 L 177.917969 92.894531 L 186.863281 92.894531 L 186.863281 66.035156 L 204.773438 66.035156 L 204.773438 48.132812 Z M 186.863281 48.132812 " fill-opacity="1" fill-rule="nonzero"/><path fill="#ff63d8" d="M 124.191406 48.132812 L 115.242188 48.132812 L 115.242188 66.035156 L 133.148438 66.035156 L 133.148438 74.996094 L 142.101562 74.996094 L 142.101562 48.132812 Z M 124.191406 48.132812 " fill-opacity="1" fill-rule="nonzero"/><g clip-path="url(#4069fb5642)"><path fill="#3d3b52" d="M 366.058594 39.050781 L 366.058594 30.101562 L 357.097656 30.101562 L 357.097656 21.144531 L 348.148438 21.144531 L 348.148438 12.191406 L 97.203125 12.191406 L 97.203125 21.144531 L 88.257812 21.144531 L 88.257812 30.101562 L 79.296875 30.101562 L 79.296875 39.050781 L 70.34375 39.050781 L 70.34375 110.9375 L 79.296875 110.9375 L 79.296875 119.894531 L 88.257812 119.894531 L 88.257812 128.839844 L 97.203125 128.839844 L 97.203125 137.792969 L 348.148438 137.792969 L 348.148438 128.839844 L 357.09375 128.839844 L 357.09375 119.894531 L 366.050781 119.894531 L 366.050781 110.9375 L 374.996094 110.9375 L 374.996094 39.050781 Z M 365.828125 48.132812 L 365.828125 110.671875 L 356.835938 110.671875 L 356.835938 119.632812 L 347.890625 119.632812 L 347.890625 128.578125 L 97.464844 128.578125 L 97.464844 119.632812 L 88.519531 119.632812 L 88.519531 110.671875 L 79.558594 110.671875 L 79.558594 39.292969 L 88.519531 39.292969 L 88.519531 30.363281 L 97.464844 30.363281 L 97.464844 21.40625 L 347.890625 21.40625 L 347.890625 30.363281 L 356.835938 30.363281 L 356.835938 39.3125 L 365.828125 39.3125 Z M 365.828125 48.132812 " fill-opacity="1" fill-rule="nonzero"/></g><path stroke-linecap="butt" transform="matrix(0.75, -0.000000000000000093, 0.000000000000000093, 0.75, 22.69279, 75.264072)" fill="none" stroke-linejoin="miter" d="M -0.00184495 22.502072 L 430.347138 22.502072 " stroke="#ff56d3" stroke-width="45" stroke-opacity="1" stroke-miterlimit="4"/><path stroke-linecap="butt" transform="matrix(0.75, -0.000000000000000093, 0.000000000000000093, 0.75, 22.69279, 43.72817)" fill="none" stroke-linejoin="miter" d="M -0.00184495 22.497858 L 430.347138 22.497858 " stroke="#ff56d3" stroke-width="45" stroke-opacity="1" stroke-miterlimit="4"/><path stroke-linecap="butt" transform="matrix(0.75, 0, 0, 0.75, 30.052476, 38.243668)" fill="none" stroke-linejoin="miter" d="M -0.00225926 22.498027 L 424.430057 22.498027 " stroke="#ff56d3" stroke-width="45" stroke-opacity="1" stroke-miterlimit="4"/><g fill="#e020a0" fill-opacity="1"><g transform="translate(78.762963, 94.499996)"><g><path d="M 4.382812 0 L 13.144531 0 L 13.144531 -17.527344 L 39.433594 -17.527344 L 39.433594 0 L 48.199219 0 L 48.199219 -43.816406 L 39.433594 -43.816406 L 39.433594 -26.289062 L 13.144531 -26.289062 L 13.144531 -43.816406 L 4.382812 -43.816406 Z M 4.382812 0 "/></g></g></g><g fill="#e020a0" fill-opacity="1"><g transform="translate(131.338467, 94.499996)"><g><path d="M 39.433594 -8.761719 L 13.144531 -8.761719 L 13.144531 0 L 39.433594 0 Z M 4.382812 -8.761719 L 13.144531 -8.761719 L 13.144531 -35.054688 L 4.382812 -35.054688 Z M 13.144531 -35.054688 L 39.433594 -35.054688 L 39.433594 -43.816406 L 13.144531 -43.816406 Z M 39.433594 -8.761719 L 48.199219 -8.761719 L 48.199219 -35.054688 L 39.433594 -35.054688 Z M 39.433594 -8.761719 "/></g></g></g><g fill="#e020a0" fill-opacity="1"><g transform="translate(183.913972, 94.499996)"><g><path d="M 39.433594 0 L 48.199219 0 L 48.199219 -43.816406 L 39.433594 -43.816406 L 39.433594 -35.054688 L 30.671875 -35.054688 L 30.671875 -26.289062 L 39.433594 -26.289062 Z M 4.382812 0 L 13.144531 0 L 13.144531 -26.289062 L 21.910156 -26.289062 L 21.910156 -35.054688 L 13.144531 -35.054688 L 13.144531 -43.816406 L 4.382812 -43.816406 Z M 21.910156 -17.527344 L 30.671875 -17.527344 L 30.671875 -26.289062 L 21.910156 -26.289062 Z M 21.910156 -17.527344 "/></g></g></g><g fill="#e020a0" fill-opacity="1"><g transform="translate(236.489477, 94.499996)"><g><path d="M 4.382812 0 L 48.199219 0 L 48.199219 -8.761719 L 13.144531 -8.761719 L 13.144531 -17.527344 L 39.433594 -17.527344 L 39.433594 -26.289062 L 13.144531 -26.289062 L 13.144531 -35.054688 L 48.199219 -35.054688 L 48.199219 -43.816406 L 4.382812 -43.816406 Z M 4.382812 0 "/></g></g></g><g fill="#ffffff" fill-opacity="1"><g transform="translate(85.36598, 94.499996)"><g><path d="M 4.382812 0 L 13.144531 0 L 13.144531 -17.527344 L 39.433594 -17.527344 L 39.433594 0 L 48.199219 0 L 48.199219 -43.816406 L 39.433594 -43.816406 L 39.433594 -26.289062 L 13.144531 -26.289062 L 13.144531 -43.816406 L 4.382812 -43.816406 Z M 4.382812 0 "/></g></g></g><g fill="#ffffff" fill-opacity="1"><g transform="translate(137.941484, 94.499996)"><g><path d="M 39.433594 -8.761719 L 13.144531 -8.761719 L 13.144531 0 L 39.433594 0 Z M 4.382812 -8.761719 L 13.144531 -8.761719 L 13.144531 -35.054688 L 4.382812 -35.054688 Z M 13.144531 -35.054688 L 39.433594 -35.054688 L 39.433594 -43.816406 L 13.144531 -43.816406 Z M 39.433594 -8.761719 L 48.199219 -8.761719 L 48.199219 -35.054688 L 39.433594 -35.054688 Z M 39.433594 -8.761719 "/></g></g></g><g fill="#ffffff" fill-opacity="1"><g transform="translate(190.516989, 94.499996)"><g><path d="M 39.433594 0 L 48.199219 0 L 48.199219 -43.816406 L 39.433594 -43.816406 L 39.433594 -35.054688 L 30.671875 -35.054688 L 30.671875 -26.289062 L 39.433594 -26.289062 Z M 4.382812 0 L 13.144531 0 L 13.144531 -26.289062 L 21.910156 -26.289062 L 21.910156 -35.054688 L 13.144531 -35.054688 L 13.144531 -43.816406 L 4.382812 -43.816406 Z M 21.910156 -17.527344 L 30.671875 -17.527344 L 30.671875 -26.289062 L 21.910156 -26.289062 Z M 21.910156 -17.527344 "/></g></g></g><g fill="#ffffff" fill-opacity="1"><g transform="translate(243.092494, 94.499996)"><g><path d="M 4.382812 0 L 48.199219 0 L 48.199219 -8.761719 L 13.144531 -8.761719 L 13.144531 -17.527344 L 39.433594 -17.527344 L 39.433594 -26.289062 L 13.144531 -26.289062 L 13.144531 -35.054688 L 48.199219 -35.054688 L 48.199219 -43.816406 L 4.382812 -43.816406 Z M 4.382812 0 "/></g></g></g></svg>