<svg xmlns="http://www.w3.org/2000/svg" xmlns:xlink="http://www.w3.org/1999/xlink" width="500" zoomAndPan="magnify" viewBox="0 0 375 149.999998" height="200" preserveAspectRatio="xMidYMid meet" version="1.0"><defs><g/><clipPath id="1a18fd3635"><path d="M 0 15 L 267 15 L 267 129.339844 L 0 129.339844 Z M 0 15 " clip-rule="nonzero"/></clipPath><clipPath id="55dac698ac"><path d="M 145.773438 15 L 374.457031 15 L 374.457031 127.796875 L 145.773438 127.796875 Z M 145.773438 15 " clip-rule="nonzero"/></clipPath><clipPath id="9d6bddf961"><path d="M 145.773438 38 L 368 38 L 368 122 L 145.773438 122 Z M 145.773438 38 " clip-rule="nonzero"/></clipPath><clipPath id="42801e6435"><path d="M 145.773438 23 L 353 23 L 353 39 L 145.773438 39 Z M 145.773438 23 " clip-rule="nonzero"/></clipPath><clipPath id="1217c961e8"><path d="M 145.773438 15 L 374.457031 15 L 374.457031 127.796875 L 145.773438 127.796875 Z M 145.773438 15 " clip-rule="nonzero"/></clipPath></defs><path fill="#00ed60" d="M 265.992188 38.082031 L 265.992188 37.601562 L 259.3125 37.601562 L 259.3125 31.15625 L 259.046875 31.15625 L 259.046875 30.671875 L 251.574219 30.671875 L 251.574219 23.46875 L 251.304688 23.46875 L 251.304688 22.988281 L 243.832031 22.988281 L 243.832031 15.785156 L 243.5625 15.785156 L 243.5625 15.304688 L 22.964844 15.304688 L 22.964844 22.988281 L 16 22.988281 L 16 30.453125 L 15.820312 30.453125 L 15.820312 30.671875 L 8.261719 30.671875 L 8.261719 37.601562 L 0.519531 37.601562 L 0.519531 106.042969 L 0.789062 106.042969 L 0.789062 106.519531 L 8.261719 106.519531 L 8.261719 113.71875 L 8.527344 113.71875 L 8.527344 114.199219 L 16 114.199219 L 16 120.652344 L 16.25 120.652344 L 16.25 121.132812 L 22.964844 121.132812 L 22.964844 128.347656 L 23.230469 128.347656 L 23.230469 128.824219 L 243.832031 128.824219 L 243.832031 121.132812 L 243.746094 121.132812 L 243.746094 120.652344 L 243.832031 120.652344 L 243.832031 121.132812 L 251.597656 121.132812 L 251.597656 114.214844 L 259.335938 114.214844 L 259.335938 106.550781 L 266.300781 106.550781 L 266.300781 38.082031 Z M 243.5625 113.855469 Z M 251.328125 106.042969 L 251.328125 105.832031 Z M 251.328125 106.042969 " fill-opacity="1" fill-rule="nonzero"/><path fill="#00ed60" d="M 259.109375 38.074219 L 259.109375 31.164062 L 251.339844 31.164062 L 251.339844 38.441406 L 251.101562 38.441406 L 251.101562 31.164062 L 251.339844 31.164062 L 251.339844 23.503906 L 243.574219 23.503906 L 243.574219 30.933594 L 243.488281 30.933594 L 243.488281 23.503906 L 243.574219 23.503906 L 243.574219 15.800781 L 22.972656 15.800781 L 22.972656 23.503906 L 16.007812 23.503906 L 16.007812 30.933594 L 15.828125 30.933594 L 15.828125 31.164062 L 8.261719 31.164062 L 8.261719 38.074219 L 0.519531 38.074219 L 0.519531 106.441406 L 8.285156 106.441406 L 8.285156 106.238281 L 8.554688 106.238281 L 8.554688 106.441406 L 8.285156 106.441406 L 8.285156 114.125 L 16.054688 114.125 L 16.054688 121.039062 L 22.972656 121.039062 L 22.972656 128.722656 L 243.621094 128.722656 L 243.621094 121.039062 L 243.539062 121.039062 L 243.539062 114.25 L 243.621094 114.25 L 243.621094 121.039062 L 251.386719 121.039062 L 251.386719 114.125 L 259.15625 114.125 L 259.15625 106.441406 L 266.121094 106.441406 L 266.121094 38.074219 Z M 251.097656 113.796875 L 251.097656 107.074219 L 251.335938 107.074219 L 251.335938 113.796875 Z M 258.3125 106.808594 L 251.363281 106.808594 L 251.363281 106.597656 L 258.3125 106.597656 Z M 258.3125 106.808594 " fill-opacity="1" fill-rule="nonzero"/><path fill="#ffffff" d="M 76.445312 45.777344 L 84.058594 45.777344 L 84.058594 53.386719 L 76.445312 53.386719 Z M 76.445312 45.777344 " fill-opacity="1" fill-rule="nonzero"/><path fill="#ffffff" d="M 61.234375 45.777344 L 68.84375 45.777344 L 68.84375 53.386719 L 61.234375 53.386719 Z M 61.234375 45.777344 " fill-opacity="1" fill-rule="nonzero"/><path fill="#ffffff" d="M 53.628906 38.171875 L 46.027344 38.171875 L 46.027344 99.015625 L 53.628906 99.015625 L 53.628906 45.769531 L 61.234375 45.769531 L 61.234375 38.171875 Z M 53.628906 38.171875 " fill-opacity="1" fill-rule="nonzero"/><path fill="#ffffff" d="M 84.058594 38.171875 L 84.058594 45.769531 L 91.65625 45.769531 L 91.65625 99.015625 L 99.257812 99.015625 L 99.257812 38.171875 Z M 84.058594 38.171875 " fill-opacity="1" fill-rule="nonzero"/><path fill="#ffffff" d="M 68.84375 60.980469 L 68.84375 68.585938 L 76.445312 68.585938 L 76.445312 53.386719 L 68.84375 53.386719 Z M 68.84375 60.980469 " fill-opacity="1" fill-rule="nonzero"/><path fill="#ffffff" d="M 205.730469 91.410156 L 198.128906 91.410156 L 198.128906 99.015625 L 220.949219 99.015625 L 220.949219 91.410156 Z M 205.730469 91.410156 " fill-opacity="1" fill-rule="nonzero"/><path fill="#ffffff" d="M 220.949219 38.171875 L 220.949219 91.410156 L 228.546875 91.410156 L 228.546875 38.171875 Z M 220.949219 38.171875 " fill-opacity="1" fill-rule="nonzero"/><path fill="#ffffff" d="M 122.078125 38.171875 L 106.867188 38.171875 L 106.867188 99.015625 L 137.285156 99.015625 L 137.285156 91.410156 L 114.46875 91.410156 L 114.46875 68.585938 L 129.683594 68.585938 L 129.683594 60.980469 L 114.46875 60.980469 L 114.46875 45.769531 L 137.285156 45.769531 L 137.285156 38.171875 Z M 122.078125 38.171875 " fill-opacity="1" fill-rule="nonzero"/><path fill="#ffffff" d="M 198.128906 76.199219 L 198.128906 38.171875 L 190.523438 38.171875 L 190.523438 91.410156 L 198.128906 91.410156 Z M 198.128906 76.199219 " fill-opacity="1" fill-rule="nonzero"/><path fill="#ffffff" d="M 175.3125 45.769531 L 175.3125 60.980469 L 167.707031 60.980469 L 167.707031 53.386719 L 160.097656 53.386719 L 160.097656 45.769531 L 152.496094 45.769531 L 152.496094 38.171875 L 144.898438 38.171875 L 144.898438 99.015625 L 152.496094 99.015625 L 152.496094 60.980469 L 160.097656 60.980469 L 160.097656 68.585938 L 167.707031 68.585938 L 167.707031 76.199219 L 175.3125 76.199219 L 175.3125 99.015625 L 182.917969 99.015625 L 182.917969 38.171875 L 175.3125 38.171875 Z M 175.3125 45.769531 " fill-opacity="1" fill-rule="nonzero"/><path fill="#00db4e" d="M 175.433594 53.386719 L 175.433594 38.050781 L 167.589844 38.050781 L 167.589844 61.101562 L 175.433594 61.101562 Z M 175.433594 53.386719 " fill-opacity="1" fill-rule="nonzero"/><path fill="#00db4e" d="M 159.976562 76.320312 L 167.589844 76.320312 L 167.589844 99.136719 L 175.433594 99.136719 L 175.433594 76.078125 L 167.828125 76.078125 L 167.828125 68.46875 L 160.214844 68.46875 L 160.214844 60.863281 L 152.375 60.863281 L 152.375 68.707031 L 159.976562 68.707031 Z M 159.976562 76.320312 " fill-opacity="1" fill-rule="nonzero"/><path fill="#00db4e" d="M 221.066406 83.800781 L 221.066406 38.050781 L 213.214844 38.050781 L 213.214844 91.53125 L 221.066406 91.53125 Z M 221.066406 83.800781 " fill-opacity="1" fill-rule="nonzero"/><path fill="#00db4e" d="M 145.015625 91.410156 L 145.015625 38.050781 L 137.164062 38.050781 L 137.164062 99.136719 L 145.015625 99.136719 Z M 145.015625 91.410156 " fill-opacity="1" fill-rule="nonzero"/><path fill="#00db4e" d="M 190.40625 99.136719 L 198.25 99.136719 L 198.25 91.292969 L 190.644531 91.292969 L 190.644531 38.050781 L 182.800781 38.050781 L 182.800781 91.53125 L 190.40625 91.53125 Z M 190.40625 99.136719 " fill-opacity="1" fill-rule="nonzero"/><path fill="#00db4e" d="M 46.148438 91.410156 L 46.148438 38.050781 L 38.304688 38.050781 L 38.304688 99.136719 L 46.148438 99.136719 Z M 46.148438 91.410156 " fill-opacity="1" fill-rule="nonzero"/><path fill="#00db4e" d="M 251.78125 38.445312 L 251.78125 38.050781 L 251.300781 38.050781 L 251.300781 106.492188 L 243.699219 106.492188 L 243.699219 114.101562 L 23.359375 114.101562 L 23.359375 121.679688 L 243.9375 121.679688 L 243.9375 114.503906 L 244.039062 114.503906 L 244.039062 114.078125 L 253.417969 114.078125 L 253.417969 107.929688 L 258.761719 107.929688 L 258.761719 38.445312 Z M 251.78125 38.445312 " fill-opacity="1" fill-rule="nonzero"/><path fill="#00db4e" d="M 61.113281 60.980469 L 61.113281 68.707031 L 68.964844 68.707031 L 68.964844 53.261719 L 61.351562 53.261719 L 61.351562 45.65625 L 53.507812 45.65625 L 53.507812 53.507812 L 61.113281 53.507812 Z M 61.113281 60.980469 " fill-opacity="1" fill-rule="nonzero"/><path fill="#00db4e" d="M 91.777344 91.410156 L 91.777344 45.65625 L 83.9375 45.65625 L 83.9375 99.136719 L 91.777344 99.136719 Z M 91.777344 91.410156 " fill-opacity="1" fill-rule="nonzero"/><path fill="#00db4e" d="M 106.988281 91.410156 L 106.988281 38.050781 L 99.136719 38.050781 L 99.136719 99.136719 L 106.988281 99.136719 Z M 106.988281 91.410156 " fill-opacity="1" fill-rule="nonzero"/><path fill="#a8d67c" d="M 8.023438 45.542969 L 8.023438 45.769531 L 15.605469 45.769531 L 15.605469 38.558594 L 8.023438 38.558594 Z M 8.023438 45.542969 " fill-opacity="1" fill-rule="nonzero"/><path fill="#a8d67c" d="M 236.238281 23.042969 L 23.550781 23.042969 L 23.550781 30.796875 L 15.785156 30.796875 L 15.785156 38.171875 L 30.824219 38.171875 L 30.824219 30.570312 L 243.855469 30.570312 L 243.855469 23.042969 Z M 236.238281 23.042969 " fill-opacity="1" fill-rule="nonzero"/><path fill="#a8d67c" d="M 243.933594 30.796875 L 243.933594 30.570312 L 243.855469 30.570312 L 243.855469 38.171875 L 251.453125 38.171875 L 251.453125 30.796875 Z M 243.933594 30.796875 " fill-opacity="1" fill-rule="nonzero"/><g clip-path="url(#1a18fd3635)"><path fill="#3d3b52" d="M 259.632812 37.511719 L 259.632812 30.527344 L 251.867188 30.527344 L 251.867188 22.761719 L 244.097656 22.761719 L 244.097656 15.019531 L 22.496094 15.019531 L 22.496094 22.785156 L 15.515625 22.785156 L 15.515625 30.554688 L 7.75 30.554688 L 7.75 37.511719 L 0 37.511719 L 0 107.09375 L 7.765625 107.09375 L 7.765625 114.859375 L 15.535156 114.859375 L 15.535156 121.839844 L 22.496094 121.839844 L 22.496094 129.605469 L 244.117188 129.605469 L 244.117188 121.839844 L 251.882812 121.839844 L 251.882812 114.847656 L 259.652344 114.847656 L 259.652344 107.082031 L 266.589844 107.082031 L 266.589844 37.511719 Z M 258.3125 45.542969 L 258.3125 106.550781 L 251.335938 106.550781 L 251.335938 113.539062 L 243.566406 113.539062 L 243.566406 121.308594 L 23.808594 121.308594 L 23.808594 113.539062 L 16.042969 113.539062 L 16.042969 106.550781 L 8.273438 106.550781 L 8.273438 38.828125 L 16.042969 38.828125 L 16.042969 31.0625 L 23.808594 31.0625 L 23.808594 23.292969 L 243.578125 23.292969 L 243.578125 31.0625 L 251.347656 31.0625 L 251.347656 38.828125 L 258.324219 38.828125 Z M 258.3125 45.542969 " fill-opacity="1" fill-rule="nonzero"/></g><g clip-path="url(#55dac698ac)"><path fill="#00ed60" d="M 374.398438 38.082031 L 374.398438 37.601562 L 367.71875 37.601562 L 367.71875 31.15625 L 367.457031 31.15625 L 367.457031 30.671875 L 359.980469 30.671875 L 359.980469 23.46875 L 359.710938 23.46875 L 359.710938 22.988281 L 352.238281 22.988281 L 352.238281 15.785156 L 351.96875 15.785156 L 351.96875 15.304688 L 131.375 15.304688 L 131.375 22.988281 L 124.40625 22.988281 L 124.40625 30.453125 L 124.230469 30.453125 L 124.230469 30.671875 L 116.671875 30.671875 L 116.671875 37.601562 L 108.929688 37.601562 L 108.929688 106.042969 L 109.195312 106.042969 L 109.195312 106.519531 L 116.671875 106.519531 L 116.671875 113.71875 L 116.933594 113.71875 L 116.933594 114.199219 L 124.40625 114.199219 L 124.40625 120.652344 L 124.660156 120.652344 L 124.660156 121.132812 L 131.375 121.132812 L 131.375 128.347656 L 131.636719 128.347656 L 131.636719 128.824219 L 352.238281 128.824219 L 352.238281 121.132812 L 352.15625 121.132812 L 352.15625 120.652344 L 352.238281 120.652344 L 352.238281 121.132812 L 360.003906 121.132812 L 360.003906 114.214844 L 367.742188 114.214844 L 367.742188 106.550781 L 374.710938 106.550781 L 374.710938 38.082031 Z M 351.96875 113.855469 Z M 359.738281 106.042969 L 359.738281 105.832031 Z M 359.738281 106.042969 " fill-opacity="1" fill-rule="nonzero"/><path fill="#00ed60" d="M 367.515625 38.074219 L 367.515625 31.164062 L 359.75 31.164062 L 359.75 38.441406 L 359.507812 38.441406 L 359.507812 31.164062 L 359.75 31.164062 L 359.75 23.503906 L 351.980469 23.503906 L 351.980469 30.933594 L 351.898438 30.933594 L 351.898438 23.503906 L 351.980469 23.503906 L 351.980469 15.800781 L 131.378906 15.800781 L 131.378906 23.503906 L 124.414062 23.503906 L 124.414062 30.933594 L 124.234375 30.933594 L 124.234375 31.164062 L 116.671875 31.164062 L 116.671875 38.074219 L 108.929688 38.074219 L 108.929688 106.441406 L 116.695312 106.441406 L 116.695312 106.238281 L 116.964844 106.238281 L 116.964844 106.441406 L 116.695312 106.441406 L 116.695312 114.125 L 124.460938 114.125 L 124.460938 121.039062 L 131.378906 121.039062 L 131.378906 128.722656 L 352.03125 128.722656 L 352.03125 121.039062 L 351.945312 121.039062 L 351.945312 114.25 L 352.03125 114.25 L 352.03125 121.039062 L 359.796875 121.039062 L 359.796875 114.125 L 367.5625 114.125 L 367.5625 106.441406 L 374.53125 106.441406 L 374.53125 38.074219 Z M 359.503906 113.796875 L 359.503906 107.074219 L 359.742188 107.074219 L 359.742188 113.796875 Z M 366.722656 106.808594 L 359.773438 106.808594 L 359.773438 106.597656 L 366.722656 106.597656 Z M 366.722656 106.808594 " fill-opacity="1" fill-rule="nonzero"/></g><path fill="#ffffff" d="M 184.851562 45.777344 L 192.464844 45.777344 L 192.464844 53.386719 L 184.851562 53.386719 Z M 184.851562 45.777344 " fill-opacity="1" fill-rule="nonzero"/><path fill="#ffffff" d="M 169.640625 45.777344 L 177.253906 45.777344 L 177.253906 53.386719 L 169.640625 53.386719 Z M 169.640625 45.777344 " fill-opacity="1" fill-rule="nonzero"/><path fill="#ffffff" d="M 162.035156 38.171875 L 154.4375 38.171875 L 154.4375 99.015625 L 162.035156 99.015625 L 162.035156 45.769531 L 169.640625 45.769531 L 169.640625 38.171875 Z M 162.035156 38.171875 " fill-opacity="1" fill-rule="nonzero"/><path fill="#ffffff" d="M 192.464844 38.171875 L 192.464844 45.769531 L 200.066406 45.769531 L 200.066406 99.015625 L 207.664062 99.015625 L 207.664062 38.171875 Z M 192.464844 38.171875 " fill-opacity="1" fill-rule="nonzero"/><path fill="#ffffff" d="M 177.253906 60.980469 L 177.253906 68.585938 L 184.851562 68.585938 L 184.851562 53.386719 L 177.253906 53.386719 Z M 177.253906 60.980469 " fill-opacity="1" fill-rule="nonzero"/><path fill="#ffffff" d="M 314.136719 91.410156 L 306.539062 91.410156 L 306.539062 99.015625 L 329.355469 99.015625 L 329.355469 91.410156 Z M 314.136719 91.410156 " fill-opacity="1" fill-rule="nonzero"/><path fill="#ffffff" d="M 329.355469 38.171875 L 329.355469 91.410156 L 336.957031 91.410156 L 336.957031 38.171875 Z M 329.355469 38.171875 " fill-opacity="1" fill-rule="nonzero"/><path fill="#ffffff" d="M 230.488281 38.171875 L 215.277344 38.171875 L 215.277344 99.015625 L 245.691406 99.015625 L 245.691406 91.410156 L 222.875 91.410156 L 222.875 68.585938 L 238.09375 68.585938 L 238.09375 60.980469 L 222.875 60.980469 L 222.875 45.769531 L 245.691406 45.769531 L 245.691406 38.171875 Z M 230.488281 38.171875 " fill-opacity="1" fill-rule="nonzero"/><path fill="#ffffff" d="M 306.539062 76.199219 L 306.539062 38.171875 L 298.933594 38.171875 L 298.933594 91.410156 L 306.539062 91.410156 Z M 306.539062 76.199219 " fill-opacity="1" fill-rule="nonzero"/><path fill="#ffffff" d="M 283.722656 45.769531 L 283.722656 60.980469 L 276.117188 60.980469 L 276.117188 53.386719 L 268.503906 53.386719 L 268.503906 45.769531 L 260.90625 45.769531 L 260.90625 38.171875 L 253.304688 38.171875 L 253.304688 99.015625 L 260.90625 99.015625 L 260.90625 60.980469 L 268.503906 60.980469 L 268.503906 68.585938 L 276.117188 68.585938 L 276.117188 76.199219 L 283.722656 76.199219 L 283.722656 99.015625 L 291.328125 99.015625 L 291.328125 38.171875 L 283.722656 38.171875 Z M 283.722656 45.769531 " fill-opacity="1" fill-rule="nonzero"/><path fill="#00db4e" d="M 283.839844 53.386719 L 283.839844 38.050781 L 275.996094 38.050781 L 275.996094 61.101562 L 283.839844 61.101562 Z M 283.839844 53.386719 " fill-opacity="1" fill-rule="nonzero"/><path fill="#00db4e" d="M 268.382812 76.320312 L 275.996094 76.320312 L 275.996094 99.136719 L 283.839844 99.136719 L 283.839844 76.078125 L 276.234375 76.078125 L 276.234375 68.46875 L 268.625 68.46875 L 268.625 60.863281 L 260.785156 60.863281 L 260.785156 68.707031 L 268.382812 68.707031 Z M 268.382812 76.320312 " fill-opacity="1" fill-rule="nonzero"/><path fill="#00db4e" d="M 329.476562 83.800781 L 329.476562 38.050781 L 321.625 38.050781 L 321.625 91.53125 L 329.476562 91.53125 Z M 329.476562 83.800781 " fill-opacity="1" fill-rule="nonzero"/><path fill="#00db4e" d="M 253.425781 91.410156 L 253.425781 38.050781 L 245.574219 38.050781 L 245.574219 99.136719 L 253.425781 99.136719 Z M 253.425781 91.410156 " fill-opacity="1" fill-rule="nonzero"/><path fill="#00db4e" d="M 298.8125 99.136719 L 306.65625 99.136719 L 306.65625 91.292969 L 299.050781 91.292969 L 299.050781 38.050781 L 291.207031 38.050781 L 291.207031 91.53125 L 298.8125 91.53125 Z M 298.8125 99.136719 " fill-opacity="1" fill-rule="nonzero"/><path fill="#00db4e" d="M 154.554688 91.410156 L 154.554688 38.050781 L 146.710938 38.050781 L 146.710938 99.136719 L 154.554688 99.136719 Z M 154.554688 91.410156 " fill-opacity="1" fill-rule="nonzero"/><g clip-path="url(#9d6bddf961)"><path fill="#00db4e" d="M 360.191406 38.445312 L 360.191406 38.050781 L 359.707031 38.050781 L 359.707031 106.492188 L 352.105469 106.492188 L 352.105469 114.101562 L 131.769531 114.101562 L 131.769531 121.679688 L 352.347656 121.679688 L 352.347656 114.503906 L 352.449219 114.503906 L 352.449219 114.078125 L 361.828125 114.078125 L 361.828125 107.929688 L 367.167969 107.929688 L 367.167969 38.445312 Z M 360.191406 38.445312 " fill-opacity="1" fill-rule="nonzero"/></g><path fill="#00db4e" d="M 169.523438 60.980469 L 169.523438 68.707031 L 177.375 68.707031 L 177.375 53.261719 L 169.761719 53.261719 L 169.761719 45.65625 L 161.917969 45.65625 L 161.917969 53.507812 L 169.523438 53.507812 Z M 169.523438 60.980469 " fill-opacity="1" fill-rule="nonzero"/><path fill="#00db4e" d="M 200.183594 91.410156 L 200.183594 45.65625 L 192.34375 45.65625 L 192.34375 99.136719 L 200.183594 99.136719 Z M 200.183594 91.410156 " fill-opacity="1" fill-rule="nonzero"/><path fill="#00db4e" d="M 215.394531 91.410156 L 215.394531 38.050781 L 207.546875 38.050781 L 207.546875 99.136719 L 215.394531 99.136719 Z M 215.394531 91.410156 " fill-opacity="1" fill-rule="nonzero"/><g clip-path="url(#42801e6435)"><path fill="#a8d67c" d="M 344.644531 23.042969 L 131.960938 23.042969 L 131.960938 30.796875 L 124.191406 30.796875 L 124.191406 38.171875 L 139.230469 38.171875 L 139.230469 30.570312 L 352.261719 30.570312 L 352.261719 23.042969 Z M 344.644531 23.042969 " fill-opacity="1" fill-rule="nonzero"/></g><path fill="#a8d67c" d="M 352.339844 30.796875 L 352.339844 30.570312 L 352.261719 30.570312 L 352.261719 38.171875 L 359.863281 38.171875 L 359.863281 30.796875 Z M 352.339844 30.796875 " fill-opacity="1" fill-rule="nonzero"/><g clip-path="url(#1217c961e8)"><path fill="#3d3b52" d="M 368.042969 37.511719 L 368.042969 30.527344 L 360.273438 30.527344 L 360.273438 22.761719 L 352.507812 22.761719 L 352.507812 15.019531 L 130.902344 15.019531 L 130.902344 22.785156 L 123.925781 22.785156 L 123.925781 30.554688 L 116.15625 30.554688 L 116.15625 37.511719 L 108.40625 37.511719 L 108.40625 107.09375 L 116.175781 107.09375 L 116.175781 114.859375 L 123.941406 114.859375 L 123.941406 121.839844 L 130.902344 121.839844 L 130.902344 129.605469 L 352.523438 129.605469 L 352.523438 121.839844 L 360.292969 121.839844 L 360.292969 114.847656 L 368.058594 114.847656 L 368.058594 107.082031 L 374.996094 107.082031 L 374.996094 37.511719 Z M 366.722656 45.542969 L 366.722656 106.550781 L 359.742188 106.550781 L 359.742188 113.539062 L 351.976562 113.539062 L 351.976562 121.308594 L 132.21875 121.308594 L 132.21875 113.539062 L 124.449219 113.539062 L 124.449219 106.550781 L 116.683594 106.550781 L 116.683594 38.828125 L 124.449219 38.828125 L 124.449219 31.0625 L 132.21875 31.0625 L 132.21875 23.292969 L 351.988281 23.292969 L 351.988281 31.0625 L 359.753906 31.0625 L 359.753906 38.828125 L 366.734375 38.828125 Z M 366.722656 45.542969 " fill-opacity="1" fill-rule="nonzero"/></g><path stroke-linecap="butt" transform="matrix(1.545157, -0.000000000000000192, 0.000000000000000192, 1.545157, 36.961561, 71.755954)" fill="none" stroke-linejoin="miter" d="M -0.000403499 11.00079 L 199.056485 11.00079 " stroke="#00ed60" stroke-width="22" stroke-opacity="1" stroke-miterlimit="4"/><path stroke-linecap="butt" transform="matrix(1.545157, -0.000000000000000192, 0.000000000000000192, 1.545157, 36.961561, 38.181467)" fill="none" stroke-linejoin="miter" d="M -0.000403499 11.000964 L 199.056485 11.000964 " stroke="#00ed60" stroke-width="22" stroke-opacity="1" stroke-miterlimit="4"/><g fill="#00db4e" fill-opacity="1"><g transform="translate(61.610595, 90.41272)"><g><path d="M 13.121094 0 L 48.105469 0 L 48.105469 -8.746094 L 13.121094 -8.746094 Z M 4.375 -8.746094 L 13.121094 -8.746094 L 13.121094 -43.730469 L 4.375 -43.730469 Z M 4.375 -8.746094 "/></g></g></g><g fill="#00db4e" fill-opacity="1"><g transform="translate(114.087548, 90.41272)"><g><path d="M 39.359375 -8.746094 L 13.121094 -8.746094 L 13.121094 0 L 39.359375 0 Z M 4.375 -8.746094 L 13.121094 -8.746094 L 13.121094 -34.984375 L 4.375 -34.984375 Z M 13.121094 -34.984375 L 39.359375 -34.984375 L 39.359375 -43.730469 L 13.121094 -43.730469 Z M 39.359375 -8.746094 L 48.105469 -8.746094 L 48.105469 -34.984375 L 39.359375 -34.984375 Z M 39.359375 -8.746094 "/></g></g></g><g fill="#00db4e" fill-opacity="1"><g transform="translate(166.564501, 90.41272)"><g><path d="M 13.121094 0 L 48.105469 0 L 48.105469 -26.238281 L 21.867188 -26.238281 L 21.867188 -17.492188 L 39.359375 -17.492188 L 39.359375 -8.746094 L 13.121094 -8.746094 Z M 4.375 -8.746094 L 13.121094 -8.746094 L 13.121094 -34.984375 L 4.375 -34.984375 Z M 13.121094 -34.984375 L 48.105469 -34.984375 L 48.105469 -43.730469 L 13.121094 -43.730469 Z M 13.121094 -34.984375 "/></g></g></g><g fill="#00db4e" fill-opacity="1"><g transform="translate(219.041454, 90.41272)"><g><path d="M 4.375 0 L 30.613281 0 L 30.613281 -8.746094 L 21.867188 -8.746094 L 21.867188 -34.984375 L 30.613281 -34.984375 L 30.613281 -43.730469 L 4.375 -43.730469 L 4.375 -34.984375 L 13.121094 -34.984375 L 13.121094 -8.746094 L 4.375 -8.746094 Z M 4.375 0 "/></g></g></g><g fill="#00db4e" fill-opacity="1"><g transform="translate(254.026081, 90.41272)"><g><path d="M 39.359375 0 L 48.105469 0 L 48.105469 -43.730469 L 39.359375 -43.730469 L 39.359375 -17.492188 L 30.613281 -17.492188 L 30.613281 -8.746094 L 39.359375 -8.746094 Z M 4.375 0 L 13.121094 0 L 13.121094 -26.238281 L 21.867188 -26.238281 L 21.867188 -34.984375 L 13.121094 -34.984375 L 13.121094 -43.730469 L 4.375 -43.730469 Z M 21.867188 -17.492188 L 30.613281 -17.492188 L 30.613281 -26.238281 L 21.867188 -26.238281 Z M 21.867188 -17.492188 "/></g></g></g><g fill="#ffffff" fill-opacity="1"><g transform="translate(68.466218, 90.41272)"><g><path d="M 13.121094 0 L 48.105469 0 L 48.105469 -8.746094 L 13.121094 -8.746094 Z M 4.375 -8.746094 L 13.121094 -8.746094 L 13.121094 -43.730469 L 4.375 -43.730469 Z M 4.375 -8.746094 "/></g></g></g><g fill="#ffffff" fill-opacity="1"><g transform="translate(120.943172, 90.41272)"><g><path d="M 39.359375 -8.746094 L 13.121094 -8.746094 L 13.121094 0 L 39.359375 0 Z M 4.375 -8.746094 L 13.121094 -8.746094 L 13.121094 -34.984375 L 4.375 -34.984375 Z M 13.121094 -34.984375 L 39.359375 -34.984375 L 39.359375 -43.730469 L 13.121094 -43.730469 Z M 39.359375 -8.746094 L 48.105469 -8.746094 L 48.105469 -34.984375 L 39.359375 -34.984375 Z M 39.359375 -8.746094 "/></g></g></g><g fill="#ffffff" fill-opacity="1"><g transform="translate(173.420125, 90.41272)"><g><path d="M 13.121094 0 L 48.105469 0 L 48.105469 -26.238281 L 21.867188 -26.238281 L 21.867188 -17.492188 L 39.359375 -17.492188 L 39.359375 -8.746094 L 13.121094 -8.746094 Z M 4.375 -8.746094 L 13.121094 -8.746094 L 13.121094 -34.984375 L 4.375 -34.984375 Z M 13.121094 -34.984375 L 48.105469 -34.984375 L 48.105469 -43.730469 L 13.121094 -43.730469 Z M 13.121094 -34.984375 "/></g></g></g><g fill="#ffffff" fill-opacity="1"><g transform="translate(225.897078, 90.41272)"><g><path d="M 4.375 0 L 30.613281 0 L 30.613281 -8.746094 L 21.867188 -8.746094 L 21.867188 -34.984375 L 30.613281 -34.984375 L 30.613281 -43.730469 L 4.375 -43.730469 L 4.375 -34.984375 L 13.121094 -34.984375 L 13.121094 -8.746094 L 4.375 -8.746094 Z M 4.375 0 "/></g></g></g><g fill="#ffffff" fill-opacity="1"><g transform="translate(260.881704, 90.41272)"><g><path d="M 39.359375 0 L 48.105469 0 L 48.105469 -43.730469 L 39.359375 -43.730469 L 39.359375 -17.492188 L 30.613281 -17.492188 L 30.613281 -8.746094 L 39.359375 -8.746094 Z M 4.375 0 L 13.121094 0 L 13.121094 -26.238281 L 21.867188 -26.238281 L 21.867188 -34.984375 L 13.121094 -34.984375 L 13.121094 -43.730469 L 4.375 -43.730469 Z M 21.867188 -17.492188 L 30.613281 -17.492188 L 30.613281 -26.238281 L 21.867188 -26.238281 Z M 21.867188 -17.492188 "/></g></g></g></svg>