<svg xmlns="http://www.w3.org/2000/svg" xmlns:xlink="http://www.w3.org/1999/xlink" width="500" zoomAndPan="magnify" viewBox="0 0 375 149.999998" height="200" preserveAspectRatio="xMidYMid meet" version="1.0"><defs><clipPath id="a981d3b755"><path d="M 0 0 L 331.5 0 L 331.5 150 L 0 150 Z M 0 0 " clip-rule="nonzero"/></clipPath><clipPath id="bbff0143de"><path d="M 0 112 L 331.5 112 L 331.5 150 L 0 150 Z M 0 112 " clip-rule="nonzero"/></clipPath></defs><g clip-path="url(#a981d3b755)"><path fill="#bfebf4" d="M 325.210938 143.75 L 325.210938 131.25 L 318.957031 131.25 L 318.957031 118.75 L 312.703125 118.75 L 312.703125 112.5 L 306.449219 112.5 L 306.449219 106.25 L 293.941406 106.25 L 293.941406 100 L 275.183594 100 L 275.183594 106.25 L 262.675781 106.25 L 262.675781 112.5 L 256.421875 112.5 L 256.421875 93.75 L 250.167969 93.75 L 250.167969 75 L 243.917969 75 L 243.917969 68.75 L 231.410156 68.75 L 231.410156 62.5 L 218.902344 62.5 L 218.902344 50 L 225.15625 50 L 225.15625 43.75 L 231.410156 43.75 L 231.410156 31.25 L 225.15625 31.25 L 225.15625 25 L 218.902344 25 L 218.902344 12.5 L 212.648438 12.5 L 212.648438 6.25 L 200.144531 6.25 L 200.144531 0 L 162.625 0 L 162.625 6.25 L 143.863281 6.25 L 143.863281 12.5 L 137.609375 12.5 L 137.609375 25 L 131.355469 25 L 131.355469 31.25 L 112.597656 31.25 L 112.597656 37.5 L 100.089844 37.5 L 100.089844 43.75 L 93.835938 43.75 L 93.835938 62.5 L 87.582031 62.5 L 87.582031 56.25 L 68.824219 56.25 L 68.824219 62.5 L 56.316406 62.5 L 56.316406 68.75 L 50.0625 68.75 L 50.0625 75 L 43.808594 75 L 43.808594 93.75 L 37.558594 93.75 L 37.558594 100 L 31.304688 100 L 31.304688 106.25 L 25.050781 106.25 L 25.050781 125 L 31.304688 125 L 31.304688 131.25 L 18.796875 131.25 L 18.796875 137.5 L 6.289062 137.5 L 6.289062 143.75 L 0.0390625 143.75 L 0.0390625 150 L 331.460938 150 L 331.460938 143.75 Z M 325.210938 143.75 " fill-opacity="1" fill-rule="nonzero"/></g><path fill="#d8bbff" d="M 50.0625 75 L 56.316406 75 L 56.316406 81.25 L 50.0625 81.25 Z M 50.0625 75 " fill-opacity="1" fill-rule="nonzero"/><path fill="#d8bbff" d="M 62.570312 68.75 L 68.824219 68.75 L 68.824219 62.5 L 56.316406 62.5 L 56.316406 75 L 62.570312 75 Z M 62.570312 68.75 " fill-opacity="1" fill-rule="nonzero"/><path fill="#d8bbff" d="M 56.316406 81.25 L 56.316406 87.5 L 68.824219 87.5 L 68.824219 75 L 62.570312 75 L 62.570312 81.25 Z M 56.316406 81.25 " fill-opacity="1" fill-rule="nonzero"/><path fill="#d8bbff" d="M 75.078125 93.75 L 75.078125 100 L 87.582031 100 L 87.582031 93.75 L 81.332031 93.75 L 81.332031 87.5 L 68.824219 87.5 L 68.824219 93.75 Z M 75.078125 93.75 " fill-opacity="1" fill-rule="nonzero"/><path fill="#d8bbff" d="M 37.558594 100 L 43.808594 100 L 43.808594 106.25 L 37.558594 106.25 Z M 37.558594 100 " fill-opacity="1" fill-rule="nonzero"/><path fill="#d8bbff" d="M 43.808594 125 L 43.808594 118.75 L 37.558594 118.75 L 37.558594 106.25 L 31.304688 106.25 L 31.304688 125 L 37.558594 125 L 37.558594 131.25 L 50.0625 131.25 L 50.0625 125 Z M 43.808594 125 " fill-opacity="1" fill-rule="nonzero"/><path fill="#d8bbff" d="M 50.0625 131.25 L 62.570312 131.25 L 62.570312 137.5 L 50.0625 137.5 Z M 50.0625 131.25 " fill-opacity="1" fill-rule="nonzero"/><path fill="#d8bbff" d="M 93.835938 112.5 L 87.582031 112.5 L 87.582031 131.25 L 81.332031 131.25 L 81.332031 137.5 L 62.570312 137.5 L 62.570312 143.75 L 93.835938 143.75 L 93.835938 137.5 L 100.089844 137.5 L 100.089844 131.25 L 93.835938 131.25 Z M 93.835938 112.5 " fill-opacity="1" fill-rule="nonzero"/><path fill="#d8bbff" d="M 18.796875 131.25 L 37.558594 131.25 L 37.558594 137.5 L 18.796875 137.5 Z M 18.796875 131.25 " fill-opacity="1" fill-rule="nonzero"/><path fill="#d8bbff" d="M 6.289062 137.5 L 18.796875 137.5 L 18.796875 143.75 L 6.289062 143.75 Z M 6.289062 137.5 " fill-opacity="1" fill-rule="nonzero"/><path fill="#d8bbff" d="M 43.808594 106.25 L 50.0625 106.25 L 50.0625 112.5 L 43.808594 112.5 Z M 43.808594 106.25 " fill-opacity="1" fill-rule="nonzero"/><path fill="#d8bbff" d="M 62.570312 125 L 68.824219 125 L 68.824219 131.25 L 62.570312 131.25 Z M 62.570312 125 " fill-opacity="1" fill-rule="nonzero"/><path fill="#d8bbff" d="M 100.089844 43.75 L 106.34375 43.75 L 106.34375 62.5 L 100.089844 62.5 Z M 100.089844 43.75 " fill-opacity="1" fill-rule="nonzero"/><path fill="#d8bbff" d="M 106.34375 37.5 L 112.597656 37.5 L 112.597656 43.75 L 106.34375 43.75 Z M 106.34375 37.5 " fill-opacity="1" fill-rule="nonzero"/><path fill="#d8bbff" d="M 93.835938 62.5 L 100.089844 62.5 L 100.089844 75 L 93.835938 75 Z M 93.835938 62.5 " fill-opacity="1" fill-rule="nonzero"/><path fill="#d8bbff" d="M 100.089844 75 L 118.851562 75 L 118.851562 81.25 L 100.089844 81.25 Z M 100.089844 75 " fill-opacity="1" fill-rule="nonzero"/><path fill="#d8bbff" d="M 118.851562 81.25 L 137.609375 81.25 L 137.609375 87.5 L 118.851562 87.5 Z M 118.851562 81.25 " fill-opacity="1" fill-rule="nonzero"/><path fill="#d8bbff" d="M 118.851562 68.75 L 125.101562 68.75 L 125.101562 75 L 118.851562 75 Z M 118.851562 68.75 " fill-opacity="1" fill-rule="nonzero"/><path fill="#d8bbff" d="M 137.609375 87.5 L 150.117188 87.5 L 150.117188 93.75 L 137.609375 93.75 Z M 137.609375 87.5 " fill-opacity="1" fill-rule="nonzero"/><path fill="#d8bbff" d="M 143.863281 75 L 150.117188 75 L 150.117188 81.25 L 143.863281 81.25 Z M 143.863281 75 " fill-opacity="1" fill-rule="nonzero"/><path fill="#d8bbff" d="M 106.34375 131.25 L 118.851562 131.25 L 118.851562 137.5 L 106.34375 137.5 Z M 106.34375 131.25 " fill-opacity="1" fill-rule="nonzero"/><path fill="#d8bbff" d="M 106.34375 100 L 118.851562 100 L 118.851562 106.25 L 106.34375 106.25 Z M 106.34375 100 " fill-opacity="1" fill-rule="nonzero"/><path fill="#d8bbff" d="M 112.597656 118.75 L 112.597656 112.5 L 106.34375 112.5 L 106.34375 106.25 L 100.089844 106.25 L 100.089844 131.25 L 106.34375 131.25 L 106.34375 118.75 Z M 112.597656 118.75 " fill-opacity="1" fill-rule="nonzero"/><path fill="#d8bbff" d="M 143.863281 106.25 L 150.117188 106.25 L 150.117188 112.5 L 143.863281 112.5 Z M 143.863281 106.25 " fill-opacity="1" fill-rule="nonzero"/><path fill="#d8bbff" d="M 162.625 125 L 168.875 125 L 168.875 131.25 L 162.625 131.25 Z M 162.625 125 " fill-opacity="1" fill-rule="nonzero"/><path fill="#d8bbff" d="M 150.117188 50 L 156.371094 50 L 156.371094 56.25 L 181.382812 56.25 L 181.382812 50 L 162.625 50 L 162.625 37.5 L 156.371094 37.5 L 156.371094 25 L 162.625 25 L 162.625 12.5 L 168.875 12.5 L 168.875 6.25 L 175.128906 6.25 L 175.128906 0 L 162.625 0 L 162.625 6.25 L 156.371094 6.25 L 156.371094 12.5 L 150.117188 12.5 L 150.117188 25 L 143.863281 25 L 143.863281 37.5 L 150.117188 37.5 Z M 150.117188 50 " fill-opacity="1" fill-rule="nonzero"/><path fill="#d8bbff" d="M 181.382812 43.75 L 206.398438 43.75 L 206.398438 50 L 181.382812 50 Z M 181.382812 43.75 " fill-opacity="1" fill-rule="nonzero"/><path fill="#d8bbff" d="M 212.648438 50 L 218.902344 50 L 218.902344 56.25 L 212.648438 56.25 Z M 212.648438 50 " fill-opacity="1" fill-rule="nonzero"/><path fill="#d8bbff" d="M 175.128906 37.5 L 181.382812 37.5 L 181.382812 43.75 L 175.128906 43.75 Z M 175.128906 37.5 " fill-opacity="1" fill-rule="nonzero"/><path fill="#d8bbff" d="M 187.636719 118.75 L 187.636719 112.5 L 181.382812 112.5 L 181.382812 100 L 175.128906 100 L 175.128906 81.25 L 181.382812 81.25 L 181.382812 68.75 L 193.890625 68.75 L 193.890625 62.5 L 206.398438 62.5 L 206.398438 56.25 L 187.636719 56.25 L 187.636719 62.5 L 175.128906 62.5 L 175.128906 68.75 L 168.875 68.75 L 168.875 81.25 L 162.625 81.25 L 162.625 100 L 168.875 100 L 168.875 112.5 L 175.128906 112.5 L 175.128906 118.75 L 181.382812 118.75 L 181.382812 125 L 206.398438 125 L 206.398438 118.75 Z M 187.636719 118.75 " fill-opacity="1" fill-rule="nonzero"/><path fill="#d8bbff" d="M 218.902344 112.5 L 212.648438 112.5 L 212.648438 106.25 L 206.398438 106.25 L 206.398438 118.75 L 218.902344 118.75 Z M 218.902344 112.5 " fill-opacity="1" fill-rule="nonzero"/><path fill="#d8bbff" d="M 262.675781 112.5 L 268.929688 112.5 L 268.929688 131.25 L 262.675781 131.25 Z M 262.675781 112.5 " fill-opacity="1" fill-rule="nonzero"/><path fill="#d8bbff" d="M 268.929688 106.25 L 275.183594 106.25 L 275.183594 112.5 L 268.929688 112.5 Z M 268.929688 106.25 " fill-opacity="1" fill-rule="nonzero"/><path fill="#d8bbff" d="M 268.929688 131.25 L 281.4375 131.25 L 281.4375 137.5 L 268.929688 137.5 Z M 268.929688 131.25 " fill-opacity="1" fill-rule="nonzero"/><path fill="#d8bbff" d="M 281.4375 137.5 L 312.703125 137.5 L 312.703125 143.75 L 281.4375 143.75 Z M 281.4375 137.5 " fill-opacity="1" fill-rule="nonzero"/><path fill="#d8bbff" d="M 281.4375 125 L 287.691406 125 L 287.691406 131.25 L 281.4375 131.25 Z M 281.4375 125 " fill-opacity="1" fill-rule="nonzero"/><path fill="#d8bbff" d="M 200.144531 100 L 206.398438 100 L 206.398438 106.25 L 200.144531 106.25 Z M 200.144531 100 " fill-opacity="1" fill-rule="nonzero"/><path fill="#d8bbff" d="M 200.144531 87.5 L 193.890625 87.5 L 193.890625 100 L 200.144531 100 Z M 200.144531 87.5 " fill-opacity="1" fill-rule="nonzero"/><path fill="#d8bbff" d="M 200.144531 81.25 L 206.398438 81.25 L 206.398438 87.5 L 200.144531 87.5 Z M 200.144531 81.25 " fill-opacity="1" fill-rule="nonzero"/><path fill="#d8bbff" d="M 212.648438 100 L 218.902344 100 L 218.902344 106.25 L 212.648438 106.25 Z M 212.648438 100 " fill-opacity="1" fill-rule="nonzero"/><path fill="#d8bbff" d="M 218.902344 93.75 L 225.15625 93.75 L 225.15625 100 L 218.902344 100 Z M 218.902344 93.75 " fill-opacity="1" fill-rule="nonzero"/><path fill="#d8bbff" d="M 118.851562 125 L 125.101562 125 L 125.101562 131.25 L 118.851562 131.25 Z M 118.851562 125 " fill-opacity="1" fill-rule="nonzero"/><path fill="#d8bbff" d="M 125.101562 112.5 L 131.355469 112.5 L 131.355469 125 L 125.101562 125 Z M 125.101562 112.5 " fill-opacity="1" fill-rule="nonzero"/><path fill="#d8bbff" d="M 131.355469 106.25 L 137.609375 106.25 L 137.609375 112.5 L 131.355469 112.5 Z M 131.355469 106.25 " fill-opacity="1" fill-rule="nonzero"/><path fill="#d8bbff" d="M 131.355469 125 L 143.863281 125 L 143.863281 131.25 L 131.355469 131.25 Z M 131.355469 125 " fill-opacity="1" fill-rule="nonzero"/><path fill="#d8bbff" d="M 143.863281 118.75 L 150.117188 118.75 L 150.117188 125 L 143.863281 125 Z M 143.863281 118.75 " fill-opacity="1" fill-rule="nonzero"/><path fill="#d8bbff" d="M 243.917969 125 L 243.917969 131.25 L 231.410156 131.25 L 231.410156 137.5 L 212.648438 137.5 L 212.648438 131.25 L 218.902344 131.25 L 218.902344 125 L 206.398438 125 L 206.398438 137.5 L 118.851562 137.5 L 118.851562 143.75 L 256.421875 143.75 L 256.421875 137.5 L 250.167969 137.5 L 250.167969 131.25 L 256.421875 131.25 L 256.421875 125 Z M 243.917969 125 " fill-opacity="1" fill-rule="nonzero"/><path fill="#d8bbff" d="M 237.664062 118.75 L 243.917969 118.75 L 243.917969 125 L 237.664062 125 Z M 237.664062 118.75 " fill-opacity="1" fill-rule="nonzero"/><path fill="#d8bbff" d="M 250.167969 112.5 L 256.421875 112.5 L 256.421875 118.75 L 250.167969 118.75 Z M 250.167969 112.5 " fill-opacity="1" fill-rule="nonzero"/><path fill="#d8bbff" d="M 218.902344 118.75 L 225.15625 118.75 L 225.15625 125 L 218.902344 125 Z M 218.902344 118.75 " fill-opacity="1" fill-rule="nonzero"/><g clip-path="url(#bbff0143de)"><path fill="#7c9ae0" d="M 318.957031 143.75 L 318.957031 137.5 L 312.703125 137.5 L 312.703125 143.75 L 281.4375 143.75 L 281.4375 137.5 L 268.929688 137.5 L 268.929688 131.25 L 262.675781 131.25 L 262.675781 112.5 L 256.421875 112.5 L 256.421875 131.25 L 250.167969 131.25 L 250.167969 137.5 L 256.421875 137.5 L 256.421875 143.75 L 212.648438 143.75 L 212.648438 137.5 L 206.398438 137.5 L 206.398438 131.25 L 212.648438 131.25 L 212.648438 125 L 218.902344 125 L 218.902344 118.75 L 206.398438 118.75 L 206.398438 125 L 181.382812 125 L 181.382812 131.25 L 193.890625 131.25 L 193.890625 137.5 L 200.144531 137.5 L 200.144531 143.75 L 118.851562 143.75 L 118.851562 137.5 L 106.34375 137.5 L 106.34375 131.25 L 100.089844 131.25 L 100.089844 137.5 L 93.835938 137.5 L 93.835938 143.75 L 62.570312 143.75 L 62.570312 137.5 L 50.0625 137.5 L 50.0625 131.25 L 37.558594 131.25 L 37.558594 137.5 L 43.808594 137.5 L 43.808594 143.75 L 0.0390625 143.75 L 0.0390625 150 L 331.460938 150 L 331.460938 143.75 Z M 318.957031 143.75 " fill-opacity="1" fill-rule="nonzero"/></g><path fill="#7c9ae0" d="M 87.582031 62.5 L 93.835938 62.5 L 93.835938 75 L 87.582031 75 Z M 87.582031 62.5 " fill-opacity="1" fill-rule="nonzero"/><path fill="#7c9ae0" d="M 93.835938 75 L 100.089844 75 L 100.089844 81.25 L 93.835938 81.25 Z M 93.835938 75 " fill-opacity="1" fill-rule="nonzero"/><path fill="#7c9ae0" d="M 93.835938 43.75 L 100.089844 43.75 L 100.089844 62.5 L 93.835938 62.5 Z M 93.835938 43.75 " fill-opacity="1" fill-rule="nonzero"/><path fill="#7c9ae0" d="M 100.089844 37.5 L 106.34375 37.5 L 106.34375 43.75 L 100.089844 43.75 Z M 100.089844 37.5 " fill-opacity="1" fill-rule="nonzero"/><path fill="#7c9ae0" d="M 262.675781 106.25 L 268.929688 106.25 L 268.929688 112.5 L 262.675781 112.5 Z M 262.675781 106.25 " fill-opacity="1" fill-rule="nonzero"/><path fill="#7c9ae0" d="M 150.117188 50 L 150.117188 37.5 L 143.863281 37.5 L 143.863281 25 L 150.117188 25 L 150.117188 12.5 L 156.371094 12.5 L 156.371094 6.25 L 143.863281 6.25 L 143.863281 12.5 L 137.609375 12.5 L 137.609375 25 L 131.355469 25 L 131.355469 37.5 L 137.609375 37.5 L 137.609375 50 L 143.863281 50 L 143.863281 56.25 L 156.371094 56.25 L 156.371094 50 Z M 150.117188 50 " fill-opacity="1" fill-rule="nonzero"/><path fill="#7c9ae0" d="M 25.050781 106.25 L 31.304688 106.25 L 31.304688 125 L 25.050781 125 Z M 25.050781 106.25 " fill-opacity="1" fill-rule="nonzero"/><path fill="#7c9ae0" d="M 31.304688 100 L 37.558594 100 L 37.558594 106.25 L 31.304688 106.25 Z M 31.304688 100 " fill-opacity="1" fill-rule="nonzero"/><path fill="#7c9ae0" d="M 31.304688 125 L 37.558594 125 L 37.558594 131.25 L 31.304688 131.25 Z M 31.304688 125 " fill-opacity="1" fill-rule="nonzero"/><path fill="#7c9ae0" d="M 68.824219 93.75 L 75.078125 93.75 L 75.078125 100 L 68.824219 100 Z M 68.824219 93.75 " fill-opacity="1" fill-rule="nonzero"/><path fill="#7c9ae0" d="M 206.398438 56.25 L 218.902344 56.25 L 218.902344 62.5 L 206.398438 62.5 Z M 206.398438 56.25 " fill-opacity="1" fill-rule="nonzero"/><path fill="#7c9ae0" d="M 218.902344 112.5 L 225.15625 112.5 L 225.15625 118.75 L 218.902344 118.75 Z M 218.902344 112.5 " fill-opacity="1" fill-rule="nonzero"/><path fill="#7c9ae0" d="M 100.089844 106.25 L 106.34375 106.25 L 106.34375 100 L 118.851562 100 L 118.851562 93.75 L 137.609375 93.75 L 137.609375 87.5 L 118.851562 87.5 L 118.851562 81.25 L 100.089844 81.25 L 100.089844 87.5 L 106.34375 87.5 L 106.34375 93.75 L 100.089844 93.75 L 100.089844 100 L 93.835938 100 L 93.835938 106.25 L 87.582031 106.25 L 87.582031 112.5 L 93.835938 112.5 L 93.835938 131.25 L 100.089844 131.25 Z M 100.089844 106.25 " fill-opacity="1" fill-rule="nonzero"/><path fill="#7c9ae0" d="M 50.0625 68.75 L 56.316406 68.75 L 56.316406 75 L 50.0625 75 Z M 50.0625 68.75 " fill-opacity="1" fill-rule="nonzero"/><path fill="#7c9ae0" d="M 150.117188 100 L 150.117188 106.25 L 156.371094 106.25 L 156.371094 112.5 L 162.625 112.5 L 162.625 118.75 L 168.875 118.75 L 168.875 125 L 181.382812 125 L 181.382812 118.75 L 175.128906 118.75 L 175.128906 112.5 L 168.875 112.5 L 168.875 100 L 162.625 100 L 162.625 81.25 L 168.875 81.25 L 168.875 68.75 L 175.128906 68.75 L 175.128906 62.5 L 187.636719 62.5 L 187.636719 56.25 L 206.398438 56.25 L 206.398438 50 L 181.382812 50 L 181.382812 56.25 L 156.371094 56.25 L 156.371094 75 L 150.117188 75 L 150.117188 93.75 L 137.609375 93.75 L 137.609375 100 Z M 150.117188 100 " fill-opacity="1" fill-rule="nonzero"/><path fill="#7c9ae0" d="M 50.0625 100 L 50.0625 93.75 L 68.824219 93.75 L 68.824219 87.5 L 56.316406 87.5 L 56.316406 81.25 L 50.0625 81.25 L 50.0625 75 L 43.808594 75 L 43.808594 93.75 L 37.558594 93.75 L 37.558594 100 Z M 50.0625 100 " fill-opacity="1" fill-rule="nonzero"/><path fill="#f2fcfc" d="M 175.128906 0 L 200.144531 0 L 200.144531 6.25 L 175.128906 6.25 Z M 175.128906 0 " fill-opacity="1" fill-rule="nonzero"/><path fill="#f2fcfc" d="M 200.144531 6.25 L 212.648438 6.25 L 212.648438 12.5 L 200.144531 12.5 Z M 200.144531 6.25 " fill-opacity="1" fill-rule="nonzero"/><path fill="#f2fcfc" d="M 193.890625 12.5 L 200.144531 12.5 L 200.144531 18.75 L 193.890625 18.75 Z M 193.890625 12.5 " fill-opacity="1" fill-rule="nonzero"/><path fill="#f2fcfc" d="M 212.648438 12.5 L 218.902344 12.5 L 218.902344 25 L 212.648438 25 Z M 212.648438 12.5 " fill-opacity="1" fill-rule="nonzero"/><path fill="#f2fcfc" d="M 206.398438 25 L 212.648438 25 L 212.648438 31.25 L 206.398438 31.25 Z M 206.398438 25 " fill-opacity="1" fill-rule="nonzero"/><path fill="#f2fcfc" d="M 206.398438 18.75 L 212.648438 18.75 L 212.648438 25 L 206.398438 25 Z M 206.398438 18.75 " fill-opacity="1" fill-rule="nonzero"/><path fill="#f2fcfc" d="M 187.636719 6.25 L 193.890625 6.25 L 193.890625 12.5 L 187.636719 12.5 Z M 187.636719 6.25 " fill-opacity="1" fill-rule="nonzero"/><path fill="#f2fcfc" d="M 181.382812 12.5 L 187.636719 12.5 L 187.636719 18.75 L 181.382812 18.75 Z M 181.382812 12.5 " fill-opacity="1" fill-rule="nonzero"/><path fill="#f2fcfc" d="M 168.875 6.25 L 175.128906 6.25 L 175.128906 12.5 L 168.875 12.5 Z M 168.875 6.25 " fill-opacity="1" fill-rule="nonzero"/><path fill="#f2fcfc" d="M 218.902344 31.25 L 225.15625 31.25 L 225.15625 37.5 L 218.902344 37.5 Z M 218.902344 31.25 " fill-opacity="1" fill-rule="nonzero"/><path fill="#f2fcfc" d="M 212.648438 37.5 L 218.902344 37.5 L 218.902344 43.75 L 212.648438 43.75 Z M 212.648438 37.5 " fill-opacity="1" fill-rule="nonzero"/><path fill="#f2fcfc" d="M 162.625 12.5 L 168.875 12.5 L 168.875 18.75 L 162.625 18.75 Z M 162.625 12.5 " fill-opacity="1" fill-rule="nonzero"/><path fill="#f2fcfc" d="M 218.902344 25 L 225.15625 25 L 225.15625 31.25 L 218.902344 31.25 Z M 218.902344 25 " fill-opacity="1" fill-rule="nonzero"/><path fill="#f2fcfc" d="M 225.15625 31.25 L 231.410156 31.25 L 231.410156 43.75 L 225.15625 43.75 Z M 225.15625 31.25 " fill-opacity="1" fill-rule="nonzero"/><path fill="#f2fcfc" d="M 218.902344 43.75 L 225.15625 43.75 L 225.15625 50 L 218.902344 50 Z M 218.902344 43.75 " fill-opacity="1" fill-rule="nonzero"/><path fill="#f2fcfc" d="M 218.902344 62.5 L 231.410156 62.5 L 231.410156 68.75 L 218.902344 68.75 Z M 218.902344 62.5 " fill-opacity="1" fill-rule="nonzero"/><path fill="#f2fcfc" d="M 231.410156 68.75 L 243.917969 68.75 L 243.917969 75 L 231.410156 75 Z M 231.410156 68.75 " fill-opacity="1" fill-rule="nonzero"/><path fill="#f2fcfc" d="M 243.917969 75 L 250.167969 75 L 250.167969 93.75 L 243.917969 93.75 Z M 243.917969 75 " fill-opacity="1" fill-rule="nonzero"/><path fill="#f2fcfc" d="M 250.167969 93.75 L 256.421875 93.75 L 256.421875 112.5 L 250.167969 112.5 Z M 250.167969 93.75 " fill-opacity="1" fill-rule="nonzero"/><path fill="#f2fcfc" d="M 212.648438 68.75 L 218.902344 68.75 L 218.902344 75 L 212.648438 75 Z M 212.648438 68.75 " fill-opacity="1" fill-rule="nonzero"/><path fill="#f2fcfc" d="M 225.15625 75 L 231.410156 75 L 231.410156 81.25 L 225.15625 81.25 Z M 225.15625 75 " fill-opacity="1" fill-rule="nonzero"/><path fill="#f2fcfc" d="M 206.398438 62.5 L 212.648438 62.5 L 212.648438 68.75 L 206.398438 68.75 Z M 206.398438 62.5 " fill-opacity="1" fill-rule="nonzero"/><path fill="#f2fcfc" d="M 237.664062 75 L 243.917969 75 L 243.917969 81.25 L 237.664062 81.25 Z M 237.664062 75 " fill-opacity="1" fill-rule="nonzero"/><path fill="#f2fcfc" d="M 231.410156 81.25 L 237.664062 81.25 L 237.664062 87.5 L 231.410156 87.5 Z M 231.410156 81.25 " fill-opacity="1" fill-rule="nonzero"/><path fill="#f2fcfc" d="M 237.664062 93.75 L 243.917969 93.75 L 243.917969 100 L 237.664062 100 Z M 237.664062 93.75 " fill-opacity="1" fill-rule="nonzero"/><path fill="#f2fcfc" d="M 275.183594 100 L 293.941406 100 L 293.941406 106.25 L 275.183594 106.25 Z M 275.183594 100 " fill-opacity="1" fill-rule="nonzero"/><path fill="#f2fcfc" d="M 293.941406 106.25 L 306.449219 106.25 L 306.449219 112.5 L 293.941406 112.5 Z M 293.941406 106.25 " fill-opacity="1" fill-rule="nonzero"/><path fill="#f2fcfc" d="M 287.691406 112.5 L 293.941406 112.5 L 293.941406 118.75 L 287.691406 118.75 Z M 287.691406 112.5 " fill-opacity="1" fill-rule="nonzero"/><path fill="#f2fcfc" d="M 306.449219 112.5 L 312.703125 112.5 L 312.703125 118.75 L 306.449219 118.75 Z M 306.449219 112.5 " fill-opacity="1" fill-rule="nonzero"/><path fill="#f2fcfc" d="M 312.703125 118.75 L 318.957031 118.75 L 318.957031 131.25 L 312.703125 131.25 Z M 312.703125 118.75 " fill-opacity="1" fill-rule="nonzero"/><path fill="#f2fcfc" d="M 318.957031 131.25 L 325.210938 131.25 L 325.210938 137.5 L 318.957031 137.5 Z M 318.957031 131.25 " fill-opacity="1" fill-rule="nonzero"/><path fill="#f2fcfc" d="M 118.851562 37.5 L 131.355469 37.5 L 131.355469 31.25 L 112.597656 31.25 L 112.597656 43.75 L 118.851562 43.75 Z M 118.851562 37.5 " fill-opacity="1" fill-rule="nonzero"/><path fill="#f2fcfc" d="M 68.824219 62.5 L 68.824219 68.75 L 75.078125 68.75 L 75.078125 62.5 L 87.582031 62.5 L 87.582031 56.25 L 68.824219 56.25 Z M 68.824219 62.5 " fill-opacity="1" fill-rule="nonzero"/><path fill="#f2fcfc" d="M 81.332031 68.75 L 87.582031 68.75 L 87.582031 75 L 81.332031 75 Z M 81.332031 68.75 " fill-opacity="1" fill-rule="nonzero"/><path fill="#f2fcfc" d="M 81.332031 87.5 L 87.582031 87.5 L 87.582031 93.75 L 81.332031 93.75 Z M 81.332031 87.5 " fill-opacity="1" fill-rule="nonzero"/><path fill="#f2fcfc" d="M 68.824219 100 L 81.332031 100 L 81.332031 106.25 L 68.824219 106.25 Z M 68.824219 100 " fill-opacity="1" fill-rule="nonzero"/><path fill="#f2fcfc" d="M 81.332031 106.25 L 87.582031 106.25 L 87.582031 112.5 L 81.332031 112.5 Z M 81.332031 106.25 " fill-opacity="1" fill-rule="nonzero"/><path fill="#f2fcfc" d="M 50.0625 93.75 L 68.824219 93.75 L 68.824219 100 L 50.0625 100 Z M 50.0625 93.75 " fill-opacity="1" fill-rule="nonzero"/><path fill="#f2fcfc" d="M 118.851562 93.75 L 137.609375 93.75 L 137.609375 100 L 118.851562 100 Z M 118.851562 93.75 " fill-opacity="1" fill-rule="nonzero"/><path fill="#f2fcfc" d="M 137.609375 100 L 150.117188 100 L 150.117188 106.25 L 137.609375 106.25 Z M 137.609375 100 " fill-opacity="1" fill-rule="nonzero"/><path fill="#f2fcfc" d="M 150.117188 106.25 L 156.371094 106.25 L 156.371094 112.5 L 150.117188 112.5 Z M 150.117188 106.25 " fill-opacity="1" fill-rule="nonzero"/><path fill="#f2fcfc" d="M 193.890625 62.5 L 206.398438 62.5 L 206.398438 68.75 L 193.890625 68.75 Z M 193.890625 62.5 " fill-opacity="1" fill-rule="nonzero"/><path fill="#f2fcfc" d="M 131.355469 37.5 L 137.609375 37.5 L 137.609375 50 L 131.355469 50 Z M 131.355469 37.5 " fill-opacity="1" fill-rule="nonzero"/><path fill="#f2fcfc" d="M 125.101562 50 L 131.355469 50 L 131.355469 56.25 L 125.101562 56.25 Z M 125.101562 50 " fill-opacity="1" fill-rule="nonzero"/><path fill="#f2fcfc" d="M 143.863281 56.25 L 156.371094 56.25 L 156.371094 62.5 L 143.863281 62.5 Z M 143.863281 56.25 " fill-opacity="1" fill-rule="nonzero"/><path fill="#f2fcfc" d="M 137.609375 62.5 L 143.863281 62.5 L 143.863281 68.75 L 137.609375 68.75 Z M 137.609375 62.5 " fill-opacity="1" fill-rule="nonzero"/><path fill="#f2fcfc" d="M 243.917969 112.5 L 250.167969 112.5 L 250.167969 118.75 L 243.917969 118.75 Z M 243.917969 112.5 " fill-opacity="1" fill-rule="nonzero"/><path fill="#f2fcfc" d="M 200.144531 87.5 L 206.398438 87.5 L 206.398438 100 L 200.144531 100 Z M 200.144531 87.5 " fill-opacity="1" fill-rule="nonzero"/><path fill="#f2fcfc" d="M 206.398438 100 L 212.648438 100 L 212.648438 106.25 L 206.398438 106.25 Z M 206.398438 100 " fill-opacity="1" fill-rule="nonzero"/><path fill="#f2fcfc" d="M 175.128906 31.25 L 181.382812 31.25 L 181.382812 37.5 L 175.128906 37.5 Z M 175.128906 31.25 " fill-opacity="1" fill-rule="nonzero"/><path fill="#f2fcfc" d="M 156.371094 112.5 L 162.625 112.5 L 162.625 118.75 L 156.371094 118.75 Z M 156.371094 112.5 " fill-opacity="1" fill-rule="nonzero"/><path fill="#f2fcfc" d="M 162.625 118.75 L 168.875 118.75 L 168.875 125 L 162.625 125 Z M 162.625 118.75 " fill-opacity="1" fill-rule="nonzero"/></svg>