<svg xmlns="http://www.w3.org/2000/svg" xmlns:xlink="http://www.w3.org/1999/xlink" width="500" zoomAndPan="magnify" viewBox="0 0 375 149.999998" height="200" preserveAspectRatio="xMidYMid meet" version="1.0"><defs><g/><clipPath id="b0a5f47ca4"><path d="M 0 9.261719 L 292.792969 9.261719 L 292.792969 135 L 0 135 Z M 0 9.261719 " clip-rule="nonzero"/></clipPath><clipPath id="9089751078"><path d="M 0 10 L 292.792969 10 L 292.792969 135 L 0 135 Z M 0 10 " clip-rule="nonzero"/></clipPath><clipPath id="8be2b3a76e"><path d="M 0 9.261719 L 292.792969 9.261719 L 292.792969 135 L 0 135 Z M 0 9.261719 " clip-rule="nonzero"/></clipPath><clipPath id="fc463f281e"><path d="M 130.429688 9.261719 L 374.753906 9.261719 L 374.753906 135 L 130.429688 135 Z M 130.429688 9.261719 " clip-rule="nonzero"/></clipPath><clipPath id="a5867dfbf4"><path d="M 130.429688 10 L 374.753906 10 L 374.753906 135 L 130.429688 135 Z M 130.429688 10 " clip-rule="nonzero"/></clipPath><clipPath id="5f9bf55a1e"><path d="M 130.429688 34 L 133 34 L 133 102 L 130.429688 102 Z M 130.429688 34 " clip-rule="nonzero"/></clipPath><clipPath id="c201c915a7"><path d="M 130.429688 34 L 367 34 L 367 127 L 130.429688 127 Z M 130.429688 34 " clip-rule="nonzero"/></clipPath><clipPath id="99aee97c3f"><path d="M 130.429688 18 L 350 18 L 350 35 L 130.429688 35 Z M 130.429688 18 " clip-rule="nonzero"/></clipPath><clipPath id="3fdb1a0274"><path d="M 130.429688 9.261719 L 374.753906 9.261719 L 374.753906 135 L 130.429688 135 Z M 130.429688 9.261719 " clip-rule="nonzero"/></clipPath></defs><g clip-path="url(#b0a5f47ca4)"><path fill="#8488f4" d="M 292.109375 34.5625 L 292.109375 34.039062 L 284.78125 34.039062 L 284.78125 26.964844 L 284.492188 26.964844 L 284.492188 26.4375 L 276.292969 26.4375 L 276.292969 18.53125 L 275.996094 18.53125 L 275.996094 18.003906 L 267.796875 18.003906 L 267.796875 10.101562 L 267.5 10.101562 L 267.5 9.574219 L 25.464844 9.574219 L 25.464844 18.003906 L 17.824219 18.003906 L 17.824219 26.191406 L 17.625 26.191406 L 17.625 26.4375 L 9.332031 26.4375 L 9.332031 34.039062 L 0.835938 34.039062 L 0.835938 109.132812 L 1.132812 109.132812 L 1.132812 109.65625 L 9.332031 109.65625 L 9.332031 117.554688 L 9.621094 117.554688 L 9.621094 118.078125 L 17.824219 118.078125 L 17.824219 125.160156 L 18.097656 125.160156 L 18.097656 125.691406 L 25.464844 125.691406 L 25.464844 133.601562 L 25.753906 133.601562 L 25.753906 134.125 L 267.796875 134.125 L 267.796875 125.691406 L 267.703125 125.691406 L 267.703125 125.160156 L 267.796875 125.160156 L 267.796875 125.691406 L 276.320312 125.691406 L 276.320312 118.097656 L 284.808594 118.097656 L 284.808594 109.6875 L 292.453125 109.6875 L 292.453125 34.5625 Z M 267.5 117.707031 Z M 276.023438 109.132812 L 276.023438 108.902344 Z M 276.023438 109.132812 " fill-opacity="1" fill-rule="nonzero"/></g><g clip-path="url(#9089751078)"><path fill="#8488f4" d="M 284.558594 34.558594 L 284.558594 26.972656 L 276.035156 26.972656 L 276.035156 34.957031 L 275.773438 34.957031 L 275.773438 26.972656 L 276.035156 26.972656 L 276.035156 18.570312 L 267.515625 18.570312 L 267.515625 26.722656 L 267.421875 26.722656 L 267.421875 18.570312 L 267.515625 18.570312 L 267.515625 10.121094 L 25.472656 10.121094 L 25.472656 18.570312 L 17.828125 18.570312 L 17.828125 26.722656 L 17.632812 26.722656 L 17.632812 26.972656 L 9.332031 26.972656 L 9.332031 34.558594 L 0.835938 34.558594 L 0.835938 109.570312 L 9.359375 109.570312 L 9.359375 109.347656 L 9.65625 109.347656 L 9.65625 109.570312 L 9.359375 109.570312 L 9.359375 118 L 17.882812 118 L 17.882812 125.585938 L 25.472656 125.585938 L 25.472656 134.015625 L 267.566406 134.015625 L 267.566406 125.585938 L 267.476562 125.585938 L 267.476562 118.136719 L 267.566406 118.136719 L 267.566406 125.585938 L 276.089844 125.585938 L 276.089844 118 L 284.609375 118 L 284.609375 109.570312 L 292.253906 109.570312 L 292.253906 34.558594 Z M 275.769531 117.640625 L 275.769531 110.265625 L 276.03125 110.265625 L 276.03125 117.640625 Z M 283.6875 109.96875 L 276.0625 109.96875 L 276.0625 109.742188 L 283.6875 109.742188 Z M 283.6875 109.96875 " fill-opacity="1" fill-rule="nonzero"/></g><path fill="#ffffff" d="M 84.144531 43.007812 L 92.496094 43.007812 L 92.496094 51.359375 L 84.144531 51.359375 Z M 84.144531 43.007812 " fill-opacity="1" fill-rule="nonzero"/><path fill="#ffffff" d="M 67.453125 43.007812 L 75.804688 43.007812 L 75.804688 51.359375 L 67.453125 51.359375 Z M 67.453125 43.007812 " fill-opacity="1" fill-rule="nonzero"/><path fill="#ffffff" d="M 59.109375 34.664062 L 50.769531 34.664062 L 50.769531 101.421875 L 59.109375 101.421875 L 59.109375 43 L 67.453125 43 L 67.453125 34.664062 Z M 59.109375 34.664062 " fill-opacity="1" fill-rule="nonzero"/><path fill="#ffffff" d="M 92.496094 34.664062 L 92.496094 43 L 100.832031 43 L 100.832031 101.421875 L 109.171875 101.421875 L 109.171875 34.664062 Z M 92.496094 34.664062 " fill-opacity="1" fill-rule="nonzero"/><path fill="#ffffff" d="M 75.804688 59.691406 L 75.804688 68.035156 L 84.144531 68.035156 L 84.144531 51.359375 L 75.804688 51.359375 Z M 75.804688 59.691406 " fill-opacity="1" fill-rule="nonzero"/><path fill="#ffffff" d="M 225.992188 93.078125 L 217.65625 93.078125 L 217.65625 101.421875 L 242.691406 101.421875 L 242.691406 93.078125 Z M 225.992188 93.078125 " fill-opacity="1" fill-rule="nonzero"/><path fill="#ffffff" d="M 242.691406 34.664062 L 242.691406 93.078125 L 251.027344 93.078125 L 251.027344 34.664062 Z M 242.691406 34.664062 " fill-opacity="1" fill-rule="nonzero"/><path fill="#ffffff" d="M 134.210938 34.664062 L 117.523438 34.664062 L 117.523438 101.421875 L 150.894531 101.421875 L 150.894531 93.078125 L 125.859375 93.078125 L 125.859375 68.035156 L 142.558594 68.035156 L 142.558594 59.691406 L 125.859375 59.691406 L 125.859375 43 L 150.894531 43 L 150.894531 34.664062 Z M 134.210938 34.664062 " fill-opacity="1" fill-rule="nonzero"/><path fill="#ffffff" d="M 217.65625 76.386719 L 217.65625 34.664062 L 209.308594 34.664062 L 209.308594 93.078125 L 217.65625 93.078125 Z M 217.65625 76.386719 " fill-opacity="1" fill-rule="nonzero"/><path fill="#ffffff" d="M 192.621094 43 L 192.621094 59.691406 L 184.277344 59.691406 L 184.277344 51.359375 L 175.925781 51.359375 L 175.925781 43 L 167.585938 43 L 167.585938 34.664062 L 159.246094 34.664062 L 159.246094 101.421875 L 167.585938 101.421875 L 167.585938 59.691406 L 175.925781 59.691406 L 175.925781 68.035156 L 184.277344 68.035156 L 184.277344 76.386719 L 192.621094 76.386719 L 192.621094 101.421875 L 200.964844 101.421875 L 200.964844 34.664062 L 192.621094 34.664062 Z M 192.621094 43 " fill-opacity="1" fill-rule="nonzero"/><path fill="#585eff" d="M 192.75 51.359375 L 192.75 34.53125 L 184.144531 34.53125 L 184.144531 59.820312 L 192.75 59.820312 Z M 192.75 51.359375 " fill-opacity="1" fill-rule="nonzero"/><path fill="#585eff" d="M 175.792969 76.519531 L 184.144531 76.519531 L 184.144531 101.554688 L 192.75 101.554688 L 192.75 76.257812 L 184.40625 76.257812 L 184.40625 67.90625 L 176.054688 67.90625 L 176.054688 59.558594 L 167.453125 59.558594 L 167.453125 68.167969 L 175.792969 68.167969 Z M 175.792969 76.519531 " fill-opacity="1" fill-rule="nonzero"/><path fill="#585eff" d="M 242.820312 84.726562 L 242.820312 34.53125 L 234.207031 34.53125 L 234.207031 93.207031 L 242.820312 93.207031 Z M 242.820312 84.726562 " fill-opacity="1" fill-rule="nonzero"/><path fill="#585eff" d="M 159.378906 93.078125 L 159.378906 34.53125 L 150.765625 34.53125 L 150.765625 101.554688 L 159.378906 101.554688 Z M 159.378906 93.078125 " fill-opacity="1" fill-rule="nonzero"/><path fill="#585eff" d="M 209.179688 101.554688 L 217.785156 101.554688 L 217.785156 92.945312 L 209.441406 92.945312 L 209.441406 34.53125 L 200.835938 34.53125 L 200.835938 93.207031 L 209.179688 93.207031 Z M 209.179688 101.554688 " fill-opacity="1" fill-rule="nonzero"/><path fill="#585eff" d="M 50.902344 93.078125 L 50.902344 34.53125 L 42.292969 34.53125 L 42.292969 101.554688 L 50.902344 101.554688 Z M 50.902344 93.078125 " fill-opacity="1" fill-rule="nonzero"/><path fill="#585eff" d="M 276.523438 34.964844 L 276.523438 34.53125 L 275.992188 34.53125 L 275.992188 109.621094 L 267.652344 109.621094 L 267.652344 117.972656 L 25.898438 117.972656 L 25.898438 126.285156 L 267.914062 126.285156 L 267.914062 118.414062 L 268.027344 118.414062 L 268.027344 117.949219 L 278.316406 117.949219 L 278.316406 111.203125 L 284.179688 111.203125 L 284.179688 34.964844 Z M 276.523438 34.964844 " fill-opacity="1" fill-rule="nonzero"/><path fill="#585eff" d="M 67.320312 59.691406 L 67.320312 68.167969 L 75.933594 68.167969 L 75.933594 51.222656 L 67.585938 51.222656 L 67.585938 42.875 L 58.976562 42.875 L 58.976562 51.488281 L 67.320312 51.488281 Z M 67.320312 59.691406 " fill-opacity="1" fill-rule="nonzero"/><path fill="#585eff" d="M 100.964844 93.078125 L 100.964844 42.875 L 92.363281 42.875 L 92.363281 101.554688 L 100.964844 101.554688 Z M 100.964844 93.078125 " fill-opacity="1" fill-rule="nonzero"/><path fill="#585eff" d="M 117.652344 93.078125 L 117.652344 34.53125 L 109.039062 34.53125 L 109.039062 101.554688 L 117.652344 101.554688 Z M 117.652344 93.078125 " fill-opacity="1" fill-rule="nonzero"/><path fill="#585eff" d="M 9.070312 42.75 L 9.070312 43 L 17.390625 43 L 17.390625 35.089844 L 9.070312 35.089844 Z M 9.070312 42.75 " fill-opacity="1" fill-rule="nonzero"/><path fill="#585eff" d="M 259.464844 18.0625 L 26.109375 18.0625 L 26.109375 26.574219 L 17.585938 26.574219 L 17.585938 34.664062 L 34.085938 34.664062 L 34.085938 26.324219 L 267.824219 26.324219 L 267.824219 18.0625 Z M 259.464844 18.0625 " fill-opacity="1" fill-rule="nonzero"/><path fill="#585eff" d="M 267.910156 26.574219 L 267.910156 26.324219 L 267.824219 26.324219 L 267.824219 34.664062 L 276.160156 34.664062 L 276.160156 26.574219 Z M 267.910156 26.574219 " fill-opacity="1" fill-rule="nonzero"/><g clip-path="url(#8be2b3a76e)"><path fill="#3d3b52" d="M 285.136719 33.941406 L 285.136719 26.277344 L 276.613281 26.277344 L 276.613281 17.757812 L 268.089844 17.757812 L 268.089844 9.261719 L 24.949219 9.261719 L 24.949219 17.78125 L 17.292969 17.78125 L 17.292969 26.304688 L 8.769531 26.304688 L 8.769531 33.941406 L 0.265625 33.941406 L 0.265625 110.285156 L 8.789062 110.285156 L 8.789062 118.808594 L 17.3125 118.808594 L 17.3125 126.464844 L 24.949219 126.464844 L 24.949219 134.984375 L 268.113281 134.984375 L 268.113281 126.464844 L 276.632812 126.464844 L 276.632812 118.792969 L 285.15625 118.792969 L 285.15625 110.273438 L 292.765625 110.273438 L 292.765625 33.941406 Z M 283.6875 42.75 L 283.6875 109.6875 L 276.03125 109.6875 L 276.03125 117.359375 L 267.507812 117.359375 L 267.507812 125.878906 L 26.390625 125.878906 L 26.390625 117.359375 L 17.867188 117.359375 L 17.867188 109.6875 L 9.347656 109.6875 L 9.347656 35.382812 L 17.867188 35.382812 L 17.867188 26.863281 L 26.390625 26.863281 L 26.390625 18.339844 L 267.519531 18.339844 L 267.519531 26.863281 L 276.042969 26.863281 L 276.042969 35.382812 L 283.699219 35.382812 Z M 283.6875 42.75 " fill-opacity="1" fill-rule="nonzero"/></g><g clip-path="url(#fc463f281e)"><path fill="#8488f4" d="M 374.074219 34.5625 L 374.074219 34.039062 L 366.746094 34.039062 L 366.746094 26.964844 L 366.457031 26.964844 L 366.457031 26.4375 L 358.253906 26.4375 L 358.253906 18.53125 L 357.960938 18.53125 L 357.960938 18.003906 L 349.761719 18.003906 L 349.761719 10.101562 L 349.464844 10.101562 L 349.464844 9.574219 L 107.429688 9.574219 L 107.429688 18.003906 L 99.785156 18.003906 L 99.785156 26.191406 L 99.589844 26.191406 L 99.589844 26.4375 L 91.296875 26.4375 L 91.296875 34.039062 L 82.800781 34.039062 L 82.800781 109.132812 L 83.097656 109.132812 L 83.097656 109.65625 L 91.296875 109.65625 L 91.296875 117.554688 L 91.585938 117.554688 L 91.585938 118.078125 L 99.785156 118.078125 L 99.785156 125.160156 L 100.0625 125.160156 L 100.0625 125.691406 L 107.429688 125.691406 L 107.429688 133.601562 L 107.71875 133.601562 L 107.71875 134.125 L 349.761719 134.125 L 349.761719 125.691406 L 349.667969 125.691406 L 349.667969 125.160156 L 349.761719 125.160156 L 349.761719 125.691406 L 358.28125 125.691406 L 358.28125 118.097656 L 366.769531 118.097656 L 366.769531 109.6875 L 374.414062 109.6875 L 374.414062 34.5625 Z M 349.464844 117.707031 Z M 357.988281 109.132812 L 357.988281 108.902344 Z M 357.988281 109.132812 " fill-opacity="1" fill-rule="nonzero"/></g><g clip-path="url(#a5867dfbf4)"><path fill="#8488f4" d="M 366.523438 34.558594 L 366.523438 26.972656 L 358 26.972656 L 358 34.957031 L 357.738281 34.957031 L 357.738281 26.972656 L 358 26.972656 L 358 18.570312 L 349.476562 18.570312 L 349.476562 26.722656 L 349.386719 26.722656 L 349.386719 18.570312 L 349.476562 18.570312 L 349.476562 10.121094 L 107.4375 10.121094 L 107.4375 18.570312 L 99.792969 18.570312 L 99.792969 26.722656 L 99.597656 26.722656 L 99.597656 26.972656 L 91.296875 26.972656 L 91.296875 34.558594 L 82.800781 34.558594 L 82.800781 109.570312 L 91.324219 109.570312 L 91.324219 109.347656 L 91.617188 109.347656 L 91.617188 109.570312 L 91.324219 109.570312 L 91.324219 118 L 99.84375 118 L 99.84375 125.585938 L 107.4375 125.585938 L 107.4375 134.015625 L 349.53125 134.015625 L 349.53125 125.585938 L 349.4375 125.585938 L 349.4375 118.136719 L 349.53125 118.136719 L 349.53125 125.585938 L 358.050781 125.585938 L 358.050781 118 L 366.574219 118 L 366.574219 109.570312 L 374.21875 109.570312 L 374.21875 34.558594 Z M 357.730469 117.640625 L 357.730469 110.265625 L 357.992188 110.265625 L 357.992188 117.640625 Z M 365.648438 109.96875 L 358.027344 109.96875 L 358.027344 109.742188 L 365.648438 109.742188 Z M 365.648438 109.96875 " fill-opacity="1" fill-rule="nonzero"/></g><path fill="#ffffff" d="M 166.105469 43.007812 L 174.457031 43.007812 L 174.457031 51.359375 L 166.105469 51.359375 Z M 166.105469 43.007812 " fill-opacity="1" fill-rule="nonzero"/><path fill="#ffffff" d="M 149.417969 43.007812 L 157.769531 43.007812 L 157.769531 51.359375 L 149.417969 51.359375 Z M 149.417969 43.007812 " fill-opacity="1" fill-rule="nonzero"/><path fill="#ffffff" d="M 141.070312 34.664062 L 132.734375 34.664062 L 132.734375 101.421875 L 141.070312 101.421875 L 141.070312 43 L 149.417969 43 L 149.417969 34.664062 Z M 141.070312 34.664062 " fill-opacity="1" fill-rule="nonzero"/><path fill="#ffffff" d="M 174.457031 34.664062 L 174.457031 43 L 182.796875 43 L 182.796875 101.421875 L 191.132812 101.421875 L 191.132812 34.664062 Z M 174.457031 34.664062 " fill-opacity="1" fill-rule="nonzero"/><path fill="#ffffff" d="M 157.769531 59.691406 L 157.769531 68.035156 L 166.105469 68.035156 L 166.105469 51.359375 L 157.769531 51.359375 Z M 157.769531 59.691406 " fill-opacity="1" fill-rule="nonzero"/><path fill="#ffffff" d="M 307.957031 93.078125 L 299.617188 93.078125 L 299.617188 101.421875 L 324.652344 101.421875 L 324.652344 93.078125 Z M 307.957031 93.078125 " fill-opacity="1" fill-rule="nonzero"/><path fill="#ffffff" d="M 324.652344 34.664062 L 324.652344 93.078125 L 332.992188 93.078125 L 332.992188 34.664062 Z M 324.652344 34.664062 " fill-opacity="1" fill-rule="nonzero"/><path fill="#ffffff" d="M 216.175781 34.664062 L 199.484375 34.664062 L 199.484375 101.421875 L 232.859375 101.421875 L 232.859375 93.078125 L 207.824219 93.078125 L 207.824219 68.035156 L 224.519531 68.035156 L 224.519531 59.691406 L 207.824219 59.691406 L 207.824219 43 L 232.859375 43 L 232.859375 34.664062 Z M 216.175781 34.664062 " fill-opacity="1" fill-rule="nonzero"/><path fill="#ffffff" d="M 299.617188 76.386719 L 299.617188 34.664062 L 291.273438 34.664062 L 291.273438 93.078125 L 299.617188 93.078125 Z M 299.617188 76.386719 " fill-opacity="1" fill-rule="nonzero"/><path fill="#ffffff" d="M 274.582031 43 L 274.582031 59.691406 L 266.238281 59.691406 L 266.238281 51.359375 L 257.886719 51.359375 L 257.886719 43 L 249.546875 43 L 249.546875 34.664062 L 241.210938 34.664062 L 241.210938 101.421875 L 249.546875 101.421875 L 249.546875 59.691406 L 257.886719 59.691406 L 257.886719 68.035156 L 266.238281 68.035156 L 266.238281 76.386719 L 274.582031 76.386719 L 274.582031 101.421875 L 282.929688 101.421875 L 282.929688 34.664062 L 274.582031 34.664062 Z M 274.582031 43 " fill-opacity="1" fill-rule="nonzero"/><path fill="#585eff" d="M 274.714844 51.359375 L 274.714844 34.53125 L 266.109375 34.53125 L 266.109375 59.820312 L 274.714844 59.820312 Z M 274.714844 51.359375 " fill-opacity="1" fill-rule="nonzero"/><path fill="#585eff" d="M 257.757812 76.519531 L 266.109375 76.519531 L 266.109375 101.554688 L 274.714844 101.554688 L 274.714844 76.257812 L 266.371094 76.257812 L 266.371094 67.90625 L 258.019531 67.90625 L 258.019531 59.558594 L 249.417969 59.558594 L 249.417969 68.167969 L 257.757812 68.167969 Z M 257.757812 76.519531 " fill-opacity="1" fill-rule="nonzero"/><path fill="#585eff" d="M 324.785156 84.726562 L 324.785156 34.53125 L 316.171875 34.53125 L 316.171875 93.207031 L 324.785156 93.207031 Z M 324.785156 84.726562 " fill-opacity="1" fill-rule="nonzero"/><path fill="#585eff" d="M 241.339844 93.078125 L 241.339844 34.53125 L 232.726562 34.53125 L 232.726562 101.554688 L 241.339844 101.554688 Z M 241.339844 93.078125 " fill-opacity="1" fill-rule="nonzero"/><path fill="#585eff" d="M 291.140625 101.554688 L 299.75 101.554688 L 299.75 92.945312 L 291.40625 92.945312 L 291.40625 34.53125 L 282.796875 34.53125 L 282.796875 93.207031 L 291.140625 93.207031 Z M 291.140625 101.554688 " fill-opacity="1" fill-rule="nonzero"/><g clip-path="url(#5f9bf55a1e)"><path fill="#585eff" d="M 132.863281 93.078125 L 132.863281 34.53125 L 124.257812 34.53125 L 124.257812 101.554688 L 132.863281 101.554688 Z M 132.863281 93.078125 " fill-opacity="1" fill-rule="nonzero"/></g><g clip-path="url(#c201c915a7)"><path fill="#585eff" d="M 358.484375 34.964844 L 358.484375 34.53125 L 357.953125 34.53125 L 357.953125 109.621094 L 349.617188 109.621094 L 349.617188 117.972656 L 107.863281 117.972656 L 107.863281 126.285156 L 349.878906 126.285156 L 349.878906 118.414062 L 349.988281 118.414062 L 349.988281 117.949219 L 360.28125 117.949219 L 360.28125 111.203125 L 366.140625 111.203125 L 366.140625 34.964844 Z M 358.484375 34.964844 " fill-opacity="1" fill-rule="nonzero"/></g><path fill="#585eff" d="M 149.285156 59.691406 L 149.285156 68.167969 L 157.898438 68.167969 L 157.898438 51.222656 L 149.546875 51.222656 L 149.546875 42.875 L 140.941406 42.875 L 140.941406 51.488281 L 149.285156 51.488281 Z M 149.285156 59.691406 " fill-opacity="1" fill-rule="nonzero"/><path fill="#585eff" d="M 182.925781 93.078125 L 182.925781 42.875 L 174.328125 42.875 L 174.328125 101.554688 L 182.925781 101.554688 Z M 182.925781 93.078125 " fill-opacity="1" fill-rule="nonzero"/><path fill="#585eff" d="M 199.617188 93.078125 L 199.617188 34.53125 L 191.003906 34.53125 L 191.003906 101.554688 L 199.617188 101.554688 Z M 199.617188 93.078125 " fill-opacity="1" fill-rule="nonzero"/><g clip-path="url(#99aee97c3f)"><path fill="#585eff" d="M 341.429688 18.0625 L 108.070312 18.0625 L 108.070312 26.574219 L 99.550781 26.574219 L 99.550781 34.664062 L 116.050781 34.664062 L 116.050781 26.324219 L 349.785156 26.324219 L 349.785156 18.0625 Z M 341.429688 18.0625 " fill-opacity="1" fill-rule="nonzero"/></g><path fill="#585eff" d="M 349.871094 26.574219 L 349.871094 26.324219 L 349.785156 26.324219 L 349.785156 34.664062 L 358.125 34.664062 L 358.125 26.574219 Z M 349.871094 26.574219 " fill-opacity="1" fill-rule="nonzero"/><g clip-path="url(#3fdb1a0274)"><path fill="#3d3b52" d="M 367.097656 33.941406 L 367.097656 26.277344 L 358.578125 26.277344 L 358.578125 17.757812 L 350.054688 17.757812 L 350.054688 9.261719 L 106.910156 9.261719 L 106.910156 17.78125 L 99.253906 17.78125 L 99.253906 26.304688 L 90.734375 26.304688 L 90.734375 33.941406 L 82.230469 33.941406 L 82.230469 110.285156 L 90.753906 110.285156 L 90.753906 118.808594 L 99.273438 118.808594 L 99.273438 126.464844 L 106.910156 126.464844 L 106.910156 134.984375 L 350.074219 134.984375 L 350.074219 126.464844 L 358.597656 126.464844 L 358.597656 118.792969 L 367.117188 118.792969 L 367.117188 110.273438 L 374.730469 110.273438 L 374.730469 33.941406 Z M 365.648438 42.75 L 365.648438 109.6875 L 357.992188 109.6875 L 357.992188 117.359375 L 349.472656 117.359375 L 349.472656 125.878906 L 108.355469 125.878906 L 108.355469 117.359375 L 99.832031 117.359375 L 99.832031 109.6875 L 91.308594 109.6875 L 91.308594 35.382812 L 99.832031 35.382812 L 99.832031 26.863281 L 108.355469 26.863281 L 108.355469 18.339844 L 349.484375 18.339844 L 349.484375 26.863281 L 358.007812 26.863281 L 358.007812 35.382812 L 365.664062 35.382812 Z M 365.648438 42.75 " fill-opacity="1" fill-rule="nonzero"/></g><path stroke-linecap="butt" transform="matrix(0.62032, 0, 0, 0.62032, 36.096058, 41.114296)" fill="none" stroke-linejoin="miter" d="M 0.00257627 49.997742 L 503.415713 49.997742 " stroke="#8088f3" stroke-width="100" stroke-opacity="1" stroke-miterlimit="4"/><path stroke-linecap="butt" transform="matrix(0.62032, 0, 0, 0.62032, 37.3367, 32.429824)" fill="none" stroke-linejoin="miter" d="M -0.00122944 49.999158 L 478.078469 49.999158 " stroke="#8088f3" stroke-width="100" stroke-opacity="1" stroke-miterlimit="4"/><g fill="#4f5ffe" fill-opacity="1"><g transform="translate(21.768116, 90.22574)"><g><path d="M 4.375 0 L 13.121094 0 L 13.121094 -8.746094 L 39.359375 -8.746094 L 39.359375 -17.492188 L 13.121094 -17.492188 L 13.121094 -34.984375 L 39.359375 -34.984375 L 39.359375 -43.730469 L 4.375 -43.730469 Z M 39.359375 0 L 48.105469 0 L 48.105469 -8.746094 L 39.359375 -8.746094 Z M 39.359375 -17.492188 L 48.105469 -17.492188 L 48.105469 -34.984375 L 39.359375 -34.984375 Z M 39.359375 -17.492188 "/></g></g></g><g fill="#4f5ffe" fill-opacity="1"><g transform="translate(74.245069, 90.22574)"><g><path d="M 4.375 0 L 48.105469 0 L 48.105469 -8.746094 L 13.121094 -8.746094 L 13.121094 -17.492188 L 39.359375 -17.492188 L 39.359375 -26.238281 L 13.121094 -26.238281 L 13.121094 -34.984375 L 48.105469 -34.984375 L 48.105469 -43.730469 L 4.375 -43.730469 Z M 4.375 0 "/></g></g></g><g fill="#4f5ffe" fill-opacity="1"><g transform="translate(126.722022, 90.22574)"><g><path d="M 13.121094 0 L 48.105469 0 L 48.105469 -26.238281 L 21.867188 -26.238281 L 21.867188 -17.492188 L 39.359375 -17.492188 L 39.359375 -8.746094 L 13.121094 -8.746094 Z M 4.375 -8.746094 L 13.121094 -8.746094 L 13.121094 -34.984375 L 4.375 -34.984375 Z M 13.121094 -34.984375 L 48.105469 -34.984375 L 48.105469 -43.730469 L 13.121094 -43.730469 Z M 13.121094 -34.984375 "/></g></g></g><g fill="#4f5ffe" fill-opacity="1"><g transform="translate(179.198976, 90.22574)"><g><path d="M 4.375 0 L 13.121094 0 L 13.121094 -8.746094 L 39.359375 -8.746094 L 39.359375 -17.492188 L 13.121094 -17.492188 L 13.121094 -34.984375 L 39.359375 -34.984375 L 39.359375 -43.730469 L 4.375 -43.730469 Z M 39.359375 0 L 48.105469 0 L 48.105469 -8.746094 L 39.359375 -8.746094 Z M 39.359375 -17.492188 L 48.105469 -17.492188 L 48.105469 -34.984375 L 39.359375 -34.984375 Z M 39.359375 -17.492188 "/></g></g></g><g fill="#4f5ffe" fill-opacity="1"><g transform="translate(231.675929, 90.22574)"><g><path d="M 4.375 0 L 13.121094 0 L 13.121094 -8.746094 L 39.359375 -8.746094 L 39.359375 0 L 48.105469 0 L 48.105469 -34.984375 L 39.359375 -34.984375 L 39.359375 -17.492188 L 13.121094 -17.492188 L 13.121094 -34.984375 L 4.375 -34.984375 Z M 13.121094 -34.984375 L 39.359375 -34.984375 L 39.359375 -43.730469 L 13.121094 -43.730469 Z M 13.121094 -34.984375 "/></g></g></g><g fill="#4f5ffe" fill-opacity="1"><g transform="translate(284.152882, 90.22574)"><g><path d="M 13.121094 -34.984375 L 4.375 -34.984375 L 4.375 -26.238281 L 13.121094 -26.238281 Z M 4.375 0 L 39.359375 0 L 39.359375 -8.746094 L 4.375 -8.746094 Z M 13.121094 -17.492188 L 39.359375 -17.492188 L 39.359375 -26.238281 L 13.121094 -26.238281 Z M 13.121094 -34.984375 L 48.105469 -34.984375 L 48.105469 -43.730469 L 13.121094 -43.730469 Z M 39.359375 -8.746094 L 48.105469 -8.746094 L 48.105469 -17.492188 L 39.359375 -17.492188 Z M 39.359375 -8.746094 "/></g></g></g><g fill="#ffffff" fill-opacity="1"><g transform="translate(31.464434, 90.22574)"><g><path d="M 4.375 0 L 13.121094 0 L 13.121094 -8.746094 L 39.359375 -8.746094 L 39.359375 -17.492188 L 13.121094 -17.492188 L 13.121094 -34.984375 L 39.359375 -34.984375 L 39.359375 -43.730469 L 4.375 -43.730469 Z M 39.359375 0 L 48.105469 0 L 48.105469 -8.746094 L 39.359375 -8.746094 Z M 39.359375 -17.492188 L 48.105469 -17.492188 L 48.105469 -34.984375 L 39.359375 -34.984375 Z M 39.359375 -17.492188 "/></g></g></g><g fill="#ffffff" fill-opacity="1"><g transform="translate(83.941388, 90.22574)"><g><path d="M 4.375 0 L 48.105469 0 L 48.105469 -8.746094 L 13.121094 -8.746094 L 13.121094 -17.492188 L 39.359375 -17.492188 L 39.359375 -26.238281 L 13.121094 -26.238281 L 13.121094 -34.984375 L 48.105469 -34.984375 L 48.105469 -43.730469 L 4.375 -43.730469 Z M 4.375 0 "/></g></g></g><g fill="#ffffff" fill-opacity="1"><g transform="translate(136.418341, 90.22574)"><g><path d="M 13.121094 0 L 48.105469 0 L 48.105469 -26.238281 L 21.867188 -26.238281 L 21.867188 -17.492188 L 39.359375 -17.492188 L 39.359375 -8.746094 L 13.121094 -8.746094 Z M 4.375 -8.746094 L 13.121094 -8.746094 L 13.121094 -34.984375 L 4.375 -34.984375 Z M 13.121094 -34.984375 L 48.105469 -34.984375 L 48.105469 -43.730469 L 13.121094 -43.730469 Z M 13.121094 -34.984375 "/></g></g></g><g fill="#ffffff" fill-opacity="1"><g transform="translate(188.895294, 90.22574)"><g><path d="M 4.375 0 L 13.121094 0 L 13.121094 -8.746094 L 39.359375 -8.746094 L 39.359375 -17.492188 L 13.121094 -17.492188 L 13.121094 -34.984375 L 39.359375 -34.984375 L 39.359375 -43.730469 L 4.375 -43.730469 Z M 39.359375 0 L 48.105469 0 L 48.105469 -8.746094 L 39.359375 -8.746094 Z M 39.359375 -17.492188 L 48.105469 -17.492188 L 48.105469 -34.984375 L 39.359375 -34.984375 Z M 39.359375 -17.492188 "/></g></g></g><g fill="#ffffff" fill-opacity="1"><g transform="translate(241.372247, 90.22574)"><g><path d="M 4.375 0 L 13.121094 0 L 13.121094 -8.746094 L 39.359375 -8.746094 L 39.359375 0 L 48.105469 0 L 48.105469 -34.984375 L 39.359375 -34.984375 L 39.359375 -17.492188 L 13.121094 -17.492188 L 13.121094 -34.984375 L 4.375 -34.984375 Z M 13.121094 -34.984375 L 39.359375 -34.984375 L 39.359375 -43.730469 L 13.121094 -43.730469 Z M 13.121094 -34.984375 "/></g></g></g><g fill="#ffffff" fill-opacity="1"><g transform="translate(293.8492, 90.22574)"><g><path d="M 13.121094 -34.984375 L 4.375 -34.984375 L 4.375 -26.238281 L 13.121094 -26.238281 Z M 4.375 0 L 39.359375 0 L 39.359375 -8.746094 L 4.375 -8.746094 Z M 13.121094 -17.492188 L 39.359375 -17.492188 L 39.359375 -26.238281 L 13.121094 -26.238281 Z M 13.121094 -34.984375 L 48.105469 -34.984375 L 48.105469 -43.730469 L 13.121094 -43.730469 Z M 39.359375 -8.746094 L 48.105469 -8.746094 L 48.105469 -17.492188 L 39.359375 -17.492188 Z M 39.359375 -8.746094 "/></g></g></g></svg>