<?xml version="1.0" encoding="UTF-8"?>
<svg xmlns="http://www.w3.org/2000/svg" xmlns:xlink="http://www.w3.org/1999/xlink" width="20px" height="20px" viewBox="0 0 20 20" version="1.1">
<defs>
<clipPath id="clip1">
  <path d="M 0.324219 0.667969 L 19.675781 0.667969 L 19.675781 18.554688 L 0.324219 18.554688 Z M 0.324219 0.667969 "/>
</clipPath>
<clipPath id="clip2">
  <path d="M 0.324219 0.652344 L 19.675781 0.652344 L 19.675781 18.554688 L 0.324219 18.554688 Z M 0.324219 0.652344 "/>
</clipPath>
</defs>
<g id="surface1">
<g clip-path="url(#clip1)" clip-rule="nonzero">
<path style=" stroke:none;fill-rule:nonzero;fill:rgb(87.45098%,87.843137%,100%);fill-opacity:1;" d="M 1.667969 8.507812 L 1.652344 7.230469 L 2.933594 7.21875 L 2.917969 5.941406 L 4.195312 5.929688 L 5.472656 5.914062 L 6.753906 5.902344 L 6.722656 3.347656 L 8 3.335938 L 8.015625 4.613281 L 8.027344 5.886719 L 8.035156 6.269531 L 8.027344 5.886719 L 8.015625 4.613281 L 8 3.335938 L 8.277344 3.332031 L 8 3.335938 L 7.988281 2.058594 L 9.269531 2.046875 L 9.546875 2.042969 L 9.269531 2.046875 L 9.253906 0.769531 L 10.527344 0.757812 L 11.808594 0.742188 L 11.824219 2.011719 L 12.097656 2.007812 L 12.097656 2.019531 L 13.097656 2.007812 L 13.113281 3.273438 L 13.390625 3.269531 L 13.390625 3.277344 L 14.394531 3.261719 L 14.40625 4.53125 L 14.683594 4.527344 L 14.683594 4.539062 L 15.683594 4.527344 L 15.695312 5.792969 L 15.972656 5.789062 L 15.972656 5.800781 L 16.972656 5.785156 L 16.988281 7.050781 L 17.265625 7.050781 L 17.265625 7.058594 L 18.269531 7.046875 L 18.28125 8.3125 L 18.558594 8.308594 L 18.558594 8.316406 L 19.558594 8.308594 L 19.574219 9.582031 L 19.589844 10.859375 L 18.308594 10.871094 L 18.324219 12.148438 L 17.046875 12.160156 L 17.058594 13.4375 L 15.785156 13.449219 L 15.796875 14.726562 L 14.519531 14.738281 L 14.535156 16.015625 L 13.253906 16.027344 L 13.269531 17.304688 L 11.992188 17.316406 L 12.003906 18.59375 L 10.726562 18.605469 L 9.449219 18.621094 L 9.433594 17.347656 L 8.15625 17.359375 L 8.144531 16.085938 L 6.863281 16.097656 L 6.851562 14.824219 L 6.835938 13.550781 L 5.558594 13.566406 L 3.003906 13.589844 L 2.988281 12.316406 L 1.710938 12.332031 L 1.695312 11.058594 L 0.417969 11.070312 L 0.402344 9.796875 L 0.390625 8.519531 Z M 15.714844 7.074219 L 15.714844 7.5 Z M 17.003906 8.335938 L 17.28125 8.335938 L 17.003906 8.339844 Z M 11.835938 3.292969 L 11.847656 4.144531 Z M 11.835938 3.292969 "/>
</g>
<path style=" stroke:none;fill-rule:nonzero;fill:rgb(51.764706%,53.333333%,95.686275%);fill-opacity:1;" d="M 17.019531 9.589844 L 17.003906 8.308594 L 15.722656 8.324219 L 15.738281 9.601562 Z M 17.019531 9.589844 "/>
<path style=" stroke:none;fill-rule:nonzero;fill:rgb(51.764706%,53.333333%,95.686275%);fill-opacity:1;" d="M 15.722656 8.324219 L 15.710938 7.042969 L 14.429688 7.058594 L 14.445312 8.339844 Z M 15.722656 8.324219 "/>
<path style=" stroke:none;fill-rule:nonzero;fill:rgb(51.764706%,53.333333%,95.686275%);fill-opacity:1;" d="M 14.429688 7.058594 L 14.417969 5.777344 L 13.136719 5.792969 L 13.152344 7.070312 Z M 14.429688 7.058594 "/>
<path style=" stroke:none;fill-rule:nonzero;fill:rgb(51.764706%,53.333333%,95.686275%);fill-opacity:1;" d="M 11.84375 4.527344 L 11.828125 3.246094 L 10.546875 3.261719 L 10.5625 4.542969 Z M 11.84375 4.527344 "/>
<path style=" stroke:none;fill-rule:nonzero;fill:rgb(67.843137%,68.627451%,96.470588%);fill-opacity:1;" d="M 2.925781 8.464844 L 2.910156 7.183594 L 4.191406 7.167969 L 4.203125 8.449219 L 5.484375 8.4375 L 5.5 9.714844 L 6.777344 9.703125 L 6.792969 10.984375 L 8.074219 10.96875 L 9.351562 10.957031 L 10.632812 10.941406 L 10.644531 12.222656 L 10.660156 13.5 L 10.675781 14.78125 L 11.957031 14.765625 L 11.941406 13.488281 L 13.222656 13.472656 L 14.5 13.457031 L 14.515625 14.738281 L 13.234375 14.753906 L 13.25 16.03125 L 11.96875 16.046875 L 11.984375 17.324219 L 10.703125 17.339844 L 9.425781 17.355469 L 9.410156 16.074219 L 8.128906 16.089844 L 8.113281 14.808594 L 8.101562 13.527344 L 8.085938 12.25 L 6.808594 12.261719 L 4.246094 12.292969 L 2.964844 12.304688 L 2.953125 11.027344 L 1.671875 11.039062 L 1.660156 9.761719 L 1.644531 8.480469 Z M 2.925781 8.464844 "/>
<g clip-path="url(#clip2)" clip-rule="nonzero">
<path style=" stroke:none;fill-rule:nonzero;fill:rgb(34.509804%,36.862745%,100%);fill-opacity:1;" d="M 1.625 8.472656 L 1.609375 7.191406 L 2.894531 7.175781 L 2.878906 5.894531 L 4.183594 5.878906 L 5.464844 5.863281 L 6.726562 5.851562 L 6.714844 4.589844 L 6.699219 3.285156 L 7.980469 3.269531 L 7.964844 1.988281 L 9.25 1.972656 L 9.234375 0.691406 L 10.539062 0.675781 L 11.84375 0.664062 L 11.855469 1.949219 L 13.140625 1.933594 L 13.152344 3.214844 L 14.433594 3.199219 L 14.449219 4.480469 L 15.734375 4.46875 L 15.746094 5.75 L 17.03125 5.734375 L 17.042969 7.015625 L 18.324219 7.003906 L 18.339844 8.285156 L 19.625 8.269531 L 19.636719 9.574219 L 19.652344 10.878906 L 18.371094 10.894531 L 18.386719 12.175781 L 17.101562 12.191406 L 17.117188 13.472656 L 15.832031 13.488281 L 15.847656 14.769531 L 14.566406 14.78125 L 14.578125 16.066406 L 13.296875 16.078125 L 13.308594 17.363281 L 12.027344 17.375 L 12.042969 18.660156 L 10.738281 18.671875 L 9.433594 18.6875 L 9.421875 17.402344 L 8.136719 17.417969 L 8.121094 16.136719 L 6.839844 16.152344 L 6.824219 14.847656 L 6.8125 13.585938 L 5.550781 13.601562 L 4.269531 13.613281 L 2.964844 13.628906 L 2.949219 12.347656 L 1.667969 12.363281 L 1.652344 11.082031 L 0.371094 11.09375 L 0.355469 9.789062 L 0.339844 8.488281 Z M 1.683594 9.773438 L 1.695312 11.035156 L 2.980469 11.019531 L 2.996094 12.304688 L 4.253906 12.289062 L 5.539062 12.277344 L 6.820312 12.261719 L 8.121094 12.246094 L 8.136719 13.550781 L 8.152344 14.832031 L 8.167969 16.09375 L 9.449219 16.078125 L 9.464844 17.363281 L 10.722656 17.347656 L 11.984375 17.332031 L 11.972656 16.050781 L 13.253906 16.035156 L 13.238281 14.753906 L 14.519531 14.738281 L 14.507812 13.457031 L 15.792969 13.441406 L 15.777344 12.160156 L 17.058594 12.148438 L 17.042969 10.867188 L 18.324219 10.851562 L 18.3125 9.589844 L 18.296875 8.332031 L 17.011719 8.34375 L 17 7.0625 L 15.71875 7.074219 L 15.703125 5.792969 L 14.417969 5.808594 L 14.40625 4.527344 L 13.125 4.542969 L 13.109375 3.257812 L 11.828125 3.269531 L 11.8125 1.988281 L 10.550781 2.003906 L 9.292969 2.019531 L 9.304688 3.300781 L 8.019531 3.316406 L 8.035156 4.574219 L 8.050781 5.855469 L 8.066406 7.160156 L 6.761719 7.175781 L 5.480469 7.191406 L 4.195312 7.203125 L 2.933594 7.214844 L 2.949219 8.5 L 1.667969 8.515625 Z M 1.683594 9.773438 "/>
<path style=" stroke:none;fill-rule:nonzero;fill:rgb(34.509804%,36.862745%,100%);fill-opacity:1;" d="M 1.625 8.472656 L 1.613281 8.472656 L 1.597656 7.175781 L 2.882812 7.164062 L 2.871094 5.882812 L 4.183594 5.867188 L 5.464844 5.855469 L 6.714844 5.839844 L 6.703125 4.589844 L 6.6875 3.277344 L 7.96875 3.261719 L 7.957031 1.980469 L 9.238281 1.964844 L 9.222656 0.683594 L 11.855469 0.652344 L 11.871094 1.933594 L 13.152344 1.921875 L 13.167969 3.203125 L 14.449219 3.191406 L 14.460938 4.472656 L 15.746094 4.457031 L 15.761719 5.738281 L 17.042969 5.726562 L 17.058594 7.007812 L 18.339844 6.992188 L 18.355469 8.277344 L 19.636719 8.261719 L 19.652344 9.574219 L 19.664062 10.890625 L 18.382812 10.90625 L 18.394531 12.1875 L 17.113281 12.199219 L 17.128906 13.480469 L 15.847656 13.496094 L 15.859375 14.777344 L 14.578125 14.792969 L 14.589844 16.074219 L 13.308594 16.089844 L 13.324219 17.371094 L 12.042969 17.386719 L 12.054688 18.667969 L 10.738281 18.683594 L 9.425781 18.699219 L 9.410156 17.414062 L 8.128906 17.429688 L 8.113281 16.148438 L 6.832031 16.160156 L 6.816406 14.847656 L 6.800781 13.597656 L 5.550781 13.613281 L 4.269531 13.625 L 2.957031 13.640625 L 2.941406 12.355469 L 1.660156 12.371094 L 1.644531 11.089844 L 0.363281 11.105469 L 0.347656 9.789062 L 0.332031 8.476562 L 1.625 8.460938 L 1.625 8.480469 L 0.355469 8.496094 L 0.367188 9.789062 L 0.382812 11.082031 L 1.664062 11.066406 L 1.679688 12.351562 L 2.960938 12.335938 L 2.972656 13.617188 L 4.269531 13.605469 L 5.550781 13.589844 L 6.824219 13.574219 L 6.835938 14.847656 L 6.847656 16.140625 L 8.132812 16.125 L 8.144531 17.40625 L 9.429688 17.394531 L 9.441406 18.675781 L 10.738281 18.660156 L 12.035156 18.648438 L 12.019531 17.363281 L 13.300781 17.347656 L 13.285156 16.066406 L 14.570312 16.054688 L 14.554688 14.773438 L 15.839844 14.757812 L 15.824219 13.476562 L 17.105469 13.460938 L 17.089844 12.179688 L 18.375 12.167969 L 18.359375 10.882812 L 19.644531 10.871094 L 19.613281 8.285156 L 18.332031 8.300781 L 18.316406 7.015625 L 17.035156 7.03125 L 17.019531 5.75 L 15.738281 5.761719 L 15.722656 4.480469 L 14.441406 4.496094 L 14.425781 3.210938 L 13.144531 3.222656 L 13.128906 1.941406 L 11.847656 1.957031 L 11.835938 0.675781 L 10.542969 0.691406 L 9.246094 0.703125 L 9.261719 1.988281 L 7.980469 2 L 7.992188 3.28125 L 6.710938 3.296875 L 6.722656 4.589844 L 6.738281 5.863281 L 5.46875 5.875 L 4.183594 5.886719 L 2.890625 5.902344 L 2.90625 7.183594 L 1.621094 7.199219 L 1.636719 8.480469 L 1.625 8.480469 Z M 1.683594 9.773438 L 1.691406 9.773438 L 1.707031 11.027344 L 2.988281 11.011719 L 3.003906 12.292969 L 4.253906 12.277344 L 5.539062 12.265625 L 6.820312 12.25 L 8.136719 12.238281 L 8.148438 13.550781 L 8.160156 14.832031 L 8.175781 16.082031 L 9.457031 16.066406 L 9.472656 17.347656 L 11.972656 17.324219 L 11.957031 16.042969 L 13.238281 16.027344 L 13.226562 14.746094 L 14.507812 14.730469 L 14.496094 13.449219 L 15.777344 13.433594 L 15.761719 12.152344 L 17.042969 12.136719 L 17.03125 10.855469 L 18.3125 10.839844 L 18.304688 9.589844 L 18.289062 8.339844 L 17.007812 8.355469 L 16.996094 7.074219 L 15.710938 7.085938 L 15.699219 5.804688 L 14.414062 5.816406 L 14.398438 4.535156 L 13.117188 4.550781 L 13.105469 3.269531 L 11.820312 3.285156 L 11.808594 2 L 10.554688 2.015625 L 9.304688 2.027344 L 9.320312 3.308594 L 8.035156 3.324219 L 8.050781 4.574219 L 8.066406 5.855469 L 8.078125 7.171875 L 6.765625 7.183594 L 5.480469 7.199219 L 4.199219 7.214844 L 2.949219 7.226562 L 2.960938 8.511719 L 1.675781 8.527344 L 1.691406 9.773438 L 1.667969 9.773438 L 1.652344 8.503906 L 2.9375 8.488281 L 2.925781 7.207031 L 4.195312 7.191406 L 5.480469 7.175781 L 6.761719 7.164062 L 8.054688 7.148438 L 8.039062 5.855469 L 8.027344 4.574219 L 8.011719 3.300781 L 9.292969 3.289062 L 9.28125 2.007812 L 10.550781 1.992188 L 11.824219 1.980469 L 11.839844 3.261719 L 13.121094 3.246094 L 13.136719 4.527344 L 14.417969 4.515625 L 14.433594 5.796875 L 15.714844 5.785156 L 15.730469 7.066406 L 17.011719 7.050781 L 17.027344 8.335938 L 18.308594 8.320312 L 18.324219 9.589844 L 18.339844 10.863281 L 17.054688 10.878906 L 17.070312 12.160156 L 15.785156 12.175781 L 15.800781 13.457031 L 14.519531 13.472656 L 14.535156 14.753906 L 13.25 14.769531 L 13.265625 16.050781 L 11.980469 16.0625 L 11.996094 17.347656 L 10.722656 17.359375 L 9.453125 17.375 L 9.4375 16.089844 L 8.152344 16.105469 L 8.140625 14.835938 L 8.128906 13.550781 L 8.113281 12.261719 L 6.820312 12.273438 L 5.535156 12.289062 L 4.253906 12.300781 L 2.980469 12.316406 L 2.96875 11.035156 L 1.683594 11.050781 L 1.671875 9.777344 Z M 1.683594 9.773438 "/>
</g>
</g>
</svg>
