<svg xmlns="http://www.w3.org/2000/svg" xmlns:xlink="http://www.w3.org/1999/xlink" width="500" zoomAndPan="magnify" viewBox="0 0 375 149.999998" height="200" preserveAspectRatio="xMidYMid meet" version="1.0"><defs><clipPath id="00a209cf43"><path d="M 0 58.496094 L 375 58.496094 L 375 149.996094 L 0 149.996094 Z M 0 58.496094 " clip-rule="nonzero"/></clipPath><clipPath id="fd3b441eb1"><path d="M 5 58.496094 L 375 58.496094 L 375 149.996094 L 5 149.996094 Z M 5 58.496094 " clip-rule="nonzero"/></clipPath><clipPath id="9643d933d4"><path d="M 177 144 L 193 144 L 193 149.996094 L 177 149.996094 Z M 177 144 " clip-rule="nonzero"/></clipPath><clipPath id="b20840bdd9"><path d="M 285.277344 0 L 375 0 L 375 57.75 L 285.277344 57.75 Z M 285.277344 0 " clip-rule="nonzero"/></clipPath><clipPath id="72d5f68db9"><path d="M 295 41 L 355 41 L 355 57.75 L 295 57.75 Z M 295 41 " clip-rule="nonzero"/></clipPath><clipPath id="8255f2517d"><path d="M 285.277344 26 L 302 26 L 302 53 L 285.277344 53 Z M 285.277344 26 " clip-rule="nonzero"/></clipPath></defs><g clip-path="url(#00a209cf43)"><path fill="#bfebf4" d="M 5.066406 78.867188 L 5.066406 83.945312 L 10.136719 83.945312 L 10.136719 89.019531 L 15.203125 89.019531 L 15.203125 94.09375 L 30.40625 94.09375 L 30.40625 89.019531 L 35.472656 89.019531 L 35.472656 83.945312 L 40.539062 83.945312 L 40.539062 89.019531 L 35.472656 89.019531 L 35.472656 99.171875 L 40.539062 99.171875 L 40.539062 104.246094 L 45.609375 104.246094 L 45.609375 109.320312 L 55.742188 109.320312 L 55.742188 104.246094 L 65.878906 104.246094 L 65.878906 109.320312 L 70.945312 109.320312 L 70.945312 114.394531 L 96.285156 114.394531 L 96.285156 109.320312 L 101.351562 109.320312 L 101.351562 104.246094 L 106.417969 104.246094 L 106.417969 99.171875 L 121.621094 99.171875 L 121.621094 94.09375 L 131.757812 94.09375 L 131.757812 99.171875 L 136.824219 99.171875 L 136.824219 109.320312 L 131.757812 109.320312 L 131.757812 119.472656 L 136.824219 119.472656 L 136.824219 124.546875 L 141.890625 124.546875 L 141.890625 129.621094 L 146.960938 129.621094 L 146.960938 134.699219 L 167.230469 134.699219 L 167.230469 139.773438 L 172.296875 139.773438 L 172.296875 144.847656 L 177.363281 144.847656 L 177.363281 149.925781 L 207.769531 149.925781 L 207.769531 144.847656 L 212.835938 144.847656 L 212.835938 139.773438 L 217.90625 139.773438 L 217.90625 129.621094 L 228.039062 129.621094 L 228.039062 124.546875 L 233.109375 124.546875 L 233.109375 119.472656 L 238.175781 119.472656 L 238.175781 114.394531 L 243.242188 114.394531 L 243.242188 104.246094 L 238.175781 104.246094 L 238.175781 99.171875 L 233.109375 99.171875 L 233.109375 94.09375 L 238.175781 94.09375 L 238.175781 83.945312 L 243.242188 83.945312 L 243.242188 89.019531 L 253.378906 89.019531 L 253.378906 94.09375 L 258.445312 94.09375 L 258.445312 104.246094 L 253.378906 104.246094 L 253.378906 114.394531 L 258.445312 114.394531 L 258.445312 124.546875 L 263.511719 124.546875 L 263.511719 129.621094 L 273.648438 129.621094 L 273.648438 134.699219 L 293.917969 134.699219 L 293.917969 129.621094 L 304.054688 129.621094 L 304.054688 124.546875 L 314.1875 124.546875 L 314.1875 119.472656 L 319.257812 119.472656 L 319.257812 114.394531 L 324.324219 114.394531 L 324.324219 109.320312 L 334.460938 109.320312 L 334.460938 104.246094 L 339.527344 104.246094 L 339.527344 99.171875 L 359.796875 99.171875 L 359.796875 94.09375 L 364.863281 94.09375 L 364.863281 89.019531 L 369.933594 89.019531 L 369.933594 73.792969 L 375 73.792969 L 375 63.644531 L 369.933594 63.644531 L 369.933594 58.566406 L 5.066406 58.566406 L 5.066406 63.644531 L 0 63.644531 L 0 78.867188 Z M 5.066406 78.867188 " fill-opacity="1" fill-rule="nonzero"/></g><path fill="#7c9ae0" d="M 304.054688 109.320312 L 309.121094 109.320312 L 309.121094 119.472656 L 304.054688 119.472656 L 304.054688 124.546875 L 314.1875 124.546875 L 314.1875 104.246094 L 309.121094 104.246094 L 309.121094 99.171875 L 304.054688 99.171875 Z M 304.054688 109.320312 " fill-opacity="1" fill-rule="nonzero"/><path fill="#7c9ae0" d="M 304.054688 99.171875 L 298.988281 99.171875 L 298.988281 94.09375 L 304.054688 94.09375 Z M 304.054688 99.171875 " fill-opacity="1" fill-rule="nonzero"/><path fill="#7c9ae0" d="M 298.988281 104.246094 L 288.851562 104.246094 L 288.851562 99.171875 L 298.988281 99.171875 Z M 298.988281 104.246094 " fill-opacity="1" fill-rule="nonzero"/><path fill="#7c9ae0" d="M 288.851562 109.320312 L 278.714844 109.320312 L 278.714844 104.246094 L 288.851562 104.246094 Z M 288.851562 109.320312 " fill-opacity="1" fill-rule="nonzero"/><path fill="#7c9ae0" d="M 278.714844 104.246094 L 273.648438 104.246094 L 273.648438 99.171875 L 278.714844 99.171875 Z M 278.714844 104.246094 " fill-opacity="1" fill-rule="nonzero"/><path fill="#7c9ae0" d="M 339.527344 99.171875 L 334.460938 99.171875 L 334.460938 94.09375 L 339.527344 94.09375 Z M 339.527344 99.171875 " fill-opacity="1" fill-rule="nonzero"/><path fill="#7c9ae0" d="M 344.59375 94.09375 L 339.527344 94.09375 L 339.527344 89.019531 L 344.59375 89.019531 Z M 344.59375 94.09375 " fill-opacity="1" fill-rule="nonzero"/><path fill="#7c9ae0" d="M 349.664062 89.019531 L 344.59375 89.019531 L 344.59375 83.945312 L 349.664062 83.945312 Z M 349.664062 89.019531 " fill-opacity="1" fill-rule="nonzero"/><path fill="#7c9ae0" d="M 344.59375 83.945312 L 339.527344 83.945312 L 339.527344 73.792969 L 344.59375 73.792969 Z M 344.59375 83.945312 " fill-opacity="1" fill-rule="nonzero"/><path fill="#7c9ae0" d="M 329.390625 78.867188 L 324.324219 78.867188 L 324.324219 73.792969 L 329.390625 73.792969 Z M 329.390625 78.867188 " fill-opacity="1" fill-rule="nonzero"/><path fill="#7c9ae0" d="M 324.324219 83.945312 L 319.257812 83.945312 L 319.257812 78.867188 L 324.324219 78.867188 Z M 324.324219 83.945312 " fill-opacity="1" fill-rule="nonzero"/><path fill="#7c9ae0" d="M 304.054688 89.019531 L 304.054688 94.09375 L 309.121094 94.09375 L 309.121094 89.019531 L 319.257812 89.019531 L 319.257812 83.945312 L 304.054688 83.945312 Z M 304.054688 89.019531 " fill-opacity="1" fill-rule="nonzero"/><path fill="#7c9ae0" d="M 304.054688 83.945312 L 298.988281 83.945312 L 298.988281 78.867188 L 304.054688 78.867188 Z M 304.054688 83.945312 " fill-opacity="1" fill-rule="nonzero"/><path fill="#7c9ae0" d="M 298.988281 78.867188 L 293.917969 78.867188 L 293.917969 73.792969 L 298.988281 73.792969 Z M 298.988281 78.867188 " fill-opacity="1" fill-rule="nonzero"/><path fill="#7c9ae0" d="M 278.714844 89.019531 L 268.582031 89.019531 L 268.582031 83.945312 L 278.714844 83.945312 Z M 278.714844 89.019531 " fill-opacity="1" fill-rule="nonzero"/><path fill="#7c9ae0" d="M 268.582031 94.09375 L 253.378906 94.09375 L 253.378906 89.019531 L 268.582031 89.019531 Z M 268.582031 94.09375 " fill-opacity="1" fill-rule="nonzero"/><path fill="#7c9ae0" d="M 243.242188 83.945312 L 238.175781 83.945312 L 238.175781 78.867188 L 243.242188 78.867188 Z M 243.242188 83.945312 " fill-opacity="1" fill-rule="nonzero"/><path fill="#7c9ae0" d="M 207.769531 124.546875 L 202.703125 124.546875 L 202.703125 119.472656 L 207.769531 119.472656 Z M 207.769531 124.546875 " fill-opacity="1" fill-rule="nonzero"/><path fill="#7c9ae0" d="M 364.863281 94.09375 L 359.796875 94.09375 L 359.796875 89.019531 L 364.863281 89.019531 Z M 364.863281 94.09375 " fill-opacity="1" fill-rule="nonzero"/><path fill="#7c9ae0" d="M 359.796875 99.171875 L 349.664062 99.171875 L 349.664062 94.09375 L 359.796875 94.09375 Z M 359.796875 99.171875 " fill-opacity="1" fill-rule="nonzero"/><path fill="#7c9ae0" d="M 177.363281 83.945312 L 172.296875 83.945312 L 172.296875 78.867188 L 177.363281 78.867188 Z M 177.363281 83.945312 " fill-opacity="1" fill-rule="nonzero"/><path fill="#7c9ae0" d="M 192.566406 99.171875 L 187.5 99.171875 L 187.5 94.09375 L 192.566406 94.09375 Z M 192.566406 99.171875 " fill-opacity="1" fill-rule="nonzero"/><path fill="#7c9ae0" d="M 197.636719 109.320312 L 192.566406 109.320312 L 192.566406 99.171875 L 197.636719 99.171875 Z M 197.636719 109.320312 " fill-opacity="1" fill-rule="nonzero"/><path fill="#7c9ae0" d="M 192.566406 119.472656 L 187.5 119.472656 L 187.5 109.320312 L 192.566406 109.320312 Z M 192.566406 119.472656 " fill-opacity="1" fill-rule="nonzero"/><path fill="#7c9ae0" d="M 187.5 124.546875 L 182.433594 124.546875 L 182.433594 119.472656 L 187.5 119.472656 Z M 187.5 124.546875 " fill-opacity="1" fill-rule="nonzero"/><path fill="#7c9ae0" d="M 182.433594 129.621094 L 172.296875 129.621094 L 172.296875 124.546875 L 182.433594 124.546875 Z M 182.433594 129.621094 " fill-opacity="1" fill-rule="nonzero"/><path fill="#7c9ae0" d="M 172.296875 134.699219 L 162.164062 134.699219 L 162.164062 129.621094 L 172.296875 129.621094 Z M 172.296875 134.699219 " fill-opacity="1" fill-rule="nonzero"/><path fill="#7c9ae0" d="M 182.433594 99.171875 L 177.363281 99.171875 L 177.363281 94.09375 L 182.433594 94.09375 Z M 182.433594 99.171875 " fill-opacity="1" fill-rule="nonzero"/><path fill="#7c9ae0" d="M 177.363281 104.246094 L 172.296875 104.246094 L 172.296875 99.171875 L 177.363281 99.171875 Z M 177.363281 104.246094 " fill-opacity="1" fill-rule="nonzero"/><path fill="#7c9ae0" d="M 172.296875 109.320312 L 157.09375 109.320312 L 157.09375 104.246094 L 172.296875 104.246094 Z M 172.296875 109.320312 " fill-opacity="1" fill-rule="nonzero"/><path fill="#7c9ae0" d="M 157.09375 104.246094 L 152.027344 104.246094 L 152.027344 99.171875 L 157.09375 99.171875 Z M 157.09375 104.246094 " fill-opacity="1" fill-rule="nonzero"/><path fill="#7c9ae0" d="M 152.027344 83.945312 L 146.960938 83.945312 L 146.960938 78.867188 L 152.027344 78.867188 Z M 152.027344 83.945312 " fill-opacity="1" fill-rule="nonzero"/><path fill="#7c9ae0" d="M 146.960938 89.019531 L 136.824219 89.019531 L 136.824219 83.945312 L 146.960938 83.945312 Z M 146.960938 89.019531 " fill-opacity="1" fill-rule="nonzero"/><path fill="#7c9ae0" d="M 136.824219 94.09375 L 126.6875 94.09375 L 126.6875 89.019531 L 136.824219 89.019531 Z M 136.824219 94.09375 " fill-opacity="1" fill-rule="nonzero"/><g clip-path="url(#fd3b441eb1)"><path fill="#7c9ae0" d="M 35.472656 63.644531 L 35.472656 68.71875 L 40.539062 68.71875 L 40.539062 78.867188 L 45.609375 78.867188 L 45.609375 63.644531 L 86.148438 63.644531 L 86.148438 68.71875 L 91.214844 68.71875 L 91.214844 78.867188 L 106.417969 78.867188 L 106.417969 73.792969 L 101.351562 73.792969 L 101.351562 68.71875 L 111.488281 68.71875 L 111.488281 63.644531 L 146.960938 63.644531 L 146.960938 68.71875 L 152.027344 68.71875 L 152.027344 78.867188 L 157.09375 78.867188 L 157.09375 73.792969 L 162.164062 73.792969 L 162.164062 68.71875 L 167.230469 68.71875 L 167.230469 63.644531 L 197.636719 63.644531 L 197.636719 68.71875 L 202.703125 68.71875 L 202.703125 73.792969 L 197.636719 73.792969 L 197.636719 78.867188 L 192.566406 78.867188 L 192.566406 83.945312 L 177.363281 83.945312 L 177.363281 89.019531 L 182.433594 89.019531 L 182.433594 94.09375 L 187.5 94.09375 L 187.5 89.019531 L 197.636719 89.019531 L 197.636719 83.945312 L 202.703125 83.945312 L 202.703125 78.867188 L 212.835938 78.867188 L 212.835938 89.019531 L 217.90625 89.019531 L 217.90625 104.246094 L 233.109375 104.246094 L 233.109375 114.394531 L 228.039062 114.394531 L 228.039062 119.472656 L 222.972656 119.472656 L 222.972656 124.546875 L 207.769531 124.546875 L 207.769531 139.773438 L 202.703125 139.773438 L 202.703125 144.847656 L 192.566406 144.847656 L 192.566406 149.925781 L 207.769531 149.925781 L 207.769531 144.847656 L 212.835938 144.847656 L 212.835938 139.773438 L 217.90625 139.773438 L 217.90625 129.621094 L 228.039062 129.621094 L 228.039062 124.546875 L 233.109375 124.546875 L 233.109375 119.472656 L 238.175781 119.472656 L 238.175781 114.394531 L 243.242188 114.394531 L 243.242188 104.246094 L 238.175781 104.246094 L 238.175781 99.171875 L 233.109375 99.171875 L 233.109375 94.09375 L 238.175781 94.09375 L 238.175781 83.945312 L 228.039062 83.945312 L 228.039062 89.019531 L 222.972656 89.019531 L 222.972656 78.867188 L 217.90625 78.867188 L 217.90625 68.71875 L 212.835938 68.71875 L 212.835938 63.644531 L 238.175781 63.644531 L 238.175781 68.71875 L 243.242188 68.71875 L 243.242188 78.867188 L 248.3125 78.867188 L 248.3125 73.792969 L 253.378906 73.792969 L 253.378906 63.644531 L 273.648438 63.644531 L 273.648438 68.71875 L 278.714844 68.71875 L 278.714844 83.945312 L 283.785156 83.945312 L 283.785156 73.792969 L 288.851562 73.792969 L 288.851562 63.644531 L 324.324219 63.644531 L 324.324219 68.71875 L 329.390625 68.71875 L 329.390625 73.792969 L 339.527344 73.792969 L 339.527344 68.71875 L 334.460938 68.71875 L 334.460938 63.644531 L 359.796875 63.644531 L 359.796875 68.71875 L 364.863281 68.71875 L 364.863281 73.792969 L 359.796875 73.792969 L 359.796875 78.867188 L 364.863281 78.867188 L 364.863281 89.019531 L 369.933594 89.019531 L 369.933594 73.792969 L 375 73.792969 L 375 63.644531 L 369.933594 63.644531 L 369.933594 58.566406 L 5.066406 58.566406 L 5.066406 63.644531 Z M 35.472656 63.644531 " fill-opacity="1" fill-rule="nonzero"/></g><path fill="#7c9ae0" d="M 304.054688 129.621094 L 298.988281 129.621094 L 298.988281 124.546875 L 304.054688 124.546875 Z M 304.054688 129.621094 " fill-opacity="1" fill-rule="nonzero"/><path fill="#7c9ae0" d="M 101.351562 99.171875 L 101.351562 104.246094 L 106.417969 104.246094 L 106.417969 94.09375 L 101.351562 94.09375 Z M 101.351562 99.171875 " fill-opacity="1" fill-rule="nonzero"/><path fill="#7c9ae0" d="M 111.488281 94.09375 L 106.417969 94.09375 L 106.417969 78.867188 L 111.488281 78.867188 Z M 111.488281 94.09375 " fill-opacity="1" fill-rule="nonzero"/><path fill="#7c9ae0" d="M 91.214844 83.945312 L 86.148438 83.945312 L 86.148438 78.867188 L 91.214844 78.867188 Z M 91.214844 83.945312 " fill-opacity="1" fill-rule="nonzero"/><path fill="#7c9ae0" d="M 70.945312 89.019531 L 70.945312 94.09375 L 76.011719 94.09375 L 76.011719 89.019531 L 86.148438 89.019531 L 86.148438 83.945312 L 70.945312 83.945312 Z M 70.945312 89.019531 " fill-opacity="1" fill-rule="nonzero"/><path fill="#7c9ae0" d="M 70.945312 83.945312 L 65.878906 83.945312 L 65.878906 78.867188 L 70.945312 78.867188 Z M 70.945312 83.945312 " fill-opacity="1" fill-rule="nonzero"/><path fill="#7c9ae0" d="M 40.539062 83.945312 L 35.472656 83.945312 L 35.472656 78.867188 L 40.539062 78.867188 Z M 40.539062 83.945312 " fill-opacity="1" fill-rule="nonzero"/><path fill="#7c9ae0" d="M 70.945312 99.171875 L 65.878906 99.171875 L 65.878906 94.09375 L 70.945312 94.09375 Z M 70.945312 99.171875 " fill-opacity="1" fill-rule="nonzero"/><path fill="#7c9ae0" d="M 65.878906 104.246094 L 55.742188 104.246094 L 55.742188 99.171875 L 65.878906 99.171875 Z M 65.878906 104.246094 " fill-opacity="1" fill-rule="nonzero"/><path fill="#7c9ae0" d="M 101.351562 109.320312 L 96.285156 109.320312 L 96.285156 104.246094 L 101.351562 104.246094 Z M 101.351562 109.320312 " fill-opacity="1" fill-rule="nonzero"/><path fill="#d8bbff" d="M 298.988281 129.621094 L 293.917969 129.621094 L 293.917969 124.546875 L 298.988281 124.546875 Z M 298.988281 129.621094 " fill-opacity="1" fill-rule="nonzero"/><path fill="#d8bbff" d="M 288.851562 104.246094 L 288.851562 109.320312 L 293.917969 109.320312 L 293.917969 114.394531 L 298.988281 114.394531 L 298.988281 124.546875 L 304.054688 124.546875 L 304.054688 119.472656 L 309.121094 119.472656 L 309.121094 109.320312 L 304.054688 109.320312 L 304.054688 99.171875 L 298.988281 99.171875 L 298.988281 104.246094 Z M 288.851562 104.246094 " fill-opacity="1" fill-rule="nonzero"/><path fill="#d8bbff" d="M 288.851562 114.394531 L 278.714844 114.394531 L 278.714844 109.320312 L 288.851562 109.320312 Z M 288.851562 114.394531 " fill-opacity="1" fill-rule="nonzero"/><path fill="#d8bbff" d="M 304.054688 94.09375 L 298.988281 94.09375 L 298.988281 83.945312 L 304.054688 83.945312 Z M 304.054688 94.09375 " fill-opacity="1" fill-rule="nonzero"/><path fill="#d8bbff" d="M 298.988281 99.171875 L 288.851562 99.171875 L 288.851562 94.09375 L 298.988281 94.09375 Z M 298.988281 99.171875 " fill-opacity="1" fill-rule="nonzero"/><path fill="#d8bbff" d="M 298.988281 83.945312 L 298.988281 78.867188 L 293.917969 78.867188 L 293.917969 73.792969 L 283.785156 73.792969 L 283.785156 83.945312 Z M 298.988281 83.945312 " fill-opacity="1" fill-rule="nonzero"/><path fill="#d8bbff" d="M 283.785156 89.019531 L 278.714844 89.019531 L 278.714844 83.945312 L 283.785156 83.945312 Z M 283.785156 89.019531 " fill-opacity="1" fill-rule="nonzero"/><path fill="#d8bbff" d="M 319.257812 73.792969 L 314.1875 73.792969 L 314.1875 78.867188 L 309.121094 78.867188 L 309.121094 83.945312 L 319.257812 83.945312 L 319.257812 78.867188 L 324.324219 78.867188 L 324.324219 73.792969 L 329.390625 73.792969 L 329.390625 68.71875 L 324.324219 68.71875 L 324.324219 63.644531 L 288.851562 63.644531 L 288.851562 68.71875 L 319.257812 68.71875 Z M 319.257812 73.792969 " fill-opacity="1" fill-rule="nonzero"/><path fill="#d8bbff" d="M 273.648438 68.71875 L 253.378906 68.71875 L 253.378906 63.644531 L 273.648438 63.644531 Z M 273.648438 68.71875 " fill-opacity="1" fill-rule="nonzero"/><path fill="#d8bbff" d="M 197.636719 68.71875 L 167.230469 68.71875 L 167.230469 63.644531 L 197.636719 63.644531 Z M 197.636719 68.71875 " fill-opacity="1" fill-rule="nonzero"/><path fill="#d8bbff" d="M 364.863281 73.792969 L 364.863281 68.71875 L 359.796875 68.71875 L 359.796875 63.644531 L 334.460938 63.644531 L 334.460938 68.71875 L 354.730469 68.71875 L 354.730469 78.867188 L 359.796875 78.867188 L 359.796875 73.792969 Z M 364.863281 73.792969 " fill-opacity="1" fill-rule="nonzero"/><path fill="#d8bbff" d="M 364.863281 89.019531 L 359.796875 89.019531 L 359.796875 78.867188 L 364.863281 78.867188 Z M 364.863281 89.019531 " fill-opacity="1" fill-rule="nonzero"/><path fill="#d8bbff" d="M 359.796875 94.09375 L 349.664062 94.09375 L 349.664062 89.019531 L 359.796875 89.019531 Z M 359.796875 94.09375 " fill-opacity="1" fill-rule="nonzero"/><path fill="#d8bbff" d="M 349.664062 99.171875 L 339.527344 99.171875 L 339.527344 94.09375 L 349.664062 94.09375 Z M 349.664062 99.171875 " fill-opacity="1" fill-rule="nonzero"/><path fill="#d8bbff" d="M 222.972656 124.546875 L 207.769531 124.546875 L 207.769531 119.472656 L 222.972656 119.472656 Z M 222.972656 124.546875 " fill-opacity="1" fill-rule="nonzero"/><path fill="#d8bbff" d="M 222.972656 109.320312 L 222.972656 119.472656 L 228.039062 119.472656 L 228.039062 114.394531 L 233.109375 114.394531 L 233.109375 104.246094 L 217.90625 104.246094 L 217.90625 109.320312 Z M 222.972656 109.320312 " fill-opacity="1" fill-rule="nonzero"/><path fill="#d8bbff" d="M 207.769531 94.09375 L 212.835938 94.09375 L 212.835938 104.246094 L 217.90625 104.246094 L 217.90625 89.019531 L 212.835938 89.019531 L 212.835938 78.867188 L 202.703125 78.867188 L 202.703125 83.945312 L 207.769531 83.945312 Z M 207.769531 94.09375 " fill-opacity="1" fill-rule="nonzero"/><path fill="#d8bbff" d="M 202.703125 89.019531 L 197.636719 89.019531 L 197.636719 83.945312 L 202.703125 83.945312 Z M 202.703125 89.019531 " fill-opacity="1" fill-rule="nonzero"/><path fill="#d8bbff" d="M 278.714844 83.945312 L 278.714844 68.71875 L 273.648438 68.71875 L 273.648438 78.867188 L 268.582031 78.867188 L 268.582031 83.945312 Z M 278.714844 83.945312 " fill-opacity="1" fill-rule="nonzero"/><path fill="#d8bbff" d="M 268.582031 89.019531 L 253.378906 89.019531 L 253.378906 83.945312 L 268.582031 83.945312 Z M 268.582031 89.019531 " fill-opacity="1" fill-rule="nonzero"/><path fill="#d8bbff" d="M 207.769531 99.171875 L 202.703125 99.171875 L 202.703125 94.09375 L 207.769531 94.09375 Z M 207.769531 99.171875 " fill-opacity="1" fill-rule="nonzero"/><path fill="#d8bbff" d="M 233.109375 73.792969 L 238.175781 73.792969 L 238.175781 63.644531 L 212.835938 63.644531 L 212.835938 68.71875 L 233.109375 68.71875 Z M 233.109375 73.792969 " fill-opacity="1" fill-rule="nonzero"/><path fill="#d8bbff" d="M 258.445312 78.867188 L 253.378906 78.867188 L 253.378906 73.792969 L 258.445312 73.792969 Z M 258.445312 78.867188 " fill-opacity="1" fill-rule="nonzero"/><path fill="#d8bbff" d="M 278.714844 119.472656 L 273.648438 119.472656 L 273.648438 114.394531 L 278.714844 114.394531 Z M 278.714844 119.472656 " fill-opacity="1" fill-rule="nonzero"/><path fill="#d8bbff" d="M 273.648438 109.320312 L 268.582031 109.320312 L 268.582031 104.246094 L 273.648438 104.246094 Z M 273.648438 109.320312 " fill-opacity="1" fill-rule="nonzero"/><path fill="#d8bbff" d="M 278.714844 94.09375 L 273.648438 94.09375 L 273.648438 89.019531 L 278.714844 89.019531 Z M 278.714844 94.09375 " fill-opacity="1" fill-rule="nonzero"/><path fill="#d8bbff" d="M 324.324219 78.867188 L 324.324219 83.945312 L 334.460938 83.945312 L 334.460938 94.09375 L 339.527344 94.09375 L 339.527344 89.019531 L 344.59375 89.019531 L 344.59375 83.945312 L 339.527344 83.945312 L 339.527344 73.792969 L 329.390625 73.792969 L 329.390625 78.867188 Z M 324.324219 78.867188 " fill-opacity="1" fill-rule="nonzero"/><path fill="#d8bbff" d="M 324.324219 89.019531 L 319.257812 89.019531 L 319.257812 83.945312 L 324.324219 83.945312 Z M 324.324219 89.019531 " fill-opacity="1" fill-rule="nonzero"/><path fill="#d8bbff" d="M 192.566406 109.320312 L 187.5 109.320312 L 187.5 99.171875 L 192.566406 99.171875 Z M 192.566406 109.320312 " fill-opacity="1" fill-rule="nonzero"/><path fill="#d8bbff" d="M 187.5 99.171875 L 182.433594 99.171875 L 182.433594 94.09375 L 187.5 94.09375 Z M 187.5 99.171875 " fill-opacity="1" fill-rule="nonzero"/><path fill="#d8bbff" d="M 141.890625 73.792969 L 141.890625 78.867188 L 136.824219 78.867188 L 136.824219 83.945312 L 146.960938 83.945312 L 146.960938 78.867188 L 152.027344 78.867188 L 152.027344 68.71875 L 146.960938 68.71875 L 146.960938 73.792969 Z M 141.890625 73.792969 " fill-opacity="1" fill-rule="nonzero"/><path fill="#d8bbff" d="M 111.488281 73.792969 L 111.488281 68.71875 L 101.351562 68.71875 L 101.351562 73.792969 L 106.417969 73.792969 L 106.417969 78.867188 L 111.488281 78.867188 Z M 111.488281 73.792969 " fill-opacity="1" fill-rule="nonzero"/><path fill="#d8bbff" d="M 136.824219 73.792969 L 141.890625 73.792969 L 141.890625 68.71875 L 146.960938 68.71875 L 146.960938 63.644531 L 111.488281 63.644531 L 111.488281 68.71875 L 136.824219 68.71875 Z M 136.824219 73.792969 " fill-opacity="1" fill-rule="nonzero"/><path fill="#d8bbff" d="M 192.566406 78.867188 L 187.5 78.867188 L 187.5 73.792969 L 192.566406 73.792969 Z M 192.566406 78.867188 " fill-opacity="1" fill-rule="nonzero"/><path fill="#d8bbff" d="M 182.433594 94.09375 L 177.363281 94.09375 L 177.363281 89.019531 L 182.433594 89.019531 Z M 182.433594 94.09375 " fill-opacity="1" fill-rule="nonzero"/><path fill="#d8bbff" d="M 177.363281 89.019531 L 172.296875 89.019531 L 172.296875 83.945312 L 177.363281 83.945312 Z M 177.363281 89.019531 " fill-opacity="1" fill-rule="nonzero"/><path fill="#d8bbff" d="M 177.363281 99.171875 L 172.296875 99.171875 L 172.296875 94.09375 L 177.363281 94.09375 Z M 177.363281 99.171875 " fill-opacity="1" fill-rule="nonzero"/><path fill="#d8bbff" d="M 96.285156 114.394531 L 91.214844 114.394531 L 91.214844 104.246094 L 96.285156 104.246094 Z M 96.285156 114.394531 " fill-opacity="1" fill-rule="nonzero"/><path fill="#d8bbff" d="M 101.351562 104.246094 L 96.285156 104.246094 L 96.285156 94.09375 L 101.351562 94.09375 Z M 101.351562 104.246094 " fill-opacity="1" fill-rule="nonzero"/><path fill="#d8bbff" d="M 101.351562 83.945312 L 101.351562 94.09375 L 106.417969 94.09375 L 106.417969 78.867188 L 91.214844 78.867188 L 91.214844 83.945312 Z M 101.351562 83.945312 " fill-opacity="1" fill-rule="nonzero"/><path fill="#d8bbff" d="M 91.214844 89.019531 L 86.148438 89.019531 L 86.148438 83.945312 L 91.214844 83.945312 Z M 91.214844 89.019531 " fill-opacity="1" fill-rule="nonzero"/><path fill="#d8bbff" d="M 86.148438 94.09375 L 76.011719 94.09375 L 76.011719 89.019531 L 86.148438 89.019531 Z M 86.148438 94.09375 " fill-opacity="1" fill-rule="nonzero"/><path fill="#d8bbff" d="M 91.214844 78.867188 L 86.148438 78.867188 L 86.148438 68.71875 L 91.214844 68.71875 Z M 91.214844 78.867188 " fill-opacity="1" fill-rule="nonzero"/><path fill="#d8bbff" d="M 91.214844 99.171875 L 86.148438 99.171875 L 86.148438 94.09375 L 91.214844 94.09375 Z M 91.214844 99.171875 " fill-opacity="1" fill-rule="nonzero"/><path fill="#d8bbff" d="M 76.011719 99.171875 L 70.945312 99.171875 L 70.945312 94.09375 L 76.011719 94.09375 Z M 76.011719 99.171875 " fill-opacity="1" fill-rule="nonzero"/><path fill="#d8bbff" d="M 116.554688 94.09375 L 111.488281 94.09375 L 111.488281 89.019531 L 116.554688 89.019531 Z M 116.554688 94.09375 " fill-opacity="1" fill-rule="nonzero"/><path fill="#d8bbff" d="M 50.675781 68.71875 L 86.148438 68.71875 L 86.148438 63.644531 L 45.609375 63.644531 L 45.609375 78.867188 L 50.675781 78.867188 Z M 50.675781 68.71875 " fill-opacity="1" fill-rule="nonzero"/><path fill="#d8bbff" d="M 55.742188 83.945312 L 50.675781 83.945312 L 50.675781 78.867188 L 55.742188 78.867188 Z M 55.742188 83.945312 " fill-opacity="1" fill-rule="nonzero"/><path fill="#d8bbff" d="M 30.40625 83.945312 L 35.472656 83.945312 L 35.472656 78.867188 L 40.539062 78.867188 L 40.539062 68.71875 L 35.472656 68.71875 L 35.472656 63.644531 L 5.066406 63.644531 L 5.066406 68.71875 L 30.40625 68.71875 Z M 30.40625 83.945312 " fill-opacity="1" fill-rule="nonzero"/><path fill="#d8bbff" d="M 5.066406 78.867188 L 0 78.867188 L 0 68.71875 L 5.066406 68.71875 Z M 5.066406 78.867188 " fill-opacity="1" fill-rule="nonzero"/><path fill="#d8bbff" d="M 207.769531 139.773438 L 202.703125 139.773438 L 202.703125 124.546875 L 207.769531 124.546875 Z M 207.769531 139.773438 " fill-opacity="1" fill-rule="nonzero"/><path fill="#d8bbff" d="M 202.703125 144.847656 L 192.566406 144.847656 L 192.566406 139.773438 L 202.703125 139.773438 Z M 202.703125 144.847656 " fill-opacity="1" fill-rule="nonzero"/><path fill="#d8bbff" d="M 187.5 119.472656 L 182.433594 119.472656 L 182.433594 109.320312 L 187.5 109.320312 Z M 187.5 119.472656 " fill-opacity="1" fill-rule="nonzero"/><path fill="#d8bbff" d="M 182.433594 124.546875 L 177.363281 124.546875 L 177.363281 119.472656 L 182.433594 119.472656 Z M 182.433594 124.546875 " fill-opacity="1" fill-rule="nonzero"/><path fill="#d8bbff" d="M 172.296875 129.621094 L 167.230469 129.621094 L 167.230469 124.546875 L 172.296875 124.546875 Z M 172.296875 129.621094 " fill-opacity="1" fill-rule="nonzero"/><path fill="#d8bbff" d="M 324.324219 114.394531 L 319.257812 114.394531 L 319.257812 109.320312 L 324.324219 109.320312 Z M 324.324219 114.394531 " fill-opacity="1" fill-rule="nonzero"/><path fill="#d8bbff" d="M 339.527344 104.246094 L 334.460938 104.246094 L 334.460938 99.171875 L 339.527344 99.171875 Z M 339.527344 104.246094 " fill-opacity="1" fill-rule="nonzero"/><path fill="#d8bbff" d="M 334.460938 109.320312 L 324.324219 109.320312 L 324.324219 104.246094 L 334.460938 104.246094 Z M 334.460938 109.320312 " fill-opacity="1" fill-rule="nonzero"/><path fill="#f2fcfc" d="M 263.511719 124.546875 L 263.511719 129.621094 L 273.648438 129.621094 L 273.648438 134.699219 L 293.917969 134.699219 L 293.917969 129.621094 L 278.714844 129.621094 L 278.714844 124.546875 L 268.582031 124.546875 L 268.582031 119.472656 L 263.511719 119.472656 L 263.511719 114.394531 L 258.445312 114.394531 L 258.445312 124.546875 Z M 263.511719 124.546875 " fill-opacity="1" fill-rule="nonzero"/><path fill="#f2fcfc" d="M 258.445312 114.394531 L 253.378906 114.394531 L 253.378906 104.246094 L 258.445312 104.246094 Z M 258.445312 114.394531 " fill-opacity="1" fill-rule="nonzero"/><path fill="#f2fcfc" d="M 263.511719 104.246094 L 258.445312 104.246094 L 258.445312 94.09375 L 263.511719 94.09375 Z M 263.511719 104.246094 " fill-opacity="1" fill-rule="nonzero"/><path fill="#f2fcfc" d="M 309.121094 94.09375 L 304.054688 94.09375 L 304.054688 99.171875 L 309.121094 99.171875 L 309.121094 104.246094 L 314.1875 104.246094 L 314.1875 94.09375 L 319.257812 94.09375 L 319.257812 89.019531 L 309.121094 89.019531 Z M 309.121094 94.09375 " fill-opacity="1" fill-rule="nonzero"/><path fill="#f2fcfc" d="M 288.851562 104.246094 L 278.714844 104.246094 L 278.714844 99.171875 L 288.851562 99.171875 Z M 288.851562 104.246094 " fill-opacity="1" fill-rule="nonzero"/><path fill="#f2fcfc" d="M 253.378906 89.019531 L 243.242188 89.019531 L 243.242188 83.945312 L 253.378906 83.945312 Z M 253.378906 89.019531 " fill-opacity="1" fill-rule="nonzero"/><path fill="#f2fcfc" d="M 228.039062 89.019531 L 222.972656 89.019531 L 222.972656 83.945312 L 228.039062 83.945312 Z M 228.039062 89.019531 " fill-opacity="1" fill-rule="nonzero"/><path fill="#f2fcfc" d="M 238.175781 83.945312 L 228.039062 83.945312 L 228.039062 78.867188 L 238.175781 78.867188 Z M 238.175781 83.945312 " fill-opacity="1" fill-rule="nonzero"/><path fill="#f2fcfc" d="M 268.582031 109.320312 L 263.511719 109.320312 L 263.511719 104.246094 L 268.582031 104.246094 Z M 268.582031 109.320312 " fill-opacity="1" fill-rule="nonzero"/><path fill="#f2fcfc" d="M 283.785156 124.546875 L 278.714844 124.546875 L 278.714844 119.472656 L 283.785156 119.472656 Z M 283.785156 124.546875 " fill-opacity="1" fill-rule="nonzero"/><path fill="#f2fcfc" d="M 177.363281 144.847656 L 172.296875 144.847656 L 172.296875 139.773438 L 177.363281 139.773438 Z M 177.363281 144.847656 " fill-opacity="1" fill-rule="nonzero"/><path fill="#f2fcfc" d="M 172.296875 139.773438 L 167.230469 139.773438 L 167.230469 134.699219 L 172.296875 134.699219 Z M 172.296875 139.773438 " fill-opacity="1" fill-rule="nonzero"/><path fill="#f2fcfc" d="M 177.363281 134.699219 L 172.296875 134.699219 L 172.296875 129.621094 L 177.363281 129.621094 Z M 177.363281 134.699219 " fill-opacity="1" fill-rule="nonzero"/><g clip-path="url(#9643d933d4)"><path fill="#f2fcfc" d="M 192.566406 149.925781 L 177.363281 149.925781 L 177.363281 144.847656 L 192.566406 144.847656 Z M 192.566406 149.925781 " fill-opacity="1" fill-rule="nonzero"/></g><path fill="#f2fcfc" d="M 162.164062 134.699219 L 146.960938 134.699219 L 146.960938 129.621094 L 162.164062 129.621094 Z M 162.164062 134.699219 " fill-opacity="1" fill-rule="nonzero"/><path fill="#f2fcfc" d="M 146.960938 129.621094 L 141.890625 129.621094 L 141.890625 124.546875 L 146.960938 124.546875 Z M 146.960938 129.621094 " fill-opacity="1" fill-rule="nonzero"/><path fill="#f2fcfc" d="M 152.027344 124.546875 L 146.960938 124.546875 L 146.960938 119.472656 L 152.027344 119.472656 Z M 152.027344 124.546875 " fill-opacity="1" fill-rule="nonzero"/><path fill="#f2fcfc" d="M 141.890625 124.546875 L 136.824219 124.546875 L 136.824219 119.472656 L 141.890625 119.472656 Z M 141.890625 124.546875 " fill-opacity="1" fill-rule="nonzero"/><path fill="#f2fcfc" d="M 136.824219 119.472656 L 131.757812 119.472656 L 131.757812 109.320312 L 136.824219 109.320312 Z M 136.824219 119.472656 " fill-opacity="1" fill-rule="nonzero"/><path fill="#f2fcfc" d="M 141.890625 109.320312 L 136.824219 109.320312 L 136.824219 99.171875 L 141.890625 99.171875 Z M 141.890625 109.320312 " fill-opacity="1" fill-rule="nonzero"/><path fill="#f2fcfc" d="M 136.824219 99.171875 L 131.757812 99.171875 L 131.757812 94.09375 L 136.824219 94.09375 Z M 136.824219 99.171875 " fill-opacity="1" fill-rule="nonzero"/><path fill="#f2fcfc" d="M 146.960938 114.394531 L 141.890625 114.394531 L 141.890625 109.320312 L 146.960938 109.320312 Z M 146.960938 114.394531 " fill-opacity="1" fill-rule="nonzero"/><path fill="#f2fcfc" d="M 172.296875 104.246094 L 157.09375 104.246094 L 157.09375 99.171875 L 172.296875 99.171875 Z M 172.296875 104.246094 " fill-opacity="1" fill-rule="nonzero"/><path fill="#f2fcfc" d="M 157.09375 99.171875 L 152.027344 99.171875 L 152.027344 94.09375 L 157.09375 94.09375 Z M 157.09375 99.171875 " fill-opacity="1" fill-rule="nonzero"/><path fill="#f2fcfc" d="M 121.621094 99.171875 L 106.417969 99.171875 L 106.417969 94.09375 L 121.621094 94.09375 Z M 121.621094 99.171875 " fill-opacity="1" fill-rule="nonzero"/><path fill="#f2fcfc" d="M 152.027344 89.019531 L 146.960938 89.019531 L 146.960938 83.945312 L 152.027344 83.945312 Z M 152.027344 89.019531 " fill-opacity="1" fill-rule="nonzero"/><path fill="#f2fcfc" d="M 157.09375 119.472656 L 152.027344 119.472656 L 152.027344 114.394531 L 157.09375 114.394531 Z M 157.09375 119.472656 " fill-opacity="1" fill-rule="nonzero"/><path fill="#f2fcfc" d="M 91.214844 114.394531 L 70.945312 114.394531 L 70.945312 109.320312 L 91.214844 109.320312 Z M 91.214844 114.394531 " fill-opacity="1" fill-rule="nonzero"/><path fill="#f2fcfc" d="M 70.945312 109.320312 L 65.878906 109.320312 L 65.878906 104.246094 L 70.945312 104.246094 Z M 70.945312 109.320312 " fill-opacity="1" fill-rule="nonzero"/><path fill="#f2fcfc" d="M 76.011719 104.246094 L 70.945312 104.246094 L 70.945312 99.171875 L 76.011719 99.171875 Z M 76.011719 104.246094 " fill-opacity="1" fill-rule="nonzero"/><path fill="#f2fcfc" d="M 55.742188 109.320312 L 45.609375 109.320312 L 45.609375 104.246094 L 55.742188 104.246094 Z M 55.742188 109.320312 " fill-opacity="1" fill-rule="nonzero"/><path fill="#f2fcfc" d="M 45.609375 104.246094 L 40.539062 104.246094 L 40.539062 99.171875 L 45.609375 99.171875 Z M 45.609375 104.246094 " fill-opacity="1" fill-rule="nonzero"/><path fill="#f2fcfc" d="M 40.539062 99.171875 L 35.472656 99.171875 L 35.472656 89.019531 L 40.539062 89.019531 Z M 40.539062 99.171875 " fill-opacity="1" fill-rule="nonzero"/><path fill="#f2fcfc" d="M 50.675781 99.171875 L 45.609375 99.171875 L 45.609375 94.09375 L 50.675781 94.09375 Z M 50.675781 99.171875 " fill-opacity="1" fill-rule="nonzero"/><path fill="#f2fcfc" d="M 55.742188 78.867188 L 50.675781 78.867188 L 50.675781 73.792969 L 55.742188 73.792969 Z M 55.742188 78.867188 " fill-opacity="1" fill-rule="nonzero"/><path fill="#f2fcfc" d="M 65.878906 94.09375 L 60.8125 94.09375 L 60.8125 89.019531 L 65.878906 89.019531 Z M 65.878906 94.09375 " fill-opacity="1" fill-rule="nonzero"/><path fill="#f2fcfc" d="M 187.5 129.621094 L 182.433594 129.621094 L 182.433594 124.546875 L 187.5 124.546875 Z M 187.5 129.621094 " fill-opacity="1" fill-rule="nonzero"/><path fill="#f2fcfc" d="M 192.566406 134.699219 L 187.5 134.699219 L 187.5 129.621094 L 192.566406 129.621094 Z M 192.566406 134.699219 " fill-opacity="1" fill-rule="nonzero"/><path fill="#f2fcfc" d="M 35.472656 89.019531 L 30.40625 89.019531 L 30.40625 83.945312 L 35.472656 83.945312 Z M 35.472656 89.019531 " fill-opacity="1" fill-rule="nonzero"/><path fill="#f2fcfc" d="M 30.40625 94.09375 L 15.203125 94.09375 L 15.203125 89.019531 L 30.40625 89.019531 Z M 30.40625 94.09375 " fill-opacity="1" fill-rule="nonzero"/><path fill="#f2fcfc" d="M 15.203125 89.019531 L 10.136719 89.019531 L 10.136719 83.945312 L 15.203125 83.945312 Z M 15.203125 89.019531 " fill-opacity="1" fill-rule="nonzero"/><path fill="#f2fcfc" d="M 10.136719 83.945312 L 5.066406 83.945312 L 5.066406 78.867188 L 10.136719 78.867188 Z M 10.136719 83.945312 " fill-opacity="1" fill-rule="nonzero"/><path fill="#f2fcfc" d="M 15.203125 78.867188 L 10.136719 78.867188 L 10.136719 73.792969 L 15.203125 73.792969 Z M 15.203125 78.867188 " fill-opacity="1" fill-rule="nonzero"/><path fill="#f2fcfc" d="M 25.335938 83.945312 L 20.269531 83.945312 L 20.269531 78.867188 L 25.335938 78.867188 Z M 25.335938 83.945312 " fill-opacity="1" fill-rule="nonzero"/><path fill="#f2fcfc" d="M 126.6875 89.019531 L 121.621094 89.019531 L 121.621094 83.945312 L 126.6875 83.945312 Z M 126.6875 89.019531 " fill-opacity="1" fill-rule="nonzero"/><path fill="#f2fcfc" d="M 319.257812 119.472656 L 314.1875 119.472656 L 314.1875 114.394531 L 319.257812 114.394531 Z M 319.257812 119.472656 " fill-opacity="1" fill-rule="nonzero"/><path fill="#f2fcfc" d="M 309.121094 83.945312 L 304.054688 83.945312 L 304.054688 78.867188 L 309.121094 78.867188 Z M 309.121094 83.945312 " fill-opacity="1" fill-rule="nonzero"/><path fill="#f2fcfc" d="M 304.054688 78.867188 L 298.988281 78.867188 L 298.988281 73.792969 L 304.054688 73.792969 Z M 304.054688 78.867188 " fill-opacity="1" fill-rule="nonzero"/><path fill="#f2fcfc" d="M 349.664062 94.09375 L 344.59375 94.09375 L 344.59375 89.019531 L 349.664062 89.019531 Z M 349.664062 94.09375 " fill-opacity="1" fill-rule="nonzero"/><path fill="#f2fcfc" d="M 283.785156 94.09375 L 278.714844 94.09375 L 278.714844 89.019531 L 283.785156 89.019531 Z M 283.785156 94.09375 " fill-opacity="1" fill-rule="nonzero"/><path fill="#f2fcfc" d="M 288.851562 89.019531 L 283.785156 89.019531 L 283.785156 83.945312 L 288.851562 83.945312 Z M 288.851562 89.019531 " fill-opacity="1" fill-rule="nonzero"/><path fill="#f2fcfc" d="M 192.566406 94.09375 L 187.5 94.09375 L 187.5 89.019531 L 192.566406 89.019531 Z M 192.566406 94.09375 " fill-opacity="1" fill-rule="nonzero"/><path fill="#f2fcfc" d="M 202.703125 109.320312 L 197.636719 109.320312 L 197.636719 99.171875 L 202.703125 99.171875 Z M 202.703125 109.320312 " fill-opacity="1" fill-rule="nonzero"/><path fill="#f2fcfc" d="M 207.769531 114.394531 L 202.703125 114.394531 L 202.703125 109.320312 L 207.769531 109.320312 Z M 207.769531 114.394531 " fill-opacity="1" fill-rule="nonzero"/><path fill="#f2fcfc" d="M 197.636719 119.472656 L 192.566406 119.472656 L 192.566406 114.394531 L 197.636719 114.394531 Z M 197.636719 119.472656 " fill-opacity="1" fill-rule="nonzero"/><path fill="#f2fcfc" d="M 167.230469 73.792969 L 162.164062 73.792969 L 162.164062 68.71875 L 167.230469 68.71875 Z M 167.230469 73.792969 " fill-opacity="1" fill-rule="nonzero"/><path fill="#f2fcfc" d="M 162.164062 83.945312 L 152.027344 83.945312 L 152.027344 78.867188 L 162.164062 78.867188 Z M 162.164062 83.945312 " fill-opacity="1" fill-rule="nonzero"/><path fill="#f2fcfc" d="M 167.230469 89.019531 L 162.164062 89.019531 L 162.164062 83.945312 L 167.230469 83.945312 Z M 167.230469 89.019531 " fill-opacity="1" fill-rule="nonzero"/><path fill="#f2fcfc" d="M 116.554688 73.792969 L 111.488281 73.792969 L 111.488281 68.71875 L 116.554688 68.71875 Z M 116.554688 73.792969 " fill-opacity="1" fill-rule="nonzero"/><g clip-path="url(#b20840bdd9)"><path fill="#ffbbea" d="M 369.980469 15.753906 L 369.980469 0.0078125 L 359.394531 0.0078125 L 359.394531 5.253906 L 354.101562 5.253906 L 354.101562 10.503906 L 343.511719 10.503906 L 343.511719 5.253906 L 338.21875 5.253906 L 338.21875 0.0078125 L 327.628906 0.0078125 L 327.628906 15.753906 L 322.335938 15.753906 L 322.335938 26.25 L 327.628906 26.25 L 327.628906 31.5 L 311.746094 31.5 L 311.746094 36.75 L 306.453125 36.75 L 306.453125 41.996094 L 301.160156 41.996094 L 301.160156 31.5 L 306.453125 31.5 L 306.453125 26.25 L 311.746094 26.25 L 311.746094 21 L 306.453125 21 L 306.453125 15.753906 L 295.863281 15.753906 L 295.863281 21 L 290.570312 21 L 290.570312 26.25 L 285.277344 26.25 L 285.277344 47.246094 L 290.570312 47.246094 L 290.570312 52.496094 L 295.863281 52.496094 L 295.863281 57.742188 L 354.101562 57.742188 L 354.101562 52.496094 L 359.394531 52.496094 L 359.394531 47.246094 L 354.101562 47.246094 L 354.101562 41.996094 L 359.394531 41.996094 L 359.394531 36.75 L 364.6875 36.75 L 364.6875 31.5 L 369.980469 31.5 L 369.980469 26.25 L 375.277344 26.25 L 375.277344 15.753906 Z M 369.980469 15.753906 " fill-opacity="1" fill-rule="nonzero"/></g><path fill="#57bbff" d="M 317.042969 41.996094 L 327.628906 41.996094 L 327.628906 47.246094 L 317.042969 47.246094 Z M 317.042969 41.996094 " fill-opacity="1" fill-rule="nonzero"/><path fill="#57bbff" d="M 327.628906 47.246094 L 332.921875 47.246094 L 332.921875 52.496094 L 327.628906 52.496094 Z M 327.628906 47.246094 " fill-opacity="1" fill-rule="nonzero"/><path fill="#57bbff" d="M 295.863281 15.753906 L 306.453125 15.753906 L 306.453125 21 L 295.863281 21 Z M 295.863281 15.753906 " fill-opacity="1" fill-rule="nonzero"/><path fill="#57bbff" d="M 306.453125 21 L 311.746094 21 L 311.746094 26.25 L 306.453125 26.25 Z M 306.453125 21 " fill-opacity="1" fill-rule="nonzero"/><path fill="#57bbff" d="M 354.101562 47.246094 L 359.394531 47.246094 L 359.394531 52.496094 L 354.101562 52.496094 Z M 354.101562 47.246094 " fill-opacity="1" fill-rule="nonzero"/><path fill="#e24795" d="M 338.21875 26.25 L 343.511719 26.25 L 343.511719 31.5 L 338.21875 31.5 Z M 338.21875 26.25 " fill-opacity="1" fill-rule="nonzero"/><path fill="#e24795" d="M 354.101562 26.25 L 359.394531 26.25 L 359.394531 31.5 L 354.101562 31.5 Z M 354.101562 26.25 " fill-opacity="1" fill-rule="nonzero"/><path fill="#5211ba" d="M 338.21875 21 L 343.511719 21 L 343.511719 26.25 L 338.21875 26.25 Z M 338.21875 21 " fill-opacity="1" fill-rule="nonzero"/><path fill="#5211ba" d="M 354.101562 21 L 359.394531 21 L 359.394531 26.25 L 354.101562 26.25 Z M 354.101562 21 " fill-opacity="1" fill-rule="nonzero"/><path fill="#5211ba" d="M 327.628906 26.25 L 332.921875 26.25 L 332.921875 31.5 L 327.628906 31.5 Z M 327.628906 26.25 " fill-opacity="1" fill-rule="nonzero"/><path fill="#5211ba" d="M 332.921875 31.5 L 338.21875 31.5 L 338.21875 36.75 L 332.921875 36.75 Z M 332.921875 31.5 " fill-opacity="1" fill-rule="nonzero"/><path fill="#5211ba" d="M 338.21875 36.75 L 359.394531 36.75 L 359.394531 41.996094 L 338.21875 41.996094 Z M 338.21875 36.75 " fill-opacity="1" fill-rule="nonzero"/><g clip-path="url(#72d5f68db9)"><path fill="#5211ba" d="M 306.453125 41.996094 L 301.160156 41.996094 L 301.160156 52.496094 L 295.863281 52.496094 L 295.863281 57.742188 L 354.101562 57.742188 L 354.101562 52.496094 L 306.453125 52.496094 Z M 306.453125 41.996094 " fill-opacity="1" fill-rule="nonzero"/></g><path fill="#5211ba" d="M 359.394531 31.5 L 364.6875 31.5 L 364.6875 36.75 L 359.394531 36.75 Z M 359.394531 31.5 " fill-opacity="1" fill-rule="nonzero"/><path fill="#5211ba" d="M 364.6875 26.25 L 369.980469 26.25 L 369.980469 31.5 L 364.6875 31.5 Z M 364.6875 26.25 " fill-opacity="1" fill-rule="nonzero"/><path fill="#9f8fff" d="M 311.746094 36.75 L 306.453125 36.75 L 306.453125 52.496094 L 327.628906 52.496094 L 327.628906 47.246094 L 311.746094 47.246094 Z M 311.746094 36.75 " fill-opacity="1" fill-rule="nonzero"/><g clip-path="url(#8255f2517d)"><path fill="#9f8fff" d="M 295.863281 41.996094 L 290.570312 41.996094 L 290.570312 36.75 L 295.863281 36.75 L 295.863281 31.5 L 290.570312 31.5 L 290.570312 26.25 L 285.277344 26.25 L 285.277344 47.246094 L 290.570312 47.246094 L 290.570312 52.496094 L 301.160156 52.496094 L 301.160156 47.246094 L 295.863281 47.246094 Z M 295.863281 41.996094 " fill-opacity="1" fill-rule="nonzero"/></g><path fill="#9f8fff" d="M 290.570312 21 L 295.863281 21 L 295.863281 26.25 L 290.570312 26.25 Z M 290.570312 21 " fill-opacity="1" fill-rule="nonzero"/><path fill="#9f8fff" d="M 301.160156 26.25 L 306.453125 26.25 L 306.453125 31.5 L 301.160156 31.5 Z M 301.160156 26.25 " fill-opacity="1" fill-rule="nonzero"/><path fill="#9f8fff" d="M 332.921875 26.25 L 338.21875 26.25 L 338.21875 31.5 L 332.921875 31.5 Z M 332.921875 26.25 " fill-opacity="1" fill-rule="nonzero"/><path fill="#9f8fff" d="M 359.394531 26.25 L 364.6875 26.25 L 364.6875 31.5 L 359.394531 31.5 Z M 359.394531 26.25 " fill-opacity="1" fill-rule="nonzero"/><path fill="#9f8fff" d="M 338.21875 31.5 L 359.394531 31.5 L 359.394531 36.75 L 338.21875 36.75 Z M 338.21875 31.5 " fill-opacity="1" fill-rule="nonzero"/><path fill="#9f8fff" d="M 327.628906 21 L 327.628906 15.753906 L 322.335938 15.753906 L 322.335938 26.25 L 332.921875 26.25 L 332.921875 21 Z M 327.628906 21 " fill-opacity="1" fill-rule="nonzero"/><path fill="#9f8fff" d="M 327.628906 0.0078125 L 332.921875 0.0078125 L 332.921875 15.753906 L 327.628906 15.753906 Z M 327.628906 0.0078125 " fill-opacity="1" fill-rule="nonzero"/><path fill="#9f8fff" d="M 354.101562 5.253906 L 359.394531 5.253906 L 359.394531 10.503906 L 354.101562 10.503906 Z M 354.101562 5.253906 " fill-opacity="1" fill-rule="nonzero"/><path fill="#9f8fff" d="M 359.394531 0.0078125 L 364.6875 0.0078125 L 364.6875 5.253906 L 359.394531 5.253906 Z M 359.394531 0.0078125 " fill-opacity="1" fill-rule="nonzero"/><path fill="#9f8fff" d="M 348.804688 41.996094 L 354.101562 41.996094 L 354.101562 52.496094 L 348.804688 52.496094 Z M 348.804688 41.996094 " fill-opacity="1" fill-rule="nonzero"/><path fill="#57bbff" d="M 354.101562 5.253906 L 359.394531 5.253906 L 359.394531 10.503906 L 354.101562 10.503906 Z M 354.101562 5.253906 " fill-opacity="1" fill-rule="nonzero"/><path fill="#57bbff" d="M 369.980469 15.753906 L 375.277344 15.753906 L 375.277344 26.25 L 369.980469 26.25 Z M 369.980469 15.753906 " fill-opacity="1" fill-rule="nonzero"/></svg>