<svg xmlns="http://www.w3.org/2000/svg" xmlns:xlink="http://www.w3.org/1999/xlink" width="500" zoomAndPan="magnify" viewBox="0 0 375 149.999998" height="200" preserveAspectRatio="xMidYMid meet" version="1.0"><defs><g/><clipPath id="bceab620e0"><path d="M 0 9.261719 L 293 9.261719 L 293 135 L 0 135 Z M 0 9.261719 " clip-rule="nonzero"/></clipPath><clipPath id="1df323baf0"><path d="M 0 9.261719 L 293 9.261719 L 293 135 L 0 135 Z M 0 9.261719 " clip-rule="nonzero"/></clipPath><clipPath id="30bc708d9f"><path d="M 130.429688 9.261719 L 374.929688 9.261719 L 374.929688 135 L 130.429688 135 Z M 130.429688 9.261719 " clip-rule="nonzero"/></clipPath><clipPath id="b861ab417d"><path d="M 130.429688 10 L 374.929688 10 L 374.929688 135 L 130.429688 135 Z M 130.429688 10 " clip-rule="nonzero"/></clipPath><clipPath id="a95770c0d5"><path d="M 130.429688 34 L 133 34 L 133 102 L 130.429688 102 Z M 130.429688 34 " clip-rule="nonzero"/></clipPath><clipPath id="7905aec71f"><path d="M 130.429688 34 L 367 34 L 367 127 L 130.429688 127 Z M 130.429688 34 " clip-rule="nonzero"/></clipPath><clipPath id="3c4784e050"><path d="M 130.429688 18 L 350 18 L 350 35 L 130.429688 35 Z M 130.429688 18 " clip-rule="nonzero"/></clipPath><clipPath id="ab8f4ce650"><path d="M 130.429688 9.261719 L 374.929688 9.261719 L 374.929688 135 L 130.429688 135 Z M 130.429688 9.261719 " clip-rule="nonzero"/></clipPath></defs><g clip-path="url(#bceab620e0)"><path fill="#ff8282" d="M 292.105469 34.5625 L 292.105469 34.039062 L 284.777344 34.039062 L 284.777344 26.964844 L 284.488281 26.964844 L 284.488281 26.433594 L 276.289062 26.433594 L 276.289062 18.53125 L 275.992188 18.53125 L 275.992188 18.003906 L 267.792969 18.003906 L 267.792969 10.101562 L 267.5 10.101562 L 267.5 9.574219 L 25.464844 9.574219 L 25.464844 18.003906 L 17.820312 18.003906 L 17.820312 26.191406 L 17.625 26.191406 L 17.625 26.433594 L 9.332031 26.433594 L 9.332031 34.039062 L 0.835938 34.039062 L 0.835938 109.128906 L 1.128906 109.128906 L 1.128906 109.65625 L 9.332031 109.65625 L 9.332031 117.554688 L 9.621094 117.554688 L 9.621094 118.078125 L 17.820312 118.078125 L 17.820312 125.15625 L 18.09375 125.15625 L 18.09375 125.6875 L 25.464844 125.6875 L 25.464844 133.601562 L 25.753906 133.601562 L 25.753906 134.125 L 267.792969 134.125 L 267.792969 125.6875 L 267.703125 125.6875 L 267.703125 125.15625 L 267.792969 125.15625 L 267.792969 125.6875 L 276.316406 125.6875 L 276.316406 118.097656 L 284.804688 118.097656 L 284.804688 109.6875 L 292.449219 109.6875 L 292.449219 34.5625 Z M 267.5 117.703125 Z M 276.019531 109.128906 L 276.019531 108.902344 Z M 276.019531 109.128906 " fill-opacity="1" fill-rule="nonzero"/></g><path fill="#ff8282" d="M 284.554688 34.558594 L 284.554688 26.972656 L 276.03125 26.972656 L 276.03125 34.957031 L 275.769531 34.957031 L 275.769531 26.972656 L 276.03125 26.972656 L 276.03125 18.570312 L 267.511719 18.570312 L 267.511719 26.722656 L 267.417969 26.722656 L 267.417969 18.570312 L 267.511719 18.570312 L 267.511719 10.121094 L 25.46875 10.121094 L 25.46875 18.570312 L 17.828125 18.570312 L 17.828125 26.722656 L 17.628906 26.722656 L 17.628906 26.972656 L 9.332031 26.972656 L 9.332031 34.558594 L 0.835938 34.558594 L 0.835938 109.570312 L 9.355469 109.570312 L 9.355469 109.347656 L 9.652344 109.347656 L 9.652344 109.570312 L 9.355469 109.570312 L 9.355469 118 L 17.878906 118 L 17.878906 125.585938 L 25.46875 125.585938 L 25.46875 134.015625 L 267.5625 134.015625 L 267.5625 125.585938 L 267.472656 125.585938 L 267.472656 118.136719 L 267.5625 118.136719 L 267.5625 125.585938 L 276.085938 125.585938 L 276.085938 118 L 284.605469 118 L 284.605469 109.570312 L 292.25 109.570312 L 292.25 34.558594 Z M 275.765625 117.640625 L 275.765625 110.265625 L 276.027344 110.265625 L 276.027344 117.640625 Z M 283.683594 109.96875 L 276.058594 109.96875 L 276.058594 109.738281 L 283.683594 109.738281 Z M 283.683594 109.96875 " fill-opacity="1" fill-rule="nonzero"/><path fill="#ffffff" d="M 84.140625 43.007812 L 92.492188 43.007812 L 92.492188 51.359375 L 84.140625 51.359375 Z M 84.140625 43.007812 " fill-opacity="1" fill-rule="nonzero"/><path fill="#ffffff" d="M 67.449219 43.007812 L 75.800781 43.007812 L 75.800781 51.359375 L 67.449219 51.359375 Z M 67.449219 43.007812 " fill-opacity="1" fill-rule="nonzero"/><path fill="#ffffff" d="M 59.105469 34.664062 L 50.765625 34.664062 L 50.765625 101.421875 L 59.105469 101.421875 L 59.105469 43 L 67.449219 43 L 67.449219 34.664062 Z M 59.105469 34.664062 " fill-opacity="1" fill-rule="nonzero"/><path fill="#ffffff" d="M 92.492188 34.664062 L 92.492188 43 L 100.828125 43 L 100.828125 101.421875 L 109.167969 101.421875 L 109.167969 34.664062 Z M 92.492188 34.664062 " fill-opacity="1" fill-rule="nonzero"/><path fill="#ffffff" d="M 75.800781 59.691406 L 75.800781 68.035156 L 84.140625 68.035156 L 84.140625 51.359375 L 75.800781 51.359375 Z M 75.800781 59.691406 " fill-opacity="1" fill-rule="nonzero"/><path fill="#ffffff" d="M 225.988281 93.078125 L 217.652344 93.078125 L 217.652344 101.421875 L 242.6875 101.421875 L 242.6875 93.078125 Z M 225.988281 93.078125 " fill-opacity="1" fill-rule="nonzero"/><path fill="#ffffff" d="M 242.6875 34.664062 L 242.6875 93.078125 L 251.023438 93.078125 L 251.023438 34.664062 Z M 242.6875 34.664062 " fill-opacity="1" fill-rule="nonzero"/><path fill="#ffffff" d="M 134.210938 34.664062 L 117.519531 34.664062 L 117.519531 101.421875 L 150.894531 101.421875 L 150.894531 93.078125 L 125.859375 93.078125 L 125.859375 68.035156 L 142.554688 68.035156 L 142.554688 59.691406 L 125.859375 59.691406 L 125.859375 43 L 150.894531 43 L 150.894531 34.664062 Z M 134.210938 34.664062 " fill-opacity="1" fill-rule="nonzero"/><path fill="#ffffff" d="M 217.652344 76.386719 L 217.652344 34.664062 L 209.308594 34.664062 L 209.308594 93.078125 L 217.652344 93.078125 Z M 217.652344 76.386719 " fill-opacity="1" fill-rule="nonzero"/><path fill="#ffffff" d="M 192.617188 43 L 192.617188 59.691406 L 184.273438 59.691406 L 184.273438 51.359375 L 175.921875 51.359375 L 175.921875 43 L 167.582031 43 L 167.582031 34.664062 L 159.242188 34.664062 L 159.242188 101.421875 L 167.582031 101.421875 L 167.582031 59.691406 L 175.921875 59.691406 L 175.921875 68.035156 L 184.273438 68.035156 L 184.273438 76.386719 L 192.617188 76.386719 L 192.617188 101.421875 L 200.960938 101.421875 L 200.960938 34.664062 L 192.617188 34.664062 Z M 192.617188 43 " fill-opacity="1" fill-rule="nonzero"/><path fill="#ff5757" d="M 192.75 51.359375 L 192.75 34.53125 L 184.140625 34.53125 L 184.140625 59.820312 L 192.75 59.820312 Z M 192.75 51.359375 " fill-opacity="1" fill-rule="nonzero"/><path fill="#ff5757" d="M 175.789062 76.519531 L 184.140625 76.519531 L 184.140625 101.550781 L 192.75 101.550781 L 192.75 76.253906 L 184.402344 76.253906 L 184.402344 67.902344 L 176.050781 67.902344 L 176.050781 59.558594 L 167.453125 59.558594 L 167.453125 68.167969 L 175.789062 68.167969 Z M 175.789062 76.519531 " fill-opacity="1" fill-rule="nonzero"/><path fill="#ff5757" d="M 242.816406 84.726562 L 242.816406 34.53125 L 234.203125 34.53125 L 234.203125 93.207031 L 242.816406 93.207031 Z M 242.816406 84.726562 " fill-opacity="1" fill-rule="nonzero"/><path fill="#ff5757" d="M 159.375 93.078125 L 159.375 34.53125 L 150.761719 34.53125 L 150.761719 101.550781 L 159.375 101.550781 Z M 159.375 93.078125 " fill-opacity="1" fill-rule="nonzero"/><path fill="#ff5757" d="M 209.175781 101.550781 L 217.78125 101.550781 L 217.78125 92.945312 L 209.4375 92.945312 L 209.4375 34.53125 L 200.832031 34.53125 L 200.832031 93.207031 L 209.175781 93.207031 Z M 209.175781 101.550781 " fill-opacity="1" fill-rule="nonzero"/><path fill="#ff5757" d="M 50.898438 93.078125 L 50.898438 34.53125 L 42.292969 34.53125 L 42.292969 101.550781 L 50.898438 101.550781 Z M 50.898438 93.078125 " fill-opacity="1" fill-rule="nonzero"/><path fill="#ff5757" d="M 276.519531 34.964844 L 276.519531 34.53125 L 275.988281 34.53125 L 275.988281 109.621094 L 267.648438 109.621094 L 267.648438 117.972656 L 25.894531 117.972656 L 25.894531 126.285156 L 267.910156 126.285156 L 267.910156 118.414062 L 268.023438 118.414062 L 268.023438 117.949219 L 278.3125 117.949219 L 278.3125 111.203125 L 284.175781 111.203125 L 284.175781 34.964844 Z M 276.519531 34.964844 " fill-opacity="1" fill-rule="nonzero"/><path fill="#ff5757" d="M 67.320312 59.691406 L 67.320312 68.167969 L 75.933594 68.167969 L 75.933594 51.222656 L 67.582031 51.222656 L 67.582031 42.875 L 58.972656 42.875 L 58.972656 51.488281 L 67.320312 51.488281 Z M 67.320312 59.691406 " fill-opacity="1" fill-rule="nonzero"/><path fill="#ff5757" d="M 100.960938 93.078125 L 100.960938 42.875 L 92.359375 42.875 L 92.359375 101.550781 L 100.960938 101.550781 Z M 100.960938 93.078125 " fill-opacity="1" fill-rule="nonzero"/><path fill="#ff5757" d="M 117.652344 93.078125 L 117.652344 34.53125 L 109.035156 34.53125 L 109.035156 101.550781 L 117.652344 101.550781 Z M 117.652344 93.078125 " fill-opacity="1" fill-rule="nonzero"/><path fill="#ff3131" d="M 9.070312 42.75 L 9.070312 43 L 17.386719 43 L 17.386719 35.089844 L 9.070312 35.089844 Z M 9.070312 42.75 " fill-opacity="1" fill-rule="nonzero"/><path fill="#ff3131" d="M 259.460938 18.0625 L 26.105469 18.0625 L 26.105469 26.574219 L 17.585938 26.574219 L 17.585938 34.664062 L 34.082031 34.664062 L 34.082031 26.324219 L 267.820312 26.324219 L 267.820312 18.0625 Z M 259.460938 18.0625 " fill-opacity="1" fill-rule="nonzero"/><path fill="#ff3131" d="M 267.90625 26.574219 L 267.90625 26.324219 L 267.820312 26.324219 L 267.820312 34.664062 L 276.15625 34.664062 L 276.15625 26.574219 Z M 267.90625 26.574219 " fill-opacity="1" fill-rule="nonzero"/><g clip-path="url(#1df323baf0)"><path fill="#3d3b52" d="M 285.132812 33.941406 L 285.132812 26.277344 L 276.609375 26.277344 L 276.609375 17.757812 L 268.089844 17.757812 L 268.089844 9.261719 L 24.945312 9.261719 L 24.945312 17.78125 L 17.289062 17.78125 L 17.289062 26.304688 L 8.765625 26.304688 L 8.765625 33.941406 L 0.265625 33.941406 L 0.265625 110.285156 L 8.785156 110.285156 L 8.785156 118.804688 L 17.308594 118.804688 L 17.308594 126.460938 L 24.945312 126.460938 L 24.945312 134.984375 L 268.109375 134.984375 L 268.109375 126.460938 L 276.628906 126.460938 L 276.628906 118.792969 L 285.152344 118.792969 L 285.152344 110.269531 L 292.761719 110.269531 L 292.761719 33.941406 Z M 283.683594 42.75 L 283.683594 109.6875 L 276.027344 109.6875 L 276.027344 117.355469 L 267.503906 117.355469 L 267.503906 125.878906 L 26.386719 125.878906 L 26.386719 117.355469 L 17.867188 117.355469 L 17.867188 109.6875 L 9.34375 109.6875 L 9.34375 35.382812 L 17.867188 35.382812 L 17.867188 26.863281 L 26.386719 26.863281 L 26.386719 18.339844 L 267.519531 18.339844 L 267.519531 26.863281 L 276.039062 26.863281 L 276.039062 35.382812 L 283.695312 35.382812 Z M 283.683594 42.75 " fill-opacity="1" fill-rule="nonzero"/></g><g clip-path="url(#30bc708d9f)"><path fill="#ff8282" d="M 374.070312 34.5625 L 374.070312 34.039062 L 366.742188 34.039062 L 366.742188 26.964844 L 366.453125 26.964844 L 366.453125 26.433594 L 358.253906 26.433594 L 358.253906 18.53125 L 357.957031 18.53125 L 357.957031 18.003906 L 349.757812 18.003906 L 349.757812 10.101562 L 349.460938 10.101562 L 349.460938 9.574219 L 107.425781 9.574219 L 107.425781 18.003906 L 99.785156 18.003906 L 99.785156 26.191406 L 99.585938 26.191406 L 99.585938 26.433594 L 91.292969 26.433594 L 91.292969 34.039062 L 82.796875 34.039062 L 82.796875 109.128906 L 83.09375 109.128906 L 83.09375 109.65625 L 91.292969 109.65625 L 91.292969 117.554688 L 91.582031 117.554688 L 91.582031 118.078125 L 99.785156 118.078125 L 99.785156 125.15625 L 100.058594 125.15625 L 100.058594 125.6875 L 107.425781 125.6875 L 107.425781 133.601562 L 107.714844 133.601562 L 107.714844 134.125 L 349.757812 134.125 L 349.757812 125.6875 L 349.664062 125.6875 L 349.664062 125.15625 L 349.757812 125.15625 L 349.757812 125.6875 L 358.277344 125.6875 L 358.277344 118.097656 L 366.765625 118.097656 L 366.765625 109.6875 L 374.410156 109.6875 L 374.410156 34.5625 Z M 349.460938 117.703125 Z M 357.984375 109.128906 L 357.984375 108.902344 Z M 357.984375 109.128906 " fill-opacity="1" fill-rule="nonzero"/></g><g clip-path="url(#b861ab417d)"><path fill="#ff8282" d="M 366.519531 34.558594 L 366.519531 26.972656 L 357.996094 26.972656 L 357.996094 34.957031 L 357.734375 34.957031 L 357.734375 26.972656 L 357.996094 26.972656 L 357.996094 18.570312 L 349.472656 18.570312 L 349.472656 26.722656 L 349.382812 26.722656 L 349.382812 18.570312 L 349.472656 18.570312 L 349.472656 10.121094 L 107.433594 10.121094 L 107.433594 18.570312 L 99.789062 18.570312 L 99.789062 26.722656 L 99.59375 26.722656 L 99.59375 26.972656 L 91.292969 26.972656 L 91.292969 34.558594 L 82.796875 34.558594 L 82.796875 109.570312 L 91.320312 109.570312 L 91.320312 109.347656 L 91.617188 109.347656 L 91.617188 109.570312 L 91.320312 109.570312 L 91.320312 118 L 99.84375 118 L 99.84375 125.585938 L 107.433594 125.585938 L 107.433594 134.015625 L 349.527344 134.015625 L 349.527344 125.585938 L 349.433594 125.585938 L 349.433594 118.136719 L 349.527344 118.136719 L 349.527344 125.585938 L 358.046875 125.585938 L 358.046875 118 L 366.570312 118 L 366.570312 109.570312 L 374.214844 109.570312 L 374.214844 34.558594 Z M 357.726562 117.640625 L 357.726562 110.265625 L 357.988281 110.265625 L 357.988281 117.640625 Z M 365.644531 109.96875 L 358.023438 109.96875 L 358.023438 109.738281 L 365.644531 109.738281 Z M 365.644531 109.96875 " fill-opacity="1" fill-rule="nonzero"/></g><path fill="#ffffff" d="M 166.101562 43.007812 L 174.453125 43.007812 L 174.453125 51.359375 L 166.101562 51.359375 Z M 166.101562 43.007812 " fill-opacity="1" fill-rule="nonzero"/><path fill="#ffffff" d="M 149.414062 43.007812 L 157.765625 43.007812 L 157.765625 51.359375 L 149.414062 51.359375 Z M 149.414062 43.007812 " fill-opacity="1" fill-rule="nonzero"/><path fill="#ffffff" d="M 141.070312 34.664062 L 132.730469 34.664062 L 132.730469 101.421875 L 141.070312 101.421875 L 141.070312 43 L 149.414062 43 L 149.414062 34.664062 Z M 141.070312 34.664062 " fill-opacity="1" fill-rule="nonzero"/><path fill="#ffffff" d="M 174.453125 34.664062 L 174.453125 43 L 182.792969 43 L 182.792969 101.421875 L 191.132812 101.421875 L 191.132812 34.664062 Z M 174.453125 34.664062 " fill-opacity="1" fill-rule="nonzero"/><path fill="#ffffff" d="M 157.765625 59.691406 L 157.765625 68.035156 L 166.101562 68.035156 L 166.101562 51.359375 L 157.765625 51.359375 Z M 157.765625 59.691406 " fill-opacity="1" fill-rule="nonzero"/><path fill="#ffffff" d="M 307.953125 93.078125 L 299.613281 93.078125 L 299.613281 101.421875 L 324.648438 101.421875 L 324.648438 93.078125 Z M 307.953125 93.078125 " fill-opacity="1" fill-rule="nonzero"/><path fill="#ffffff" d="M 324.648438 34.664062 L 324.648438 93.078125 L 332.988281 93.078125 L 332.988281 34.664062 Z M 324.648438 34.664062 " fill-opacity="1" fill-rule="nonzero"/><path fill="#ffffff" d="M 216.171875 34.664062 L 199.484375 34.664062 L 199.484375 101.421875 L 232.855469 101.421875 L 232.855469 93.078125 L 207.820312 93.078125 L 207.820312 68.035156 L 224.515625 68.035156 L 224.515625 59.691406 L 207.820312 59.691406 L 207.820312 43 L 232.855469 43 L 232.855469 34.664062 Z M 216.171875 34.664062 " fill-opacity="1" fill-rule="nonzero"/><path fill="#ffffff" d="M 299.613281 76.386719 L 299.613281 34.664062 L 291.269531 34.664062 L 291.269531 93.078125 L 299.613281 93.078125 Z M 299.613281 76.386719 " fill-opacity="1" fill-rule="nonzero"/><path fill="#ffffff" d="M 274.582031 43 L 274.582031 59.691406 L 266.234375 59.691406 L 266.234375 51.359375 L 257.882812 51.359375 L 257.882812 43 L 249.546875 43 L 249.546875 34.664062 L 241.207031 34.664062 L 241.207031 101.421875 L 249.546875 101.421875 L 249.546875 59.691406 L 257.882812 59.691406 L 257.882812 68.035156 L 266.234375 68.035156 L 266.234375 76.386719 L 274.582031 76.386719 L 274.582031 101.421875 L 282.925781 101.421875 L 282.925781 34.664062 L 274.582031 34.664062 Z M 274.582031 43 " fill-opacity="1" fill-rule="nonzero"/><path fill="#ff5757" d="M 274.710938 51.359375 L 274.710938 34.53125 L 266.105469 34.53125 L 266.105469 59.820312 L 274.710938 59.820312 Z M 274.710938 51.359375 " fill-opacity="1" fill-rule="nonzero"/><path fill="#ff5757" d="M 257.753906 76.519531 L 266.105469 76.519531 L 266.105469 101.550781 L 274.710938 101.550781 L 274.710938 76.253906 L 266.367188 76.253906 L 266.367188 67.902344 L 258.015625 67.902344 L 258.015625 59.558594 L 249.414062 59.558594 L 249.414062 68.167969 L 257.753906 68.167969 Z M 257.753906 76.519531 " fill-opacity="1" fill-rule="nonzero"/><path fill="#ff5757" d="M 324.78125 84.726562 L 324.78125 34.53125 L 316.167969 34.53125 L 316.167969 93.207031 L 324.78125 93.207031 Z M 324.78125 84.726562 " fill-opacity="1" fill-rule="nonzero"/><path fill="#ff5757" d="M 241.339844 93.078125 L 241.339844 34.53125 L 232.726562 34.53125 L 232.726562 101.550781 L 241.339844 101.550781 Z M 241.339844 93.078125 " fill-opacity="1" fill-rule="nonzero"/><path fill="#ff5757" d="M 291.140625 101.550781 L 299.746094 101.550781 L 299.746094 92.945312 L 291.402344 92.945312 L 291.402344 34.53125 L 282.792969 34.53125 L 282.792969 93.207031 L 291.140625 93.207031 Z M 291.140625 101.550781 " fill-opacity="1" fill-rule="nonzero"/><g clip-path="url(#a95770c0d5)"><path fill="#ff5757" d="M 132.863281 93.078125 L 132.863281 34.53125 L 124.253906 34.53125 L 124.253906 101.550781 L 132.863281 101.550781 Z M 132.863281 93.078125 " fill-opacity="1" fill-rule="nonzero"/></g><g clip-path="url(#7905aec71f)"><path fill="#ff5757" d="M 358.480469 34.964844 L 358.480469 34.53125 L 357.949219 34.53125 L 357.949219 109.621094 L 349.613281 109.621094 L 349.613281 117.972656 L 107.859375 117.972656 L 107.859375 126.285156 L 349.875 126.285156 L 349.875 118.414062 L 349.984375 118.414062 L 349.984375 117.949219 L 360.277344 117.949219 L 360.277344 111.203125 L 366.136719 111.203125 L 366.136719 34.964844 Z M 358.480469 34.964844 " fill-opacity="1" fill-rule="nonzero"/></g><path fill="#ff5757" d="M 149.28125 59.691406 L 149.28125 68.167969 L 157.894531 68.167969 L 157.894531 51.222656 L 149.542969 51.222656 L 149.542969 42.875 L 140.9375 42.875 L 140.9375 51.488281 L 149.28125 51.488281 Z M 149.28125 59.691406 " fill-opacity="1" fill-rule="nonzero"/><path fill="#ff5757" d="M 182.925781 93.078125 L 182.925781 42.875 L 174.324219 42.875 L 174.324219 101.550781 L 182.925781 101.550781 Z M 182.925781 93.078125 " fill-opacity="1" fill-rule="nonzero"/><path fill="#ff5757" d="M 199.613281 93.078125 L 199.613281 34.53125 L 191 34.53125 L 191 101.550781 L 199.613281 101.550781 Z M 199.613281 93.078125 " fill-opacity="1" fill-rule="nonzero"/><g clip-path="url(#3c4784e050)"><path fill="#ff3131" d="M 341.425781 18.0625 L 108.070312 18.0625 L 108.070312 26.574219 L 99.546875 26.574219 L 99.546875 34.664062 L 116.046875 34.664062 L 116.046875 26.324219 L 349.78125 26.324219 L 349.78125 18.0625 Z M 341.425781 18.0625 " fill-opacity="1" fill-rule="nonzero"/></g><path fill="#ff3131" d="M 349.867188 26.574219 L 349.867188 26.324219 L 349.78125 26.324219 L 349.78125 34.664062 L 358.121094 34.664062 L 358.121094 26.574219 Z M 349.867188 26.574219 " fill-opacity="1" fill-rule="nonzero"/><g clip-path="url(#ab8f4ce650)"><path fill="#3d3b52" d="M 367.09375 33.941406 L 367.09375 26.277344 L 358.574219 26.277344 L 358.574219 17.757812 L 350.050781 17.757812 L 350.050781 9.261719 L 106.910156 9.261719 L 106.910156 17.78125 L 99.253906 17.78125 L 99.253906 26.304688 L 90.730469 26.304688 L 90.730469 33.941406 L 82.226562 33.941406 L 82.226562 110.285156 L 90.75 110.285156 L 90.75 118.804688 L 99.273438 118.804688 L 99.273438 126.460938 L 106.910156 126.460938 L 106.910156 134.984375 L 350.070312 134.984375 L 350.070312 126.460938 L 358.59375 126.460938 L 358.59375 118.792969 L 367.113281 118.792969 L 367.113281 110.269531 L 374.726562 110.269531 L 374.726562 33.941406 Z M 365.644531 42.75 L 365.644531 109.6875 L 357.988281 109.6875 L 357.988281 117.355469 L 349.46875 117.355469 L 349.46875 125.878906 L 108.351562 125.878906 L 108.351562 117.355469 L 99.828125 117.355469 L 99.828125 109.6875 L 91.308594 109.6875 L 91.308594 35.382812 L 99.828125 35.382812 L 99.828125 26.863281 L 108.351562 26.863281 L 108.351562 18.339844 L 349.480469 18.339844 L 349.480469 26.863281 L 358.003906 26.863281 L 358.003906 35.382812 L 365.660156 35.382812 Z M 365.644531 42.75 " fill-opacity="1" fill-rule="nonzero"/></g><path stroke-linecap="butt" transform="matrix(0.75, 0, 0, 0.75, 36.096058, 41.005298)" fill="none" stroke-linejoin="miter" d="M 0.00213081 41.498147 L 416.371947 41.498147 " stroke="#ff8282" stroke-width="83" stroke-opacity="1" stroke-miterlimit="4"/><path stroke-linecap="butt" transform="matrix(0.75, 0, 0, 0.75, 37.3367, 32.320818)" fill="none" stroke-linejoin="miter" d="M -0.00101686 41.499329 L 395.415673 41.499329 " stroke="#ff8282" stroke-width="83" stroke-opacity="1" stroke-miterlimit="4"/><g fill="#ff3131" fill-opacity="1"><g transform="translate(24.731984, 94.947429)"><g><path d="M 39.359375 -17.492188 L 30.613281 -17.492188 L 30.613281 -8.746094 L 39.359375 -8.746094 Z M 4.375 -17.492188 L 13.121094 -17.492188 L 13.121094 -43.734375 L 4.375 -43.734375 Z M 13.121094 -8.746094 L 21.867188 -8.746094 L 21.867188 -17.492188 L 13.121094 -17.492188 Z M 21.867188 0 L 30.613281 0 L 30.613281 -8.746094 L 21.867188 -8.746094 Z M 39.359375 -17.492188 L 48.105469 -17.492188 L 48.105469 -43.734375 L 39.359375 -43.734375 Z M 39.359375 -17.492188 "/></g></g></g><g fill="#ff3131" fill-opacity="1"><g transform="translate(77.208955, 94.947429)"><g><path d="M 39.359375 -8.746094 L 13.121094 -8.746094 L 13.121094 0 L 39.359375 0 Z M 4.375 -8.746094 L 13.121094 -8.746094 L 13.121094 -34.984375 L 4.375 -34.984375 Z M 13.121094 -34.984375 L 39.359375 -34.984375 L 39.359375 -43.734375 L 13.121094 -43.734375 Z M 39.359375 -8.746094 L 48.105469 -8.746094 L 48.105469 -34.984375 L 39.359375 -34.984375 Z M 39.359375 -8.746094 "/></g></g></g><g fill="#ff3131" fill-opacity="1"><g transform="translate(129.685926, 94.947429)"><g><path d="M 13.121094 0 L 48.105469 0 L 48.105469 -8.746094 L 13.121094 -8.746094 Z M 4.375 -8.746094 L 13.121094 -8.746094 L 13.121094 -43.734375 L 4.375 -43.734375 Z M 4.375 -8.746094 "/></g></g></g><g fill="#ff3131" fill-opacity="1"><g transform="translate(182.162898, 94.947429)"><g><path d="M 21.867188 0 L 30.613281 0 L 30.613281 -34.984375 L 48.105469 -34.984375 L 48.105469 -43.734375 L 4.375 -43.734375 L 4.375 -34.984375 L 21.867188 -34.984375 Z M 21.867188 0 "/></g></g></g><g fill="#ff3131" fill-opacity="1"><g transform="translate(234.639869, 94.947429)"><g><path d="M 4.375 0 L 13.121094 0 L 13.121094 -8.746094 L 39.359375 -8.746094 L 39.359375 0 L 48.105469 0 L 48.105469 -34.984375 L 39.359375 -34.984375 L 39.359375 -17.492188 L 13.121094 -17.492188 L 13.121094 -34.984375 L 4.375 -34.984375 Z M 13.121094 -34.984375 L 39.359375 -34.984375 L 39.359375 -43.734375 L 13.121094 -43.734375 Z M 13.121094 -34.984375 "/></g></g></g><g fill="#ff3131" fill-opacity="1"><g transform="translate(287.11684, 94.947429)"><g><path d="M 4.375 0 L 13.121094 0 L 13.121094 -8.746094 L 39.359375 -8.746094 L 39.359375 -17.492188 L 13.121094 -17.492188 L 13.121094 -34.984375 L 39.359375 -34.984375 L 39.359375 -43.734375 L 4.375 -43.734375 Z M 39.359375 0 L 48.105469 0 L 48.105469 -8.746094 L 39.359375 -8.746094 Z M 39.359375 -17.492188 L 48.105469 -17.492188 L 48.105469 -34.984375 L 39.359375 -34.984375 Z M 39.359375 -17.492188 "/></g></g></g><g fill="#ffffff" fill-opacity="1"><g transform="translate(30.066981, 93.095438)"><g><path d="M 39.359375 -17.492188 L 30.613281 -17.492188 L 30.613281 -8.746094 L 39.359375 -8.746094 Z M 4.375 -17.492188 L 13.121094 -17.492188 L 13.121094 -43.730469 L 4.375 -43.730469 Z M 13.121094 -8.746094 L 21.867188 -8.746094 L 21.867188 -17.492188 L 13.121094 -17.492188 Z M 21.867188 0 L 30.613281 0 L 30.613281 -8.746094 L 21.867188 -8.746094 Z M 39.359375 -17.492188 L 48.105469 -17.492188 L 48.105469 -43.730469 L 39.359375 -43.730469 Z M 39.359375 -17.492188 "/></g></g></g><g fill="#ffffff" fill-opacity="1"><g transform="translate(82.543934, 93.095438)"><g><path d="M 39.359375 -8.746094 L 13.121094 -8.746094 L 13.121094 0 L 39.359375 0 Z M 4.375 -8.746094 L 13.121094 -8.746094 L 13.121094 -34.984375 L 4.375 -34.984375 Z M 13.121094 -34.984375 L 39.359375 -34.984375 L 39.359375 -43.730469 L 13.121094 -43.730469 Z M 39.359375 -8.746094 L 48.105469 -8.746094 L 48.105469 -34.984375 L 39.359375 -34.984375 Z M 39.359375 -8.746094 "/></g></g></g><g fill="#ffffff" fill-opacity="1"><g transform="translate(135.020888, 93.095438)"><g><path d="M 13.121094 0 L 48.105469 0 L 48.105469 -8.746094 L 13.121094 -8.746094 Z M 4.375 -8.746094 L 13.121094 -8.746094 L 13.121094 -43.730469 L 4.375 -43.730469 Z M 4.375 -8.746094 "/></g></g></g><g fill="#ffffff" fill-opacity="1"><g transform="translate(187.497841, 93.095438)"><g><path d="M 21.867188 0 L 30.613281 0 L 30.613281 -34.984375 L 48.105469 -34.984375 L 48.105469 -43.730469 L 4.375 -43.730469 L 4.375 -34.984375 L 21.867188 -34.984375 Z M 21.867188 0 "/></g></g></g><g fill="#ffffff" fill-opacity="1"><g transform="translate(239.974794, 93.095438)"><g><path d="M 4.375 0 L 13.121094 0 L 13.121094 -8.746094 L 39.359375 -8.746094 L 39.359375 0 L 48.105469 0 L 48.105469 -34.984375 L 39.359375 -34.984375 L 39.359375 -17.492188 L 13.121094 -17.492188 L 13.121094 -34.984375 L 4.375 -34.984375 Z M 13.121094 -34.984375 L 39.359375 -34.984375 L 39.359375 -43.730469 L 13.121094 -43.730469 Z M 13.121094 -34.984375 "/></g></g></g><g fill="#ffffff" fill-opacity="1"><g transform="translate(292.451747, 93.095438)"><g><path d="M 4.375 0 L 13.121094 0 L 13.121094 -8.746094 L 39.359375 -8.746094 L 39.359375 -17.492188 L 13.121094 -17.492188 L 13.121094 -34.984375 L 39.359375 -34.984375 L 39.359375 -43.730469 L 4.375 -43.730469 Z M 39.359375 0 L 48.105469 0 L 48.105469 -8.746094 L 39.359375 -8.746094 Z M 39.359375 -17.492188 L 48.105469 -17.492188 L 48.105469 -34.984375 L 39.359375 -34.984375 Z M 39.359375 -17.492188 "/></g></g></g></svg>